MFile 1 2 480
MTrk
0 Tempo 500000
0 KeySig 1 major
0 TimeSig 4/4 48 8
0 Meta SeqName "Cuillin Reel"
108501 Meta TrkEnd
TrkEnd
MTrk
0 Meta TrkName "Cuillin Reel"
0 Meta Text " Nottingham Music Database"
0 Meta Text "S:Mick Peat"
0 On ch=1 n=67 v=80
479 Off ch=1 n=67 v=80
479 On ch=1 n=69 v=95
958 Off ch=1 n=69 v=95
958 On ch=1 n=67 v=80
1437 Off ch=1 n=67 v=80
1437 On ch=1 n=69 v=95
1916 Off ch=1 n=69 v=95
1916 On ch=1 n=67 v=80
2395 Off ch=1 n=67 v=80
2395 On ch=1 n=69 v=95
2874 Off ch=1 n=69 v=95
2874 On ch=1 n=67 v=80
3353 Off ch=1 n=67 v=80
3353 On ch=1 n=69 v=95
3832 Off ch=1 n=69 v=95
3832 On ch=1 n=67 v=80
4311 Off ch=1 n=67 v=80
4311 On ch=1 n=68 v=80
4790 Off ch=1 n=68 v=80
4790 On ch=1 n=69 v=105
5749 Off ch=1 n=69 v=105
5749 On ch=1 n=67 v=95
5796 Off ch=1 n=67 v=95
5796 On ch=1 n=72 v=80
6035 Off ch=1 n=72 v=80
6035 On ch=1 n=72 v=95
6274 Off ch=1 n=72 v=95
6274 On ch=1 n=76 v=80
6513 Off ch=1 n=76 v=80
6513 On ch=1 n=74 v=80
6752 Off ch=1 n=74 v=80
6752 On ch=1 n=76 v=105
7471 Off ch=1 n=76 v=105
7471 On ch=1 n=74 v=95
7950 Off ch=1 n=74 v=95
7950 On ch=1 n=69 v=80
8669 Off ch=1 n=69 v=80
8669 On ch=1 n=71 v=80
8908 Off ch=1 n=71 v=80
8908 On ch=1 n=72 v=105
9387 Off ch=1 n=72 v=105
9387 On ch=1 n=71 v=95
9866 Off ch=1 n=71 v=95
9866 On ch=1 n=23 v=80
10105 Off ch=1 n=23 v=80
10105 On ch=1 n=74 v=95
10584 Off ch=1 n=74 v=95
10584 On ch=1 n=76 v=80
10823 Off ch=1 n=76 v=80
10823 On ch=1 n=74 v=80
11062 Off ch=1 n=74 v=80
11062 On ch=1 n=76 v=105
11541 Off ch=1 n=76 v=105
11541 On ch=1 n=74 v=80
12020 Off ch=1 n=74 v=80
12020 On ch=1 n=71 v=105
12979 Off ch=1 n=71 v=105
12979 On ch=1 n=72 v=80
13458 Off ch=1 n=72 v=80
13458 On ch=1 n=69 v=95
13937 Off ch=1 n=69 v=95
13937 On ch=1 n=67 v=80
14416 Off ch=1 n=67 v=80
14416 On ch=1 n=68 v=80
14895 Off ch=1 n=68 v=80
14895 On ch=1 n=69 v=105
15854 Off ch=1 n=69 v=105
15854 On ch=1 n=67 v=80
16333 Off ch=1 n=67 v=80
16333 On ch=1 n=68 v=80
16812 Off ch=1 n=68 v=80
16812 On ch=1 n=69 v=105
17771 Off ch=1 n=69 v=105
17771 On ch=1 n=67 v=80
18250 Off ch=1 n=67 v=80
18250 On ch=1 n=68 v=80
18729 Off ch=1 n=68 v=80
18729 On ch=1 n=69 v=105
19688 Off ch=1 n=69 v=105
19688 On ch=1 n=67 v=80
20167 Off ch=1 n=67 v=80
20167 On ch=1 n=68 v=80
20646 Off ch=1 n=68 v=80
20646 On ch=1 n=69 v=105
21605 Off ch=1 n=69 v=105
21605 On ch=1 n=67 v=80
22084 Off ch=1 n=67 v=80
22084 On ch=1 n=72 v=105
22563 Off ch=1 n=72 v=105
22563 On ch=1 n=71 v=95
23042 Off ch=1 n=71 v=95
23042 On ch=1 n=72 v=80
23281 Off ch=1 n=72 v=80
23281 On ch=1 n=71 v=80
23520 Off ch=1 n=71 v=80
23520 On ch=1 n=72 v=105
24239 Off ch=1 n=72 v=105
24239 On ch=1 n=69 v=80
24718 Off ch=1 n=69 v=80
24718 On ch=1 n=67 v=95
24957 Off ch=1 n=67 v=95
24957 On ch=1 n=69 v=80
25004 Off ch=1 n=69 v=80
25004 On ch=1 n=67 v=80
25243 Off ch=1 n=67 v=80
25243 On ch=1 n=69 v=95
25722 Off ch=1 n=69 v=95
25722 On ch=1 n=67 v=105
27641 Off ch=1 n=67 v=105
27641 On ch=1 n=65 v=105
28120 Off ch=1 n=65 v=105
28120 On ch=1 n=70 v=80
28599 Off ch=1 n=70 v=80
28599 On ch=1 n=69 v=95
29078 Off ch=1 n=69 v=95
29078 On ch=1 n=67 v=80
29557 Off ch=1 n=67 v=80
29557 On ch=1 n=68 v=80
30036 Off ch=1 n=68 v=80
30036 On ch=1 n=69 v=105
30995 Off ch=1 n=69 v=105
30995 On ch=1 n=67 v=80
31474 Off ch=1 n=67 v=80
31474 On ch=1 n=68 v=80
31953 Off ch=1 n=68 v=80
31953 On ch=1 n=69 v=105
32912 Off ch=1 n=69 v=105
32912 On ch=1 n=67 v=80
33391 Off ch=1 n=67 v=80
33391 On ch=1 n=68 v=80
33870 Off ch=1 n=68 v=80
33870 On ch=1 n=69 v=105
34829 Off ch=1 n=69 v=105
34829 On ch=1 n=67 v=80
35308 Off ch=1 n=67 v=80
35308 On ch=1 n=68 v=80
35787 Off ch=1 n=68 v=80
35787 On ch=1 n=69 v=105
36746 Off ch=1 n=69 v=105
36746 On ch=1 n=67 v=80
37225 Off ch=1 n=67 v=80
37225 On ch=1 n=68 v=85
37704 Off ch=1 n=68 v=85
37704 On ch=1 n=69 v=105
37943 Off ch=1 n=69 v=105
37943 On ch=1 n=71 v=80
38182 Off ch=1 n=71 v=80
38182 On ch=1 n=71 v=105
39141 Off ch=1 n=71 v=105
39141 On ch=1 n=72 v=80
39620 Off ch=1 n=72 v=80
39620 On ch=1 n=67 v=95
40099 Off ch=1 n=67 v=95
40099 On ch=1 n=69 v=80
40578 Off ch=1 n=69 v=80
40578 On ch=1 n=67 v=80
41057 Off ch=1 n=67 v=80
41057 On ch=1 n=68 v=80
41536 Off ch=1 n=68 v=80
41536 On ch=1 n=71 v=80
41775 Off ch=1 n=71 v=80
41775 On ch=1 n=72 v=105
42254 Off ch=1 n=72 v=105
42254 On ch=1 n=74 v=80
42493 Off ch=1 n=74 v=80
42493 On ch=1 n=76 v=95
42972 Off ch=1 n=76 v=95
42972 On ch=1 n=74 v=80
43211 Off ch=1 n=74 v=80
43211 On ch=1 n=76 v=80
43690 Off ch=1 n=76 v=80
43690 On ch=1 n=74 v=105
44169 Off ch=1 n=74 v=105
44169 On ch=1 n=69 v=80
44648 Off ch=1 n=69 v=80
44648 On ch=1 n=69 v=95
45127 Off ch=1 n=69 v=95
45127 On ch=1 n=67 v=80
45606 Off ch=1 n=67 v=80
45606 On ch=1 n=72 v=80
46085 Off ch=1 n=72 v=80
46085 On ch=1 n=71 v=95
46564 Off ch=1 n=71 v=95
46564 On ch=1 n=72 v=80
46803 Off ch=1 n=72 v=80
46803 On ch=1 n=71 v=80
47042 Off ch=1 n=71 v=80
47042 On ch=1 n=69 v=105
48001 Off ch=1 n=69 v=105
48001 On ch=1 n=67 v=80
48480 Off ch=1 n=67 v=80
48480 On ch=1 n=68 v=80
48959 Off ch=1 n=68 v=80
48959 On ch=1 n=71 v=80
49198 Off ch=1 n=71 v=80
49198 On ch=1 n=72 v=105
49677 Off ch=1 n=72 v=105
49677 On ch=1 n=74 v=80
49916 Off ch=1 n=74 v=80
49916 On ch=1 n=76 v=95
50395 Off ch=1 n=76 v=95
50395 On ch=1 n=74 v=80
50634 Off ch=1 n=74 v=80
50634 On ch=1 n=76 v=80
51113 Off ch=1 n=76 v=80
51113 On ch=1 n=74 v=105
51592 Off ch=1 n=74 v=105
51592 On ch=1 n=69 v=80
52071 Off ch=1 n=69 v=80
52071 On ch=1 n=69 v=95
52550 Off ch=1 n=69 v=95
52550 On ch=1 n=67 v=80
53029 Off ch=1 n=67 v=80
53029 On ch=1 n=72 v=80
53508 Off ch=1 n=72 v=80
53508 On ch=1 n=71 v=95
53987 Off ch=1 n=71 v=95
53987 On ch=1 n=72 v=80
54226 Off ch=1 n=72 v=80
54226 On ch=1 n=71 v=80
54465 Off ch=1 n=71 v=80
54465 On ch=1 n=69 v=105
55424 Off ch=1 n=69 v=105
55424 On ch=1 n=67 v=80
55903 Off ch=1 n=67 v=80
55903 On ch=1 n=68 v=80
56382 Off ch=1 n=68 v=80
56382 On ch=1 n=69 v=105
56621 Off ch=1 n=69 v=105
56621 On ch=1 n=69 v=80
56860 Off ch=1 n=69 v=80
56860 On ch=1 n=67 v=95
57339 Off ch=1 n=67 v=95
57339 On ch=1 n=69 v=80
57818 Off ch=1 n=69 v=80
57818 On ch=1 n=67 v=80
58297 Off ch=1 n=67 v=80
58297 On ch=1 n=68 v=80
58776 Off ch=1 n=68 v=80
58776 On ch=1 n=71 v=80
59015 Off ch=1 n=71 v=80
59015 On ch=1 n=72 v=105
59494 Off ch=1 n=72 v=105
59494 On ch=1 n=74 v=80
59733 Off ch=1 n=74 v=80
59733 On ch=1 n=74 v=80
59972 Off ch=1 n=74 v=80
59972 On ch=1 n=76 v=95
60451 Off ch=1 n=76 v=95
60451 On ch=1 n=74 v=80
60610 Off ch=1 n=74 v=80
60610 On ch=1 n=76 v=80
61089 Off ch=1 n=76 v=80
61089 On ch=1 n=74 v=105
61568 Off ch=1 n=74 v=105
61568 On ch=1 n=69 v=80
62047 Off ch=1 n=69 v=80
62047 On ch=1 n=69 v=95
62526 Off ch=1 n=69 v=95
62526 On ch=1 n=67 v=80
63005 Off ch=1 n=67 v=80
63005 On ch=1 n=72 v=80
63484 Off ch=1 n=72 v=80
63484 On ch=1 n=71 v=95
63963 Off ch=1 n=71 v=95
63963 On ch=1 n=72 v=80
64202 Off ch=1 n=72 v=80
64202 On ch=1 n=71 v=80
64441 Off ch=1 n=71 v=80
64441 On ch=1 n=69 v=105
65400 Off ch=1 n=69 v=105
65400 On ch=1 n=66 v=95
65879 Off ch=1 n=66 v=95
65879 On ch=1 n=67 v=80
66358 Off ch=1 n=67 v=80
66358 On ch=1 n=69 v=95
66837 Off ch=1 n=69 v=95
66837 On ch=1 n=67 v=80
67316 Off ch=1 n=67 v=80
67316 On ch=1 n=69 v=95
67795 Off ch=1 n=69 v=95
67795 On ch=1 n=67 v=80
68274 Off ch=1 n=67 v=80
68274 On ch=1 n=69 v=95
68753 Off ch=1 n=69 v=95
68753 On ch=1 n=67 v=80
69232 Off ch=1 n=67 v=80
69232 On ch=1 n=69 v=95
69711 Off ch=1 n=69 v=95
69711 On ch=1 n=67 v=80
70190 Off ch=1 n=67 v=80
70190 On ch=1 n=69 v=95
70669 Off ch=1 n=69 v=95
70669 On ch=1 n=67 v=80
71148 Off ch=1 n=67 v=80
71148 On ch=1 n=72 v=95
71627 Off ch=1 n=72 v=95
71627 On ch=1 n=71 v=80
72106 Off ch=1 n=71 v=80
72106 On ch=1 n=69 v=105
73065 Off ch=1 n=69 v=105
73065 On ch=1 n=67 v=95
73544 Off ch=1 n=67 v=95
73544 On ch=1 n=69 v=80
74023 Off ch=1 n=69 v=80
74023 On ch=1 n=76 v=80
74262 Off ch=1 n=76 v=80
74262 On ch=1 n=74 v=80
74501 Off ch=1 n=74 v=80
74501 On ch=1 n=76 v=105
74980 Off ch=1 n=76 v=105
74980 On ch=1 n=74 v=80
75459 Off ch=1 n=74 v=80
75459 On ch=1 n=71 v=105
76418 Off ch=1 n=71 v=105
76418 On ch=1 n=72 v=80
76897 Off ch=1 n=72 v=80
76897 On ch=1 n=69 v=95
77376 Off ch=1 n=69 v=95
77376 On ch=1 n=72 v=80
77855 Off ch=1 n=72 v=80
77855 On ch=1 n=71 v=95
78334 Off ch=1 n=71 v=95
78334 On ch=1 n=69 v=80
78573 Off ch=1 n=69 v=80
78573 On ch=1 n=74 v=105
79292 Off ch=1 n=74 v=105
79292 On ch=1 n=76 v=80
79531 Off ch=1 n=76 v=80
79531 On ch=1 n=74 v=95
80010 Off ch=1 n=74 v=95
80010 On ch=1 n=72 v=80
80489 Off ch=1 n=72 v=80
80489 On ch=1 n=71 v=105
80968 Off ch=1 n=71 v=105
80968 On ch=1 n=69 v=80
81447 Off ch=1 n=69 v=80
81447 On ch=1 n=67 v=105
82166 Off ch=1 n=67 v=105
82166 On ch=1 n=69 v=80
82405 Off ch=1 n=69 v=80
82405 On ch=1 n=67 v=95
82884 Off ch=1 n=67 v=95
82884 On ch=1 n=69 v=80
83363 Off ch=1 n=69 v=80
83363 On ch=1 n=72 v=105
84082 Off ch=1 n=72 v=105
84082 On ch=1 n=71 v=80
84321 Off ch=1 n=71 v=80
84321 On ch=1 n=69 v=80
84560 Off ch=1 n=69 v=80
84560 On ch=1 n=71 v=80
84799 Off ch=1 n=71 v=80
84799 On ch=1 n=72 v=105
85278 Off ch=1 n=72 v=105
85278 On ch=1 n=71 v=80
85517 Off ch=1 n=71 v=80
85517 On ch=1 n=67 v=95
85996 Off ch=1 n=67 v=95
85996 On ch=1 n=71 v=80
86475 Off ch=1 n=71 v=80
86475 On ch=1 n=72 v=105
86954 Off ch=1 n=72 v=105
86954 On ch=1 n=69 v=80
87433 Off ch=1 n=69 v=80
87433 On ch=1 n=71 v=105
88152 Off ch=1 n=71 v=105
88152 On ch=1 n=73 v=80
88391 Off ch=1 n=73 v=80
88391 On ch=1 n=74 v=95
88870 Off ch=1 n=74 v=95
88870 On ch=1 n=76 v=80
89349 Off ch=1 n=76 v=80
89349 On ch=1 n=74 v=105
89828 Off ch=1 n=74 v=105
89828 On ch=1 n=69 v=80
90307 Off ch=1 n=69 v=80
90307 On ch=1 n=67 v=95
90786 Off ch=1 n=67 v=95
90786 On ch=1 n=71 v=105
91505 Off ch=1 n=71 v=105
91505 On ch=1 n=73 v=80
91744 Off ch=1 n=73 v=80
91744 On ch=1 n=74 v=95
92223 Off ch=1 n=74 v=95
92223 On ch=1 n=76 v=80
92702 Off ch=1 n=76 v=80
92702 On ch=1 n=74 v=105
93181 Off ch=1 n=74 v=105
93181 On ch=1 n=69 v=80
93660 Off ch=1 n=69 v=80
93660 On ch=1 n=71 v=80
93899 Off ch=1 n=71 v=80
93899 On ch=1 n=72 v=95
94138 Off ch=1 n=72 v=95
94138 On ch=1 n=71 v=85
94377 Off ch=1 n=71 v=85
94377 On ch=1 n=72 v=80
94856 Off ch=1 n=72 v=80
94856 On ch=1 n=69 v=95
95335 Off ch=1 n=69 v=95
95335 On ch=1 n=71 v=80
95814 Off ch=1 n=71 v=80
95814 On ch=1 n=65 v=105
96293 Off ch=1 n=65 v=105
96293 On ch=1 n=71 v=80
96772 Off ch=1 n=71 v=80
96772 On ch=1 n=69 v=105
97731 Off ch=1 n=69 v=105
97731 On ch=1 n=67 v=80
98210 Off ch=1 n=67 v=80
98210 On ch=1 n=68 v=95
98689 Off ch=1 n=68 v=95
98689 On ch=1 n=71 v=80
98928 Off ch=1 n=71 v=80
98928 On ch=1 n=73 v=80
99167 Off ch=1 n=73 v=80
99167 On ch=1 n=74 v=105
100126 Off ch=1 n=74 v=105
100126 On ch=1 n=69 v=80
100605 Off ch=1 n=69 v=80
100605 On ch=1 n=66 v=95
101084 Off ch=1 n=66 v=95
101084 On ch=1 n=67 v=80
101563 Off ch=1 n=67 v=80
101563 On ch=1 n=69 v=95
102042 Off ch=1 n=69 v=95
102042 On ch=1 n=67 v=80
102521 Off ch=1 n=67 v=80
102521 On ch=1 n=69 v=80
102760 Off ch=1 n=69 v=80
102760 On ch=1 n=72 v=80
103239 Off ch=1 n=72 v=80
103239 On ch=1 n=69 v=80
103478 Off ch=1 n=69 v=80
103478 On ch=1 n=70 v=95
103717 Off ch=1 n=70 v=95
103717 On ch=1 n=70 v=80
103956 Off ch=1 n=70 v=80
103956 On ch=1 n=70 v=95
104195 Off ch=1 n=70 v=95
104195 On ch=1 n=69 v=80
104434 Off ch=1 n=69 v=80
104434 On ch=1 n=74 v=95
104673 Off ch=1 n=74 v=95
104673 On ch=1 n=72 v=80
104912 Off ch=1 n=72 v=80
104912 On ch=1 n=71 v=80
105151 Off ch=1 n=71 v=80
105151 On ch=1 n=74 v=105
105630 Off ch=1 n=74 v=105
105630 On ch=1 n=74 v=80
106109 Off ch=1 n=74 v=80
106109 On ch=1 n=69 v=95
106588 Off ch=1 n=69 v=95
106588 On ch=1 n=67 v=80
107067 Off ch=1 n=67 v=80
107067 On ch=1 n=69 v=80
107306 Off ch=1 n=69 v=80
107306 On ch=1 n=67 v=95
107545 Off ch=1 n=67 v=95
107545 On ch=1 n=69 v=80
107784 Off ch=1 n=69 v=80
107784 On ch=1 n=70 v=80
108023 Off ch=1 n=70 v=80
108023 On ch=1 n=70 v=95
108262 Off ch=1 n=70 v=95
108262 On ch=1 n=69 v=80
108501 Off ch=1 n=69 v=80
108501 Meta TrkEnd
TrkEnd
