MFile 1 5 480
MTrk
0 Tempo 500000
0 KeySig 1 major
0 TimeSig 4/4 48 8
0 Meta SeqName "Cuillin Reel"
108501 Meta TrkEnd
TrkEnd
MTrk
0 Meta TrkName "Cuillin Reel"
0 Meta Text " Nottingham Music Database"
0 Meta Text "S:Mick Peat"
0 On ch=1 n=67 v=80
479 Off ch=1 n=67 v=80
479 On ch=1 n=69 v=95
958 Off ch=1 n=69 v=95
958 On ch=1 n=67 v=80
1437 Off ch=1 n=67 v=80
1437 On ch=1 n=69 v=95
1916 Off ch=1 n=69 v=95
1916 On ch=1 n=67 v=80
2395 Off ch=1 n=67 v=80
2395 On ch=1 n=69 v=95
2874 Off ch=1 n=69 v=95
2874 On ch=1 n=67 v=80
3353 Off ch=1 n=67 v=80
3353 On ch=1 n=69 v=95
3832 Off ch=1 n=69 v=95
3832 On ch=1 n=67 v=80
4311 Off ch=1 n=67 v=80
4311 On ch=1 n=68 v=80
4790 Off ch=1 n=68 v=80
4790 On ch=1 n=69 v=105
5749 Off ch=1 n=69 v=105
5749 On ch=1 n=67 v=95
5796 Off ch=1 n=67 v=95
5796 On ch=1 n=72 v=80
6035 Off ch=1 n=72 v=80
6035 On ch=1 n=72 v=95
6274 Off ch=1 n=72 v=95
6274 On ch=1 n=76 v=80
6513 Off ch=1 n=76 v=80
6513 On ch=1 n=74 v=80
6752 Off ch=1 n=74 v=80
6752 On ch=1 n=76 v=105
7471 Off ch=1 n=76 v=105
7471 On ch=1 n=74 v=95
7950 Off ch=1 n=74 v=95
7950 On ch=1 n=69 v=80
8669 Off ch=1 n=69 v=80
8669 On ch=1 n=71 v=80
8908 Off ch=1 n=71 v=80
8908 On ch=1 n=72 v=105
9387 Off ch=1 n=72 v=105
9387 On ch=1 n=71 v=95
9866 Off ch=1 n=71 v=95
9866 On ch=1 n=23 v=80
10105 Off ch=1 n=23 v=80
10105 On ch=1 n=74 v=95
10584 Off ch=1 n=74 v=95
10584 On ch=1 n=76 v=80
10823 Off ch=1 n=76 v=80
10823 On ch=1 n=74 v=80
11062 Off ch=1 n=74 v=80
11062 On ch=1 n=76 v=105
11541 Off ch=1 n=76 v=105
11541 On ch=1 n=74 v=80
12020 Off ch=1 n=74 v=80
12020 On ch=1 n=71 v=105
12979 Off ch=1 n=71 v=105
12979 On ch=1 n=72 v=80
13458 Off ch=1 n=72 v=80
13458 On ch=1 n=69 v=95
13937 Off ch=1 n=69 v=95
13937 On ch=1 n=67 v=80
14416 Off ch=1 n=67 v=80
14416 On ch=1 n=68 v=80
14895 Off ch=1 n=68 v=80
14895 On ch=1 n=69 v=105
15854 Off ch=1 n=69 v=105
15854 On ch=1 n=67 v=80
16333 Off ch=1 n=67 v=80
16333 On ch=1 n=68 v=80
16812 Off ch=1 n=68 v=80
16812 On ch=1 n=69 v=105
17771 Off ch=1 n=69 v=105
17771 On ch=1 n=67 v=80
18250 Off ch=1 n=67 v=80
18250 On ch=1 n=68 v=80
18729 Off ch=1 n=68 v=80
18729 On ch=1 n=69 v=105
19688 Off ch=1 n=69 v=105
19688 On ch=1 n=67 v=80
20167 Off ch=1 n=67 v=80
20167 On ch=1 n=68 v=80
20646 Off ch=1 n=68 v=80
20646 On ch=1 n=69 v=105
21605 Off ch=1 n=69 v=105
21605 On ch=1 n=67 v=80
22084 Off ch=1 n=67 v=80
22084 On ch=1 n=72 v=105
22563 Off ch=1 n=72 v=105
22563 On ch=1 n=71 v=95
23042 Off ch=1 n=71 v=95
23042 On ch=1 n=72 v=80
23281 Off ch=1 n=72 v=80
23281 On ch=1 n=71 v=80
23520 Off ch=1 n=71 v=80
23520 On ch=1 n=72 v=105
24239 Off ch=1 n=72 v=105
24239 On ch=1 n=69 v=80
24718 Off ch=1 n=69 v=80
24718 On ch=1 n=67 v=95
24957 Off ch=1 n=67 v=95
24957 On ch=1 n=69 v=80
25004 Off ch=1 n=69 v=80
25004 On ch=1 n=67 v=80
25243 Off ch=1 n=67 v=80
25243 On ch=1 n=69 v=95
25722 Off ch=1 n=69 v=95
25722 On ch=1 n=67 v=105
27641 Off ch=1 n=67 v=105
27641 On ch=1 n=65 v=105
28120 Off ch=1 n=65 v=105
28120 On ch=1 n=70 v=80
28599 Off ch=1 n=70 v=80
28599 On ch=1 n=69 v=95
29078 Off ch=1 n=69 v=95
29078 On ch=1 n=67 v=80
29557 Off ch=1 n=67 v=80
29557 On ch=1 n=68 v=80
30036 Off ch=1 n=68 v=80
30036 On ch=1 n=69 v=105
30995 Off ch=1 n=69 v=105
30995 On ch=1 n=67 v=80
31474 Off ch=1 n=67 v=80
31474 On ch=1 n=68 v=80
31953 Off ch=1 n=68 v=80
31953 On ch=1 n=69 v=105
32912 Off ch=1 n=69 v=105
32912 On ch=1 n=67 v=80
33391 Off ch=1 n=67 v=80
33391 On ch=1 n=68 v=80
33870 Off ch=1 n=68 v=80
33870 On ch=1 n=69 v=105
34829 Off ch=1 n=69 v=105
34829 On ch=1 n=67 v=80
35308 Off ch=1 n=67 v=80
35308 On ch=1 n=68 v=80
35787 Off ch=1 n=68 v=80
35787 On ch=1 n=69 v=105
36746 Off ch=1 n=69 v=105
36746 On ch=1 n=67 v=80
37225 Off ch=1 n=67 v=80
37225 On ch=1 n=68 v=85
37704 Off ch=1 n=68 v=85
37704 On ch=1 n=69 v=105
37943 Off ch=1 n=69 v=105
37943 On ch=1 n=71 v=80
38182 Off ch=1 n=71 v=80
38182 On ch=1 n=71 v=105
39141 Off ch=1 n=71 v=105
39141 On ch=1 n=72 v=80
39620 Off ch=1 n=72 v=80
39620 On ch=1 n=67 v=95
40099 Off ch=1 n=67 v=95
40099 On ch=1 n=69 v=80
40578 Off ch=1 n=69 v=80
40578 On ch=1 n=67 v=80
41057 Off ch=1 n=67 v=80
41057 On ch=1 n=68 v=80
41536 Off ch=1 n=68 v=80
41536 On ch=1 n=71 v=80
41775 Off ch=1 n=71 v=80
41775 On ch=1 n=72 v=105
42254 Off ch=1 n=72 v=105
42254 On ch=1 n=74 v=80
42493 Off ch=1 n=74 v=80
42493 On ch=1 n=76 v=95
42972 Off ch=1 n=76 v=95
42972 On ch=1 n=74 v=80
43211 Off ch=1 n=74 v=80
43211 On ch=1 n=76 v=80
43690 Off ch=1 n=76 v=80
43690 On ch=1 n=74 v=105
44169 Off ch=1 n=74 v=105
44169 On ch=1 n=69 v=80
44648 Off ch=1 n=69 v=80
44648 On ch=1 n=69 v=95
45127 Off ch=1 n=69 v=95
45127 On ch=1 n=67 v=80
45606 Off ch=1 n=67 v=80
45606 On ch=1 n=72 v=80
46085 Off ch=1 n=72 v=80
46085 On ch=1 n=71 v=95
46564 Off ch=1 n=71 v=95
46564 On ch=1 n=72 v=80
46803 Off ch=1 n=72 v=80
46803 On ch=1 n=71 v=80
47042 Off ch=1 n=71 v=80
47042 On ch=1 n=69 v=105
48001 Off ch=1 n=69 v=105
48001 On ch=1 n=67 v=80
48480 Off ch=1 n=67 v=80
48480 On ch=1 n=68 v=80
48959 Off ch=1 n=68 v=80
48959 On ch=1 n=71 v=80
49198 Off ch=1 n=71 v=80
49198 On ch=1 n=72 v=105
49677 Off ch=1 n=72 v=105
49677 On ch=1 n=74 v=80
49916 Off ch=1 n=74 v=80
49916 On ch=1 n=76 v=95
50395 Off ch=1 n=76 v=95
50395 On ch=1 n=74 v=80
50634 Off ch=1 n=74 v=80
50634 On ch=1 n=76 v=80
51113 Off ch=1 n=76 v=80
51113 On ch=1 n=74 v=105
51592 Off ch=1 n=74 v=105
51592 On ch=1 n=69 v=80
52071 Off ch=1 n=69 v=80
52071 On ch=1 n=69 v=95
52550 Off ch=1 n=69 v=95
52550 On ch=1 n=67 v=80
53029 Off ch=1 n=67 v=80
53029 On ch=1 n=72 v=80
53508 Off ch=1 n=72 v=80
53508 On ch=1 n=71 v=95
53987 Off ch=1 n=71 v=95
53987 On ch=1 n=72 v=80
54226 Off ch=1 n=72 v=80
54226 On ch=1 n=71 v=80
54465 Off ch=1 n=71 v=80
54465 On ch=1 n=69 v=105
55424 Off ch=1 n=69 v=105
55424 On ch=1 n=67 v=80
55903 Off ch=1 n=67 v=80
55903 On ch=1 n=68 v=80
56382 Off ch=1 n=68 v=80
56382 On ch=1 n=69 v=105
56621 Off ch=1 n=69 v=105
56621 On ch=1 n=69 v=80
56860 Off ch=1 n=69 v=80
56860 On ch=1 n=67 v=95
57339 Off ch=1 n=67 v=95
57339 On ch=1 n=69 v=80
57818 Off ch=1 n=69 v=80
57818 On ch=1 n=67 v=80
58297 Off ch=1 n=67 v=80
58297 On ch=1 n=68 v=80
58776 Off ch=1 n=68 v=80
58776 On ch=1 n=71 v=80
59015 Off ch=1 n=71 v=80
59015 On ch=1 n=72 v=105
59494 Off ch=1 n=72 v=105
59494 On ch=1 n=74 v=80
59733 Off ch=1 n=74 v=80
59733 On ch=1 n=74 v=80
59972 Off ch=1 n=74 v=80
59972 On ch=1 n=76 v=95
60451 Off ch=1 n=76 v=95
60451 On ch=1 n=74 v=80
60610 Off ch=1 n=74 v=80
60610 On ch=1 n=76 v=80
61089 Off ch=1 n=76 v=80
61089 On ch=1 n=74 v=105
61568 Off ch=1 n=74 v=105
61568 On ch=1 n=69 v=80
62047 Off ch=1 n=69 v=80
62047 On ch=1 n=69 v=95
62526 Off ch=1 n=69 v=95
62526 On ch=1 n=67 v=80
63005 Off ch=1 n=67 v=80
63005 On ch=1 n=72 v=80
63484 Off ch=1 n=72 v=80
63484 On ch=1 n=71 v=95
63963 Off ch=1 n=71 v=95
63963 On ch=1 n=72 v=80
64202 Off ch=1 n=72 v=80
64202 On ch=1 n=71 v=80
64441 Off ch=1 n=71 v=80
64441 On ch=1 n=69 v=105
65400 Off ch=1 n=69 v=105
65400 On ch=1 n=66 v=95
65879 Off ch=1 n=66 v=95
65879 On ch=1 n=67 v=80
66358 Off ch=1 n=67 v=80
66358 On ch=1 n=69 v=95
66837 Off ch=1 n=69 v=95
66837 On ch=1 n=67 v=80
67316 Off ch=1 n=67 v=80
67316 On ch=1 n=69 v=95
67795 Off ch=1 n=69 v=95
67795 On ch=1 n=67 v=80
68274 Off ch=1 n=67 v=80
68274 On ch=1 n=69 v=95
68753 Off ch=1 n=69 v=95
68753 On ch=1 n=67 v=80
69232 Off ch=1 n=67 v=80
69232 On ch=1 n=69 v=95
69711 Off ch=1 n=69 v=95
69711 On ch=1 n=67 v=80
70190 Off ch=1 n=67 v=80
70190 On ch=1 n=69 v=95
70669 Off ch=1 n=69 v=95
70669 On ch=1 n=67 v=80
71148 Off ch=1 n=67 v=80
71148 On ch=1 n=72 v=95
71627 Off ch=1 n=72 v=95
71627 On ch=1 n=71 v=80
72106 Off ch=1 n=71 v=80
72106 On ch=1 n=69 v=105
73065 Off ch=1 n=69 v=105
73065 On ch=1 n=67 v=95
73544 Off ch=1 n=67 v=95
73544 On ch=1 n=69 v=80
74023 Off ch=1 n=69 v=80
74023 On ch=1 n=76 v=80
74262 Off ch=1 n=76 v=80
74262 On ch=1 n=74 v=80
74501 Off ch=1 n=74 v=80
74501 On ch=1 n=76 v=105
74980 Off ch=1 n=76 v=105
74980 On ch=1 n=74 v=80
75459 Off ch=1 n=74 v=80
75459 On ch=1 n=71 v=105
76418 Off ch=1 n=71 v=105
76418 On ch=1 n=72 v=80
76897 Off ch=1 n=72 v=80
76897 On ch=1 n=69 v=95
77376 Off ch=1 n=69 v=95
77376 On ch=1 n=72 v=80
77855 Off ch=1 n=72 v=80
77855 On ch=1 n=71 v=95
78334 Off ch=1 n=71 v=95
78334 On ch=1 n=69 v=80
78573 Off ch=1 n=69 v=80
78573 On ch=1 n=74 v=105
79292 Off ch=1 n=74 v=105
79292 On ch=1 n=76 v=80
79531 Off ch=1 n=76 v=80
79531 On ch=1 n=74 v=95
80010 Off ch=1 n=74 v=95
80010 On ch=1 n=72 v=80
80489 Off ch=1 n=72 v=80
80489 On ch=1 n=71 v=105
80968 Off ch=1 n=71 v=105
80968 On ch=1 n=69 v=80
81447 Off ch=1 n=69 v=80
81447 On ch=1 n=67 v=105
82166 Off ch=1 n=67 v=105
82166 On ch=1 n=69 v=80
82405 Off ch=1 n=69 v=80
82405 On ch=1 n=67 v=95
82884 Off ch=1 n=67 v=95
82884 On ch=1 n=69 v=80
83363 Off ch=1 n=69 v=80
83363 On ch=1 n=72 v=105
84082 Off ch=1 n=72 v=105
84082 On ch=1 n=71 v=80
84321 Off ch=1 n=71 v=80
84321 On ch=1 n=69 v=80
84560 Off ch=1 n=69 v=80
84560 On ch=1 n=71 v=80
84799 Off ch=1 n=71 v=80
84799 On ch=1 n=72 v=105
85278 Off ch=1 n=72 v=105
85278 On ch=1 n=71 v=80
85517 Off ch=1 n=71 v=80
85517 On ch=1 n=67 v=95
85996 Off ch=1 n=67 v=95
85996 On ch=1 n=71 v=80
86475 Off ch=1 n=71 v=80
86475 On ch=1 n=72 v=105
86954 Off ch=1 n=72 v=105
86954 On ch=1 n=69 v=80
87433 Off ch=1 n=69 v=80
87433 On ch=1 n=71 v=105
88152 Off ch=1 n=71 v=105
88152 On ch=1 n=73 v=80
88391 Off ch=1 n=73 v=80
88391 On ch=1 n=74 v=95
88870 Off ch=1 n=74 v=95
88870 On ch=1 n=76 v=80
89349 Off ch=1 n=76 v=80
89349 On ch=1 n=74 v=105
89828 Off ch=1 n=74 v=105
89828 On ch=1 n=69 v=80
90307 Off ch=1 n=69 v=80
90307 On ch=1 n=67 v=95
90786 Off ch=1 n=67 v=95
90786 On ch=1 n=71 v=105
91505 Off ch=1 n=71 v=105
91505 On ch=1 n=73 v=80
91744 Off ch=1 n=73 v=80
91744 On ch=1 n=74 v=95
92223 Off ch=1 n=74 v=95
92223 On ch=1 n=76 v=80
92702 Off ch=1 n=76 v=80
92702 On ch=1 n=74 v=105
93181 Off ch=1 n=74 v=105
93181 On ch=1 n=69 v=80
93660 Off ch=1 n=69 v=80
93660 On ch=1 n=71 v=80
93899 Off ch=1 n=71 v=80
93899 On ch=1 n=72 v=95
94138 Off ch=1 n=72 v=95
94138 On ch=1 n=71 v=85
94377 Off ch=1 n=71 v=85
94377 On ch=1 n=72 v=80
94856 Off ch=1 n=72 v=80
94856 On ch=1 n=69 v=95
95335 Off ch=1 n=69 v=95
95335 On ch=1 n=71 v=80
95814 Off ch=1 n=71 v=80
95814 On ch=1 n=65 v=105
96293 Off ch=1 n=65 v=105
96293 On ch=1 n=71 v=80
96772 Off ch=1 n=71 v=80
96772 On ch=1 n=69 v=105
97731 Off ch=1 n=69 v=105
97731 On ch=1 n=67 v=80
98210 Off ch=1 n=67 v=80
98210 On ch=1 n=68 v=95
98689 Off ch=1 n=68 v=95
98689 On ch=1 n=71 v=80
98928 Off ch=1 n=71 v=80
98928 On ch=1 n=73 v=80
99167 Off ch=1 n=73 v=80
99167 On ch=1 n=74 v=105
100126 Off ch=1 n=74 v=105
100126 On ch=1 n=69 v=80
100605 Off ch=1 n=69 v=80
100605 On ch=1 n=66 v=95
101084 Off ch=1 n=66 v=95
101084 On ch=1 n=67 v=80
101563 Off ch=1 n=67 v=80
101563 On ch=1 n=69 v=95
102042 Off ch=1 n=69 v=95
102042 On ch=1 n=67 v=80
102521 Off ch=1 n=67 v=80
102521 On ch=1 n=69 v=80
102760 Off ch=1 n=69 v=80
102760 On ch=1 n=72 v=80
103239 Off ch=1 n=72 v=80
103239 On ch=1 n=69 v=80
103478 Off ch=1 n=69 v=80
103478 On ch=1 n=70 v=95
103717 Off ch=1 n=70 v=95
103717 On ch=1 n=70 v=80
103956 Off ch=1 n=70 v=80
103956 On ch=1 n=70 v=95
104195 Off ch=1 n=70 v=95
104195 On ch=1 n=69 v=80
104434 Off ch=1 n=69 v=80
104434 On ch=1 n=74 v=95
104673 Off ch=1 n=74 v=95
104673 On ch=1 n=72 v=80
104912 Off ch=1 n=72 v=80
104912 On ch=1 n=71 v=80
105151 Off ch=1 n=71 v=80
105151 On ch=1 n=74 v=105
105630 Off ch=1 n=74 v=105
105630 On ch=1 n=74 v=80
106109 Off ch=1 n=74 v=80
106109 On ch=1 n=69 v=95
106588 Off ch=1 n=69 v=95
106588 On ch=1 n=67 v=80
107067 Off ch=1 n=67 v=80
107067 On ch=1 n=69 v=80
107306 Off ch=1 n=69 v=80
107306 On ch=1 n=67 v=95
107545 Off ch=1 n=67 v=95
107545 On ch=1 n=69 v=80
107784 Off ch=1 n=69 v=80
107784 On ch=1 n=70 v=80
108023 Off ch=1 n=70 v=80
108023 On ch=1 n=70 v=95
108262 Off ch=1 n=70 v=95
108262 On ch=1 n=69 v=80
108501 Off ch=1 n=69 v=80
108501 Meta TrkEnd
TrkEnd
MTrk
0 Meta TrkName "Cuillin Reel"
0 Meta Text " Nottingham Music Database"
0 Meta Text "S:Mick Peat"
0 On ch=2 n=38 v=80
239 Off ch=2 n=38 v=80
239 On ch=2 n=36 v=80
478 Off ch=2 n=36 v=80
478 On ch=2 n=45 v=80
717 Off ch=2 n=45 v=80
717 On ch=2 n=38 v=80
956 Off ch=2 n=38 v=80
956 On ch=2 n=36 v=80
1195 Off ch=2 n=36 v=80
1195 On ch=2 n=45 v=80
1434 Off ch=2 n=45 v=80
1434 On ch=2 n=38 v=80
1673 Off ch=2 n=38 v=80
1673 On ch=2 n=38 v=80
1912 Off ch=2 n=38 v=80
1912 On ch=2 n=43 v=80
2151 Off ch=2 n=43 v=80
2151 On ch=2 n=36 v=80
2390 Off ch=2 n=36 v=80
2390 On ch=2 n=43 v=80
2629 Off ch=2 n=43 v=80
2629 On ch=2 n=45 v=80
2868 Off ch=2 n=45 v=80
2868 On ch=2 n=38 v=80
3107 Off ch=2 n=38 v=80
3107 On ch=2 n=43 v=80
3346 Off ch=2 n=43 v=80
3346 On ch=2 n=38 v=80
3585 Off ch=2 n=38 v=80
3585 On ch=2 n=43 v=80
3824 Off ch=2 n=43 v=80
3824 On ch=2 n=45 v=80
4063 Off ch=2 n=45 v=80
4063 On ch=2 n=43 v=80
4302 Off ch=2 n=43 v=80
4302 On ch=2 n=38 v=80
4541 Off ch=2 n=38 v=80
4541 On ch=2 n=36 v=80
4780 Off ch=2 n=36 v=80
4780 On ch=2 n=43 v=80
5019 Off ch=2 n=43 v=80
5019 On ch=2 n=43 v=80
5258 Off ch=2 n=43 v=80
5258 On ch=2 n=38 v=80
5497 Off ch=2 n=38 v=80
5497 On ch=2 n=45 v=80
5736 Off ch=2 n=45 v=80
5736 On ch=2 n=43 v=80
5975 Off ch=2 n=43 v=80
5975 On ch=2 n=43 v=80
6214 Off ch=2 n=43 v=80
6214 On ch=2 n=38 v=80
6453 Off ch=2 n=38 v=80
6453 On ch=2 n=38 v=80
6692 Off ch=2 n=38 v=80
6692 On ch=2 n=43 v=80
6931 Off ch=2 n=43 v=80
6931 On ch=2 n=38 v=80
7170 Off ch=2 n=38 v=80
7170 On ch=2 n=38 v=80
7409 Off ch=2 n=38 v=80
7409 On ch=2 n=43 v=80
7648 Off ch=2 n=43 v=80
7648 On ch=2 n=36 v=80
7887 Off ch=2 n=36 v=80
7887 On ch=2 n=43 v=80
8126 Off ch=2 n=43 v=80
8126 On ch=2 n=45 v=80
8365 Off ch=2 n=45 v=80
8365 On ch=2 n=38 v=80
8604 Off ch=2 n=38 v=80
8604 On ch=2 n=36 v=80
8843 Off ch=2 n=36 v=80
8843 On ch=2 n=45 v=80
9082 Off ch=2 n=45 v=80
9082 On ch=2 n=38 v=80
9321 Off ch=2 n=38 v=80
9321 On ch=2 n=36 v=80
9560 Off ch=2 n=36 v=80
9560 On ch=2 n=36 v=80
9799 Off ch=2 n=36 v=80
9799 On ch=2 n=36 v=80
10038 Off ch=2 n=36 v=80
10038 On ch=2 n=43 v=80
10277 Off ch=2 n=43 v=80
10277 On ch=2 n=43 v=80
10516 Off ch=2 n=43 v=80
10516 On ch=2 n=38 v=80
10755 Off ch=2 n=38 v=80
10755 On ch=2 n=45 v=80
10994 Off ch=2 n=45 v=80
10994 On ch=2 n=38 v=80
11233 Off ch=2 n=38 v=80
11233 On ch=2 n=43 v=80
11472 Off ch=2 n=43 v=80
11472 On ch=2 n=43 v=80
11711 Off ch=2 n=43 v=80
11711 On ch=2 n=36 v=80
11950 Off ch=2 n=36 v=80
11950 On ch=2 n=38 v=80
12189 Off ch=2 n=38 v=80
12189 On ch=2 n=43 v=80
12428 Off ch=2 n=43 v=80
12428 On ch=2 n=45 v=80
12667 Off ch=2 n=45 v=80
12667 On ch=2 n=38 v=80
12906 Off ch=2 n=38 v=80
12906 On ch=2 n=38 v=80
13145 Off ch=2 n=38 v=80
13145 On ch=2 n=36 v=80
13384 Off ch=2 n=36 v=80
13384 On ch=2 n=43 v=80
13623 Off ch=2 n=43 v=80
13623 On ch=2 n=43 v=80
13862 Off ch=2 n=43 v=80
13862 On ch=2 n=38 v=80
14101 Off ch=2 n=38 v=80
14101 On ch=2 n=45 v=80
14340 Off ch=2 n=45 v=80
14340 On ch=2 n=38 v=80
14579 Off ch=2 n=38 v=80
14579 On ch=2 n=43 v=80
14818 Off ch=2 n=43 v=80
14818 On ch=2 n=38 v=80
15057 Off ch=2 n=38 v=80
15057 On ch=2 n=43 v=80
15296 Off ch=2 n=43 v=80
15296 On ch=2 n=45 v=80
15535 Off ch=2 n=45 v=80
15535 On ch=2 n=38 v=80
15774 Off ch=2 n=38 v=80
15774 On ch=2 n=38 v=80
16013 Off ch=2 n=38 v=80
16013 On ch=2 n=45 v=80
16252 Off ch=2 n=45 v=80
16252 On ch=2 n=45 v=80
16491 Off ch=2 n=45 v=80
16491 On ch=2 n=45 v=80
16730 Off ch=2 n=45 v=80
16730 On ch=2 n=38 v=80
16969 Off ch=2 n=38 v=80
16969 On ch=2 n=43 v=80
17208 Off ch=2 n=43 v=80
17208 On ch=2 n=43 v=80
17447 Off ch=2 n=43 v=80
17447 On ch=2 n=43 v=80
17686 Off ch=2 n=43 v=80
17686 On ch=2 n=36 v=80
17925 Off ch=2 n=36 v=80
17925 On ch=2 n=38 v=80
18164 Off ch=2 n=38 v=80
18164 On ch=2 n=43 v=80
18403 Off ch=2 n=43 v=80
18403 On ch=2 n=43 v=80
18642 Off ch=2 n=43 v=80
18642 On ch=2 n=43 v=80
18881 Off ch=2 n=43 v=80
18881 On ch=2 n=36 v=80
19120 Off ch=2 n=36 v=80
19120 On ch=2 n=38 v=80
19359 Off ch=2 n=38 v=80
19359 On ch=2 n=38 v=80
19598 Off ch=2 n=38 v=80
19598 On ch=2 n=38 v=80
19837 Off ch=2 n=38 v=80
19837 On ch=2 n=43 v=80
20076 Off ch=2 n=43 v=80
20076 On ch=2 n=45 v=80
20315 Off ch=2 n=45 v=80
20315 On ch=2 n=45 v=80
20554 Off ch=2 n=45 v=80
20554 On ch=2 n=45 v=80
20793 Off ch=2 n=45 v=80
20793 On ch=2 n=43 v=80
21032 Off ch=2 n=43 v=80
21032 On ch=2 n=38 v=80
21271 Off ch=2 n=38 v=80
21271 On ch=2 n=45 v=80
21510 Off ch=2 n=45 v=80
21510 On ch=2 n=45 v=80
21749 Off ch=2 n=45 v=80
21749 On ch=2 n=38 v=80
21988 Off ch=2 n=38 v=80
21988 On ch=2 n=36 v=80
22227 Off ch=2 n=36 v=80
22227 On ch=2 n=38 v=80
22466 Off ch=2 n=38 v=80
22466 On ch=2 n=38 v=80
22705 Off ch=2 n=38 v=80
22705 On ch=2 n=43 v=80
22944 Off ch=2 n=43 v=80
22944 On ch=2 n=36 v=80
23183 Off ch=2 n=36 v=80
23183 On ch=2 n=45 v=80
23422 Off ch=2 n=45 v=80
23422 On ch=2 n=43 v=80
23661 Off ch=2 n=43 v=80
23661 On ch=2 n=36 v=80
23900 Off ch=2 n=36 v=80
23900 On ch=2 n=43 v=80
24139 Off ch=2 n=43 v=80
24139 On ch=2 n=43 v=80
24378 Off ch=2 n=43 v=80
24378 On ch=2 n=36 v=80
24617 Off ch=2 n=36 v=80
24617 On ch=2 n=38 v=80
24856 Off ch=2 n=38 v=80
24856 On ch=2 n=45 v=80
25095 Off ch=2 n=45 v=80
25095 On ch=2 n=43 v=80
25334 Off ch=2 n=43 v=80
25334 On ch=2 n=45 v=80
25573 Off ch=2 n=45 v=80
25573 On ch=2 n=38 v=80
25812 Off ch=2 n=38 v=80
25812 On ch=2 n=43 v=80
26051 Off ch=2 n=43 v=80
26051 On ch=2 n=36 v=80
26290 Off ch=2 n=36 v=80
26290 On ch=2 n=36 v=80
26529 Off ch=2 n=36 v=80
26529 On ch=2 n=43 v=80
26768 Off ch=2 n=43 v=80
26768 On ch=2 n=43 v=80
27007 Off ch=2 n=43 v=80
27007 On ch=2 n=36 v=80
27246 Off ch=2 n=36 v=80
27246 On ch=2 n=45 v=80
27485 Off ch=2 n=45 v=80
27485 On ch=2 n=38 v=80
27724 Off ch=2 n=38 v=80
27724 On ch=2 n=43 v=80
27963 Off ch=2 n=43 v=80
27963 On ch=2 n=40 v=80
28202 Off ch=2 n=40 v=80
28202 On ch=2 n=43 v=80
28441 Off ch=2 n=43 v=80
28441 On ch=2 n=38 v=80
28680 Off ch=2 n=38 v=80
28680 On ch=2 n=45 v=80
28919 Off ch=2 n=45 v=80
28919 On ch=2 n=38 v=80
29158 Off ch=2 n=38 v=80
29158 On ch=2 n=36 v=80
29397 Off ch=2 n=36 v=80
29397 On ch=2 n=38 v=80
29636 Off ch=2 n=38 v=80
29636 On ch=2 n=45 v=80
29875 Off ch=2 n=45 v=80
29875 On ch=2 n=38 v=80
30114 Off ch=2 n=38 v=80
30114 On ch=2 n=43 v=80
30353 Off ch=2 n=43 v=80
30353 On ch=2 n=38 v=80
30592 Off ch=2 n=38 v=80
30592 On ch=2 n=43 v=80
30831 Off ch=2 n=43 v=80
30831 On ch=2 n=45 v=80
31070 Off ch=2 n=45 v=80
31070 On ch=2 n=38 v=80
31309 Off ch=2 n=38 v=80
31309 On ch=2 n=43 v=80
31548 Off ch=2 n=43 v=80
31548 On ch=2 n=43 v=80
31787 Off ch=2 n=43 v=80
31787 On ch=2 n=36 v=80
32026 Off ch=2 n=36 v=80
32026 On ch=2 n=38 v=80
32265 Off ch=2 n=38 v=80
32265 On ch=2 n=38 v=80
32504 Off ch=2 n=38 v=80
32504 On ch=2 n=43 v=80
32743 Off ch=2 n=43 v=80
32743 On ch=2 n=36 v=80
32982 Off ch=2 n=36 v=80
32982 On ch=2 n=38 v=80
33221 Off ch=2 n=38 v=80
33221 On ch=2 n=38 v=80
33460 Off ch=2 n=38 v=80
33460 On ch=2 n=43 v=80
33699 Off ch=2 n=43 v=80
33699 On ch=2 n=36 v=80
33938 Off ch=2 n=36 v=80
33938 On ch=2 n=36 v=80
34177 Off ch=2 n=36 v=80
34177 On ch=2 n=36 v=80
34416 Off ch=2 n=36 v=80
34416 On ch=2 n=43 v=80
34655 Off ch=2 n=43 v=80
34655 On ch=2 n=43 v=80
34894 Off ch=2 n=43 v=80
34894 On ch=2 n=38 v=80
35133 Off ch=2 n=38 v=80
35133 On ch=2 n=45 v=80
35372 Off ch=2 n=45 v=80
35372 On ch=2 n=38 v=80
35611 Off ch=2 n=38 v=80
35611 On ch=2 n=43 v=80
35850 Off ch=2 n=43 v=80
35850 On ch=2 n=45 v=80
36089 Off ch=2 n=45 v=80
36089 On ch=2 n=36 v=80
36328 Off ch=2 n=36 v=80
36328 On ch=2 n=43 v=80
36567 Off ch=2 n=43 v=80
36567 On ch=2 n=36 v=80
36806 Off ch=2 n=36 v=80
36806 On ch=2 n=36 v=80
37045 Off ch=2 n=36 v=80
37045 On ch=2 n=43 v=80
37284 Off ch=2 n=43 v=80
37284 On ch=2 n=36 v=80
37523 Off ch=2 n=36 v=80
37523 On ch=2 n=36 v=80
37762 Off ch=2 n=36 v=80
37762 On ch=2 n=38 v=80
38001 Off ch=2 n=38 v=80
38001 On ch=2 n=43 v=80
38240 Off ch=2 n=43 v=80
38240 On ch=2 n=38 v=80
38479 Off ch=2 n=38 v=80
38479 On ch=2 n=45 v=80
38718 Off ch=2 n=45 v=80
38718 On ch=2 n=38 v=80
38957 Off ch=2 n=38 v=80
38957 On ch=2 n=43 v=80
39196 Off ch=2 n=43 v=80
39196 On ch=2 n=38 v=80
39435 Off ch=2 n=38 v=80
39435 On ch=2 n=43 v=80
39674 Off ch=2 n=43 v=80
39674 On ch=2 n=36 v=80
39913 Off ch=2 n=36 v=80
39913 On ch=2 n=36 v=80
40152 Off ch=2 n=36 v=80
40152 On ch=2 n=43 v=80
40391 Off ch=2 n=43 v=80
40391 On ch=2 n=43 v=80
40630 Off ch=2 n=43 v=80
40630 On ch=2 n=43 v=80
40869 Off ch=2 n=43 v=80
40869 On ch=2 n=45 v=80
41108 Off ch=2 n=45 v=80
41108 On ch=2 n=38 v=80
41347 Off ch=2 n=38 v=80
41347 On ch=2 n=38 v=80
41586 Off ch=2 n=38 v=80
41586 On ch=2 n=43 v=80
41825 Off ch=2 n=43 v=80
41825 On ch=2 n=38 v=80
42064 Off ch=2 n=38 v=80
42064 On ch=2 n=43 v=80
42303 Off ch=2 n=43 v=80
42303 On ch=2 n=36 v=80
42542 Off ch=2 n=36 v=80
42542 On ch=2 n=43 v=80
42781 Off ch=2 n=43 v=80
42781 On ch=2 n=38 v=80
43020 Off ch=2 n=38 v=80
43020 On ch=2 n=43 v=80
43259 Off ch=2 n=43 v=80
43259 On ch=2 n=36 v=80
43498 Off ch=2 n=36 v=80
43498 On ch=2 n=38 v=80
43737 Off ch=2 n=38 v=80
43737 On ch=2 n=43 v=80
43976 Off ch=2 n=43 v=80
43976 On ch=2 n=43 v=80
44215 Off ch=2 n=43 v=80
44215 On ch=2 n=43 v=80
44454 Off ch=2 n=43 v=80
44454 On ch=2 n=36 v=80
44693 Off ch=2 n=36 v=80
44693 On ch=2 n=38 v=80
44932 Off ch=2 n=38 v=80
44932 On ch=2 n=43 v=80
45171 Off ch=2 n=43 v=80
45171 On ch=2 n=38 v=80
45410 Off ch=2 n=38 v=80
45410 On ch=2 n=43 v=80
45649 Off ch=2 n=43 v=80
45649 On ch=2 n=36 v=80
45888 Off ch=2 n=36 v=80
45888 On ch=2 n=43 v=80
46127 Off ch=2 n=43 v=80
46127 On ch=2 n=45 v=80
46366 Off ch=2 n=45 v=80
46366 On ch=2 n=38 v=80
46605 Off ch=2 n=38 v=80
46605 On ch=2 n=38 v=80
46844 Off ch=2 n=38 v=80
46844 On ch=2 n=45 v=80
47083 Off ch=2 n=45 v=80
47083 On ch=2 n=38 v=80
47322 Off ch=2 n=38 v=80
47322 On ch=2 n=38 v=80
47561 Off ch=2 n=38 v=80
47561 On ch=2 n=38 v=80
47800 Off ch=2 n=38 v=80
47800 On ch=2 n=38 v=80
48039 Off ch=2 n=38 v=80
48039 On ch=2 n=43 v=80
48278 Off ch=2 n=43 v=80
48278 On ch=2 n=43 v=80
48517 Off ch=2 n=43 v=80
48517 On ch=2 n=36 v=80
48756 Off ch=2 n=36 v=80
48756 On ch=2 n=45 v=80
48995 Off ch=2 n=45 v=80
48995 On ch=2 n=38 v=80
49234 Off ch=2 n=38 v=80
49234 On ch=2 n=36 v=80
49473 Off ch=2 n=36 v=80
49473 On ch=2 n=36 v=80
49712 Off ch=2 n=36 v=80
49712 On ch=2 n=43 v=80
49951 Off ch=2 n=43 v=80
49951 On ch=2 n=38 v=80
50190 Off ch=2 n=38 v=80
50190 On ch=2 n=38 v=80
50429 Off ch=2 n=38 v=80
50429 On ch=2 n=43 v=80
50668 Off ch=2 n=43 v=80
50668 On ch=2 n=45 v=80
50907 Off ch=2 n=45 v=80
50907 On ch=2 n=36 v=80
51146 Off ch=2 n=36 v=80
51146 On ch=2 n=43 v=80
51385 Off ch=2 n=43 v=80
51385 On ch=2 n=38 v=80
51624 Off ch=2 n=38 v=80
51624 On ch=2 n=43 v=80
51863 Off ch=2 n=43 v=80
51863 On ch=2 n=38 v=80
52102 Off ch=2 n=38 v=80
52102 On ch=2 n=43 v=80
52341 Off ch=2 n=43 v=80
52341 On ch=2 n=43 v=80
52580 Off ch=2 n=43 v=80
52580 On ch=2 n=43 v=80
52819 Off ch=2 n=43 v=80
52819 On ch=2 n=36 v=80
53058 Off ch=2 n=36 v=80
53058 On ch=2 n=36 v=80
53297 Off ch=2 n=36 v=80
53297 On ch=2 n=43 v=80
53536 Off ch=2 n=43 v=80
53536 On ch=2 n=38 v=80
53775 Off ch=2 n=38 v=80
53775 On ch=2 n=37 v=80
54014 Off ch=2 n=37 v=80
54014 Meta TrkEnd
TrkEnd
MTrk
0 Meta TrkName "Cuillin Reel"
0 Meta Text " Nottingham Music Database"
0 Meta Text "S:Mick Peat"
0 On ch=3 n=55 v=75
0 On ch=3 n=59 v=75
0 On ch=3 n=62 v=75
239 Off ch=3 n=55 v=75
239 Off ch=3 n=59 v=75
239 Off ch=3 n=62 v=75
239 On ch=3 n=48 v=75
239 On ch=3 n=52 v=75
239 On ch=3 n=55 v=75
478 Off ch=3 n=48 v=75
478 Off ch=3 n=52 v=75
478 Off ch=3 n=55 v=75
478 On ch=3 n=50 v=75
478 On ch=3 n=54 v=75
478 On ch=3 n=57 v=75
478 On ch=3 n=60 v=75
717 Off ch=3 n=50 v=75
717 Off ch=3 n=54 v=75
717 Off ch=3 n=57 v=75
717 Off ch=3 n=60 v=75
717 On ch=3 n=57 v=75
717 On ch=3 n=60 v=75
717 On ch=3 n=64 v=75
956 Off ch=3 n=57 v=75
956 Off ch=3 n=60 v=75
956 Off ch=3 n=64 v=75
956 On ch=3 n=52 v=75
956 On ch=3 n=55 v=75
956 On ch=3 n=59 v=75
1195 Off ch=3 n=52 v=75
1195 Off ch=3 n=55 v=75
1195 Off ch=3 n=59 v=75
1195 On ch=3 n=57 v=75
1195 On ch=3 n=60 v=75
1195 On ch=3 n=64 v=75
1434 Off ch=3 n=57 v=75
1434 Off ch=3 n=60 v=75
1434 Off ch=3 n=64 v=75
1434 On ch=3 n=50 v=75
1434 On ch=3 n=54 v=75
1434 On ch=3 n=57 v=75
1434 On ch=3 n=60 v=75
1673 Off ch=3 n=50 v=75
1673 Off ch=3 n=54 v=75
1673 Off ch=3 n=57 v=75
1673 Off ch=3 n=60 v=75
1673 On ch=3 n=48 v=75
1673 On ch=3 n=52 v=75
1673 On ch=3 n=55 v=75
1912 Off ch=3 n=48 v=75
1912 Off ch=3 n=52 v=75
1912 Off ch=3 n=55 v=75
1912 On ch=3 n=55 v=75
1912 On ch=3 n=59 v=75
1912 On ch=3 n=62 v=75
2151 Off ch=3 n=55 v=75
2151 Off ch=3 n=59 v=75
2151 Off ch=3 n=62 v=75
2151 On ch=3 n=55 v=75
2151 On ch=3 n=59 v=75
2151 On ch=3 n=62 v=75
2390 Off ch=3 n=55 v=75
2390 Off ch=3 n=59 v=75
2390 Off ch=3 n=62 v=75
2390 On ch=3 n=48 v=75
2390 On ch=3 n=52 v=75
2390 On ch=3 n=55 v=75
2629 Off ch=3 n=48 v=75
2629 Off ch=3 n=52 v=75
2629 Off ch=3 n=55 v=75
2629 On ch=3 n=50 v=75
2629 On ch=3 n=54 v=75
2629 On ch=3 n=57 v=75
2629 On ch=3 n=60 v=75
2868 Off ch=3 n=50 v=75
2868 Off ch=3 n=54 v=75
2868 Off ch=3 n=57 v=75
2868 Off ch=3 n=60 v=75
2868 On ch=3 n=52 v=75
2868 On ch=3 n=55 v=75
2868 On ch=3 n=59 v=75
3107 Off ch=3 n=52 v=75
3107 Off ch=3 n=55 v=75
3107 Off ch=3 n=59 v=75
3107 On ch=3 n=57 v=75
3107 On ch=3 n=60 v=75
3107 On ch=3 n=64 v=75
3346 Off ch=3 n=57 v=75
3346 Off ch=3 n=60 v=75
3346 Off ch=3 n=64 v=75
3346 On ch=3 n=57 v=75
3346 On ch=3 n=60 v=75
3346 On ch=3 n=64 v=75
3585 Off ch=3 n=57 v=75
3585 Off ch=3 n=60 v=75
3585 Off ch=3 n=64 v=75
3585 On ch=3 n=50 v=75
3585 On ch=3 n=54 v=75
3585 On ch=3 n=57 v=75
3824 Off ch=3 n=50 v=75
3824 Off ch=3 n=54 v=75
3824 Off ch=3 n=57 v=75
3824 On ch=3 n=55 v=75
3824 On ch=3 n=59 v=75
3824 On ch=3 n=62 v=75
4063 Off ch=3 n=55 v=75
4063 Off ch=3 n=59 v=75
4063 Off ch=3 n=62 v=75
4063 On ch=3 n=48 v=75
4063 On ch=3 n=52 v=75
4063 On ch=3 n=55 v=75
4302 Off ch=3 n=48 v=75
4302 Off ch=3 n=52 v=75
4302 Off ch=3 n=55 v=75
4302 On ch=3 n=50 v=75
4302 On ch=3 n=54 v=75
4302 On ch=3 n=57 v=75
4541 Off ch=3 n=50 v=75
4541 Off ch=3 n=54 v=75
4541 Off ch=3 n=57 v=75
4541 On ch=3 n=52 v=75
4541 On ch=3 n=55 v=75
4541 On ch=3 n=59 v=75
4780 Off ch=3 n=52 v=75
4780 Off ch=3 n=55 v=75
4780 Off ch=3 n=59 v=75
4780 On ch=3 n=57 v=75
4780 On ch=3 n=61 v=75
4780 On ch=3 n=64 v=75
4780 On ch=3 n=67 v=75
5019 Off ch=3 n=57 v=75
5019 Off ch=3 n=61 v=75
5019 Off ch=3 n=64 v=75
5019 Off ch=3 n=67 v=75
5019 On ch=3 n=50 v=75
5019 On ch=3 n=54 v=75
5019 On ch=3 n=57 v=75
5258 Off ch=3 n=50 v=75
5258 Off ch=3 n=54 v=75
5258 Off ch=3 n=57 v=75
5258 On ch=3 n=55 v=75
5258 On ch=3 n=58 v=75
5258 On ch=3 n=62 v=75
5497 Off ch=3 n=55 v=75
5497 Off ch=3 n=58 v=75
5497 Off ch=3 n=62 v=75
5497 On ch=3 n=64 v=75
5497 On ch=3 n=55 v=75
5497 On ch=3 n=59 v=75
5736 Off ch=3 n=64 v=75
5736 Off ch=3 n=55 v=75
5736 Off ch=3 n=59 v=75
5736 On ch=3 n=55 v=75
5736 On ch=3 n=59 v=75
5736 On ch=3 n=62 v=75
5975 Off ch=3 n=55 v=75
5975 Off ch=3 n=59 v=75
5975 Off ch=3 n=62 v=75
5975 On ch=3 n=55 v=75
5975 On ch=3 n=59 v=75
5975 On ch=3 n=62 v=75
6214 Off ch=3 n=55 v=75
6214 Off ch=3 n=59 v=75
6214 Off ch=3 n=62 v=75
6214 On ch=3 n=55 v=75
6214 On ch=3 n=59 v=75
6214 On ch=3 n=62 v=75
6453 Off ch=3 n=55 v=75
6453 Off ch=3 n=59 v=75
6453 Off ch=3 n=62 v=75
6453 On ch=3 n=55 v=75
6453 On ch=3 n=59 v=75
6453 On ch=3 n=62 v=75
6692 Off ch=3 n=55 v=75
6692 Off ch=3 n=59 v=75
6692 Off ch=3 n=62 v=75
6692 On ch=3 n=55 v=75
6692 On ch=3 n=59 v=75
6692 On ch=3 n=62 v=75
6931 Off ch=3 n=55 v=75
6931 Off ch=3 n=59 v=75
6931 Off ch=3 n=62 v=75
6931 On ch=3 n=48 v=75
6931 On ch=3 n=52 v=75
6931 On ch=3 n=55 v=75
7170 Off ch=3 n=48 v=75
7170 Off ch=3 n=52 v=75
7170 Off ch=3 n=55 v=75
7170 On ch=3 n=50 v=75
7170 On ch=3 n=54 v=75
7170 On ch=3 n=57 v=75
7170 On ch=3 n=60 v=75
7409 Off ch=3 n=50 v=75
7409 Off ch=3 n=54 v=75
7409 Off ch=3 n=57 v=75
7409 Off ch=3 n=60 v=75
7409 On ch=3 n=52 v=75
7409 On ch=3 n=55 v=75
7409 On ch=3 n=59 v=75
7648 Off ch=3 n=52 v=75
7648 Off ch=3 n=55 v=75
7648 Off ch=3 n=59 v=75
7648 On ch=3 n=57 v=75
7648 On ch=3 n=60 v=75
7648 On ch=3 n=64 v=75
7887 Off ch=3 n=57 v=75
7887 Off ch=3 n=60 v=75
7887 Off ch=3 n=64 v=75
7887 On ch=3 n=55 v=75
7887 On ch=3 n=59 v=75
7887 On ch=3 n=62 v=75
7887 On ch=3 n=65 v=75
8126 Off ch=3 n=55 v=75
8126 Off ch=3 n=59 v=75
8126 Off ch=3 n=62 v=75
8126 Off ch=3 n=65 v=75
8126 On ch=3 n=55 v=75
8126 On ch=3 n=59 v=75
8126 On ch=3 n=62 v=75
8126 On ch=3 n=65 v=75
8365 Off ch=3 n=55 v=75
8365 Off ch=3 n=59 v=75
8365 Off ch=3 n=62 v=75
8365 Off ch=3 n=65 v=75
8365 On ch=3 n=48 v=75
8365 On ch=3 n=52 v=75
8365 On ch=3 n=55 v=75
8604 Off ch=3 n=48 v=75
8604 Off ch=3 n=52 v=75
8604 Off ch=3 n=55 v=75
8604 On ch=3 n=48 v=75
8604 On ch=3 n=52 v=75
8604 On ch=3 n=55 v=75
8843 Off ch=3 n=48 v=75
8843 Off ch=3 n=52 v=75
8843 Off ch=3 n=55 v=75
8843 On ch=3 n=55 v=75
8843 On ch=3 n=59 v=75
8843 On ch=3 n=62 v=75
8843 On ch=3 n=65 v=75
9082 Off ch=3 n=55 v=75
9082 Off ch=3 n=59 v=75
9082 Off ch=3 n=62 v=75
9082 Off ch=3 n=65 v=75
9082 On ch=3 n=52 v=75
9082 On ch=3 n=56 v=75
9082 On ch=3 n=59 v=75
9082 On ch=3 n=62 v=75
9321 Off ch=3 n=52 v=75
9321 Off ch=3 n=56 v=75
9321 Off ch=3 n=59 v=75
9321 Off ch=3 n=62 v=75
9321 On ch=3 n=55 v=75
9321 On ch=3 n=59 v=75
9321 On ch=3 n=62 v=75
9321 On ch=3 n=65 v=75
9560 Off ch=3 n=55 v=75
9560 Off ch=3 n=59 v=75
9560 Off ch=3 n=62 v=75
9560 Off ch=3 n=65 v=75
9560 On ch=3 n=55 v=75
9560 On ch=3 n=59 v=75
9560 On ch=3 n=62 v=75
9560 On ch=3 n=65 v=75
9799 Off ch=3 n=55 v=75
9799 Off ch=3 n=59 v=75
9799 Off ch=3 n=62 v=75
9799 Off ch=3 n=65 v=75
9799 On ch=3 n=55 v=75
9799 On ch=3 n=59 v=75
9799 On ch=3 n=62 v=75
9799 On ch=3 n=65 v=75
10038 Off ch=3 n=55 v=75
10038 Off ch=3 n=59 v=75
10038 Off ch=3 n=62 v=75
10038 Off ch=3 n=65 v=75
10038 On ch=3 n=55 v=75
10038 On ch=3 n=59 v=75
10038 On ch=3 n=62 v=75
10038 On ch=3 n=65 v=75
10277 Off ch=3 n=55 v=75
10277 Off ch=3 n=59 v=75
10277 Off ch=3 n=62 v=75
10277 Off ch=3 n=65 v=75
10277 On ch=3 n=48 v=75
10277 On ch=3 n=52 v=75
10277 On ch=3 n=55 v=75
10516 Off ch=3 n=48 v=75
10516 Off ch=3 n=52 v=75
10516 Off ch=3 n=55 v=75
10516 On ch=3 n=48 v=75
10516 On ch=3 n=52 v=75
10516 On ch=3 n=55 v=75
10755 Off ch=3 n=48 v=75
10755 Off ch=3 n=52 v=75
10755 Off ch=3 n=55 v=75
10755 On ch=3 n=55 v=75
10755 On ch=3 n=59 v=75
10755 On ch=3 n=62 v=75
10994 Off ch=3 n=55 v=75
10994 Off ch=3 n=59 v=75
10994 Off ch=3 n=62 v=75
10994 On ch=3 n=50 v=75
10994 On ch=3 n=54 v=75
10994 On ch=3 n=57 v=75
11233 Off ch=3 n=50 v=75
11233 Off ch=3 n=54 v=75
11233 Off ch=3 n=57 v=75
11233 On ch=3 n=55 v=75
11233 On ch=3 n=59 v=75
11233 On ch=3 n=62 v=75
11472 Off ch=3 n=55 v=75
11472 Off ch=3 n=59 v=75
11472 Off ch=3 n=62 v=75
11472 On ch=3 n=48 v=75
11472 On ch=3 n=52 v=75
11472 On ch=3 n=55 v=75
11711 Off ch=3 n=48 v=75
11711 Off ch=3 n=52 v=75
11711 Off ch=3 n=55 v=75
11711 On ch=3 n=50 v=75
11711 On ch=3 n=54 v=75
11711 On ch=3 n=57 v=75
11950 Off ch=3 n=50 v=75
11950 Off ch=3 n=54 v=75
11950 Off ch=3 n=57 v=75
11950 On ch=3 n=57 v=75
11950 On ch=3 n=60 v=75
11950 On ch=3 n=64 v=75
12189 Off ch=3 n=57 v=75
12189 Off ch=3 n=60 v=75
12189 Off ch=3 n=64 v=75
12189 On ch=3 n=57 v=75
12189 On ch=3 n=60 v=75
12189 On ch=3 n=64 v=75
13628 Off ch=3 n=57 v=75
13628 Off ch=3 n=60 v=75
13628 Off ch=3 n=64 v=75
13628 On ch=3 n=50 v=75
13628 On ch=3 n=54 v=75
13628 On ch=3 n=57 v=75
13628 On ch=3 n=60 v=75
15067 Off ch=3 n=50 v=75
15067 Off ch=3 n=54 v=75
15067 Off ch=3 n=57 v=75
15067 Off ch=3 n=60 v=75
15067 On ch=3 n=55 v=75
15067 On ch=3 n=59 v=75
15067 On ch=3 n=62 v=75
16506 Off ch=3 n=55 v=75
16506 Off ch=3 n=59 v=75
16506 Off ch=3 n=62 v=75
16506 On ch=3 n=52 v=75
16506 On ch=3 n=55 v=75
16506 On ch=3 n=59 v=75
18425 Off ch=3 n=52 v=75
18425 Off ch=3 n=55 v=75
18425 Off ch=3 n=59 v=75
18425 On ch=3 n=48 v=75
18425 On ch=3 n=52 v=75
18425 On ch=3 n=55 v=75
18425 On ch=3 n=58 v=75
20344 Off ch=3 n=48 v=75
20344 Off ch=3 n=52 v=75
20344 Off ch=3 n=55 v=75
20344 Off ch=3 n=58 v=75
20344 On ch=3 n=53 v=75
20344 On ch=3 n=57 v=75
20344 On ch=3 n=60 v=75
22263 Off ch=3 n=53 v=75
22263 Off ch=3 n=57 v=75
22263 Off ch=3 n=60 v=75
22263 On ch=3 n=55 v=75
22263 On ch=3 n=59 v=75
22263 On ch=3 n=62 v=75
22263 On ch=3 n=65 v=75
23702 Off ch=3 n=55 v=75
23702 Off ch=3 n=59 v=75
23702 Off ch=3 n=62 v=75
23702 Off ch=3 n=65 v=75
23702 On ch=3 n=48 v=75
23702 On ch=3 n=52 v=75
23702 On ch=3 n=55 v=75
23702 On ch=3 n=58 v=75
25141 Off ch=3 n=48 v=75
25141 Off ch=3 n=52 v=75
25141 Off ch=3 n=55 v=75
25141 Off ch=3 n=58 v=75
25141 On ch=3 n=53 v=75
25141 On ch=3 n=57 v=75
25141 On ch=3 n=60 v=75
26580 Off ch=3 n=53 v=75
26580 Off ch=3 n=57 v=75
26580 Off ch=3 n=60 v=75
26580 On ch=3 n=53 v=75
26580 On ch=3 n=57 v=75
26580 On ch=3 n=60 v=75
28019 Off ch=3 n=53 v=75
28019 Off ch=3 n=57 v=75
28019 Off ch=3 n=60 v=75
28019 On ch=3 n=53 v=75
28019 On ch=3 n=57 v=75
28019 On ch=3 n=60 v=75
29458 Off ch=3 n=53 v=75
29458 Off ch=3 n=57 v=75
29458 Off ch=3 n=60 v=75
29458 On ch=3 n=48 v=75
29458 On ch=3 n=52 v=75
29458 On ch=3 n=55 v=75
29458 On ch=3 n=58 v=75
30897 Off ch=3 n=48 v=75
30897 Off ch=3 n=52 v=75
30897 Off ch=3 n=55 v=75
30897 Off ch=3 n=58 v=75
30897 On ch=3 n=55 v=75
30897 On ch=3 n=59 v=75
30897 On ch=3 n=62 v=75
30897 On ch=3 n=65 v=75
32336 Off ch=3 n=55 v=75
32336 Off ch=3 n=59 v=75
32336 Off ch=3 n=62 v=75
32336 Off ch=3 n=65 v=75
32336 On ch=3 n=57 v=75
32336 On ch=3 n=61 v=75
32336 On ch=3 n=64 v=75
32336 On ch=3 n=67 v=75
33775 Off ch=3 n=57 v=75
33775 Off ch=3 n=61 v=75
33775 Off ch=3 n=64 v=75
33775 Off ch=3 n=67 v=75
33775 On ch=3 n=50 v=75
33775 On ch=3 n=54 v=75
33775 On ch=3 n=57 v=75
33775 On ch=3 n=60 v=75
34014 Off ch=3 n=50 v=75
34014 Off ch=3 n=54 v=75
34014 Off ch=3 n=57 v=75
34014 Off ch=3 n=60 v=75
34014 On ch=3 n=57 v=75
34014 On ch=3 n=61 v=75
34014 On ch=3 n=64 v=75
34014 On ch=3 n=67 v=75
34253 Off ch=3 n=57 v=75
34253 Off ch=3 n=61 v=75
34253 Off ch=3 n=64 v=75
34253 Off ch=3 n=67 v=75
34253 On ch=3 n=50 v=75
34253 On ch=3 n=54 v=75
34253 On ch=3 n=57 v=75
34253 On ch=3 n=60 v=75
34492 Off ch=3 n=50 v=75
34492 Off ch=3 n=54 v=75
34492 Off ch=3 n=57 v=75
34492 Off ch=3 n=60 v=75
34492 On ch=3 n=57 v=75
34492 On ch=3 n=61 v=75
34492 On ch=3 n=64 v=75
34492 On ch=3 n=67 v=75
34731 Off ch=3 n=57 v=75
34731 Off ch=3 n=61 v=75
34731 Off ch=3 n=64 v=75
34731 Off ch=3 n=67 v=75
34731 On ch=3 n=50 v=75
34731 On ch=3 n=54 v=75
34731 On ch=3 n=57 v=75
34970 Off ch=3 n=50 v=75
34970 Off ch=3 n=54 v=75
34970 Off ch=3 n=57 v=75
34970 On ch=3 n=50 v=75
34970 On ch=3 n=54 v=75
34970 On ch=3 n=57 v=75
35209 Off ch=3 n=50 v=75
35209 Off ch=3 n=54 v=75
35209 Off ch=3 n=57 v=75
35209 On ch=3 n=48 v=75
35209 On ch=3 n=52 v=75
35209 On ch=3 n=55 v=75
35448 Off ch=3 n=48 v=75
35448 Off ch=3 n=52 v=75
35448 Off ch=3 n=55 v=75
35448 On ch=3 n=55 v=75
35448 On ch=3 n=59 v=75
35448 On ch=3 n=62 v=75
35687 Off ch=3 n=55 v=75
35687 Off ch=3 n=59 v=75
35687 Off ch=3 n=62 v=75
35687 On ch=3 n=59 v=75
35687 On ch=3 n=62 v=75
35687 On ch=3 n=66 v=75
35926 Off ch=3 n=59 v=75
35926 Off ch=3 n=62 v=75
35926 Off ch=3 n=66 v=75
35926 On ch=3 n=55 v=75
35926 On ch=3 n=59 v=75
35926 On ch=3 n=62 v=75
36165 Off ch=3 n=55 v=75
36165 Off ch=3 n=59 v=75
36165 Off ch=3 n=62 v=75
36165 On ch=3 n=67 v=75
36165 On ch=3 n=71 v=75
36165 On ch=3 n=62 v=75
36404 Off ch=3 n=67 v=75
36404 Off ch=3 n=71 v=75
36404 Off ch=3 n=62 v=75
36404 On ch=3 n=55 v=75
36404 On ch=3 n=59 v=75
36404 On ch=3 n=62 v=75
36404 On ch=3 n=65 v=75
36643 Off ch=3 n=55 v=75
36643 Off ch=3 n=59 v=75
36643 Off ch=3 n=62 v=75
36643 Off ch=3 n=65 v=75
36643 On ch=3 n=55 v=75
36643 On ch=3 n=59 v=75
36643 On ch=3 n=62 v=75
36643 On ch=3 n=65 v=75
36882 Off ch=3 n=55 v=75
36882 Off ch=3 n=59 v=75
36882 Off ch=3 n=62 v=75
36882 Off ch=3 n=65 v=75
36882 On ch=3 n=57 v=75
36882 On ch=3 n=61 v=75
36882 On ch=3 n=64 v=75
36882 On ch=3 n=67 v=75
37121 Off ch=3 n=57 v=75
37121 Off ch=3 n=61 v=75
37121 Off ch=3 n=64 v=75
37121 Off ch=3 n=67 v=75
37121 On ch=3 n=50 v=75
37121 On ch=3 n=54 v=75
37121 On ch=3 n=57 v=75
37360 Off ch=3 n=50 v=75
37360 Off ch=3 n=54 v=75
37360 Off ch=3 n=57 v=75
37360 On ch=3 n=50 v=75
37360 On ch=3 n=54 v=75
37360 On ch=3 n=57 v=75
37599 Off ch=3 n=50 v=75
37599 Off ch=3 n=54 v=75
37599 Off ch=3 n=57 v=75
37599 On ch=3 n=50 v=75
37599 On ch=3 n=54 v=75
37599 On ch=3 n=57 v=75
37838 Off ch=3 n=50 v=75
37838 Off ch=3 n=54 v=75
37838 Off ch=3 n=57 v=75
37838 On ch=3 n=55 v=75
37838 On ch=3 n=59 v=75
37838 On ch=3 n=62 v=75
38077 Off ch=3 n=55 v=75
38077 Off ch=3 n=59 v=75
38077 Off ch=3 n=62 v=75
38077 On ch=3 n=50 v=75
38077 On ch=3 n=54 v=75
38077 On ch=3 n=57 v=75
38316 Off ch=3 n=50 v=75
38316 Off ch=3 n=54 v=75
38316 Off ch=3 n=57 v=75
38316 On ch=3 n=57 v=75
38316 On ch=3 n=61 v=75
38316 On ch=3 n=64 v=75
38555 Off ch=3 n=57 v=75
38555 Off ch=3 n=61 v=75
38555 Off ch=3 n=64 v=75
38555 On ch=3 n=50 v=75
38555 On ch=3 n=54 v=75
38555 On ch=3 n=57 v=75
38794 Off ch=3 n=50 v=75
38794 Off ch=3 n=54 v=75
38794 Off ch=3 n=57 v=75
38794 On ch=3 n=57 v=75
38794 On ch=3 n=61 v=75
38794 On ch=3 n=64 v=75
39033 Off ch=3 n=57 v=75
39033 Off ch=3 n=61 v=75
39033 Off ch=3 n=64 v=75
39033 On ch=3 n=50 v=75
39033 On ch=3 n=54 v=75
39033 On ch=3 n=57 v=75
39272 Off ch=3 n=50 v=75
39272 Off ch=3 n=54 v=75
39272 Off ch=3 n=57 v=75
39272 On ch=3 n=50 v=75
39272 On ch=3 n=54 v=75
39272 On ch=3 n=57 v=75
39511 Off ch=3 n=50 v=75
39511 Off ch=3 n=54 v=75
39511 Off ch=3 n=57 v=75
39511 On ch=3 n=55 v=75
39511 On ch=3 n=59 v=75
39511 On ch=3 n=62 v=75
39750 Off ch=3 n=55 v=75
39750 Off ch=3 n=59 v=75
39750 Off ch=3 n=62 v=75
39750 On ch=3 n=62 v=75
39750 On ch=3 n=66 v=75
39750 On ch=3 n=57 v=75
39989 Off ch=3 n=62 v=75
39989 Off ch=3 n=66 v=75
39989 Off ch=3 n=57 v=75
39989 On ch=3 n=57 v=75
39989 On ch=3 n=61 v=75
39989 On ch=3 n=64 v=75
39989 On ch=3 n=67 v=75
40228 Off ch=3 n=57 v=75
40228 Off ch=3 n=61 v=75
40228 Off ch=3 n=64 v=75
40228 Off ch=3 n=67 v=75
40228 On ch=3 n=50 v=75
40228 On ch=3 n=54 v=75
40228 On ch=3 n=57 v=75
40467 Off ch=3 n=50 v=75
40467 Off ch=3 n=54 v=75
40467 Off ch=3 n=57 v=75
40467 On ch=3 n=50 v=75
40467 On ch=3 n=54 v=75
40467 On ch=3 n=57 v=75
40467 On ch=3 n=60 v=75
40706 Off ch=3 n=50 v=75
40706 Off ch=3 n=54 v=75
40706 Off ch=3 n=57 v=75
40706 Off ch=3 n=60 v=75
40706 On ch=3 n=57 v=75
40706 On ch=3 n=61 v=75
40706 On ch=3 n=64 v=75
40706 On ch=3 n=67 v=75
40945 Off ch=3 n=57 v=75
40945 Off ch=3 n=61 v=75
40945 Off ch=3 n=64 v=75
40945 Off ch=3 n=67 v=75
40945 On ch=3 n=50 v=75
40945 On ch=3 n=54 v=75
40945 On ch=3 n=57 v=75
40945 On ch=3 n=60 v=75
41184 Off ch=3 n=50 v=75
41184 Off ch=3 n=54 v=75
41184 Off ch=3 n=57 v=75
41184 Off ch=3 n=60 v=75
41184 On ch=3 n=48 v=75
41184 On ch=3 n=52 v=75
41184 On ch=3 n=55 v=75
41423 Off ch=3 n=48 v=75
41423 Off ch=3 n=52 v=75
41423 Off ch=3 n=55 v=75
41423 On ch=3 n=50 v=75
41423 On ch=3 n=54 v=75
41423 On ch=3 n=57 v=75
41423 On ch=3 n=60 v=75
41662 Off ch=3 n=50 v=75
41662 Off ch=3 n=54 v=75
41662 Off ch=3 n=57 v=75
41662 Off ch=3 n=60 v=75
41662 On ch=3 n=52 v=75
41662 On ch=3 n=56 v=75
41662 On ch=3 n=59 v=75
41662 On ch=3 n=62 v=75
41901 Off ch=3 n=52 v=75
41901 Off ch=3 n=56 v=75
41901 Off ch=3 n=59 v=75
41901 Off ch=3 n=62 v=75
41901 On ch=3 n=55 v=75
41901 On ch=3 n=59 v=75
41901 On ch=3 n=62 v=75
42140 Off ch=3 n=55 v=75
42140 Off ch=3 n=59 v=75
42140 Off ch=3 n=62 v=75
42140 On ch=3 n=55 v=75
42140 On ch=3 n=59 v=75
42140 On ch=3 n=62 v=75
42379 Off ch=3 n=55 v=75
42379 Off ch=3 n=59 v=75
42379 Off ch=3 n=62 v=75
42379 On ch=3 n=55 v=75
42379 On ch=3 n=59 v=75
42379 On ch=3 n=62 v=75
42618 Off ch=3 n=55 v=75
42618 Off ch=3 n=59 v=75
42618 Off ch=3 n=62 v=75
42618 On ch=3 n=55 v=75
42618 On ch=3 n=59 v=75
42618 On ch=3 n=62 v=75
42857 Off ch=3 n=55 v=75
42857 Off ch=3 n=59 v=75
42857 Off ch=3 n=62 v=75
42857 On ch=3 n=55 v=75
42857 On ch=3 n=59 v=75
42857 On ch=3 n=62 v=75
43096 Off ch=3 n=55 v=75
43096 Off ch=3 n=59 v=75
43096 Off ch=3 n=62 v=75
43096 On ch=3 n=48 v=75
43096 On ch=3 n=52 v=75
43096 On ch=3 n=55 v=75
43335 Off ch=3 n=48 v=75
43335 Off ch=3 n=52 v=75
43335 Off ch=3 n=55 v=75
43335 On ch=3 n=50 v=75
43335 On ch=3 n=54 v=75
43335 On ch=3 n=57 v=75
43335 On ch=3 n=60 v=75
43574 Off ch=3 n=50 v=75
43574 Off ch=3 n=54 v=75
43574 Off ch=3 n=57 v=75
43574 Off ch=3 n=60 v=75
43574 On ch=3 n=55 v=75
43574 On ch=3 n=59 v=75
43574 On ch=3 n=62 v=75
43813 Off ch=3 n=55 v=75
43813 Off ch=3 n=59 v=75
43813 Off ch=3 n=62 v=75
43813 On ch=3 n=57 v=75
43813 On ch=3 n=60 v=75
43813 On ch=3 n=64 v=75
44052 Off ch=3 n=57 v=75
44052 Off ch=3 n=60 v=75
44052 Off ch=3 n=64 v=75
44052 On ch=3 n=57 v=75
44052 On ch=3 n=60 v=75
44052 On ch=3 n=64 v=75
44291 Off ch=3 n=57 v=75
44291 Off ch=3 n=60 v=75
44291 Off ch=3 n=64 v=75
44291 On ch=3 n=48 v=75
44291 On ch=3 n=52 v=75
44291 On ch=3 n=55 v=75
44530 Off ch=3 n=48 v=75
44530 Off ch=3 n=52 v=75
44530 Off ch=3 n=55 v=75
44530 On ch=3 n=53 v=75
44530 On ch=3 n=57 v=75
44530 On ch=3 n=60 v=75
44769 Off ch=3 n=53 v=75
44769 Off ch=3 n=57 v=75
44769 Off ch=3 n=60 v=75
44769 On ch=3 n=55 v=75
44769 On ch=3 n=59 v=75
44769 On ch=3 n=62 v=75
44769 On ch=3 n=65 v=75
45008 Off ch=3 n=55 v=75
45008 Off ch=3 n=59 v=75
45008 Off ch=3 n=62 v=75
45008 Off ch=3 n=65 v=75
45008 On ch=3 n=57 v=75
45008 On ch=3 n=61 v=75
45008 On ch=3 n=64 v=75
45008 On ch=3 n=67 v=75
45247 Off ch=3 n=57 v=75
45247 Off ch=3 n=61 v=75
45247 Off ch=3 n=64 v=75
45247 Off ch=3 n=67 v=75
45247 On ch=3 n=50 v=75
45247 On ch=3 n=54 v=75
45247 On ch=3 n=57 v=75
45486 Off ch=3 n=50 v=75
45486 Off ch=3 n=54 v=75
45486 Off ch=3 n=57 v=75
45486 On ch=3 n=50 v=75
45486 On ch=3 n=54 v=75
45486 On ch=3 n=57 v=75
45725 Off ch=3 n=50 v=75
45725 Off ch=3 n=54 v=75
45725 Off ch=3 n=57 v=75
45725 On ch=3 n=50 v=75
45725 On ch=3 n=54 v=75
45725 On ch=3 n=57 v=75
45964 Off ch=3 n=50 v=75
45964 Off ch=3 n=54 v=75
45964 Off ch=3 n=57 v=75
45964 On ch=3 n=55 v=75
45964 On ch=3 n=59 v=75
45964 On ch=3 n=62 v=75
46203 Off ch=3 n=55 v=75
46203 Off ch=3 n=59 v=75
46203 Off ch=3 n=62 v=75
46203 On ch=3 n=50 v=75
46203 On ch=3 n=54 v=75
46203 On ch=3 n=57 v=75
46442 Off ch=3 n=50 v=75
46442 Off ch=3 n=54 v=75
46442 Off ch=3 n=57 v=75
46442 On ch=3 n=57 v=75
46442 On ch=3 n=61 v=75
46442 On ch=3 n=64 v=75
46442 On ch=3 n=67 v=75
46681 Off ch=3 n=57 v=75
46681 Off ch=3 n=61 v=75
46681 Off ch=3 n=64 v=75
46681 Off ch=3 n=67 v=75
46681 On ch=3 n=50 v=75
46681 On ch=3 n=54 v=75
46681 On ch=3 n=57 v=75
46920 Off ch=3 n=50 v=75
46920 Off ch=3 n=54 v=75
46920 Off ch=3 n=57 v=75
46920 On ch=3 n=50 v=75
46920 On ch=3 n=54 v=75
46920 On ch=3 n=57 v=75
46920 On ch=3 n=60 v=75
47159 Off ch=3 n=50 v=75
47159 Off ch=3 n=54 v=75
47159 Off ch=3 n=57 v=75
47159 Off ch=3 n=60 v=75
47159 On ch=3 n=57 v=75
47159 On ch=3 n=61 v=75
47159 On ch=3 n=64 v=75
47159 On ch=3 n=67 v=75
47398 Off ch=3 n=57 v=75
47398 Off ch=3 n=61 v=75
47398 Off ch=3 n=64 v=75
47398 Off ch=3 n=67 v=75
47398 On ch=3 n=50 v=75
47398 On ch=3 n=54 v=75
47398 On ch=3 n=57 v=75
47637 Off ch=3 n=50 v=75
47637 Off ch=3 n=54 v=75
47637 Off ch=3 n=57 v=75
47637 On ch=3 n=50 v=75
47637 On ch=3 n=54 v=75
47637 On ch=3 n=57 v=75
47876 Off ch=3 n=50 v=75
47876 Off ch=3 n=54 v=75
47876 Off ch=3 n=57 v=75
47876 On ch=3 n=48 v=75
47876 On ch=3 n=52 v=75
47876 On ch=3 n=55 v=75
48115 Off ch=3 n=48 v=75
48115 Off ch=3 n=52 v=75
48115 Off ch=3 n=55 v=75
48115 On ch=3 n=50 v=75
48115 On ch=3 n=54 v=75
48115 On ch=3 n=57 v=75
48115 On ch=3 n=60 v=75
48354 Off ch=3 n=50 v=75
48354 Off ch=3 n=54 v=75
48354 Off ch=3 n=57 v=75
48354 Off ch=3 n=60 v=75
48354 On ch=3 n=55 v=75
48354 On ch=3 n=59 v=75
48354 On ch=3 n=62 v=75
48593 Off ch=3 n=55 v=75
48593 Off ch=3 n=59 v=75
48593 Off ch=3 n=62 v=75
48593 On ch=3 n=57 v=75
48593 On ch=3 n=61 v=75
48593 On ch=3 n=64 v=75
48593 On ch=3 n=67 v=75
48832 Off ch=3 n=57 v=75
48832 Off ch=3 n=61 v=75
48832 Off ch=3 n=64 v=75
48832 Off ch=3 n=67 v=75
48832 On ch=3 n=50 v=75
48832 On ch=3 n=54 v=75
48832 On ch=3 n=57 v=75
48832 On ch=3 n=60 v=75
49071 Off ch=3 n=50 v=75
49071 Off ch=3 n=54 v=75
49071 Off ch=3 n=57 v=75
49071 Off ch=3 n=60 v=75
49071 On ch=3 n=57 v=75
49071 On ch=3 n=60 v=75
49071 On ch=3 n=64 v=75
49310 Off ch=3 n=57 v=75
49310 Off ch=3 n=60 v=75
49310 Off ch=3 n=64 v=75
49310 On ch=3 n=62 v=75
49310 On ch=3 n=66 v=75
49310 On ch=3 n=57 v=75
49549 Off ch=3 n=62 v=75
49549 Off ch=3 n=66 v=75
49549 Off ch=3 n=57 v=75
49549 On ch=3 n=57 v=75
49549 On ch=3 n=61 v=75
49549 On ch=3 n=64 v=75
49549 On ch=3 n=67 v=75
49788 Off ch=3 n=57 v=75
49788 Off ch=3 n=61 v=75
49788 Off ch=3 n=64 v=75
49788 Off ch=3 n=67 v=75
49788 On ch=3 n=52 v=75
49788 On ch=3 n=55 v=75
49788 On ch=3 n=59 v=75
50027 Off ch=3 n=52 v=75
50027 Off ch=3 n=55 v=75
50027 Off ch=3 n=59 v=75
50027 On ch=3 n=57 v=75
50027 On ch=3 n=61 v=75
50027 On ch=3 n=64 v=75
50266 Off ch=3 n=57 v=75
50266 Off ch=3 n=61 v=75
50266 Off ch=3 n=64 v=75
50266 On ch=3 n=55 v=75
50266 On ch=3 n=59 v=75
50266 On ch=3 n=62 v=75
50505 Off ch=3 n=55 v=75
50505 Off ch=3 n=59 v=75
50505 Off ch=3 n=62 v=75
50505 On ch=3 n=55 v=75
50505 On ch=3 n=59 v=75
50505 On ch=3 n=62 v=75
50744 Off ch=3 n=55 v=75
50744 Off ch=3 n=59 v=75
50744 Off ch=3 n=62 v=75
50744 On ch=3 n=50 v=75
50744 On ch=3 n=54 v=75
50744 On ch=3 n=57 v=75
50983 Off ch=3 n=50 v=75
50983 Off ch=3 n=54 v=75
50983 Off ch=3 n=57 v=75
50983 On ch=3 n=50 v=75
50983 On ch=3 n=54 v=75
50983 On ch=3 n=57 v=75
51222 Off ch=3 n=50 v=75
51222 Off ch=3 n=54 v=75
51222 Off ch=3 n=57 v=75
51222 On ch=3 n=52 v=75
51222 On ch=3 n=55 v=75
51222 On ch=3 n=59 v=75
51461 Off ch=3 n=52 v=75
51461 Off ch=3 n=55 v=75
51461 Off ch=3 n=59 v=75
51461 On ch=3 n=57 v=75
51461 On ch=3 n=61 v=75
51461 On ch=3 n=64 v=75
51700 Off ch=3 n=57 v=75
51700 Off ch=3 n=61 v=75
51700 Off ch=3 n=64 v=75
51700 On ch=3 n=48 v=75
51700 On ch=3 n=52 v=75
51700 On ch=3 n=55 v=75
51939 Off ch=3 n=48 v=75
51939 Off ch=3 n=52 v=75
51939 Off ch=3 n=55 v=75
51939 On ch=3 n=55 v=75
51939 On ch=3 n=59 v=75
51939 On ch=3 n=62 v=75
51939 On ch=3 n=65 v=75
52178 Off ch=3 n=55 v=75
52178 Off ch=3 n=59 v=75
52178 Off ch=3 n=62 v=75
52178 Off ch=3 n=65 v=75
52178 On ch=3 n=55 v=75
52178 On ch=3 n=59 v=75
52178 On ch=3 n=62 v=75
52178 On ch=3 n=65 v=75
52417 Off ch=3 n=55 v=75
52417 Off ch=3 n=59 v=75
52417 Off ch=3 n=62 v=75
52417 Off ch=3 n=65 v=75
52417 On ch=3 n=48 v=75
52417 On ch=3 n=52 v=75
52417 On ch=3 n=55 v=75
52656 Off ch=3 n=48 v=75
52656 Off ch=3 n=52 v=75
52656 Off ch=3 n=55 v=75
52656 On ch=3 n=55 v=75
52656 On ch=3 n=59 v=75
52656 On ch=3 n=62 v=75
52895 Off ch=3 n=55 v=75
52895 Off ch=3 n=59 v=75
52895 Off ch=3 n=62 v=75
52895 On ch=3 n=48 v=75
52895 On ch=3 n=52 v=75
52895 On ch=3 n=55 v=75
53134 Off ch=3 n=48 v=75
53134 Off ch=3 n=52 v=75
53134 Off ch=3 n=55 v=75
53134 On ch=3 n=55 v=75
53134 On ch=3 n=59 v=75
53134 On ch=3 n=62 v=75
53373 Off ch=3 n=55 v=75
53373 Off ch=3 n=59 v=75
53373 Off ch=3 n=62 v=75
53373 On ch=3 n=62 v=75
53373 On ch=3 n=66 v=75
53373 On ch=3 n=57 v=75
53612 Off ch=3 n=62 v=75
53612 Off ch=3 n=66 v=75
53612 Off ch=3 n=57 v=75
53612 On ch=3 n=50 v=75
53612 On ch=3 n=54 v=75
53612 On ch=3 n=57 v=75
53851 Off ch=3 n=50 v=75
53851 Off ch=3 n=54 v=75
53851 Off ch=3 n=57 v=75
53851 On ch=3 n=52 v=75
53851 On ch=3 n=55 v=75
53851 On ch=3 n=59 v=75
54090 Off ch=3 n=52 v=75
54090 Off ch=3 n=55 v=75
54090 Off ch=3 n=59 v=75
54090 On ch=3 n=57 v=75
54090 On ch=3 n=61 v=75
54090 On ch=3 n=64 v=75
54329 Off ch=3 n=57 v=75
54329 Off ch=3 n=61 v=75
54329 Off ch=3 n=64 v=75
54329 On ch=3 n=48 v=75
54329 On ch=3 n=52 v=75
54329 On ch=3 n=55 v=75
54568 Off ch=3 n=48 v=75
54568 Off ch=3 n=52 v=75
54568 Off ch=3 n=55 v=75
54568 On ch=3 n=55 v=75
54568 On ch=3 n=59 v=75
54568 On ch=3 n=62 v=75
54807 Off ch=3 n=55 v=75
54807 Off ch=3 n=59 v=75
54807 Off ch=3 n=62 v=75
54807 On ch=3 n=59 v=75
54807 On ch=3 n=62 v=75
54807 On ch=3 n=66 v=75
55046 Off ch=3 n=59 v=75
55046 Off ch=3 n=62 v=75
55046 Off ch=3 n=66 v=75
55046 On ch=3 n=55 v=75
55046 On ch=3 n=59 v=75
55046 On ch=3 n=62 v=75
55285 Off ch=3 n=55 v=75
55285 Off ch=3 n=59 v=75
55285 Off ch=3 n=62 v=75
55285 On ch=3 n=62 v=75
55285 On ch=3 n=66 v=75
55285 On ch=3 n=57 v=75
55524 Off ch=3 n=62 v=75
55524 Off ch=3 n=66 v=75
55524 Off ch=3 n=57 v=75
55524 On ch=3 n=59 v=75
55524 On ch=3 n=62 v=75
55524 On ch=3 n=66 v=75
57443 Off ch=3 n=59 v=75
57443 Off ch=3 n=62 v=75
57443 Off ch=3 n=66 v=75
57443 On ch=3 n=52 v=75
57443 On ch=3 n=56 v=75
57443 On ch=3 n=59 v=75
57443 On ch=3 n=62 v=75
59362 Off ch=3 n=52 v=75
59362 Off ch=3 n=56 v=75
59362 Off ch=3 n=59 v=75
59362 Off ch=3 n=62 v=75
59362 On ch=3 n=57 v=75
59362 On ch=3 n=61 v=75
59362 On ch=3 n=64 v=75
59362 On ch=3 n=67 v=75
61281 Off ch=3 n=57 v=75
61281 Off ch=3 n=61 v=75
61281 Off ch=3 n=64 v=75
61281 Off ch=3 n=67 v=75
61281 On ch=3 n=55 v=75
61281 On ch=3 n=59 v=75
61281 On ch=3 n=62 v=75
63200 Off ch=3 n=55 v=75
63200 Off ch=3 n=59 v=75
63200 Off ch=3 n=62 v=75
63200 On ch=3 n=57 v=75
63200 On ch=3 n=61 v=75
63200 On ch=3 n=64 v=75
63200 On ch=3 n=67 v=75
65119 Off ch=3 n=57 v=75
65119 Off ch=3 n=61 v=75
65119 Off ch=3 n=64 v=75
65119 Off ch=3 n=67 v=75
65119 On ch=3 n=57 v=75
65119 On ch=3 n=61 v=75
65119 On ch=3 n=64 v=75
65119 On ch=3 n=67 v=75
67038 Off ch=3 n=57 v=75
67038 Off ch=3 n=61 v=75
67038 Off ch=3 n=64 v=75
67038 Off ch=3 n=67 v=75
67038 On ch=3 n=55 v=75
67038 On ch=3 n=59 v=75
67038 On ch=3 n=62 v=75
68957 Off ch=3 n=55 v=75
68957 Off ch=3 n=59 v=75
68957 Off ch=3 n=62 v=75
68957 On ch=3 n=55 v=75
68957 On ch=3 n=59 v=75
68957 On ch=3 n=62 v=75
70876 Off ch=3 n=55 v=75
70876 Off ch=3 n=59 v=75
70876 Off ch=3 n=62 v=75
70876 On ch=3 n=55 v=75
70876 On ch=3 n=59 v=75
70876 On ch=3 n=62 v=75
72795 Off ch=3 n=55 v=75
72795 Off ch=3 n=59 v=75
72795 Off ch=3 n=62 v=75
72795 On ch=3 n=57 v=75
72795 On ch=3 n=60 v=75
72795 On ch=3 n=64 v=75
74714 Off ch=3 n=57 v=75
74714 Off ch=3 n=60 v=75
74714 Off ch=3 n=64 v=75
74714 On ch=3 n=55 v=75
74714 On ch=3 n=59 v=75
74714 On ch=3 n=62 v=75
76633 Off ch=3 n=55 v=75
76633 Off ch=3 n=59 v=75
76633 Off ch=3 n=62 v=75
76633 On ch=3 n=55 v=75
76633 On ch=3 n=59 v=75
76633 On ch=3 n=62 v=75
78552 Off ch=3 n=55 v=75
78552 Off ch=3 n=59 v=75
78552 Off ch=3 n=62 v=75
78552 On ch=3 n=50 v=75
78552 On ch=3 n=54 v=75
78552 On ch=3 n=57 v=75
80471 Off ch=3 n=50 v=75
80471 Off ch=3 n=54 v=75
80471 Off ch=3 n=57 v=75
80471 On ch=3 n=57 v=75
80471 On ch=3 n=61 v=75
80471 On ch=3 n=64 v=75
80471 On ch=3 n=67 v=75
82390 Off ch=3 n=57 v=75
82390 Off ch=3 n=61 v=75
82390 Off ch=3 n=64 v=75
82390 Off ch=3 n=67 v=75
82390 On ch=3 n=55 v=75
82390 On ch=3 n=59 v=75
82390 On ch=3 n=62 v=75
84309 Off ch=3 n=55 v=75
84309 Off ch=3 n=59 v=75
84309 Off ch=3 n=62 v=75
84309 On ch=3 n=50 v=75
84309 On ch=3 n=54 v=75
84309 On ch=3 n=57 v=75
86228 Off ch=3 n=50 v=75
86228 Off ch=3 n=54 v=75
86228 Off ch=3 n=57 v=75
86228 On ch=3 n=57 v=75
86228 On ch=3 n=61 v=75
86228 On ch=3 n=64 v=75
86228 On ch=3 n=67 v=75
88147 Off ch=3 n=57 v=75
88147 Off ch=3 n=61 v=75
88147 Off ch=3 n=64 v=75
88147 Off ch=3 n=67 v=75
88147 On ch=3 n=50 v=75
88147 On ch=3 n=54 v=75
88147 On ch=3 n=57 v=75
90066 Off ch=3 n=50 v=75
90066 Off ch=3 n=54 v=75
90066 Off ch=3 n=57 v=75
90066 On ch=3 n=57 v=75
90066 On ch=3 n=61 v=75
90066 On ch=3 n=64 v=75
91985 Off ch=3 n=57 v=75
91985 Off ch=3 n=61 v=75
91985 Off ch=3 n=64 v=75
91985 On ch=3 n=55 v=75
91985 On ch=3 n=59 v=75
91985 On ch=3 n=62 v=75
93904 Off ch=3 n=55 v=75
93904 Off ch=3 n=59 v=75
93904 Off ch=3 n=62 v=75
93904 On ch=3 n=48 v=75
93904 On ch=3 n=52 v=75
93904 On ch=3 n=55 v=75
95823 Off ch=3 n=48 v=75
95823 Off ch=3 n=52 v=75
95823 Off ch=3 n=55 v=75
95823 Meta TrkEnd
TrkEnd
MTrk
0 Meta TrkName "Cuillin Reel"
0 Meta Text " Nottingham Music Database"
0 Meta Text "S:Mick Peat"
0 On ch=4 n=69 v=80
239 Off ch=4 n=69 v=80
239 On ch=4 n=72 v=105
478 Off ch=4 n=72 v=105
478 On ch=4 n=76 v=80
717 Off ch=4 n=76 v=80
717 On ch=4 n=76 v=80
956 Off ch=4 n=76 v=80
956 On ch=4 n=76 v=95
1195 Off ch=4 n=76 v=95
1195 On ch=4 n=69 v=80
1434 Off ch=4 n=69 v=80
1434 On ch=4 n=69 v=80
1673 Off ch=4 n=69 v=80
1673 On ch=4 n=74 v=105
1912 Off ch=4 n=74 v=105
1912 On ch=4 n=67 v=80
2151 Off ch=4 n=67 v=80
2151 On ch=4 n=67 v=80
2390 Off ch=4 n=67 v=80
2390 On ch=4 n=67 v=80
2629 Off ch=4 n=67 v=80
2629 On ch=4 n=67 v=80
2868 Off ch=4 n=67 v=80
2868 On ch=4 n=67 v=80
3107 Off ch=4 n=67 v=80
3107 On ch=4 n=67 v=80
3346 Off ch=4 n=67 v=80
3346 On ch=4 n=67 v=80
3585 Off ch=4 n=67 v=80
3585 On ch=4 n=67 v=80
3824 Off ch=4 n=67 v=80
3824 On ch=4 n=67 v=80
4063 Off ch=4 n=67 v=80
4063 On ch=4 n=67 v=80
4302 Off ch=4 n=67 v=80
4302 On ch=4 n=67 v=80
4541 Off ch=4 n=67 v=80
4541 On ch=4 n=67 v=80
4780 Off ch=4 n=67 v=80
4780 On ch=4 n=67 v=80
5019 Off ch=4 n=67 v=80
5019 On ch=4 n=67 v=80
5258 Off ch=4 n=67 v=80
5258 On ch=4 n=67 v=80
5497 Off ch=4 n=67 v=80
5497 On ch=4 n=67 v=80
5736 Off ch=4 n=67 v=80
5736 On ch=4 n=71 v=80
5975 Off ch=4 n=71 v=80
5975 On ch=4 n=72 v=105
6694 Off ch=4 n=72 v=105
6694 On ch=4 n=72 v=95
7173 Off ch=4 n=72 v=95
7173 On ch=4 n=69 v=80
7412 Off ch=4 n=69 v=80
7412 On ch=4 n=72 v=105
7651 Off ch=4 n=72 v=105
7651 On ch=4 n=76 v=80
7890 Off ch=4 n=76 v=80
7890 On ch=4 n=76 v=80
8129 Off ch=4 n=76 v=80
8129 On ch=4 n=76 v=95
8368 Off ch=4 n=76 v=95
8368 On ch=4 n=69 v=80
8607 Off ch=4 n=69 v=80
8607 On ch=4 n=69 v=80
8846 Off ch=4 n=69 v=80
8846 On ch=4 n=76 v=95
9085 Off ch=4 n=76 v=95
9085 On ch=4 n=69 v=80
9324 Off ch=4 n=69 v=80
9324 On ch=4 n=69 v=80
9563 Off ch=4 n=69 v=80
9563 On ch=4 n=76 v=80
9802 Off ch=4 n=76 v=80
9802 On ch=4 n=76 v=95
10041 Off ch=4 n=76 v=95
10041 On ch=4 n=69 v=80
10280 Off ch=4 n=69 v=80
10280 On ch=4 n=69 v=80
10519 Off ch=4 n=69 v=80
10519 On ch=4 n=76 v=95
10758 Off ch=4 n=76 v=95
10758 On ch=4 n=69 v=80
10997 Off ch=4 n=69 v=80
10997 On ch=4 n=69 v=80
11236 Off ch=4 n=69 v=80
11236 On ch=4 n=76 v=80
11475 Off ch=4 n=76 v=80
11475 On ch=4 n=76 v=95
11714 Off ch=4 n=76 v=95
11714 On ch=4 n=69 v=80
11953 Off ch=4 n=69 v=80
11953 On ch=4 n=69 v=80
12192 Off ch=4 n=69 v=80
12192 On ch=4 n=69 v=80
12431 Off ch=4 n=69 v=80
12431 On ch=4 n=69 v=80
12670 Off ch=4 n=69 v=80
12670 On ch=4 n=69 v=80
12909 Off ch=4 n=69 v=80
12909 On ch=4 n=69 v=80
13148 Off ch=4 n=69 v=80
13148 On ch=4 n=69 v=80
13387 Off ch=4 n=69 v=80
13387 On ch=4 n=69 v=80
13626 Off ch=4 n=69 v=80
13626 On ch=4 n=69 v=80
13865 Off ch=4 n=69 v=80
13865 On ch=4 n=69 v=80
14104 Off ch=4 n=69 v=80
14104 On ch=4 n=69 v=80
14343 Off ch=4 n=69 v=80
14343 On ch=4 n=69 v=80
14582 Off ch=4 n=69 v=80
14582 On ch=4 n=69 v=80
14821 Off ch=4 n=69 v=80
14821 On ch=4 n=69 v=80
15060 Off ch=4 n=69 v=80
15060 On ch=4 n=69 v=80
15299 Off ch=4 n=69 v=80
15299 On ch=4 n=69 v=80
15538 Off ch=4 n=69 v=80
15538 On ch=4 n=69 v=80
15777 Off ch=4 n=69 v=80
15777 On ch=4 n=69 v=105
16016 Off ch=4 n=69 v=105
16016 On ch=4 n=71 v=80
16255 Off ch=4 n=71 v=80
16255 On ch=4 n=72 v=105
16974 Off ch=4 n=72 v=105
16974 On ch=4 n=72 v=95
17453 Off ch=4 n=72 v=95
17453 On ch=4 n=69 v=80
17692 Off ch=4 n=69 v=80
17692 On ch=4 n=72 v=105
17931 Off ch=4 n=72 v=105
17931 On ch=4 n=76 v=80
18170 Off ch=4 n=76 v=80
18170 On ch=4 n=76 v=80
18409 Off ch=4 n=76 v=80
18409 On ch=4 n=76 v=80
18648 Off ch=4 n=76 v=80
18648 On ch=4 n=76 v=80
18887 Off ch=4 n=76 v=80
18887 On ch=4 n=76 v=80
19126 Off ch=4 n=76 v=80
19126 On ch=4 n=76 v=80
19365 Off ch=4 n=76 v=80
19365 On ch=4 n=69 v=105
19604 Off ch=4 n=69 v=105
19604 On ch=4 n=71 v=80
19843 Off ch=4 n=71 v=80
19843 On ch=4 n=72 v=105
20562 Off ch=4 n=72 v=105
20562 On ch=4 n=72 v=95
21041 Off ch=4 n=72 v=95
21041 On ch=4 n=76 v=80
21280 Off ch=4 n=76 v=80
21280 On ch=4 n=76 v=80
21519 Off ch=4 n=76 v=80
21519 On ch=4 n=76 v=80
21758 Off ch=4 n=76 v=80
21758 On ch=4 n=76 v=80
21997 Off ch=4 n=76 v=80
21997 On ch=4 n=76 v=80
22236 Off ch=4 n=76 v=80
22236 On ch=4 n=76 v=80
22475 Off ch=4 n=76 v=80
22475 On ch=4 n=76 v=80
22714 Off ch=4 n=76 v=80
22714 On ch=4 n=76 v=80
22953 Off ch=4 n=76 v=80
22953 On ch=4 n=76 v=80
23192 Off ch=4 n=76 v=80
23192 On ch=4 n=76 v=80
23431 Off ch=4 n=76 v=80
23431 On ch=4 n=76 v=80
23670 Off ch=4 n=76 v=80
23670 On ch=4 n=76 v=80
23909 Off ch=4 n=76 v=80
23909 On ch=4 n=76 v=80
24148 Off ch=4 n=76 v=80
24148 On ch=4 n=76 v=80
24387 Off ch=4 n=76 v=80
24387 On ch=4 n=76 v=80
24626 Off ch=4 n=76 v=80
24626 On ch=4 n=76 v=80
24865 Off ch=4 n=76 v=80
24865 On ch=4 n=76 v=80
25104 Off ch=4 n=76 v=80
25104 On ch=4 n=76 v=80
25343 Off ch=4 n=76 v=80
25343 On ch=4 n=76 v=80
25582 Off ch=4 n=76 v=80
25582 On ch=4 n=76 v=80
25821 Off ch=4 n=76 v=80
25821 On ch=4 n=76 v=80
26060 Off ch=4 n=76 v=80
26060 On ch=4 n=76 v=80
26299 Off ch=4 n=76 v=80
26299 On ch=4 n=76 v=80
26538 Off ch=4 n=76 v=80
26538 On ch=4 n=76 v=80
26777 Off ch=4 n=76 v=80
26777 On ch=4 n=76 v=80
27016 Off ch=4 n=76 v=80
27016 On ch=4 n=76 v=80
27255 Off ch=4 n=76 v=80
27255 On ch=4 n=76 v=80
27494 Off ch=4 n=76 v=80
27494 On ch=4 n=76 v=80
27733 Off ch=4 n=76 v=80
27733 On ch=4 n=76 v=80
27972 Off ch=4 n=76 v=80
27972 On ch=4 n=69 v=80
28211 Off ch=4 n=69 v=80
28211 On ch=4 n=69 v=80
28450 Off ch=4 n=69 v=80
28450 On ch=4 n=69 v=80
28689 Off ch=4 n=69 v=80
28689 On ch=4 n=76 v=80
28928 Off ch=4 n=76 v=80
28928 On ch=4 n=76 v=80
29167 Off ch=4 n=76 v=80
29167 On ch=4 n=69 v=105
29406 Off ch=4 n=69 v=105
29406 On ch=4 n=76 v=80
29645 Off ch=4 n=76 v=80
29645 On ch=4 n=76 v=80
29884 Off ch=4 n=76 v=80
29884 On ch=4 n=7 v=80
30123 Off ch=4 n=7 v=80
30123 On ch=4 n=76 v=80
30362 Off ch=4 n=76 v=80
30362 On ch=4 n=69 v=80
30601 Off ch=4 n=69 v=80
30601 On ch=4 n=69 v=80
30840 Off ch=4 n=69 v=80
30840 On ch=4 n=69 v=80
31079 Off ch=4 n=69 v=80
31079 On ch=4 n=69 v=80
31318 Off ch=4 n=69 v=80
31318 On ch=4 n=69 v=80
31557 Off ch=4 n=69 v=80
31557 On ch=4 n=71 v=80
32036 Off ch=4 n=71 v=80
32036 On ch=4 n=69 v=80
32275 Off ch=4 n=69 v=80
32275 On ch=4 n=69 v=80
32514 Off ch=4 n=69 v=80
32514 On ch=4 n=76 v=95
33233 Off ch=4 n=76 v=95
33233 On ch=4 n=76 v=80
33472 Off ch=4 n=76 v=80
33472 On ch=4 n=69 v=80
33711 Off ch=4 n=69 v=80
33711 On ch=4 n=69 v=80
33950 Off ch=4 n=69 v=80
33950 On ch=4 n=69 v=80
34189 Off ch=4 n=69 v=80
34189 On ch=4 n=69 v=80
34428 Off ch=4 n=69 v=80
34428 On ch=4 n=69 v=80
34667 Off ch=4 n=69 v=80
34667 On ch=4 n=69 v=80
34906 Off ch=4 n=69 v=80
34906 On ch=4 n=69 v=80
35145 Off ch=4 n=69 v=80
35145 On ch=4 n=69 v=80
35384 Off ch=4 n=69 v=80
35384 On ch=4 n=76 v=80
35623 Off ch=4 n=76 v=80
35623 On ch=4 n=76 v=80
35862 Off ch=4 n=76 v=80
35862 On ch=4 n=76 v=80
36101 Off ch=4 n=76 v=80
36101 On ch=4 n=76 v=80
36340 Off ch=4 n=76 v=80
36340 On ch=4 n=76 v=80
36579 Off ch=4 n=76 v=80
36579 On ch=4 n=76 v=80
36818 Off ch=4 n=76 v=80
36818 On ch=4 n=76 v=80
37057 Off ch=4 n=76 v=80
37057 On ch=4 n=76 v=80
37296 Off ch=4 n=76 v=80
37296 On ch=4 n=69 v=105
37535 Off ch=4 n=69 v=105
37535 On ch=4 n=76 v=80
37774 Off ch=4 n=76 v=80
37774 On ch=4 n=76 v=80
38013 Off ch=4 n=76 v=80
38013 On ch=4 n=76 v=80
38252 Off ch=4 n=76 v=80
38252 On ch=4 n=76 v=80
38491 Off ch=4 n=76 v=80
38491 On ch=4 n=76 v=80
38730 Off ch=4 n=76 v=80
38730 On ch=4 n=76 v=80
38969 Off ch=4 n=76 v=80
38969 On ch=4 n=76 v=80
39208 Off ch=4 n=76 v=80
39208 On ch=4 n=76 v=80
39447 Off ch=4 n=76 v=80
39447 Meta TrkEnd
TrkEnd
