MFile 1 2 480
MTrk
0 Tempo 500000
0 KeySig 1 major
0 TimeSig 4/4 48 8
0 Meta SeqName "Cuillin Reel"
54014 Meta TrkEnd
TrkEnd
MTrk
0 Meta TrkName "Cuillin Reel"
0 Meta Text " Nottingham Music Database"
0 Meta Text "S:Mick Peat"
0 On ch=2 n=38 v=80
239 Off ch=2 n=38 v=80
239 On ch=2 n=36 v=80
478 Off ch=2 n=36 v=80
478 On ch=2 n=45 v=80
717 Off ch=2 n=45 v=80
717 On ch=2 n=38 v=80
956 Off ch=2 n=38 v=80
956 On ch=2 n=36 v=80
1195 Off ch=2 n=36 v=80
1195 On ch=2 n=45 v=80
1434 Off ch=2 n=45 v=80
1434 On ch=2 n=38 v=80
1673 Off ch=2 n=38 v=80
1673 On ch=2 n=38 v=80
1912 Off ch=2 n=38 v=80
1912 On ch=2 n=43 v=80
2151 Off ch=2 n=43 v=80
2151 On ch=2 n=36 v=80
2390 Off ch=2 n=36 v=80
2390 On ch=2 n=43 v=80
2629 Off ch=2 n=43 v=80
2629 On ch=2 n=45 v=80
2868 Off ch=2 n=45 v=80
2868 On ch=2 n=38 v=80
3107 Off ch=2 n=38 v=80
3107 On ch=2 n=43 v=80
3346 Off ch=2 n=43 v=80
3346 On ch=2 n=38 v=80
3585 Off ch=2 n=38 v=80
3585 On ch=2 n=43 v=80
3824 Off ch=2 n=43 v=80
3824 On ch=2 n=45 v=80
4063 Off ch=2 n=45 v=80
4063 On ch=2 n=43 v=80
4302 Off ch=2 n=43 v=80
4302 On ch=2 n=38 v=80
4541 Off ch=2 n=38 v=80
4541 On ch=2 n=36 v=80
4780 Off ch=2 n=36 v=80
4780 On ch=2 n=43 v=80
5019 Off ch=2 n=43 v=80
5019 On ch=2 n=43 v=80
5258 Off ch=2 n=43 v=80
5258 On ch=2 n=38 v=80
5497 Off ch=2 n=38 v=80
5497 On ch=2 n=45 v=80
5736 Off ch=2 n=45 v=80
5736 On ch=2 n=43 v=80
5975 Off ch=2 n=43 v=80
5975 On ch=2 n=43 v=80
6214 Off ch=2 n=43 v=80
6214 On ch=2 n=38 v=80
6453 Off ch=2 n=38 v=80
6453 On ch=2 n=38 v=80
6692 Off ch=2 n=38 v=80
6692 On ch=2 n=43 v=80
6931 Off ch=2 n=43 v=80
6931 On ch=2 n=38 v=80
7170 Off ch=2 n=38 v=80
7170 On ch=2 n=38 v=80
7409 Off ch=2 n=38 v=80
7409 On ch=2 n=43 v=80
7648 Off ch=2 n=43 v=80
7648 On ch=2 n=36 v=80
7887 Off ch=2 n=36 v=80
7887 On ch=2 n=43 v=80
8126 Off ch=2 n=43 v=80
8126 On ch=2 n=45 v=80
8365 Off ch=2 n=45 v=80
8365 On ch=2 n=38 v=80
8604 Off ch=2 n=38 v=80
8604 On ch=2 n=36 v=80
8843 Off ch=2 n=36 v=80
8843 On ch=2 n=45 v=80
9082 Off ch=2 n=45 v=80
9082 On ch=2 n=38 v=80
9321 Off ch=2 n=38 v=80
9321 On ch=2 n=36 v=80
9560 Off ch=2 n=36 v=80
9560 On ch=2 n=36 v=80
9799 Off ch=2 n=36 v=80
9799 On ch=2 n=36 v=80
10038 Off ch=2 n=36 v=80
10038 On ch=2 n=43 v=80
10277 Off ch=2 n=43 v=80
10277 On ch=2 n=43 v=80
10516 Off ch=2 n=43 v=80
10516 On ch=2 n=38 v=80
10755 Off ch=2 n=38 v=80
10755 On ch=2 n=45 v=80
10994 Off ch=2 n=45 v=80
10994 On ch=2 n=38 v=80
11233 Off ch=2 n=38 v=80
11233 On ch=2 n=43 v=80
11472 Off ch=2 n=43 v=80
11472 On ch=2 n=43 v=80
11711 Off ch=2 n=43 v=80
11711 On ch=2 n=36 v=80
11950 Off ch=2 n=36 v=80
11950 On ch=2 n=38 v=80
12189 Off ch=2 n=38 v=80
12189 On ch=2 n=43 v=80
12428 Off ch=2 n=43 v=80
12428 On ch=2 n=45 v=80
12667 Off ch=2 n=45 v=80
12667 On ch=2 n=38 v=80
12906 Off ch=2 n=38 v=80
12906 On ch=2 n=38 v=80
13145 Off ch=2 n=38 v=80
13145 On ch=2 n=36 v=80
13384 Off ch=2 n=36 v=80
13384 On ch=2 n=43 v=80
13623 Off ch=2 n=43 v=80
13623 On ch=2 n=43 v=80
13862 Off ch=2 n=43 v=80
13862 On ch=2 n=38 v=80
14101 Off ch=2 n=38 v=80
14101 On ch=2 n=45 v=80
14340 Off ch=2 n=45 v=80
14340 On ch=2 n=38 v=80
14579 Off ch=2 n=38 v=80
14579 On ch=2 n=43 v=80
14818 Off ch=2 n=43 v=80
14818 On ch=2 n=38 v=80
15057 Off ch=2 n=38 v=80
15057 On ch=2 n=43 v=80
15296 Off ch=2 n=43 v=80
15296 On ch=2 n=45 v=80
15535 Off ch=2 n=45 v=80
15535 On ch=2 n=38 v=80
15774 Off ch=2 n=38 v=80
15774 On ch=2 n=38 v=80
16013 Off ch=2 n=38 v=80
16013 On ch=2 n=45 v=80
16252 Off ch=2 n=45 v=80
16252 On ch=2 n=45 v=80
16491 Off ch=2 n=45 v=80
16491 On ch=2 n=45 v=80
16730 Off ch=2 n=45 v=80
16730 On ch=2 n=38 v=80
16969 Off ch=2 n=38 v=80
16969 On ch=2 n=43 v=80
17208 Off ch=2 n=43 v=80
17208 On ch=2 n=43 v=80
17447 Off ch=2 n=43 v=80
17447 On ch=2 n=43 v=80
17686 Off ch=2 n=43 v=80
17686 On ch=2 n=36 v=80
17925 Off ch=2 n=36 v=80
17925 On ch=2 n=38 v=80
18164 Off ch=2 n=38 v=80
18164 On ch=2 n=43 v=80
18403 Off ch=2 n=43 v=80
18403 On ch=2 n=43 v=80
18642 Off ch=2 n=43 v=80
18642 On ch=2 n=43 v=80
18881 Off ch=2 n=43 v=80
18881 On ch=2 n=36 v=80
19120 Off ch=2 n=36 v=80
19120 On ch=2 n=38 v=80
19359 Off ch=2 n=38 v=80
19359 On ch=2 n=38 v=80
19598 Off ch=2 n=38 v=80
19598 On ch=2 n=38 v=80
19837 Off ch=2 n=38 v=80
19837 On ch=2 n=43 v=80
20076 Off ch=2 n=43 v=80
20076 On ch=2 n=45 v=80
20315 Off ch=2 n=45 v=80
20315 On ch=2 n=45 v=80
20554 Off ch=2 n=45 v=80
20554 On ch=2 n=45 v=80
20793 Off ch=2 n=45 v=80
20793 On ch=2 n=43 v=80
21032 Off ch=2 n=43 v=80
21032 On ch=2 n=38 v=80
21271 Off ch=2 n=38 v=80
21271 On ch=2 n=45 v=80
21510 Off ch=2 n=45 v=80
21510 On ch=2 n=45 v=80
21749 Off ch=2 n=45 v=80
21749 On ch=2 n=38 v=80
21988 Off ch=2 n=38 v=80
21988 On ch=2 n=36 v=80
22227 Off ch=2 n=36 v=80
22227 On ch=2 n=38 v=80
22466 Off ch=2 n=38 v=80
22466 On ch=2 n=38 v=80
22705 Off ch=2 n=38 v=80
22705 On ch=2 n=43 v=80
22944 Off ch=2 n=43 v=80
22944 On ch=2 n=36 v=80
23183 Off ch=2 n=36 v=80
23183 On ch=2 n=45 v=80
23422 Off ch=2 n=45 v=80
23422 On ch=2 n=43 v=80
23661 Off ch=2 n=43 v=80
23661 On ch=2 n=36 v=80
23900 Off ch=2 n=36 v=80
23900 On ch=2 n=43 v=80
24139 Off ch=2 n=43 v=80
24139 On ch=2 n=43 v=80
24378 Off ch=2 n=43 v=80
24378 On ch=2 n=36 v=80
24617 Off ch=2 n=36 v=80
24617 On ch=2 n=38 v=80
24856 Off ch=2 n=38 v=80
24856 On ch=2 n=45 v=80
25095 Off ch=2 n=45 v=80
25095 On ch=2 n=43 v=80
25334 Off ch=2 n=43 v=80
25334 On ch=2 n=45 v=80
25573 Off ch=2 n=45 v=80
25573 On ch=2 n=38 v=80
25812 Off ch=2 n=38 v=80
25812 On ch=2 n=43 v=80
26051 Off ch=2 n=43 v=80
26051 On ch=2 n=36 v=80
26290 Off ch=2 n=36 v=80
26290 On ch=2 n=36 v=80
26529 Off ch=2 n=36 v=80
26529 On ch=2 n=43 v=80
26768 Off ch=2 n=43 v=80
26768 On ch=2 n=43 v=80
27007 Off ch=2 n=43 v=80
27007 On ch=2 n=36 v=80
27246 Off ch=2 n=36 v=80
27246 On ch=2 n=45 v=80
27485 Off ch=2 n=45 v=80
27485 On ch=2 n=38 v=80
27724 Off ch=2 n=38 v=80
27724 On ch=2 n=43 v=80
27963 Off ch=2 n=43 v=80
27963 On ch=2 n=40 v=80
28202 Off ch=2 n=40 v=80
28202 On ch=2 n=43 v=80
28441 Off ch=2 n=43 v=80
28441 On ch=2 n=38 v=80
28680 Off ch=2 n=38 v=80
28680 On ch=2 n=45 v=80
28919 Off ch=2 n=45 v=80
28919 On ch=2 n=38 v=80
29158 Off ch=2 n=38 v=80
29158 On ch=2 n=36 v=80
29397 Off ch=2 n=36 v=80
29397 On ch=2 n=38 v=80
29636 Off ch=2 n=38 v=80
29636 On ch=2 n=45 v=80
29875 Off ch=2 n=45 v=80
29875 On ch=2 n=38 v=80
30114 Off ch=2 n=38 v=80
30114 On ch=2 n=43 v=80
30353 Off ch=2 n=43 v=80
30353 On ch=2 n=38 v=80
30592 Off ch=2 n=38 v=80
30592 On ch=2 n=43 v=80
30831 Off ch=2 n=43 v=80
30831 On ch=2 n=45 v=80
31070 Off ch=2 n=45 v=80
31070 On ch=2 n=38 v=80
31309 Off ch=2 n=38 v=80
31309 On ch=2 n=43 v=80
31548 Off ch=2 n=43 v=80
31548 On ch=2 n=43 v=80
31787 Off ch=2 n=43 v=80
31787 On ch=2 n=36 v=80
32026 Off ch=2 n=36 v=80
32026 On ch=2 n=38 v=80
32265 Off ch=2 n=38 v=80
32265 On ch=2 n=38 v=80
32504 Off ch=2 n=38 v=80
32504 On ch=2 n=43 v=80
32743 Off ch=2 n=43 v=80
32743 On ch=2 n=36 v=80
32982 Off ch=2 n=36 v=80
32982 On ch=2 n=38 v=80
33221 Off ch=2 n=38 v=80
33221 On ch=2 n=38 v=80
33460 Off ch=2 n=38 v=80
33460 On ch=2 n=43 v=80
33699 Off ch=2 n=43 v=80
33699 On ch=2 n=36 v=80
33938 Off ch=2 n=36 v=80
33938 On ch=2 n=36 v=80
34177 Off ch=2 n=36 v=80
34177 On ch=2 n=36 v=80
34416 Off ch=2 n=36 v=80
34416 On ch=2 n=43 v=80
34655 Off ch=2 n=43 v=80
34655 On ch=2 n=43 v=80
34894 Off ch=2 n=43 v=80
34894 On ch=2 n=38 v=80
35133 Off ch=2 n=38 v=80
35133 On ch=2 n=45 v=80
35372 Off ch=2 n=45 v=80
35372 On ch=2 n=38 v=80
35611 Off ch=2 n=38 v=80
35611 On ch=2 n=43 v=80
35850 Off ch=2 n=43 v=80
35850 On ch=2 n=45 v=80
36089 Off ch=2 n=45 v=80
36089 On ch=2 n=36 v=80
36328 Off ch=2 n=36 v=80
36328 On ch=2 n=43 v=80
36567 Off ch=2 n=43 v=80
36567 On ch=2 n=36 v=80
36806 Off ch=2 n=36 v=80
36806 On ch=2 n=36 v=80
37045 Off ch=2 n=36 v=80
37045 On ch=2 n=43 v=80
37284 Off ch=2 n=43 v=80
37284 On ch=2 n=36 v=80
37523 Off ch=2 n=36 v=80
37523 On ch=2 n=36 v=80
37762 Off ch=2 n=36 v=80
37762 On ch=2 n=38 v=80
38001 Off ch=2 n=38 v=80
38001 On ch=2 n=43 v=80
38240 Off ch=2 n=43 v=80
38240 On ch=2 n=38 v=80
38479 Off ch=2 n=38 v=80
38479 On ch=2 n=45 v=80
38718 Off ch=2 n=45 v=80
38718 On ch=2 n=38 v=80
38957 Off ch=2 n=38 v=80
38957 On ch=2 n=43 v=80
39196 Off ch=2 n=43 v=80
39196 On ch=2 n=38 v=80
39435 Off ch=2 n=38 v=80
39435 On ch=2 n=43 v=80
39674 Off ch=2 n=43 v=80
39674 On ch=2 n=36 v=80
39913 Off ch=2 n=36 v=80
39913 On ch=2 n=36 v=80
40152 Off ch=2 n=36 v=80
40152 On ch=2 n=43 v=80
40391 Off ch=2 n=43 v=80
40391 On ch=2 n=43 v=80
40630 Off ch=2 n=43 v=80
40630 On ch=2 n=43 v=80
40869 Off ch=2 n=43 v=80
40869 On ch=2 n=45 v=80
41108 Off ch=2 n=45 v=80
41108 On ch=2 n=38 v=80
41347 Off ch=2 n=38 v=80
41347 On ch=2 n=38 v=80
41586 Off ch=2 n=38 v=80
41586 On ch=2 n=43 v=80
41825 Off ch=2 n=43 v=80
41825 On ch=2 n=38 v=80
42064 Off ch=2 n=38 v=80
42064 On ch=2 n=43 v=80
42303 Off ch=2 n=43 v=80
42303 On ch=2 n=36 v=80
42542 Off ch=2 n=36 v=80
42542 On ch=2 n=43 v=80
42781 Off ch=2 n=43 v=80
42781 On ch=2 n=38 v=80
43020 Off ch=2 n=38 v=80
43020 On ch=2 n=43 v=80
43259 Off ch=2 n=43 v=80
43259 On ch=2 n=36 v=80
43498 Off ch=2 n=36 v=80
43498 On ch=2 n=38 v=80
43737 Off ch=2 n=38 v=80
43737 On ch=2 n=43 v=80
43976 Off ch=2 n=43 v=80
43976 On ch=2 n=43 v=80
44215 Off ch=2 n=43 v=80
44215 On ch=2 n=43 v=80
44454 Off ch=2 n=43 v=80
44454 On ch=2 n=36 v=80
44693 Off ch=2 n=36 v=80
44693 On ch=2 n=38 v=80
44932 Off ch=2 n=38 v=80
44932 On ch=2 n=43 v=80
45171 Off ch=2 n=43 v=80
45171 On ch=2 n=38 v=80
45410 Off ch=2 n=38 v=80
45410 On ch=2 n=43 v=80
45649 Off ch=2 n=43 v=80
45649 On ch=2 n=36 v=80
45888 Off ch=2 n=36 v=80
45888 On ch=2 n=43 v=80
46127 Off ch=2 n=43 v=80
46127 On ch=2 n=45 v=80
46366 Off ch=2 n=45 v=80
46366 On ch=2 n=38 v=80
46605 Off ch=2 n=38 v=80
46605 On ch=2 n=38 v=80
46844 Off ch=2 n=38 v=80
46844 On ch=2 n=45 v=80
47083 Off ch=2 n=45 v=80
47083 On ch=2 n=38 v=80
47322 Off ch=2 n=38 v=80
47322 On ch=2 n=38 v=80
47561 Off ch=2 n=38 v=80
47561 On ch=2 n=38 v=80
47800 Off ch=2 n=38 v=80
47800 On ch=2 n=38 v=80
48039 Off ch=2 n=38 v=80
48039 On ch=2 n=43 v=80
48278 Off ch=2 n=43 v=80
48278 On ch=2 n=43 v=80
48517 Off ch=2 n=43 v=80
48517 On ch=2 n=36 v=80
48756 Off ch=2 n=36 v=80
48756 On ch=2 n=45 v=80
48995 Off ch=2 n=45 v=80
48995 On ch=2 n=38 v=80
49234 Off ch=2 n=38 v=80
49234 On ch=2 n=36 v=80
49473 Off ch=2 n=36 v=80
49473 On ch=2 n=36 v=80
49712 Off ch=2 n=36 v=80
49712 On ch=2 n=43 v=80
49951 Off ch=2 n=43 v=80
49951 On ch=2 n=38 v=80
50190 Off ch=2 n=38 v=80
50190 On ch=2 n=38 v=80
50429 Off ch=2 n=38 v=80
50429 On ch=2 n=43 v=80
50668 Off ch=2 n=43 v=80
50668 On ch=2 n=45 v=80
50907 Off ch=2 n=45 v=80
50907 On ch=2 n=36 v=80
51146 Off ch=2 n=36 v=80
51146 On ch=2 n=43 v=80
51385 Off ch=2 n=43 v=80
51385 On ch=2 n=38 v=80
51624 Off ch=2 n=38 v=80
51624 On ch=2 n=43 v=80
51863 Off ch=2 n=43 v=80
51863 On ch=2 n=38 v=80
52102 Off ch=2 n=38 v=80
52102 On ch=2 n=43 v=80
52341 Off ch=2 n=43 v=80
52341 On ch=2 n=43 v=80
52580 Off ch=2 n=43 v=80
52580 On ch=2 n=43 v=80
52819 Off ch=2 n=43 v=80
52819 On ch=2 n=36 v=80
53058 Off ch=2 n=36 v=80
53058 On ch=2 n=36 v=80
53297 Off ch=2 n=36 v=80
53297 On ch=2 n=43 v=80
53536 Off ch=2 n=43 v=80
53536 On ch=2 n=38 v=80
53775 Off ch=2 n=38 v=80
53775 On ch=2 n=37 v=80
54014 Off ch=2 n=37 v=80
54014 Meta TrkEnd
TrkEnd
