MFile 1 2 480
MTrk
0 Tempo 500000
0 KeySig 1 major
0 TimeSig 4/4 48 8
0 Meta SeqName "Cuillin Reel"
95823 Meta TrkEnd
TrkEnd
MTrk
0 Meta TrkName "Cuillin Reel"
0 Meta Text " Nottingham Music Database"
0 Meta Text "S:Mick Peat"
0 On ch=3 n=55 v=75
0 On ch=3 n=59 v=75
0 On ch=3 n=62 v=75
239 Off ch=3 n=55 v=75
239 Off ch=3 n=59 v=75
239 Off ch=3 n=62 v=75
239 On ch=3 n=48 v=75
239 On ch=3 n=52 v=75
239 On ch=3 n=55 v=75
478 Off ch=3 n=48 v=75
478 Off ch=3 n=52 v=75
478 Off ch=3 n=55 v=75
478 On ch=3 n=50 v=75
478 On ch=3 n=54 v=75
478 On ch=3 n=57 v=75
478 On ch=3 n=60 v=75
717 Off ch=3 n=50 v=75
717 Off ch=3 n=54 v=75
717 Off ch=3 n=57 v=75
717 Off ch=3 n=60 v=75
717 On ch=3 n=57 v=75
717 On ch=3 n=60 v=75
717 On ch=3 n=64 v=75
956 Off ch=3 n=57 v=75
956 Off ch=3 n=60 v=75
956 Off ch=3 n=64 v=75
956 On ch=3 n=52 v=75
956 On ch=3 n=55 v=75
956 On ch=3 n=59 v=75
1195 Off ch=3 n=52 v=75
1195 Off ch=3 n=55 v=75
1195 Off ch=3 n=59 v=75
1195 On ch=3 n=57 v=75
1195 On ch=3 n=60 v=75
1195 On ch=3 n=64 v=75
1434 Off ch=3 n=57 v=75
1434 Off ch=3 n=60 v=75
1434 Off ch=3 n=64 v=75
1434 On ch=3 n=50 v=75
1434 On ch=3 n=54 v=75
1434 On ch=3 n=57 v=75
1434 On ch=3 n=60 v=75
1673 Off ch=3 n=50 v=75
1673 Off ch=3 n=54 v=75
1673 Off ch=3 n=57 v=75
1673 Off ch=3 n=60 v=75
1673 On ch=3 n=48 v=75
1673 On ch=3 n=52 v=75
1673 On ch=3 n=55 v=75
1912 Off ch=3 n=48 v=75
1912 Off ch=3 n=52 v=75
1912 Off ch=3 n=55 v=75
1912 On ch=3 n=55 v=75
1912 On ch=3 n=59 v=75
1912 On ch=3 n=62 v=75
2151 Off ch=3 n=55 v=75
2151 Off ch=3 n=59 v=75
2151 Off ch=3 n=62 v=75
2151 On ch=3 n=55 v=75
2151 On ch=3 n=59 v=75
2151 On ch=3 n=62 v=75
2390 Off ch=3 n=55 v=75
2390 Off ch=3 n=59 v=75
2390 Off ch=3 n=62 v=75
2390 On ch=3 n=48 v=75
2390 On ch=3 n=52 v=75
2390 On ch=3 n=55 v=75
2629 Off ch=3 n=48 v=75
2629 Off ch=3 n=52 v=75
2629 Off ch=3 n=55 v=75
2629 On ch=3 n=50 v=75
2629 On ch=3 n=54 v=75
2629 On ch=3 n=57 v=75
2629 On ch=3 n=60 v=75
2868 Off ch=3 n=50 v=75
2868 Off ch=3 n=54 v=75
2868 Off ch=3 n=57 v=75
2868 Off ch=3 n=60 v=75
2868 On ch=3 n=52 v=75
2868 On ch=3 n=55 v=75
2868 On ch=3 n=59 v=75
3107 Off ch=3 n=52 v=75
3107 Off ch=3 n=55 v=75
3107 Off ch=3 n=59 v=75
3107 On ch=3 n=57 v=75
3107 On ch=3 n=60 v=75
3107 On ch=3 n=64 v=75
3346 Off ch=3 n=57 v=75
3346 Off ch=3 n=60 v=75
3346 Off ch=3 n=64 v=75
3346 On ch=3 n=57 v=75
3346 On ch=3 n=60 v=75
3346 On ch=3 n=64 v=75
3585 Off ch=3 n=57 v=75
3585 Off ch=3 n=60 v=75
3585 Off ch=3 n=64 v=75
3585 On ch=3 n=50 v=75
3585 On ch=3 n=54 v=75
3585 On ch=3 n=57 v=75
3824 Off ch=3 n=50 v=75
3824 Off ch=3 n=54 v=75
3824 Off ch=3 n=57 v=75
3824 On ch=3 n=55 v=75
3824 On ch=3 n=59 v=75
3824 On ch=3 n=62 v=75
4063 Off ch=3 n=55 v=75
4063 Off ch=3 n=59 v=75
4063 Off ch=3 n=62 v=75
4063 On ch=3 n=48 v=75
4063 On ch=3 n=52 v=75
4063 On ch=3 n=55 v=75
4302 Off ch=3 n=48 v=75
4302 Off ch=3 n=52 v=75
4302 Off ch=3 n=55 v=75
4302 On ch=3 n=50 v=75
4302 On ch=3 n=54 v=75
4302 On ch=3 n=57 v=75
4541 Off ch=3 n=50 v=75
4541 Off ch=3 n=54 v=75
4541 Off ch=3 n=57 v=75
4541 On ch=3 n=52 v=75
4541 On ch=3 n=55 v=75
4541 On ch=3 n=59 v=75
4780 Off ch=3 n=52 v=75
4780 Off ch=3 n=55 v=75
4780 Off ch=3 n=59 v=75
4780 On ch=3 n=57 v=75
4780 On ch=3 n=61 v=75
4780 On ch=3 n=64 v=75
4780 On ch=3 n=67 v=75
5019 Off ch=3 n=57 v=75
5019 Off ch=3 n=61 v=75
5019 Off ch=3 n=64 v=75
5019 Off ch=3 n=67 v=75
5019 On ch=3 n=50 v=75
5019 On ch=3 n=54 v=75
5019 On ch=3 n=57 v=75
5258 Off ch=3 n=50 v=75
5258 Off ch=3 n=54 v=75
5258 Off ch=3 n=57 v=75
5258 On ch=3 n=55 v=75
5258 On ch=3 n=58 v=75
5258 On ch=3 n=62 v=75
5497 Off ch=3 n=55 v=75
5497 Off ch=3 n=58 v=75
5497 Off ch=3 n=62 v=75
5497 On ch=3 n=64 v=75
5497 On ch=3 n=55 v=75
5497 On ch=3 n=59 v=75
5736 Off ch=3 n=64 v=75
5736 Off ch=3 n=55 v=75
5736 Off ch=3 n=59 v=75
5736 On ch=3 n=55 v=75
5736 On ch=3 n=59 v=75
5736 On ch=3 n=62 v=75
5975 Off ch=3 n=55 v=75
5975 Off ch=3 n=59 v=75
5975 Off ch=3 n=62 v=75
5975 On ch=3 n=55 v=75
5975 On ch=3 n=59 v=75
5975 On ch=3 n=62 v=75
6214 Off ch=3 n=55 v=75
6214 Off ch=3 n=59 v=75
6214 Off ch=3 n=62 v=75
6214 On ch=3 n=55 v=75
6214 On ch=3 n=59 v=75
6214 On ch=3 n=62 v=75
6453 Off ch=3 n=55 v=75
6453 Off ch=3 n=59 v=75
6453 Off ch=3 n=62 v=75
6453 On ch=3 n=55 v=75
6453 On ch=3 n=59 v=75
6453 On ch=3 n=62 v=75
6692 Off ch=3 n=55 v=75
6692 Off ch=3 n=59 v=75
6692 Off ch=3 n=62 v=75
6692 On ch=3 n=55 v=75
6692 On ch=3 n=59 v=75
6692 On ch=3 n=62 v=75
6931 Off ch=3 n=55 v=75
6931 Off ch=3 n=59 v=75
6931 Off ch=3 n=62 v=75
6931 On ch=3 n=48 v=75
6931 On ch=3 n=52 v=75
6931 On ch=3 n=55 v=75
7170 Off ch=3 n=48 v=75
7170 Off ch=3 n=52 v=75
7170 Off ch=3 n=55 v=75
7170 On ch=3 n=50 v=75
7170 On ch=3 n=54 v=75
7170 On ch=3 n=57 v=75
7170 On ch=3 n=60 v=75
7409 Off ch=3 n=50 v=75
7409 Off ch=3 n=54 v=75
7409 Off ch=3 n=57 v=75
7409 Off ch=3 n=60 v=75
7409 On ch=3 n=52 v=75
7409 On ch=3 n=55 v=75
7409 On ch=3 n=59 v=75
7648 Off ch=3 n=52 v=75
7648 Off ch=3 n=55 v=75
7648 Off ch=3 n=59 v=75
7648 On ch=3 n=57 v=75
7648 On ch=3 n=60 v=75
7648 On ch=3 n=64 v=75
7887 Off ch=3 n=57 v=75
7887 Off ch=3 n=60 v=75
7887 Off ch=3 n=64 v=75
7887 On ch=3 n=55 v=75
7887 On ch=3 n=59 v=75
7887 On ch=3 n=62 v=75
7887 On ch=3 n=65 v=75
8126 Off ch=3 n=55 v=75
8126 Off ch=3 n=59 v=75
8126 Off ch=3 n=62 v=75
8126 Off ch=3 n=65 v=75
8126 On ch=3 n=55 v=75
8126 On ch=3 n=59 v=75
8126 On ch=3 n=62 v=75
8126 On ch=3 n=65 v=75
8365 Off ch=3 n=55 v=75
8365 Off ch=3 n=59 v=75
8365 Off ch=3 n=62 v=75
8365 Off ch=3 n=65 v=75
8365 On ch=3 n=48 v=75
8365 On ch=3 n=52 v=75
8365 On ch=3 n=55 v=75
8604 Off ch=3 n=48 v=75
8604 Off ch=3 n=52 v=75
8604 Off ch=3 n=55 v=75
8604 On ch=3 n=48 v=75
8604 On ch=3 n=52 v=75
8604 On ch=3 n=55 v=75
8843 Off ch=3 n=48 v=75
8843 Off ch=3 n=52 v=75
8843 Off ch=3 n=55 v=75
8843 On ch=3 n=55 v=75
8843 On ch=3 n=59 v=75
8843 On ch=3 n=62 v=75
8843 On ch=3 n=65 v=75
9082 Off ch=3 n=55 v=75
9082 Off ch=3 n=59 v=75
9082 Off ch=3 n=62 v=75
9082 Off ch=3 n=65 v=75
9082 On ch=3 n=52 v=75
9082 On ch=3 n=56 v=75
9082 On ch=3 n=59 v=75
9082 On ch=3 n=62 v=75
9321 Off ch=3 n=52 v=75
9321 Off ch=3 n=56 v=75
9321 Off ch=3 n=59 v=75
9321 Off ch=3 n=62 v=75
9321 On ch=3 n=55 v=75
9321 On ch=3 n=59 v=75
9321 On ch=3 n=62 v=75
9321 On ch=3 n=65 v=75
9560 Off ch=3 n=55 v=75
9560 Off ch=3 n=59 v=75
9560 Off ch=3 n=62 v=75
9560 Off ch=3 n=65 v=75
9560 On ch=3 n=55 v=75
9560 On ch=3 n=59 v=75
9560 On ch=3 n=62 v=75
9560 On ch=3 n=65 v=75
9799 Off ch=3 n=55 v=75
9799 Off ch=3 n=59 v=75
9799 Off ch=3 n=62 v=75
9799 Off ch=3 n=65 v=75
9799 On ch=3 n=55 v=75
9799 On ch=3 n=59 v=75
9799 On ch=3 n=62 v=75
9799 On ch=3 n=65 v=75
10038 Off ch=3 n=55 v=75
10038 Off ch=3 n=59 v=75
10038 Off ch=3 n=62 v=75
10038 Off ch=3 n=65 v=75
10038 On ch=3 n=55 v=75
10038 On ch=3 n=59 v=75
10038 On ch=3 n=62 v=75
10038 On ch=3 n=65 v=75
10277 Off ch=3 n=55 v=75
10277 Off ch=3 n=59 v=75
10277 Off ch=3 n=62 v=75
10277 Off ch=3 n=65 v=75
10277 On ch=3 n=48 v=75
10277 On ch=3 n=52 v=75
10277 On ch=3 n=55 v=75
10516 Off ch=3 n=48 v=75
10516 Off ch=3 n=52 v=75
10516 Off ch=3 n=55 v=75
10516 On ch=3 n=48 v=75
10516 On ch=3 n=52 v=75
10516 On ch=3 n=55 v=75
10755 Off ch=3 n=48 v=75
10755 Off ch=3 n=52 v=75
10755 Off ch=3 n=55 v=75
10755 On ch=3 n=55 v=75
10755 On ch=3 n=59 v=75
10755 On ch=3 n=62 v=75
10994 Off ch=3 n=55 v=75
10994 Off ch=3 n=59 v=75
10994 Off ch=3 n=62 v=75
10994 On ch=3 n=50 v=75
10994 On ch=3 n=54 v=75
10994 On ch=3 n=57 v=75
11233 Off ch=3 n=50 v=75
11233 Off ch=3 n=54 v=75
11233 Off ch=3 n=57 v=75
11233 On ch=3 n=55 v=75
11233 On ch=3 n=59 v=75
11233 On ch=3 n=62 v=75
11472 Off ch=3 n=55 v=75
11472 Off ch=3 n=59 v=75
11472 Off ch=3 n=62 v=75
11472 On ch=3 n=48 v=75
11472 On ch=3 n=52 v=75
11472 On ch=3 n=55 v=75
11711 Off ch=3 n=48 v=75
11711 Off ch=3 n=52 v=75
11711 Off ch=3 n=55 v=75
11711 On ch=3 n=50 v=75
11711 On ch=3 n=54 v=75
11711 On ch=3 n=57 v=75
11950 Off ch=3 n=50 v=75
11950 Off ch=3 n=54 v=75
11950 Off ch=3 n=57 v=75
11950 On ch=3 n=57 v=75
11950 On ch=3 n=60 v=75
11950 On ch=3 n=64 v=75
12189 Off ch=3 n=57 v=75
12189 Off ch=3 n=60 v=75
12189 Off ch=3 n=64 v=75
12189 On ch=3 n=57 v=75
12189 On ch=3 n=60 v=75
12189 On ch=3 n=64 v=75
13628 Off ch=3 n=57 v=75
13628 Off ch=3 n=60 v=75
13628 Off ch=3 n=64 v=75
13628 On ch=3 n=50 v=75
13628 On ch=3 n=54 v=75
13628 On ch=3 n=57 v=75
13628 On ch=3 n=60 v=75
15067 Off ch=3 n=50 v=75
15067 Off ch=3 n=54 v=75
15067 Off ch=3 n=57 v=75
15067 Off ch=3 n=60 v=75
15067 On ch=3 n=55 v=75
15067 On ch=3 n=59 v=75
15067 On ch=3 n=62 v=75
16506 Off ch=3 n=55 v=75
16506 Off ch=3 n=59 v=75
16506 Off ch=3 n=62 v=75
16506 On ch=3 n=52 v=75
16506 On ch=3 n=55 v=75
16506 On ch=3 n=59 v=75
18425 Off ch=3 n=52 v=75
18425 Off ch=3 n=55 v=75
18425 Off ch=3 n=59 v=75
18425 On ch=3 n=48 v=75
18425 On ch=3 n=52 v=75
18425 On ch=3 n=55 v=75
18425 On ch=3 n=58 v=75
20344 Off ch=3 n=48 v=75
20344 Off ch=3 n=52 v=75
20344 Off ch=3 n=55 v=75
20344 Off ch=3 n=58 v=75
20344 On ch=3 n=53 v=75
20344 On ch=3 n=57 v=75
20344 On ch=3 n=60 v=75
22263 Off ch=3 n=53 v=75
22263 Off ch=3 n=57 v=75
22263 Off ch=3 n=60 v=75
22263 On ch=3 n=55 v=75
22263 On ch=3 n=59 v=75
22263 On ch=3 n=62 v=75
22263 On ch=3 n=65 v=75
23702 Off ch=3 n=55 v=75
23702 Off ch=3 n=59 v=75
23702 Off ch=3 n=62 v=75
23702 Off ch=3 n=65 v=75
23702 On ch=3 n=48 v=75
23702 On ch=3 n=52 v=75
23702 On ch=3 n=55 v=75
23702 On ch=3 n=58 v=75
25141 Off ch=3 n=48 v=75
25141 Off ch=3 n=52 v=75
25141 Off ch=3 n=55 v=75
25141 Off ch=3 n=58 v=75
25141 On ch=3 n=53 v=75
25141 On ch=3 n=57 v=75
25141 On ch=3 n=60 v=75
26580 Off ch=3 n=53 v=75
26580 Off ch=3 n=57 v=75
26580 Off ch=3 n=60 v=75
26580 On ch=3 n=53 v=75
26580 On ch=3 n=57 v=75
26580 On ch=3 n=60 v=75
28019 Off ch=3 n=53 v=75
28019 Off ch=3 n=57 v=75
28019 Off ch=3 n=60 v=75
28019 On ch=3 n=53 v=75
28019 On ch=3 n=57 v=75
28019 On ch=3 n=60 v=75
29458 Off ch=3 n=53 v=75
29458 Off ch=3 n=57 v=75
29458 Off ch=3 n=60 v=75
29458 On ch=3 n=48 v=75
29458 On ch=3 n=52 v=75
29458 On ch=3 n=55 v=75
29458 On ch=3 n=58 v=75
30897 Off ch=3 n=48 v=75
30897 Off ch=3 n=52 v=75
30897 Off ch=3 n=55 v=75
30897 Off ch=3 n=58 v=75
30897 On ch=3 n=55 v=75
30897 On ch=3 n=59 v=75
30897 On ch=3 n=62 v=75
30897 On ch=3 n=65 v=75
32336 Off ch=3 n=55 v=75
32336 Off ch=3 n=59 v=75
32336 Off ch=3 n=62 v=75
32336 Off ch=3 n=65 v=75
32336 On ch=3 n=57 v=75
32336 On ch=3 n=61 v=75
32336 On ch=3 n=64 v=75
32336 On ch=3 n=67 v=75
33775 Off ch=3 n=57 v=75
33775 Off ch=3 n=61 v=75
33775 Off ch=3 n=64 v=75
33775 Off ch=3 n=67 v=75
33775 On ch=3 n=50 v=75
33775 On ch=3 n=54 v=75
33775 On ch=3 n=57 v=75
33775 On ch=3 n=60 v=75
34014 Off ch=3 n=50 v=75
34014 Off ch=3 n=54 v=75
34014 Off ch=3 n=57 v=75
34014 Off ch=3 n=60 v=75
34014 On ch=3 n=57 v=75
34014 On ch=3 n=61 v=75
34014 On ch=3 n=64 v=75
34014 On ch=3 n=67 v=75
34253 Off ch=3 n=57 v=75
34253 Off ch=3 n=61 v=75
34253 Off ch=3 n=64 v=75
34253 Off ch=3 n=67 v=75
34253 On ch=3 n=50 v=75
34253 On ch=3 n=54 v=75
34253 On ch=3 n=57 v=75
34253 On ch=3 n=60 v=75
34492 Off ch=3 n=50 v=75
34492 Off ch=3 n=54 v=75
34492 Off ch=3 n=57 v=75
34492 Off ch=3 n=60 v=75
34492 On ch=3 n=57 v=75
34492 On ch=3 n=61 v=75
34492 On ch=3 n=64 v=75
34492 On ch=3 n=67 v=75
34731 Off ch=3 n=57 v=75
34731 Off ch=3 n=61 v=75
34731 Off ch=3 n=64 v=75
34731 Off ch=3 n=67 v=75
34731 On ch=3 n=50 v=75
34731 On ch=3 n=54 v=75
34731 On ch=3 n=57 v=75
34970 Off ch=3 n=50 v=75
34970 Off ch=3 n=54 v=75
34970 Off ch=3 n=57 v=75
34970 On ch=3 n=50 v=75
34970 On ch=3 n=54 v=75
34970 On ch=3 n=57 v=75
35209 Off ch=3 n=50 v=75
35209 Off ch=3 n=54 v=75
35209 Off ch=3 n=57 v=75
35209 On ch=3 n=48 v=75
35209 On ch=3 n=52 v=75
35209 On ch=3 n=55 v=75
35448 Off ch=3 n=48 v=75
35448 Off ch=3 n=52 v=75
35448 Off ch=3 n=55 v=75
35448 On ch=3 n=55 v=75
35448 On ch=3 n=59 v=75
35448 On ch=3 n=62 v=75
35687 Off ch=3 n=55 v=75
35687 Off ch=3 n=59 v=75
35687 Off ch=3 n=62 v=75
35687 On ch=3 n=59 v=75
35687 On ch=3 n=62 v=75
35687 On ch=3 n=66 v=75
35926 Off ch=3 n=59 v=75
35926 Off ch=3 n=62 v=75
35926 Off ch=3 n=66 v=75
35926 On ch=3 n=55 v=75
35926 On ch=3 n=59 v=75
35926 On ch=3 n=62 v=75
36165 Off ch=3 n=55 v=75
36165 Off ch=3 n=59 v=75
36165 Off ch=3 n=62 v=75
36165 On ch=3 n=67 v=75
36165 On ch=3 n=71 v=75
36165 On ch=3 n=62 v=75
36404 Off ch=3 n=67 v=75
36404 Off ch=3 n=71 v=75
36404 Off ch=3 n=62 v=75
36404 On ch=3 n=55 v=75
36404 On ch=3 n=59 v=75
36404 On ch=3 n=62 v=75
36404 On ch=3 n=65 v=75
36643 Off ch=3 n=55 v=75
36643 Off ch=3 n=59 v=75
36643 Off ch=3 n=62 v=75
36643 Off ch=3 n=65 v=75
36643 On ch=3 n=55 v=75
36643 On ch=3 n=59 v=75
36643 On ch=3 n=62 v=75
36643 On ch=3 n=65 v=75
36882 Off ch=3 n=55 v=75
36882 Off ch=3 n=59 v=75
36882 Off ch=3 n=62 v=75
36882 Off ch=3 n=65 v=75
36882 On ch=3 n=57 v=75
36882 On ch=3 n=61 v=75
36882 On ch=3 n=64 v=75
36882 On ch=3 n=67 v=75
37121 Off ch=3 n=57 v=75
37121 Off ch=3 n=61 v=75
37121 Off ch=3 n=64 v=75
37121 Off ch=3 n=67 v=75
37121 On ch=3 n=50 v=75
37121 On ch=3 n=54 v=75
37121 On ch=3 n=57 v=75
37360 Off ch=3 n=50 v=75
37360 Off ch=3 n=54 v=75
37360 Off ch=3 n=57 v=75
37360 On ch=3 n=50 v=75
37360 On ch=3 n=54 v=75
37360 On ch=3 n=57 v=75
37599 Off ch=3 n=50 v=75
37599 Off ch=3 n=54 v=75
37599 Off ch=3 n=57 v=75
37599 On ch=3 n=50 v=75
37599 On ch=3 n=54 v=75
37599 On ch=3 n=57 v=75
37838 Off ch=3 n=50 v=75
37838 Off ch=3 n=54 v=75
37838 Off ch=3 n=57 v=75
37838 On ch=3 n=55 v=75
37838 On ch=3 n=59 v=75
37838 On ch=3 n=62 v=75
38077 Off ch=3 n=55 v=75
38077 Off ch=3 n=59 v=75
38077 Off ch=3 n=62 v=75
38077 On ch=3 n=50 v=75
38077 On ch=3 n=54 v=75
38077 On ch=3 n=57 v=75
38316 Off ch=3 n=50 v=75
38316 Off ch=3 n=54 v=75
38316 Off ch=3 n=57 v=75
38316 On ch=3 n=57 v=75
38316 On ch=3 n=61 v=75
38316 On ch=3 n=64 v=75
38555 Off ch=3 n=57 v=75
38555 Off ch=3 n=61 v=75
38555 Off ch=3 n=64 v=75
38555 On ch=3 n=50 v=75
38555 On ch=3 n=54 v=75
38555 On ch=3 n=57 v=75
38794 Off ch=3 n=50 v=75
38794 Off ch=3 n=54 v=75
38794 Off ch=3 n=57 v=75
38794 On ch=3 n=57 v=75
38794 On ch=3 n=61 v=75
38794 On ch=3 n=64 v=75
39033 Off ch=3 n=57 v=75
39033 Off ch=3 n=61 v=75
39033 Off ch=3 n=64 v=75
39033 On ch=3 n=50 v=75
39033 On ch=3 n=54 v=75
39033 On ch=3 n=57 v=75
39272 Off ch=3 n=50 v=75
39272 Off ch=3 n=54 v=75
39272 Off ch=3 n=57 v=75
39272 On ch=3 n=50 v=75
39272 On ch=3 n=54 v=75
39272 On ch=3 n=57 v=75
39511 Off ch=3 n=50 v=75
39511 Off ch=3 n=54 v=75
39511 Off ch=3 n=57 v=75
39511 On ch=3 n=55 v=75
39511 On ch=3 n=59 v=75
39511 On ch=3 n=62 v=75
39750 Off ch=3 n=55 v=75
39750 Off ch=3 n=59 v=75
39750 Off ch=3 n=62 v=75
39750 On ch=3 n=62 v=75
39750 On ch=3 n=66 v=75
39750 On ch=3 n=57 v=75
39989 Off ch=3 n=62 v=75
39989 Off ch=3 n=66 v=75
39989 Off ch=3 n=57 v=75
39989 On ch=3 n=57 v=75
39989 On ch=3 n=61 v=75
39989 On ch=3 n=64 v=75
39989 On ch=3 n=67 v=75
40228 Off ch=3 n=57 v=75
40228 Off ch=3 n=61 v=75
40228 Off ch=3 n=64 v=75
40228 Off ch=3 n=67 v=75
40228 On ch=3 n=50 v=75
40228 On ch=3 n=54 v=75
40228 On ch=3 n=57 v=75
40467 Off ch=3 n=50 v=75
40467 Off ch=3 n=54 v=75
40467 Off ch=3 n=57 v=75
40467 On ch=3 n=50 v=75
40467 On ch=3 n=54 v=75
40467 On ch=3 n=57 v=75
40467 On ch=3 n=60 v=75
40706 Off ch=3 n=50 v=75
40706 Off ch=3 n=54 v=75
40706 Off ch=3 n=57 v=75
40706 Off ch=3 n=60 v=75
40706 On ch=3 n=57 v=75
40706 On ch=3 n=61 v=75
40706 On ch=3 n=64 v=75
40706 On ch=3 n=67 v=75
40945 Off ch=3 n=57 v=75
40945 Off ch=3 n=61 v=75
40945 Off ch=3 n=64 v=75
40945 Off ch=3 n=67 v=75
40945 On ch=3 n=50 v=75
40945 On ch=3 n=54 v=75
40945 On ch=3 n=57 v=75
40945 On ch=3 n=60 v=75
41184 Off ch=3 n=50 v=75
41184 Off ch=3 n=54 v=75
41184 Off ch=3 n=57 v=75
41184 Off ch=3 n=60 v=75
41184 On ch=3 n=48 v=75
41184 On ch=3 n=52 v=75
41184 On ch=3 n=55 v=75
41423 Off ch=3 n=48 v=75
41423 Off ch=3 n=52 v=75
41423 Off ch=3 n=55 v=75
41423 On ch=3 n=50 v=75
41423 On ch=3 n=54 v=75
41423 On ch=3 n=57 v=75
41423 On ch=3 n=60 v=75
41662 Off ch=3 n=50 v=75
41662 Off ch=3 n=54 v=75
41662 Off ch=3 n=57 v=75
41662 Off ch=3 n=60 v=75
41662 On ch=3 n=52 v=75
41662 On ch=3 n=56 v=75
41662 On ch=3 n=59 v=75
41662 On ch=3 n=62 v=75
41901 Off ch=3 n=52 v=75
41901 Off ch=3 n=56 v=75
41901 Off ch=3 n=59 v=75
41901 Off ch=3 n=62 v=75
41901 On ch=3 n=55 v=75
41901 On ch=3 n=59 v=75
41901 On ch=3 n=62 v=75
42140 Off ch=3 n=55 v=75
42140 Off ch=3 n=59 v=75
42140 Off ch=3 n=62 v=75
42140 On ch=3 n=55 v=75
42140 On ch=3 n=59 v=75
42140 On ch=3 n=62 v=75
42379 Off ch=3 n=55 v=75
42379 Off ch=3 n=59 v=75
42379 Off ch=3 n=62 v=75
42379 On ch=3 n=55 v=75
42379 On ch=3 n=59 v=75
42379 On ch=3 n=62 v=75
42618 Off ch=3 n=55 v=75
42618 Off ch=3 n=59 v=75
42618 Off ch=3 n=62 v=75
42618 On ch=3 n=55 v=75
42618 On ch=3 n=59 v=75
42618 On ch=3 n=62 v=75
42857 Off ch=3 n=55 v=75
42857 Off ch=3 n=59 v=75
42857 Off ch=3 n=62 v=75
42857 On ch=3 n=55 v=75
42857 On ch=3 n=59 v=75
42857 On ch=3 n=62 v=75
43096 Off ch=3 n=55 v=75
43096 Off ch=3 n=59 v=75
43096 Off ch=3 n=62 v=75
43096 On ch=3 n=48 v=75
43096 On ch=3 n=52 v=75
43096 On ch=3 n=55 v=75
43335 Off ch=3 n=48 v=75
43335 Off ch=3 n=52 v=75
43335 Off ch=3 n=55 v=75
43335 On ch=3 n=50 v=75
43335 On ch=3 n=54 v=75
43335 On ch=3 n=57 v=75
43335 On ch=3 n=60 v=75
43574 Off ch=3 n=50 v=75
43574 Off ch=3 n=54 v=75
43574 Off ch=3 n=57 v=75
43574 Off ch=3 n=60 v=75
43574 On ch=3 n=55 v=75
43574 On ch=3 n=59 v=75
43574 On ch=3 n=62 v=75
43813 Off ch=3 n=55 v=75
43813 Off ch=3 n=59 v=75
43813 Off ch=3 n=62 v=75
43813 On ch=3 n=57 v=75
43813 On ch=3 n=60 v=75
43813 On ch=3 n=64 v=75
44052 Off ch=3 n=57 v=75
44052 Off ch=3 n=60 v=75
44052 Off ch=3 n=64 v=75
44052 On ch=3 n=57 v=75
44052 On ch=3 n=60 v=75
44052 On ch=3 n=64 v=75
44291 Off ch=3 n=57 v=75
44291 Off ch=3 n=60 v=75
44291 Off ch=3 n=64 v=75
44291 On ch=3 n=48 v=75
44291 On ch=3 n=52 v=75
44291 On ch=3 n=55 v=75
44530 Off ch=3 n=48 v=75
44530 Off ch=3 n=52 v=75
44530 Off ch=3 n=55 v=75
44530 On ch=3 n=53 v=75
44530 On ch=3 n=57 v=75
44530 On ch=3 n=60 v=75
44769 Off ch=3 n=53 v=75
44769 Off ch=3 n=57 v=75
44769 Off ch=3 n=60 v=75
44769 On ch=3 n=55 v=75
44769 On ch=3 n=59 v=75
44769 On ch=3 n=62 v=75
44769 On ch=3 n=65 v=75
45008 Off ch=3 n=55 v=75
45008 Off ch=3 n=59 v=75
45008 Off ch=3 n=62 v=75
45008 Off ch=3 n=65 v=75
45008 On ch=3 n=57 v=75
45008 On ch=3 n=61 v=75
45008 On ch=3 n=64 v=75
45008 On ch=3 n=67 v=75
45247 Off ch=3 n=57 v=75
45247 Off ch=3 n=61 v=75
45247 Off ch=3 n=64 v=75
45247 Off ch=3 n=67 v=75
45247 On ch=3 n=50 v=75
45247 On ch=3 n=54 v=75
45247 On ch=3 n=57 v=75
45486 Off ch=3 n=50 v=75
45486 Off ch=3 n=54 v=75
45486 Off ch=3 n=57 v=75
45486 On ch=3 n=50 v=75
45486 On ch=3 n=54 v=75
45486 On ch=3 n=57 v=75
45725 Off ch=3 n=50 v=75
45725 Off ch=3 n=54 v=75
45725 Off ch=3 n=57 v=75
45725 On ch=3 n=50 v=75
45725 On ch=3 n=54 v=75
45725 On ch=3 n=57 v=75
45964 Off ch=3 n=50 v=75
45964 Off ch=3 n=54 v=75
45964 Off ch=3 n=57 v=75
45964 On ch=3 n=55 v=75
45964 On ch=3 n=59 v=75
45964 On ch=3 n=62 v=75
46203 Off ch=3 n=55 v=75
46203 Off ch=3 n=59 v=75
46203 Off ch=3 n=62 v=75
46203 On ch=3 n=50 v=75
46203 On ch=3 n=54 v=75
46203 On ch=3 n=57 v=75
46442 Off ch=3 n=50 v=75
46442 Off ch=3 n=54 v=75
46442 Off ch=3 n=57 v=75
46442 On ch=3 n=57 v=75
46442 On ch=3 n=61 v=75
46442 On ch=3 n=64 v=75
46442 On ch=3 n=67 v=75
46681 Off ch=3 n=57 v=75
46681 Off ch=3 n=61 v=75
46681 Off ch=3 n=64 v=75
46681 Off ch=3 n=67 v=75
46681 On ch=3 n=50 v=75
46681 On ch=3 n=54 v=75
46681 On ch=3 n=57 v=75
46920 Off ch=3 n=50 v=75
46920 Off ch=3 n=54 v=75
46920 Off ch=3 n=57 v=75
46920 On ch=3 n=50 v=75
46920 On ch=3 n=54 v=75
46920 On ch=3 n=57 v=75
46920 On ch=3 n=60 v=75
47159 Off ch=3 n=50 v=75
47159 Off ch=3 n=54 v=75
47159 Off ch=3 n=57 v=75
47159 Off ch=3 n=60 v=75
47159 On ch=3 n=57 v=75
47159 On ch=3 n=61 v=75
47159 On ch=3 n=64 v=75
47159 On ch=3 n=67 v=75
47398 Off ch=3 n=57 v=75
47398 Off ch=3 n=61 v=75
47398 Off ch=3 n=64 v=75
47398 Off ch=3 n=67 v=75
47398 On ch=3 n=50 v=75
47398 On ch=3 n=54 v=75
47398 On ch=3 n=57 v=75
47637 Off ch=3 n=50 v=75
47637 Off ch=3 n=54 v=75
47637 Off ch=3 n=57 v=75
47637 On ch=3 n=50 v=75
47637 On ch=3 n=54 v=75
47637 On ch=3 n=57 v=75
47876 Off ch=3 n=50 v=75
47876 Off ch=3 n=54 v=75
47876 Off ch=3 n=57 v=75
47876 On ch=3 n=48 v=75
47876 On ch=3 n=52 v=75
47876 On ch=3 n=55 v=75
48115 Off ch=3 n=48 v=75
48115 Off ch=3 n=52 v=75
48115 Off ch=3 n=55 v=75
48115 On ch=3 n=50 v=75
48115 On ch=3 n=54 v=75
48115 On ch=3 n=57 v=75
48115 On ch=3 n=60 v=75
48354 Off ch=3 n=50 v=75
48354 Off ch=3 n=54 v=75
48354 Off ch=3 n=57 v=75
48354 Off ch=3 n=60 v=75
48354 On ch=3 n=55 v=75
48354 On ch=3 n=59 v=75
48354 On ch=3 n=62 v=75
48593 Off ch=3 n=55 v=75
48593 Off ch=3 n=59 v=75
48593 Off ch=3 n=62 v=75
48593 On ch=3 n=57 v=75
48593 On ch=3 n=61 v=75
48593 On ch=3 n=64 v=75
48593 On ch=3 n=67 v=75
48832 Off ch=3 n=57 v=75
48832 Off ch=3 n=61 v=75
48832 Off ch=3 n=64 v=75
48832 Off ch=3 n=67 v=75
48832 On ch=3 n=50 v=75
48832 On ch=3 n=54 v=75
48832 On ch=3 n=57 v=75
48832 On ch=3 n=60 v=75
49071 Off ch=3 n=50 v=75
49071 Off ch=3 n=54 v=75
49071 Off ch=3 n=57 v=75
49071 Off ch=3 n=60 v=75
49071 On ch=3 n=57 v=75
49071 On ch=3 n=60 v=75
49071 On ch=3 n=64 v=75
49310 Off ch=3 n=57 v=75
49310 Off ch=3 n=60 v=75
49310 Off ch=3 n=64 v=75
49310 On ch=3 n=62 v=75
49310 On ch=3 n=66 v=75
49310 On ch=3 n=57 v=75
49549 Off ch=3 n=62 v=75
49549 Off ch=3 n=66 v=75
49549 Off ch=3 n=57 v=75
49549 On ch=3 n=57 v=75
49549 On ch=3 n=61 v=75
49549 On ch=3 n=64 v=75
49549 On ch=3 n=67 v=75
49788 Off ch=3 n=57 v=75
49788 Off ch=3 n=61 v=75
49788 Off ch=3 n=64 v=75
49788 Off ch=3 n=67 v=75
49788 On ch=3 n=52 v=75
49788 On ch=3 n=55 v=75
49788 On ch=3 n=59 v=75
50027 Off ch=3 n=52 v=75
50027 Off ch=3 n=55 v=75
50027 Off ch=3 n=59 v=75
50027 On ch=3 n=57 v=75
50027 On ch=3 n=61 v=75
50027 On ch=3 n=64 v=75
50266 Off ch=3 n=57 v=75
50266 Off ch=3 n=61 v=75
50266 Off ch=3 n=64 v=75
50266 On ch=3 n=55 v=75
50266 On ch=3 n=59 v=75
50266 On ch=3 n=62 v=75
50505 Off ch=3 n=55 v=75
50505 Off ch=3 n=59 v=75
50505 Off ch=3 n=62 v=75
50505 On ch=3 n=55 v=75
50505 On ch=3 n=59 v=75
50505 On ch=3 n=62 v=75
50744 Off ch=3 n=55 v=75
50744 Off ch=3 n=59 v=75
50744 Off ch=3 n=62 v=75
50744 On ch=3 n=50 v=75
50744 On ch=3 n=54 v=75
50744 On ch=3 n=57 v=75
50983 Off ch=3 n=50 v=75
50983 Off ch=3 n=54 v=75
50983 Off ch=3 n=57 v=75
50983 On ch=3 n=50 v=75
50983 On ch=3 n=54 v=75
50983 On ch=3 n=57 v=75
51222 Off ch=3 n=50 v=75
51222 Off ch=3 n=54 v=75
51222 Off ch=3 n=57 v=75
51222 On ch=3 n=52 v=75
51222 On ch=3 n=55 v=75
51222 On ch=3 n=59 v=75
51461 Off ch=3 n=52 v=75
51461 Off ch=3 n=55 v=75
51461 Off ch=3 n=59 v=75
51461 On ch=3 n=57 v=75
51461 On ch=3 n=61 v=75
51461 On ch=3 n=64 v=75
51700 Off ch=3 n=57 v=75
51700 Off ch=3 n=61 v=75
51700 Off ch=3 n=64 v=75
51700 On ch=3 n=48 v=75
51700 On ch=3 n=52 v=75
51700 On ch=3 n=55 v=75
51939 Off ch=3 n=48 v=75
51939 Off ch=3 n=52 v=75
51939 Off ch=3 n=55 v=75
51939 On ch=3 n=55 v=75
51939 On ch=3 n=59 v=75
51939 On ch=3 n=62 v=75
51939 On ch=3 n=65 v=75
52178 Off ch=3 n=55 v=75
52178 Off ch=3 n=59 v=75
52178 Off ch=3 n=62 v=75
52178 Off ch=3 n=65 v=75
52178 On ch=3 n=55 v=75
52178 On ch=3 n=59 v=75
52178 On ch=3 n=62 v=75
52178 On ch=3 n=65 v=75
52417 Off ch=3 n=55 v=75
52417 Off ch=3 n=59 v=75
52417 Off ch=3 n=62 v=75
52417 Off ch=3 n=65 v=75
52417 On ch=3 n=48 v=75
52417 On ch=3 n=52 v=75
52417 On ch=3 n=55 v=75
52656 Off ch=3 n=48 v=75
52656 Off ch=3 n=52 v=75
52656 Off ch=3 n=55 v=75
52656 On ch=3 n=55 v=75
52656 On ch=3 n=59 v=75
52656 On ch=3 n=62 v=75
52895 Off ch=3 n=55 v=75
52895 Off ch=3 n=59 v=75
52895 Off ch=3 n=62 v=75
52895 On ch=3 n=48 v=75
52895 On ch=3 n=52 v=75
52895 On ch=3 n=55 v=75
53134 Off ch=3 n=48 v=75
53134 Off ch=3 n=52 v=75
53134 Off ch=3 n=55 v=75
53134 On ch=3 n=55 v=75
53134 On ch=3 n=59 v=75
53134 On ch=3 n=62 v=75
53373 Off ch=3 n=55 v=75
53373 Off ch=3 n=59 v=75
53373 Off ch=3 n=62 v=75
53373 On ch=3 n=62 v=75
53373 On ch=3 n=66 v=75
53373 On ch=3 n=57 v=75
53612 Off ch=3 n=62 v=75
53612 Off ch=3 n=66 v=75
53612 Off ch=3 n=57 v=75
53612 On ch=3 n=50 v=75
53612 On ch=3 n=54 v=75
53612 On ch=3 n=57 v=75
53851 Off ch=3 n=50 v=75
53851 Off ch=3 n=54 v=75
53851 Off ch=3 n=57 v=75
53851 On ch=3 n=52 v=75
53851 On ch=3 n=55 v=75
53851 On ch=3 n=59 v=75
54090 Off ch=3 n=52 v=75
54090 Off ch=3 n=55 v=75
54090 Off ch=3 n=59 v=75
54090 On ch=3 n=57 v=75
54090 On ch=3 n=61 v=75
54090 On ch=3 n=64 v=75
54329 Off ch=3 n=57 v=75
54329 Off ch=3 n=61 v=75
54329 Off ch=3 n=64 v=75
54329 On ch=3 n=48 v=75
54329 On ch=3 n=52 v=75
54329 On ch=3 n=55 v=75
54568 Off ch=3 n=48 v=75
54568 Off ch=3 n=52 v=75
54568 Off ch=3 n=55 v=75
54568 On ch=3 n=55 v=75
54568 On ch=3 n=59 v=75
54568 On ch=3 n=62 v=75
54807 Off ch=3 n=55 v=75
54807 Off ch=3 n=59 v=75
54807 Off ch=3 n=62 v=75
54807 On ch=3 n=59 v=75
54807 On ch=3 n=62 v=75
54807 On ch=3 n=66 v=75
55046 Off ch=3 n=59 v=75
55046 Off ch=3 n=62 v=75
55046 Off ch=3 n=66 v=75
55046 On ch=3 n=55 v=75
55046 On ch=3 n=59 v=75
55046 On ch=3 n=62 v=75
55285 Off ch=3 n=55 v=75
55285 Off ch=3 n=59 v=75
55285 Off ch=3 n=62 v=75
55285 On ch=3 n=62 v=75
55285 On ch=3 n=66 v=75
55285 On ch=3 n=57 v=75
55524 Off ch=3 n=62 v=75
55524 Off ch=3 n=66 v=75
55524 Off ch=3 n=57 v=75
55524 On ch=3 n=59 v=75
55524 On ch=3 n=62 v=75
55524 On ch=3 n=66 v=75
57443 Off ch=3 n=59 v=75
57443 Off ch=3 n=62 v=75
57443 Off ch=3 n=66 v=75
57443 On ch=3 n=52 v=75
57443 On ch=3 n=56 v=75
57443 On ch=3 n=59 v=75
57443 On ch=3 n=62 v=75
59362 Off ch=3 n=52 v=75
59362 Off ch=3 n=56 v=75
59362 Off ch=3 n=59 v=75
59362 Off ch=3 n=62 v=75
59362 On ch=3 n=57 v=75
59362 On ch=3 n=61 v=75
59362 On ch=3 n=64 v=75
59362 On ch=3 n=67 v=75
61281 Off ch=3 n=57 v=75
61281 Off ch=3 n=61 v=75
61281 Off ch=3 n=64 v=75
61281 Off ch=3 n=67 v=75
61281 On ch=3 n=55 v=75
61281 On ch=3 n=59 v=75
61281 On ch=3 n=62 v=75
63200 Off ch=3 n=55 v=75
63200 Off ch=3 n=59 v=75
63200 Off ch=3 n=62 v=75
63200 On ch=3 n=57 v=75
63200 On ch=3 n=61 v=75
63200 On ch=3 n=64 v=75
63200 On ch=3 n=67 v=75
65119 Off ch=3 n=57 v=75
65119 Off ch=3 n=61 v=75
65119 Off ch=3 n=64 v=75
65119 Off ch=3 n=67 v=75
65119 On ch=3 n=57 v=75
65119 On ch=3 n=61 v=75
65119 On ch=3 n=64 v=75
65119 On ch=3 n=67 v=75
67038 Off ch=3 n=57 v=75
67038 Off ch=3 n=61 v=75
67038 Off ch=3 n=64 v=75
67038 Off ch=3 n=67 v=75
67038 On ch=3 n=55 v=75
67038 On ch=3 n=59 v=75
67038 On ch=3 n=62 v=75
68957 Off ch=3 n=55 v=75
68957 Off ch=3 n=59 v=75
68957 Off ch=3 n=62 v=75
68957 On ch=3 n=55 v=75
68957 On ch=3 n=59 v=75
68957 On ch=3 n=62 v=75
70876 Off ch=3 n=55 v=75
70876 Off ch=3 n=59 v=75
70876 Off ch=3 n=62 v=75
70876 On ch=3 n=55 v=75
70876 On ch=3 n=59 v=75
70876 On ch=3 n=62 v=75
72795 Off ch=3 n=55 v=75
72795 Off ch=3 n=59 v=75
72795 Off ch=3 n=62 v=75
72795 On ch=3 n=57 v=75
72795 On ch=3 n=60 v=75
72795 On ch=3 n=64 v=75
74714 Off ch=3 n=57 v=75
74714 Off ch=3 n=60 v=75
74714 Off ch=3 n=64 v=75
74714 On ch=3 n=55 v=75
74714 On ch=3 n=59 v=75
74714 On ch=3 n=62 v=75
76633 Off ch=3 n=55 v=75
76633 Off ch=3 n=59 v=75
76633 Off ch=3 n=62 v=75
76633 On ch=3 n=55 v=75
76633 On ch=3 n=59 v=75
76633 On ch=3 n=62 v=75
78552 Off ch=3 n=55 v=75
78552 Off ch=3 n=59 v=75
78552 Off ch=3 n=62 v=75
78552 On ch=3 n=50 v=75
78552 On ch=3 n=54 v=75
78552 On ch=3 n=57 v=75
80471 Off ch=3 n=50 v=75
80471 Off ch=3 n=54 v=75
80471 Off ch=3 n=57 v=75
80471 On ch=3 n=57 v=75
80471 On ch=3 n=61 v=75
80471 On ch=3 n=64 v=75
80471 On ch=3 n=67 v=75
82390 Off ch=3 n=57 v=75
82390 Off ch=3 n=61 v=75
82390 Off ch=3 n=64 v=75
82390 Off ch=3 n=67 v=75
82390 On ch=3 n=55 v=75
82390 On ch=3 n=59 v=75
82390 On ch=3 n=62 v=75
84309 Off ch=3 n=55 v=75
84309 Off ch=3 n=59 v=75
84309 Off ch=3 n=62 v=75
84309 On ch=3 n=50 v=75
84309 On ch=3 n=54 v=75
84309 On ch=3 n=57 v=75
86228 Off ch=3 n=50 v=75
86228 Off ch=3 n=54 v=75
86228 Off ch=3 n=57 v=75
86228 On ch=3 n=57 v=75
86228 On ch=3 n=61 v=75
86228 On ch=3 n=64 v=75
86228 On ch=3 n=67 v=75
88147 Off ch=3 n=57 v=75
88147 Off ch=3 n=61 v=75
88147 Off ch=3 n=64 v=75
88147 Off ch=3 n=67 v=75
88147 On ch=3 n=50 v=75
88147 On ch=3 n=54 v=75
88147 On ch=3 n=57 v=75
90066 Off ch=3 n=50 v=75
90066 Off ch=3 n=54 v=75
90066 Off ch=3 n=57 v=75
90066 On ch=3 n=57 v=75
90066 On ch=3 n=61 v=75
90066 On ch=3 n=64 v=75
91985 Off ch=3 n=57 v=75
91985 Off ch=3 n=61 v=75
91985 Off ch=3 n=64 v=75
91985 On ch=3 n=55 v=75
91985 On ch=3 n=59 v=75
91985 On ch=3 n=62 v=75
93904 Off ch=3 n=55 v=75
93904 Off ch=3 n=59 v=75
93904 Off ch=3 n=62 v=75
93904 On ch=3 n=48 v=75
93904 On ch=3 n=52 v=75
93904 On ch=3 n=55 v=75
95823 Off ch=3 n=48 v=75
95823 Off ch=3 n=52 v=75
95823 Off ch=3 n=55 v=75
95823 Meta TrkEnd
TrkEnd
