MFile 1 2 480
MTrk
0 Tempo 500000
0 KeySig 1 major
0 TimeSig 4/4 48 8
0 Meta SeqName "Cuillin Reel"
39447 Meta TrkEnd
TrkEnd
MTrk
0 Meta TrkName "Cuillin Reel"
0 Meta Text " Nottingham Music Database"
0 Meta Text "S:Mick Peat"
0 On ch=4 n=69 v=80
239 Off ch=4 n=69 v=80
239 On ch=4 n=72 v=105
478 Off ch=4 n=72 v=105
478 On ch=4 n=76 v=80
717 Off ch=4 n=76 v=80
717 On ch=4 n=76 v=80
956 Off ch=4 n=76 v=80
956 On ch=4 n=76 v=95
1195 Off ch=4 n=76 v=95
1195 On ch=4 n=69 v=80
1434 Off ch=4 n=69 v=80
1434 On ch=4 n=69 v=80
1673 Off ch=4 n=69 v=80
1673 On ch=4 n=74 v=105
1912 Off ch=4 n=74 v=105
1912 On ch=4 n=67 v=80
2151 Off ch=4 n=67 v=80
2151 On ch=4 n=67 v=80
2390 Off ch=4 n=67 v=80
2390 On ch=4 n=67 v=80
2629 Off ch=4 n=67 v=80
2629 On ch=4 n=67 v=80
2868 Off ch=4 n=67 v=80
2868 On ch=4 n=67 v=80
3107 Off ch=4 n=67 v=80
3107 On ch=4 n=67 v=80
3346 Off ch=4 n=67 v=80
3346 On ch=4 n=67 v=80
3585 Off ch=4 n=67 v=80
3585 On ch=4 n=67 v=80
3824 Off ch=4 n=67 v=80
3824 On ch=4 n=67 v=80
4063 Off ch=4 n=67 v=80
4063 On ch=4 n=67 v=80
4302 Off ch=4 n=67 v=80
4302 On ch=4 n=67 v=80
4541 Off ch=4 n=67 v=80
4541 On ch=4 n=67 v=80
4780 Off ch=4 n=67 v=80
4780 On ch=4 n=67 v=80
5019 Off ch=4 n=67 v=80
5019 On ch=4 n=67 v=80
5258 Off ch=4 n=67 v=80
5258 On ch=4 n=67 v=80
5497 Off ch=4 n=67 v=80
5497 On ch=4 n=67 v=80
5736 Off ch=4 n=67 v=80
5736 On ch=4 n=71 v=80
5975 Off ch=4 n=71 v=80
5975 On ch=4 n=72 v=105
6694 Off ch=4 n=72 v=105
6694 On ch=4 n=72 v=95
7173 Off ch=4 n=72 v=95
7173 On ch=4 n=69 v=80
7412 Off ch=4 n=69 v=80
7412 On ch=4 n=72 v=105
7651 Off ch=4 n=72 v=105
7651 On ch=4 n=76 v=80
7890 Off ch=4 n=76 v=80
7890 On ch=4 n=76 v=80
8129 Off ch=4 n=76 v=80
8129 On ch=4 n=76 v=95
8368 Off ch=4 n=76 v=95
8368 On ch=4 n=69 v=80
8607 Off ch=4 n=69 v=80
8607 On ch=4 n=69 v=80
8846 Off ch=4 n=69 v=80
8846 On ch=4 n=76 v=95
9085 Off ch=4 n=76 v=95
9085 On ch=4 n=69 v=80
9324 Off ch=4 n=69 v=80
9324 On ch=4 n=69 v=80
9563 Off ch=4 n=69 v=80
9563 On ch=4 n=76 v=80
9802 Off ch=4 n=76 v=80
9802 On ch=4 n=76 v=95
10041 Off ch=4 n=76 v=95
10041 On ch=4 n=69 v=80
10280 Off ch=4 n=69 v=80
10280 On ch=4 n=69 v=80
10519 Off ch=4 n=69 v=80
10519 On ch=4 n=76 v=95
10758 Off ch=4 n=76 v=95
10758 On ch=4 n=69 v=80
10997 Off ch=4 n=69 v=80
10997 On ch=4 n=69 v=80
11236 Off ch=4 n=69 v=80
11236 On ch=4 n=76 v=80
11475 Off ch=4 n=76 v=80
11475 On ch=4 n=76 v=95
11714 Off ch=4 n=76 v=95
11714 On ch=4 n=69 v=80
11953 Off ch=4 n=69 v=80
11953 On ch=4 n=69 v=80
12192 Off ch=4 n=69 v=80
12192 On ch=4 n=69 v=80
12431 Off ch=4 n=69 v=80
12431 On ch=4 n=69 v=80
12670 Off ch=4 n=69 v=80
12670 On ch=4 n=69 v=80
12909 Off ch=4 n=69 v=80
12909 On ch=4 n=69 v=80
13148 Off ch=4 n=69 v=80
13148 On ch=4 n=69 v=80
13387 Off ch=4 n=69 v=80
13387 On ch=4 n=69 v=80
13626 Off ch=4 n=69 v=80
13626 On ch=4 n=69 v=80
13865 Off ch=4 n=69 v=80
13865 On ch=4 n=69 v=80
14104 Off ch=4 n=69 v=80
14104 On ch=4 n=69 v=80
14343 Off ch=4 n=69 v=80
14343 On ch=4 n=69 v=80
14582 Off ch=4 n=69 v=80
14582 On ch=4 n=69 v=80
14821 Off ch=4 n=69 v=80
14821 On ch=4 n=69 v=80
15060 Off ch=4 n=69 v=80
15060 On ch=4 n=69 v=80
15299 Off ch=4 n=69 v=80
15299 On ch=4 n=69 v=80
15538 Off ch=4 n=69 v=80
15538 On ch=4 n=69 v=80
15777 Off ch=4 n=69 v=80
15777 On ch=4 n=69 v=105
16016 Off ch=4 n=69 v=105
16016 On ch=4 n=71 v=80
16255 Off ch=4 n=71 v=80
16255 On ch=4 n=72 v=105
16974 Off ch=4 n=72 v=105
16974 On ch=4 n=72 v=95
17453 Off ch=4 n=72 v=95
17453 On ch=4 n=69 v=80
17692 Off ch=4 n=69 v=80
17692 On ch=4 n=72 v=105
17931 Off ch=4 n=72 v=105
17931 On ch=4 n=76 v=80
18170 Off ch=4 n=76 v=80
18170 On ch=4 n=76 v=80
18409 Off ch=4 n=76 v=80
18409 On ch=4 n=76 v=80
18648 Off ch=4 n=76 v=80
18648 On ch=4 n=76 v=80
18887 Off ch=4 n=76 v=80
18887 On ch=4 n=76 v=80
19126 Off ch=4 n=76 v=80
19126 On ch=4 n=76 v=80
19365 Off ch=4 n=76 v=80
19365 On ch=4 n=69 v=105
19604 Off ch=4 n=69 v=105
19604 On ch=4 n=71 v=80
19843 Off ch=4 n=71 v=80
19843 On ch=4 n=72 v=105
20562 Off ch=4 n=72 v=105
20562 On ch=4 n=72 v=95
21041 Off ch=4 n=72 v=95
21041 On ch=4 n=76 v=80
21280 Off ch=4 n=76 v=80
21280 On ch=4 n=76 v=80
21519 Off ch=4 n=76 v=80
21519 On ch=4 n=76 v=80
21758 Off ch=4 n=76 v=80
21758 On ch=4 n=76 v=80
21997 Off ch=4 n=76 v=80
21997 On ch=4 n=76 v=80
22236 Off ch=4 n=76 v=80
22236 On ch=4 n=76 v=80
22475 Off ch=4 n=76 v=80
22475 On ch=4 n=76 v=80
22714 Off ch=4 n=76 v=80
22714 On ch=4 n=76 v=80
22953 Off ch=4 n=76 v=80
22953 On ch=4 n=76 v=80
23192 Off ch=4 n=76 v=80
23192 On ch=4 n=76 v=80
23431 Off ch=4 n=76 v=80
23431 On ch=4 n=76 v=80
23670 Off ch=4 n=76 v=80
23670 On ch=4 n=76 v=80
23909 Off ch=4 n=76 v=80
23909 On ch=4 n=76 v=80
24148 Off ch=4 n=76 v=80
24148 On ch=4 n=76 v=80
24387 Off ch=4 n=76 v=80
24387 On ch=4 n=76 v=80
24626 Off ch=4 n=76 v=80
24626 On ch=4 n=76 v=80
24865 Off ch=4 n=76 v=80
24865 On ch=4 n=76 v=80
25104 Off ch=4 n=76 v=80
25104 On ch=4 n=76 v=80
25343 Off ch=4 n=76 v=80
25343 On ch=4 n=76 v=80
25582 Off ch=4 n=76 v=80
25582 On ch=4 n=76 v=80
25821 Off ch=4 n=76 v=80
25821 On ch=4 n=76 v=80
26060 Off ch=4 n=76 v=80
26060 On ch=4 n=76 v=80
26299 Off ch=4 n=76 v=80
26299 On ch=4 n=76 v=80
26538 Off ch=4 n=76 v=80
26538 On ch=4 n=76 v=80
26777 Off ch=4 n=76 v=80
26777 On ch=4 n=76 v=80
27016 Off ch=4 n=76 v=80
27016 On ch=4 n=76 v=80
27255 Off ch=4 n=76 v=80
27255 On ch=4 n=76 v=80
27494 Off ch=4 n=76 v=80
27494 On ch=4 n=76 v=80
27733 Off ch=4 n=76 v=80
27733 On ch=4 n=76 v=80
27972 Off ch=4 n=76 v=80
27972 On ch=4 n=69 v=80
28211 Off ch=4 n=69 v=80
28211 On ch=4 n=69 v=80
28450 Off ch=4 n=69 v=80
28450 On ch=4 n=69 v=80
28689 Off ch=4 n=69 v=80
28689 On ch=4 n=76 v=80
28928 Off ch=4 n=76 v=80
28928 On ch=4 n=76 v=80
29167 Off ch=4 n=76 v=80
29167 On ch=4 n=69 v=105
29406 Off ch=4 n=69 v=105
29406 On ch=4 n=76 v=80
29645 Off ch=4 n=76 v=80
29645 On ch=4 n=76 v=80
29884 Off ch=4 n=76 v=80
29884 On ch=4 n=7 v=80
30123 Off ch=4 n=7 v=80
30123 On ch=4 n=76 v=80
30362 Off ch=4 n=76 v=80
30362 On ch=4 n=69 v=80
30601 Off ch=4 n=69 v=80
30601 On ch=4 n=69 v=80
30840 Off ch=4 n=69 v=80
30840 On ch=4 n=69 v=80
31079 Off ch=4 n=69 v=80
31079 On ch=4 n=69 v=80
31318 Off ch=4 n=69 v=80
31318 On ch=4 n=69 v=80
31557 Off ch=4 n=69 v=80
31557 On ch=4 n=71 v=80
32036 Off ch=4 n=71 v=80
32036 On ch=4 n=69 v=80
32275 Off ch=4 n=69 v=80
32275 On ch=4 n=69 v=80
32514 Off ch=4 n=69 v=80
32514 On ch=4 n=76 v=95
33233 Off ch=4 n=76 v=95
33233 On ch=4 n=76 v=80
33472 Off ch=4 n=76 v=80
33472 On ch=4 n=69 v=80
33711 Off ch=4 n=69 v=80
33711 On ch=4 n=69 v=80
33950 Off ch=4 n=69 v=80
33950 On ch=4 n=69 v=80
34189 Off ch=4 n=69 v=80
34189 On ch=4 n=69 v=80
34428 Off ch=4 n=69 v=80
34428 On ch=4 n=69 v=80
34667 Off ch=4 n=69 v=80
34667 On ch=4 n=69 v=80
34906 Off ch=4 n=69 v=80
34906 On ch=4 n=69 v=80
35145 Off ch=4 n=69 v=80
35145 On ch=4 n=69 v=80
35384 Off ch=4 n=69 v=80
35384 On ch=4 n=76 v=80
35623 Off ch=4 n=76 v=80
35623 On ch=4 n=76 v=80
35862 Off ch=4 n=76 v=80
35862 On ch=4 n=76 v=80
36101 Off ch=4 n=76 v=80
36101 On ch=4 n=76 v=80
36340 Off ch=4 n=76 v=80
36340 On ch=4 n=76 v=80
36579 Off ch=4 n=76 v=80
36579 On ch=4 n=76 v=80
36818 Off ch=4 n=76 v=80
36818 On ch=4 n=76 v=80
37057 Off ch=4 n=76 v=80
37057 On ch=4 n=76 v=80
37296 Off ch=4 n=76 v=80
37296 On ch=4 n=69 v=105
37535 Off ch=4 n=69 v=105
37535 On ch=4 n=76 v=80
37774 Off ch=4 n=76 v=80
37774 On ch=4 n=76 v=80
38013 Off ch=4 n=76 v=80
38013 On ch=4 n=76 v=80
38252 Off ch=4 n=76 v=80
38252 On ch=4 n=76 v=80
38491 Off ch=4 n=76 v=80
38491 On ch=4 n=76 v=80
38730 Off ch=4 n=76 v=80
38730 On ch=4 n=76 v=80
38969 Off ch=4 n=76 v=80
38969 On ch=4 n=76 v=80
39208 Off ch=4 n=76 v=80
39208 On ch=4 n=76 v=80
39447 Off ch=4 n=76 v=80
39447 Meta TrkEnd
TrkEnd
