0 On ch=2 n=55 v=75
0 On ch=2 n=59 v=75
0 On ch=2 n=62 v=75
239 Off ch=2 n=55 v=75
239 Off ch=2 n=59 v=75
239 Off ch=2 n=62 v=75
239 On ch=2 n=43 v=80
478 Off ch=2 n=43 v=80
478 On ch=2 n=55 v=75
478 On ch=2 n=59 v=75
478 On ch=2 n=62 v=75
717 Off ch=2 n=55 v=75
717 Off ch=2 n=59 v=75
717 Off ch=2 n=62 v=75
717 On ch=2 n=38 v=80
956 Off ch=2 n=38 v=80
956 On ch=2 n=50 v=75
956 On ch=2 n=54 v=75
956 On ch=2 n=57 v=75
956 On ch=2 n=60 v=75
1195 Off ch=2 n=50 v=75
1195 Off ch=2 n=54 v=75
1195 Off ch=2 n=57 v=75
1195 Off ch=2 n=60 v=75
1195 On ch=2 n=70 v=105
1674 Off ch=2 n=70 v=105
1674 On ch=2 n=74 v=80
1913 Off ch=2 n=74 v=80
1913 On ch=2 n=81 v=95
2392 Off ch=2 n=81 v=95
2392 On ch=2 n=78 v=80
2631 Off ch=2 n=78 v=80
2631 On ch=2 n=76 v=80
2870 Off ch=2 n=76 v=80
2870 On ch=2 n=76 v=105
3109 Off ch=2 n=76 v=105
3109 On ch=2 n=73 v=80
3348 Off ch=2 n=73 v=80
3348 On ch=2 n=69 v=80
3587 Off ch=2 n=69 v=80
3587 On ch=2 n=65 v=105
3826 Off ch=2 n=65 v=105
3826 On ch=2 n=69 v=80
4065 Off ch=2 n=69 v=80
4065 On ch=2 n=67 v=95
4304 Off ch=2 n=67 v=95
4304 On ch=2 n=67 v=80
4543 Off ch=2 n=67 v=80
4543 On ch=2 n=69 v=80
4782 Off ch=2 n=69 v=80
4782 On ch=2 n=67 v=80
5021 Off ch=2 n=67 v=80
5021 On ch=2 n=69 v=95
5260 Off ch=2 n=69 v=95
5260 On ch=2 n=67 v=80
5499 Off ch=2 n=67 v=80
5499 On ch=2 n=65 v=80
5738 Off ch=2 n=65 v=80
5738 On ch=2 n=67 v=95
5977 Off ch=2 n=67 v=95
5977 On ch=2 n=66 v=80
6216 Off ch=2 n=66 v=80
6216 On ch=2 n=64 v=95
6455 Off ch=2 n=64 v=95
6455 On ch=2 n=76 v=80
6694 Off ch=2 n=76 v=80
6694 On ch=2 n=73 v=95
7173 Off ch=2 n=73 v=95
7173 On ch=2 n=76 v=80
7652 Off ch=2 n=76 v=80
7652 On ch=2 n=73 v=95
8131 Off ch=2 n=73 v=95
8131 On ch=2 n=67 v=80
8610 Off ch=2 n=67 v=80
8610 On ch=2 n=69 v=95
9089 Off ch=2 n=69 v=95
9089 On ch=2 n=67 v=80
9568 Off ch=2 n=67 v=80
9568 On ch=2 n=64 v=105
10047 Off ch=2 n=64 v=105
10047 On ch=2 n=64 v=80
10526 Off ch=2 n=64 v=80
10526 On ch=2 n=67 v=105
11005 Off ch=2 n=67 v=105
11005 On ch=2 n=64 v=80
11484 Off ch=2 n=64 v=80
11484 On ch=2 n=67 v=105
11963 Off ch=2 n=67 v=105
11963 On ch=2 n=69 v=80
12442 Off ch=2 n=69 v=80
12442 On ch=2 n=71 v=105
12921 Off ch=2 n=71 v=105
12921 On ch=2 n=69 v=80
13160 Off ch=2 n=69 v=80
13160 On ch=2 n=71 v=80
13399 Off ch=2 n=71 v=80
13399 On ch=2 n=73 v=105
13878 Off ch=2 n=73 v=105
13878 On ch=2 n=81 v=80
14357 Off ch=2 n=81 v=80
14357 On ch=2 n=81 v=105
14836 Off ch=2 n=81 v=105
14836 On ch=2 n=79 v=80
15075 Off ch=2 n=79 v=80
15075 On ch=2 n=78 v=105
15314 Off ch=2 n=78 v=105
15314 On ch=2 n=66 v=80
15553 Off ch=2 n=66 v=80
15553 On ch=2 n=66 v=95
15792 Off ch=2 n=66 v=95
15792 On ch=2 n=64 v=80
16031 Off ch=2 n=64 v=80
16031 On ch=2 n=62 v=80
16510 Off ch=2 n=62 v=80
16510 On ch=2 n=62 v=105
17469 Off ch=2 n=62 v=105
17469 On ch=2 n=64 v=80
17948 Off ch=2 n=64 v=80
17948 On ch=2 n=62 v=95
18427 Off ch=2 n=62 v=95
18427 On ch=2 n=64 v=80
18906 Off ch=2 n=64 v=80
18906 On ch=2 n=69 v=105
19385 Off ch=2 n=69 v=105
19385 On ch=2 n=74 v=80
19864 Off ch=2 n=74 v=80
19864 On ch=2 n=81 v=95
20343 Off ch=2 n=81 v=95
20343 On ch=2 n=83 v=80
20582 Off ch=2 n=83 v=80
20582 On ch=2 n=81 v=80
20821 Off ch=2 n=81 v=80
20821 On ch=2 n=78 v=95
21060 Off ch=2 n=78 v=95
21060 On ch=2 n=76 v=80
21299 Off ch=2 n=76 v=80
21299 On ch=2 n=74 v=80
21538 Off ch=2 n=74 v=80
21538 On ch=2 n=73 v=95
21777 Off ch=2 n=73 v=95
21777 On ch=2 n=69 v=80
22016 Off ch=2 n=69 v=80
22016 On ch=2 n=67 v=95
22255 Off ch=2 n=67 v=95
22255 On ch=2 n=66 v=80
22494 Off ch=2 n=66 v=80
22494 On ch=2 n=64 v=80
22733 Off ch=2 n=64 v=80
22733 On ch=2 n=62 v=95
22972 Off ch=2 n=62 v=95
22972 On ch=2 n=59 v=80
23211 Off ch=2 n=59 v=80
23211 On ch=2 n=50 v=75
23211 On ch=2 n=54 v=75
23211 On ch=2 n=57 v=75
24650 Off ch=2 n=50 v=75
24650 Off ch=2 n=54 v=75
24650 Off ch=2 n=57 v=75
24650 On ch=2 n=59 v=75
24650 On ch=2 n=63 v=75
24650 On ch=2 n=66 v=75
24650 On ch=2 n=69 v=75
26089 Off ch=2 n=59 v=75
26089 Off ch=2 n=63 v=75
26089 Off ch=2 n=66 v=75
26089 Off ch=2 n=69 v=75
26089 On ch=2 n=52 v=75
26089 On ch=2 n=55 v=75
26089 On ch=2 n=59 v=75
27528 Off ch=2 n=52 v=75
27528 Off ch=2 n=55 v=75
27528 Off ch=2 n=59 v=75
27528 On ch=2 n=52 v=75
27528 On ch=2 n=55 v=75
27528 On ch=2 n=59 v=75
28967 Off ch=2 n=52 v=75
28967 Off ch=2 n=55 v=75
28967 Off ch=2 n=59 v=75
28967 On ch=2 n=52 v=75
28967 On ch=2 n=55 v=75
28967 On ch=2 n=59 v=75
30406 Off ch=2 n=52 v=75
30406 Off ch=2 n=55 v=75
30406 Off ch=2 n=59 v=75
30406 On ch=2 n=57 v=75
30406 On ch=2 n=60 v=75
30406 On ch=2 n=64 v=75
31845 Off ch=2 n=57 v=75
31845 Off ch=2 n=60 v=75
31845 Off ch=2 n=64 v=75
31845 On ch=2 n=50 v=75
31845 On ch=2 n=54 v=75
31845 On ch=2 n=57 v=75
33284 Off ch=2 n=50 v=75
33284 Off ch=2 n=54 v=75
33284 Off ch=2 n=57 v=75
33284 On ch=2 n=57 v=75
33284 On ch=2 n=60 v=75
33284 On ch=2 n=64 v=75
34723 Off ch=2 n=57 v=75
34723 Off ch=2 n=60 v=75
34723 Off ch=2 n=64 v=75
34723 On ch=2 n=64 v=105
36162 Off ch=2 n=64 v=105
36162 On ch=2 n=74 v=105
37601 Off ch=2 n=74 v=105
37601 On ch=2 n=71 v=105
39520 Off ch=2 n=71 v=105
39520 On ch=2 n=76 v=80
39999 Off ch=2 n=76 v=80
39999 On ch=2 n=80 v=80
40478 Off ch=2 n=80 v=80
40478 On ch=2 n=72 v=105
42397 Off ch=2 n=72 v=105
42397 On ch=2 n=71 v=95
43356 Off ch=2 n=71 v=95
43356 On ch=2 n=71 v=80
43835 Off ch=2 n=71 v=80
43835 On ch=2 n=73 v=95
44314 Off ch=2 n=73 v=95
44314 On ch=2 n=71 v=80
44793 Off ch=2 n=71 v=80
44793 On ch=2 n=69 v=105
46232 Off ch=2 n=69 v=105
46232 On ch=2 n=74 v=80
46711 Off ch=2 n=74 v=80
46711 On ch=2 n=74 v=95
47190 Off ch=2 n=74 v=95
47190 On ch=2 n=76 v=80
47429 Off ch=2 n=76 v=80
47429 On ch=2 n=74 v=95
47668 Off ch=2 n=74 v=95
47668 On ch=2 n=71 v=80
47907 Off ch=2 n=71 v=80
47907 On ch=2 n=69 v=105
49106 Off ch=2 n=69 v=105
49106 On ch=2 n=71 v=80
49345 Off ch=2 n=71 v=80
49345 On ch=2 n=66 v=80
49584 Off ch=2 n=66 v=80
49584 On ch=2 n=64 v=95
49823 Off ch=2 n=64 v=95
49823 On ch=2 n=66 v=80
50062 Off ch=2 n=66 v=80
50062 On ch=2 n=60 v=95
50301 Off ch=2 n=60 v=95
50301 On ch=2 n=65 v=80
50540 Off ch=2 n=65 v=80
50540 On ch=2 n=67 v=95
50779 Off ch=2 n=67 v=95
50779 On ch=2 n=66 v=80
51018 Off ch=2 n=66 v=80
51018 On ch=2 n=64 v=95
51257 Off ch=2 n=64 v=95
51257 On ch=2 n=69 v=80
51496 Off ch=2 n=69 v=80
51496 On ch=2 n=67 v=80
51735 Off ch=2 n=67 v=80
51735 On ch=2 n=67 v=95
51974 Off ch=2 n=67 v=95
51974 On ch=2 n=69 v=80
52213 Off ch=2 n=69 v=80
52213 On ch=2 n=71 v=80
52452 Off ch=2 n=71 v=80
52452 On ch=2 n=72 v=105
52931 Off ch=2 n=72 v=105
52931 On ch=2 n=71 v=80
53170 Off ch=2 n=71 v=80
53170 On ch=2 n=71 v=95
53409 Off ch=2 n=71 v=95
53409 On ch=2 n=72 v=80
53648 Off ch=2 n=72 v=80
53648 On ch=2 n=79 v=95
53887 Off ch=2 n=79 v=95
53887 On ch=2 n=71 v=80
54126 Off ch=2 n=71 v=80
54126 On ch=2 n=72 v=80
54365 Off ch=2 n=72 v=80
54365 On ch=2 n=71 v=105
54844 Off ch=2 n=71 v=105
54844 On ch=2 n=69 v=80
55083 Off ch=2 n=69 v=80
55083 On ch=2 n=73 v=105
55562 Off ch=2 n=73 v=105
55562 On ch=2 n=69 v=80
56041 Off ch=2 n=69 v=80
56041 On ch=2 n=65 v=105
56280 Off ch=2 n=65 v=105
56280 On ch=2 n=63 v=80
56519 Off ch=2 n=63 v=80
56519 On ch=2 n=64 v=80
56758 Off ch=2 n=64 v=80
56758 On ch=2 n=62 v=105
56997 Off ch=2 n=62 v=105
56997 On ch=2 n=66 v=80
57236 Off ch=2 n=66 v=80
57236 On ch=2 n=62 v=80
57475 Off ch=2 n=62 v=80
57475 On ch=2 n=67 v=105
57954 Off ch=2 n=67 v=105
57954 On ch=2 n=69 v=80
58433 Off ch=2 n=69 v=80
58433 On ch=2 n=71 v=105
58912 Off ch=2 n=71 v=105
58912 On ch=2 n=73 v=80
59391 Off ch=2 n=73 v=80
59391 On ch=2 n=74 v=105
59870 Off ch=2 n=74 v=105
59870 On ch=2 n=69 v=80
60349 Off ch=2 n=69 v=80
60349 On ch=2 n=71 v=80
60828 Off ch=2 n=71 v=80
60828 On ch=2 n=72 v=105
61787 Off ch=2 n=72 v=105
61787 On ch=2 n=71 v=80
62266 Off ch=2 n=71 v=80
62266 On ch=2 n=73 v=105
62745 Off ch=2 n=73 v=105
62745 On ch=2 n=71 v=80
63224 Off ch=2 n=71 v=80
63224 On ch=2 n=73 v=95
63703 Off ch=2 n=73 v=95
63703 On ch=2 n=76 v=80
64182 Off ch=2 n=76 v=80
64182 On ch=2 n=67 v=95
64661 Off ch=2 n=67 v=95
64661 On ch=2 n=69 v=80
64900 Off ch=2 n=69 v=80
64900 On ch=2 n=71 v=80
65139 Off ch=2 n=71 v=80
65139 On ch=2 n=72 v=105
65618 Off ch=2 n=72 v=105
65618 On ch=2 n=71 v=80
65857 Off ch=2 n=71 v=80
65857 On ch=2 n=72 v=80
66096 Off ch=2 n=72 v=80
66096 On ch=2 n=71 v=105
66575 Off ch=2 n=71 v=105
66575 On ch=2 n=69 v=80
66814 Off ch=2 n=69 v=80
66814 On ch=2 n=71 v=95
67293 Off ch=2 n=71 v=95
67293 On ch=2 n=74 v=80
67772 Off ch=2 n=74 v=80
67772 On ch=2 n=74 v=95
68011 Off ch=2 n=74 v=95
68011 On ch=2 n=73 v=80
68250 Off ch=2 n=73 v=80
68250 On ch=2 n=69 v=80
68489 Off ch=2 n=69 v=80
68489 On ch=2 n=71 v=105
68968 Off ch=2 n=71 v=105
68968 On ch=2 n=76 v=80
69447 Off ch=2 n=76 v=80
69447 On ch=2 n=76 v=95
69686 Off ch=2 n=76 v=95
69686 On ch=2 n=76 v=80
69925 Off ch=2 n=76 v=80
69925 On ch=2 n=76 v=95
70164 Off ch=2 n=76 v=95
70164 On ch=2 n=38 v=80
70403 Off ch=2 n=38 v=80
70403 On ch=2 n=50 v=75
70403 On ch=2 n=54 v=75
70403 On ch=2 n=57 v=75
70403 On ch=2 n=60 v=75
70642 Off ch=2 n=50 v=75
70642 Off ch=2 n=54 v=75
70642 Off ch=2 n=57 v=75
70642 Off ch=2 n=60 v=75
70642 On ch=2 n=55 v=75
70642 On ch=2 n=59 v=75
70642 On ch=2 n=62 v=75
72081 Off ch=2 n=55 v=75
72081 Off ch=2 n=59 v=75
72081 Off ch=2 n=62 v=75
72081 On ch=2 n=55 v=75
72081 On ch=2 n=59 v=75
72081 On ch=2 n=62 v=75
73520 Off ch=2 n=55 v=75
73520 Off ch=2 n=59 v=75
73520 Off ch=2 n=62 v=75
73520 On ch=2 n=57 v=75
73520 On ch=2 n=60 v=75
73520 On ch=2 n=64 v=75
74959 Off ch=2 n=57 v=75
74959 Off ch=2 n=60 v=75
74959 Off ch=2 n=64 v=75
74959 On ch=2 n=53 v=75
74959 On ch=2 n=57 v=75
74959 On ch=2 n=60 v=75
76398 Off ch=2 n=53 v=75
76398 Off ch=2 n=57 v=75
76398 Off ch=2 n=60 v=75
76398 On ch=2 n=55 v=75
76398 On ch=2 n=59 v=75
76398 On ch=2 n=62 v=75
78317 Off ch=2 n=55 v=75
78317 Off ch=2 n=59 v=75
78317 Off ch=2 n=62 v=75
78317 On ch=2 n=71 v=105
78796 Off ch=2 n=71 v=105
78796 On ch=2 n=73 v=80
79275 Off ch=2 n=73 v=80
79275 On ch=2 n=74 v=105
79754 Off ch=2 n=74 v=105
79754 On ch=2 n=69 v=95
80233 Off ch=2 n=69 v=95
80233 On ch=2 n=76 v=95
80712 Off ch=2 n=76 v=95
80712 On ch=2 n=73 v=80
81191 Off ch=2 n=73 v=80
81191 On ch=2 n=76 v=105
81670 Off ch=2 n=76 v=105
81670 On ch=2 n=74 v=80
82149 Off ch=2 n=74 v=80
82149 On ch=2 n=74 v=95
82628 Off ch=2 n=74 v=95
82628 On ch=2 n=74 v=105
83107 Off ch=2 n=74 v=105
83107 On ch=2 n=69 v=95
83586 Off ch=2 n=69 v=95
83586 On ch=2 n=67 v=105
84065 Off ch=2 n=67 v=105
84065 On ch=2 n=76 v=95
84544 Off ch=2 n=76 v=95
84544 On ch=2 n=74 v=80
85023 Off ch=2 n=74 v=80
85023 On ch=2 n=73 v=105
85502 Off ch=2 n=73 v=105
85502 On ch=2 n=69 v=95
85981 Off ch=2 n=69 v=95
85981 On ch=2 n=67 v=80
86460 Off ch=2 n=67 v=80
86460 On ch=2 n=69 v=105
87419 Off ch=2 n=69 v=105
87419 On ch=2 n=71 v=95
87898 Off ch=2 n=71 v=95
87898 On ch=2 n=74 v=80
88377 Off ch=2 n=74 v=80
88377 On ch=2 n=71 v=80
88616 Off ch=2 n=71 v=80
88616 On ch=2 n=67 v=105
88855 Off ch=2 n=67 v=105
88855 On ch=2 n=72 v=80
89094 Off ch=2 n=72 v=80
89094 On ch=2 n=71 v=80
89333 Off ch=2 n=71 v=80
89333 On ch=2 n=69 v=105
89572 Off ch=2 n=69 v=105
89572 On ch=2 n=71 v=80
89811 Off ch=2 n=71 v=80
89811 On ch=2 n=74 v=80
90050 Off ch=2 n=74 v=80
90050 On ch=2 n=67 v=105
90289 Off ch=2 n=67 v=105
90289 On ch=2 n=71 v=80
90528 Off ch=2 n=71 v=80
90528 On ch=2 n=69 v=80
90767 Off ch=2 n=69 v=80
90767 On ch=2 n=67 v=95
91246 Off ch=2 n=67 v=95
91246 On ch=2 n=71 v=80
91485 Off ch=2 n=71 v=80
91485 On ch=2 n=69 v=105
91964 Off ch=2 n=69 v=105
91964 On ch=2 n=74 v=80
92443 Off ch=2 n=74 v=80
92443 On ch=2 n=73 v=80
92682 Off ch=2 n=73 v=80
92682 On ch=2 n=76 v=105
92921 Off ch=2 n=76 v=105
92921 On ch=2 n=73 v=80
93160 Off ch=2 n=73 v=80
93160 On ch=2 n=76 v=105
93399 Off ch=2 n=76 v=105
93399 On ch=2 n=73 v=80
93638 Off ch=2 n=73 v=80
93638 On ch=2 n=76 v=80
93877 Off ch=2 n=76 v=80
93877 On ch=2 n=74 v=95
94116 Off ch=2 n=74 v=95
94116 On ch=2 n=71 v=80
94355 Off ch=2 n=71 v=80
94355 On ch=2 n=69 v=105
94594 Off ch=2 n=69 v=105
94594 On ch=2 n=71 v=80
94833 Off ch=2 n=71 v=80
94833 On ch=2 n=69 v=80
95072 Off ch=2 n=69 v=80
95072 On ch=2 n=67 v=95
95551 Off ch=2 n=67 v=95
95551 On ch=2 n=74 v=80
96030 Off ch=2 n=74 v=80
96030 On ch=2 n=73 v=105
96509 Off ch=2 n=73 v=105
96509 On ch=2 n=69 v=80
96988 Off ch=2 n=69 v=80
96988 On ch=2 n=67 v=80
97467 Off ch=2 n=67 v=80
97467 On ch=2 n=71 v=80
97946 Off ch=2 n=71 v=80
97946 On ch=2 n=69 v=105
98425 Off ch=2 n=69 v=105
98425 On ch=2 n=71 v=80
98664 Off ch=2 n=71 v=80
98664 On ch=2 n=69 v=80
98903 Off ch=2 n=69 v=80
98903 On ch=2 n=67 v=95
99382 Off ch=2 n=67 v=95
99382 On ch=2 n=66 v=80
99861 Off ch=2 n=66 v=80
99861 On ch=2 n=64 v=105
100100 Off ch=2 n=64 v=105
100100 On ch=2 n=66 v=80
100339 Off ch=2 n=66 v=80
100339 On ch=2 n=64 v=80
100578 Off ch=2 n=64 v=80
100578 On ch=2 n=62 v=105
100817 Off ch=2 n=62 v=105
100817 On ch=2 n=67 v=80
101056 Off ch=2 n=67 v=80
101056 On ch=2 n=69 v=80
101295 Off ch=2 n=69 v=80
101295 On ch=2 n=71 v=105
101774 Off ch=2 n=71 v=105
101774 On ch=2 n=67 v=80
102013 Off ch=2 n=67 v=80
102013 On ch=2 n=69 v=80
102252 Off ch=2 n=69 v=80
102252 On ch=2 n=70 v=95
102731 Off ch=2 n=70 v=95
102731 On ch=2 n=76 v=80
103210 Off ch=2 n=76 v=80
103210 On ch=2 n=76 v=105
103689 Off ch=2 n=76 v=105
103689 On ch=2 n=73 v=80
103928 Off ch=2 n=73 v=80
103928 On ch=2 n=76 v=80
104167 Off ch=2 n=76 v=80
104167 On ch=2 n=76 v=95
104406 Off ch=2 n=76 v=95
104406 On ch=2 n=73 v=80
104645 Off ch=2 n=73 v=80
104645 On ch=2 n=81 v=80
104884 Off ch=2 n=81 v=80
104884 On ch=2 n=78 v=80
105123 Off ch=2 n=78 v=80
105123 On ch=2 n=74 v=105
105602 Off ch=2 n=74 v=105
105602 On ch=2 n=74 v=80
105841 Off ch=2 n=74 v=80
105841 On ch=2 n=71 v=80
106320 Off ch=2 n=71 v=80
106320 On ch=2 n=68 v=105
106799 Off ch=2 n=68 v=105
106799 On ch=2 n=68 v=80
107038 Off ch=2 n=68 v=80
107038 On ch=2 n=71 v=80
107277 Off ch=2 n=71 v=80
107277 On ch=2 n=74 v=105
131236 Off ch=2 n=74 v=105
131236 On ch=2 n=74 v=80
131475 Off ch=2 n=74 v=80
131475 On ch=2 n=73 v=95
131714 Off ch=2 n=73 v=95
131714 On ch=2 n=74 v=80
131953 Off ch=2 n=74 v=80
131953 On ch=2 n=73 v=80
132192 Off ch=2 n=73 v=80
132192 On ch=2 n=74 v=95
132431 Off ch=2 n=74 v=95
132431 On ch=2 n=73 v=80
132670 Off ch=2 n=73 v=80
132670 On ch=2 n=74 v=80
132909 Off ch=2 n=74 v=80
132909 On ch=2 n=73 v=105
133388 Off ch=2 n=73 v=105
133388 On ch=2 n=69 v=80
133867 Off ch=2 n=69 v=80
133867 On ch=2 n=69 v=105
134346 Off ch=2 n=69 v=105
134346 On ch=2 n=76 v=80
134585 Off ch=2 n=76 v=80
134585 On ch=2 n=74 v=80
134824 Off ch=2 n=74 v=80
134824 On ch=2 n=71 v=95
135063 Off ch=2 n=71 v=95
135063 On ch=2 n=67 v=80
135302 Off ch=2 n=67 v=80
135302 On ch=2 n=69 v=105
135541 Off ch=2 n=69 v=105
135541 On ch=2 n=72 v=80
135780 Off ch=2 n=72 v=80
135780 On ch=2 n=71 v=80
136019 Off ch=2 n=71 v=80
136019 On ch=2 n=69 v=105
136258 Off ch=2 n=69 v=105
136258 On ch=2 n=71 v=80
136497 Off ch=2 n=71 v=80
136497 On ch=2 n=74 v=80
136736 Off ch=2 n=74 v=80
136736 On ch=2 n=76 v=95
136975 Off ch=2 n=76 v=95
136975 On ch=2 n=78 v=80
137214 Off ch=2 n=78 v=80
137214 On ch=2 n=76 v=80
137453 Off ch=2 n=76 v=80
137453 On ch=2 n=73 v=80
137692 Off ch=2 n=73 v=80
137692 On ch=2 n=76 v=95
137931 Off ch=2 n=76 v=95
137931 On ch=2 n=74 v=80
138170 Off ch=2 n=74 v=80
138170 On ch=2 n=71 v=80
138409 Off ch=2 n=71 v=80
138409 On ch=2 n=72 v=105
138648 Off ch=2 n=72 v=105
138648 On ch=2 n=71 v=80
138887 Off ch=2 n=71 v=80
138887 On ch=2 n=72 v=80
139126 Off ch=2 n=72 v=80
139126 On ch=2 n=71 v=105
139605 Off ch=2 n=71 v=105
139605 On ch=2 n=69 v=80
139844 Off ch=2 n=69 v=80
139844 On ch=2 n=71 v=95
140323 Off ch=2 n=71 v=95
140323 On ch=2 n=74 v=80
140802 Off ch=2 n=74 v=80
140802 On ch=2 n=74 v=95
141041 Off ch=2 n=74 v=95
141041 On ch=2 n=73 v=80
141280 Off ch=2 n=73 v=80
141280 On ch=2 n=69 v=80
141519 Off ch=2 n=69 v=80
141519 On ch=2 n=74 v=105
141998 Off ch=2 n=74 v=105
141998 On ch=2 n=73 v=80
142237 Off ch=2 n=73 v=80
142237 On ch=2 n=69 v=80
142476 Off ch=2 n=69 v=80
142476 On ch=2 n=74 v=105
142955 Off ch=2 n=74 v=105
142955 On ch=2 n=73 v=80
143194 Off ch=2 n=73 v=80
143194 On ch=2 n=69 v=80
143433 Off ch=2 n=69 v=80
143433 On ch=2 n=74 v=105
143912 Off ch=2 n=74 v=105
143912 On ch=2 n=65 v=95
144871 Off ch=2 n=65 v=95
144871 On ch=2 n=36 v=80
146790 Off ch=2 n=36 v=80
146790 On ch=2 n=48 v=75
146790 On ch=2 n=52 v=75
146790 On ch=2 n=55 v=75
147029 Off ch=2 n=48 v=75
147029 Off ch=2 n=52 v=75
147029 Off ch=2 n=55 v=75
147029 On ch=2 n=36 v=80
147268 Off ch=2 n=36 v=80
147268 On ch=2 n=48 v=75
147268 On ch=2 n=52 v=75
147268 On ch=2 n=55 v=75
147507 Off ch=2 n=48 v=75
147507 Off ch=2 n=52 v=75
147507 Off ch=2 n=55 v=75
147507 On ch=2 n=38 v=80
147746 Off ch=2 n=38 v=80
147746 On ch=2 n=50 v=75
147746 On ch=2 n=54 v=75
147746 On ch=2 n=57 v=75
147985 Off ch=2 n=50 v=75
147985 Off ch=2 n=54 v=75
147985 Off ch=2 n=57 v=75
147985 On ch=2 n=40 v=80
148224 Off ch=2 n=40 v=80
148224 On ch=2 n=52 v=75
148224 On ch=2 n=55 v=75
148224 On ch=2 n=59 v=75
148463 Off ch=2 n=52 v=75
148463 Off ch=2 n=55 v=75
148463 Off ch=2 n=59 v=75
148463 On ch=2 n=43 v=80
148702 Off ch=2 n=43 v=80
148702 On ch=2 n=55 v=75
148702 On ch=2 n=59 v=75
148702 On ch=2 n=62 v=75
148941 Off ch=2 n=55 v=75
148941 Off ch=2 n=59 v=75
148941 Off ch=2 n=62 v=75
148941 On ch=2 n=38 v=80
149180 Off ch=2 n=38 v=80
149180 On ch=2 n=50 v=75
149180 On ch=2 n=54 v=75
149180 On ch=2 n=57 v=75
149180 On ch=2 n=60 v=75
149419 Off ch=2 n=50 v=75
149419 Off ch=2 n=54 v=75
149419 Off ch=2 n=57 v=75
149419 Off ch=2 n=60 v=75
149419 On ch=2 n=43 v=80
149658 Off ch=2 n=43 v=80
149658 On ch=2 n=55 v=75
149658 On ch=2 n=59 v=75
149658 On ch=2 n=62 v=75
149897 Off ch=2 n=55 v=75
149897 Off ch=2 n=59 v=75
149897 Off ch=2 n=62 v=75
149897 On ch=2 n=43 v=80
150136 Off ch=2 n=43 v=80
150136 On ch=2 n=55 v=75
150136 On ch=2 n=59 v=75
150136 On ch=2 n=62 v=75
150375 Off ch=2 n=55 v=75
150375 Off ch=2 n=59 v=75
150375 Off ch=2 n=62 v=75
150375 On ch=2 n=43 v=80
150614 Off ch=2 n=43 v=80
150614 On ch=2 n=55 v=75
150614 On ch=2 n=59 v=75
150614 On ch=2 n=62 v=75
150853 Off ch=2 n=55 v=75
150853 Off ch=2 n=59 v=75
150853 Off ch=2 n=62 v=75
150853 On ch=2 n=38 v=80
151092 Off ch=2 n=38 v=80
151092 On ch=2 n=50 v=75
151092 On ch=2 n=54 v=75
151092 On ch=2 n=57 v=75
151092 On ch=2 n=60 v=75
151331 Off ch=2 n=50 v=75
151331 Off ch=2 n=54 v=75
151331 Off ch=2 n=57 v=75
151331 Off ch=2 n=60 v=75
151331 On ch=2 n=71 v=105
151810 Off ch=2 n=71 v=105
151810 On ch=2 n=74 v=80
152289 Off ch=2 n=74 v=80
152289 On ch=2 n=55 v=75
152289 On ch=2 n=59 v=75
152289 On ch=2 n=62 v=75
154208 Off ch=2 n=55 v=75
154208 Off ch=2 n=59 v=75
154208 Off ch=2 n=62 v=75
154208 On ch=2 n=71 v=105
154687 Off ch=2 n=71 v=105
154687 On ch=2 n=71 v=80
155166 Off ch=2 n=71 v=80
155166 On ch=2 n=69 v=105
155645 Off ch=2 n=69 v=105
155645 On ch=2 n=71 v=80
155884 Off ch=2 n=71 v=80
155884 On ch=2 n=40 v=80
156123 Off ch=2 n=40 v=80
156123 On ch=2 n=55 v=105
156362 Off ch=2 n=55 v=105
156362 On ch=2 n=57 v=80
156601 Off ch=2 n=57 v=80
156601 On ch=2 n=52 v=75
156601 On ch=2 n=55 v=75
156601 On ch=2 n=59 v=75
156840 Off ch=2 n=52 v=75
156840 Off ch=2 n=55 v=75
156840 Off ch=2 n=59 v=75
156840 On ch=2 n=43 v=80
157079 Off ch=2 n=43 v=80
157079 On ch=2 n=55 v=75
157079 On ch=2 n=59 v=75
157079 On ch=2 n=62 v=75
157318 Off ch=2 n=55 v=75
157318 Off ch=2 n=59 v=75
157318 Off ch=2 n=62 v=75
157318 On ch=2 n=53 v=75
157318 On ch=2 n=57 v=75
157318 On ch=2 n=60 v=75
157557 Off ch=2 n=53 v=75
157557 Off ch=2 n=57 v=75
157557 Off ch=2 n=60 v=75
157557 On ch=2 n=54 v=75
157557 On ch=2 n=57 v=75
157557 On ch=2 n=61 v=75
157796 Off ch=2 n=54 v=75
157796 Off ch=2 n=57 v=75
157796 Off ch=2 n=61 v=75
157796 On ch=2 n=62 v=105
158035 Off ch=2 n=62 v=105
158035 On ch=2 n=67 v=105
158274 Off ch=2 n=67 v=105
158274 On ch=2 n=64 v=80
158513 Off ch=2 n=64 v=80
158513 On ch=2 n=68 v=105
158992 Off ch=2 n=68 v=105
158992 On ch=2 n=68 v=80
159231 Off ch=2 n=68 v=80
159231 On ch=2 n=71 v=80
159470 Off ch=2 n=71 v=80
159470 On ch=2 n=74 v=105
183429 Off ch=2 n=74 v=105
183429 On ch=2 n=74 v=80
183668 Off ch=2 n=74 v=80
183668 On ch=2 n=73 v=95
183907 Off ch=2 n=73 v=95
183907 On ch=2 n=74 v=80
184146 Off ch=2 n=74 v=80
184146 On ch=2 n=73 v=80
184385 Off ch=2 n=73 v=80
184385 On ch=2 n=74 v=95
184624 Off ch=2 n=74 v=95
184624 On ch=2 n=73 v=80
184863 Off ch=2 n=73 v=80
184863 On ch=2 n=74 v=80
185102 Off ch=2 n=74 v=80
185102 On ch=2 n=73 v=105
185581 Off ch=2 n=73 v=105
185581 On ch=2 n=69 v=80
186060 Off ch=2 n=69 v=80
186060 On ch=2 n=69 v=95
186539 Off ch=2 n=69 v=95
186539 On ch=2 n=71 v=80
186778 Off ch=2 n=71 v=80
186778 On ch=2 n=72 v=95
187017 Off ch=2 n=72 v=95
187017 On ch=2 n=74 v=80
187256 Off ch=2 n=74 v=80
