MFile 1 3 480
MTrk
0 Tempo 500000
0 KeySig 1 major
0 TimeSig 4/4 48 8
0 Meta SeqName "Cuillin Reel"
46105 Meta TrkEnd
TrkEnd
MTrk
0 Meta TrkName "Cuillin Reel"
0 Meta Text " Nottingham Music Database"
0 Meta Text "S:Mick Peat"
0 On ch=1 n=74 v=105
479 Off ch=1 n=74 v=0
480 On ch=1 n=79 v=105
959 Off ch=1 n=79 v=0
960 On ch=1 n=74 v=80
1199 Off ch=1 n=74 v=0
1200 On ch=1 n=79 v=80
1439 Off ch=1 n=79 v=0
1440 On ch=1 n=71 v=95
1679 Off ch=1 n=71 v=0
1680 On ch=1 n=79 v=80
1919 Off ch=1 n=79 v=0
1920 On ch=1 n=74 v=80
2159 Off ch=1 n=74 v=0
2160 On ch=1 n=79 v=80
2399 Off ch=1 n=79 v=0
2400 On ch=1 n=76 v=105
2639 Off ch=1 n=76 v=0
2640 On ch=1 n=74 v=80
2879 Off ch=1 n=74 v=0
2880 On ch=1 n=72 v=80
3119 Off ch=1 n=72 v=0
3120 On ch=1 n=74 v=80
3359 Off ch=1 n=74 v=0
3360 On ch=1 n=76 v=95
3599 Off ch=1 n=76 v=0
3600 On ch=1 n=74 v=80
3839 Off ch=1 n=74 v=0
3840 On ch=1 n=76 v=80
4079 Off ch=1 n=76 v=0
4080 On ch=1 n=78 v=80
4319 Off ch=1 n=78 v=0
4320 On ch=1 n=79 v=105
4799 Off ch=1 n=79 v=0
4800 On ch=1 n=74 v=80
5039 Off ch=1 n=74 v=0
5040 On ch=1 n=79 v=80
5279 Off ch=1 n=79 v=0
5280 On ch=1 n=71 v=95
5519 Off ch=1 n=71 v=0
5520 On ch=1 n=79 v=80
5759 Off ch=1 n=79 v=0
5760 On ch=1 n=74 v=80
5999 Off ch=1 n=74 v=0
6000 On ch=1 n=79 v=80
6239 Off ch=1 n=79 v=0
6240 On ch=1 n=72 v=105
6479 Off ch=1 n=72 v=0
6480 On ch=1 n=76 v=80
6719 Off ch=1 n=76 v=0
6720 On ch=1 n=74 v=80
6959 Off ch=1 n=74 v=0
6960 On ch=1 n=72 v=80
7199 Off ch=1 n=72 v=0
7200 On ch=1 n=71 v=95
7439 Off ch=1 n=71 v=0
7440 On ch=1 n=67 v=80
7679 Off ch=1 n=67 v=0
7680 On ch=1 n=67 v=80
7919 Off ch=1 n=67 v=0
7920 On ch=1 n=74 v=80
8159 Off ch=1 n=74 v=0
8160 On ch=1 n=79 v=105
8639 Off ch=1 n=79 v=0
8640 On ch=1 n=74 v=80
8879 Off ch=1 n=74 v=0
8880 On ch=1 n=79 v=80
9119 Off ch=1 n=79 v=0
9120 On ch=1 n=71 v=95
9359 Off ch=1 n=71 v=0
9360 On ch=1 n=79 v=80
9599 Off ch=1 n=79 v=0
9600 On ch=1 n=74 v=80
9839 Off ch=1 n=74 v=0
9840 On ch=1 n=79 v=80
10079 Off ch=1 n=79 v=0
10080 On ch=1 n=76 v=105
10319 Off ch=1 n=76 v=0
10320 On ch=1 n=74 v=80
10559 Off ch=1 n=74 v=0
10560 On ch=1 n=72 v=80
10799 Off ch=1 n=72 v=0
10800 On ch=1 n=74 v=80
11039 Off ch=1 n=74 v=0
11040 On ch=1 n=76 v=95
11279 Off ch=1 n=76 v=0
11280 On ch=1 n=74 v=80
11519 Off ch=1 n=74 v=0
11520 On ch=1 n=76 v=80
11759 Off ch=1 n=76 v=0
11760 On ch=1 n=78 v=80
11999 Off ch=1 n=78 v=0
12000 On ch=1 n=79 v=105
12479 Off ch=1 n=79 v=0
12480 On ch=1 n=74 v=80
12719 Off ch=1 n=74 v=0
12720 On ch=1 n=79 v=80
12959 Off ch=1 n=79 v=0
12960 On ch=1 n=71 v=95
13199 Off ch=1 n=71 v=0
13200 On ch=1 n=79 v=80
13439 Off ch=1 n=79 v=0
13440 On ch=1 n=74 v=80
13679 Off ch=1 n=74 v=0
13680 On ch=1 n=79 v=80
13919 Off ch=1 n=79 v=0
13920 On ch=1 n=72 v=105
14159 Off ch=1 n=72 v=0
14160 On ch=1 n=76 v=80
14399 Off ch=1 n=76 v=0
14400 On ch=1 n=74 v=80
14639 Off ch=1 n=74 v=0
14640 On ch=1 n=72 v=80
14879 Off ch=1 n=72 v=0
14880 On ch=1 n=71 v=95
15119 Off ch=1 n=71 v=0
15120 On ch=1 n=67 v=80
15359 Off ch=1 n=67 v=0
15360 On ch=1 n=67 v=80
15599 Off ch=1 n=67 v=0
15600 On ch=1 n=74 v=80
15839 Off ch=1 n=74 v=0
15840 On ch=1 n=71 v=105
16079 Off ch=1 n=71 v=0
16080 On ch=1 n=74 v=80
16319 Off ch=1 n=74 v=0
16320 On ch=1 n=67 v=80
16559 Off ch=1 n=67 v=0
16560 On ch=1 n=74 v=80
16799 Off ch=1 n=74 v=0
16800 On ch=1 n=71 v=95
17039 Off ch=1 n=71 v=0
17040 On ch=1 n=74 v=80
17279 Off ch=1 n=74 v=0
17280 On ch=1 n=67 v=80
17519 Off ch=1 n=67 v=0
17520 On ch=1 n=74 v=80
17759 Off ch=1 n=74 v=0
17760 On ch=1 n=72 v=105
17999 Off ch=1 n=72 v=0
18000 On ch=1 n=74 v=80
18239 Off ch=1 n=74 v=0
18240 On ch=1 n=69 v=80
18479 Off ch=1 n=69 v=0
18480 On ch=1 n=74 v=80
18719 Off ch=1 n=74 v=0
18720 On ch=1 n=72 v=95
18959 Off ch=1 n=72 v=0
18960 On ch=1 n=74 v=80
19199 Off ch=1 n=74 v=0
19200 On ch=1 n=69 v=80
19439 Off ch=1 n=69 v=0
19440 On ch=1 n=74 v=80
19679 Off ch=1 n=74 v=0
19680 On ch=1 n=71 v=105
19919 Off ch=1 n=71 v=0
19920 On ch=1 n=74 v=80
20159 Off ch=1 n=74 v=0
20160 On ch=1 n=67 v=80
20399 Off ch=1 n=67 v=0
20400 On ch=1 n=74 v=80
20639 Off ch=1 n=74 v=0
20640 On ch=1 n=71 v=95
20879 Off ch=1 n=71 v=0
20880 On ch=1 n=74 v=80
21119 Off ch=1 n=74 v=0
21120 On ch=1 n=67 v=80
21359 Off ch=1 n=67 v=0
21360 On ch=1 n=74 v=80
21599 Off ch=1 n=74 v=0
21600 On ch=1 n=76 v=105
21839 Off ch=1 n=76 v=0
21840 On ch=1 n=74 v=80
22079 Off ch=1 n=74 v=0
22080 On ch=1 n=72 v=80
22319 Off ch=1 n=72 v=0
22320 On ch=1 n=71 v=80
22559 Off ch=1 n=71 v=0
22560 On ch=1 n=69 v=95
22799 Off ch=1 n=69 v=0
22800 On ch=1 n=66 v=80
23039 Off ch=1 n=66 v=0
23040 On ch=1 n=62 v=80
23279 Off ch=1 n=62 v=0
23280 On ch=1 n=66 v=80
23519 Off ch=1 n=66 v=0
23520 On ch=1 n=71 v=105
23759 Off ch=1 n=71 v=0
23760 On ch=1 n=74 v=80
23999 Off ch=1 n=74 v=0
24000 On ch=1 n=67 v=80
24239 Off ch=1 n=67 v=0
24240 On ch=1 n=74 v=80
24479 Off ch=1 n=74 v=0
24480 On ch=1 n=71 v=95
24719 Off ch=1 n=71 v=0
24720 On ch=1 n=74 v=80
24959 Off ch=1 n=74 v=0
24960 On ch=1 n=67 v=80
25199 Off ch=1 n=67 v=0
25200 On ch=1 n=74 v=80
25439 Off ch=1 n=74 v=0
25440 On ch=1 n=67 v=105
25679 Off ch=1 n=67 v=0
25680 On ch=1 n=76 v=80
25919 Off ch=1 n=76 v=0
25920 On ch=1 n=72 v=80
26159 Off ch=1 n=72 v=0
26160 On ch=1 n=76 v=80
26399 Off ch=1 n=76 v=0
26400 On ch=1 n=67 v=95
26639 Off ch=1 n=67 v=0
26640 On ch=1 n=76 v=80
26879 Off ch=1 n=76 v=0
26880 On ch=1 n=72 v=80
27119 Off ch=1 n=72 v=0
27120 On ch=1 n=76 v=80
27359 Off ch=1 n=76 v=0
27360 On ch=1 n=74 v=105
27599 Off ch=1 n=74 v=0
27600 On ch=1 n=76 v=80
27839 Off ch=1 n=76 v=0
27840 On ch=1 n=66 v=80
28079 Off ch=1 n=66 v=0
28080 On ch=1 n=79 v=80
28319 Off ch=1 n=79 v=0
28320 On ch=1 n=81 v=95
28559 Off ch=1 n=81 v=0
28560 On ch=1 n=84 v=80
28799 Off ch=1 n=84 v=0
28800 On ch=1 n=83 v=80
29039 Off ch=1 n=83 v=0
29040 On ch=1 n=81 v=80
29279 Off ch=1 n=81 v=0
29280 On ch=1 n=79 v=105
30239 Off ch=1 n=79 v=0
30240 On ch=1 n=79 v=95
30719 Off ch=1 n=79 v=0
30720 On ch=1 n=74 v=80
31199 Off ch=1 n=74 v=0
31200 On ch=1 n=71 v=105
31439 Off ch=1 n=71 v=0
31440 On ch=1 n=74 v=80
31679 Off ch=1 n=74 v=0
31680 On ch=1 n=67 v=80
31919 Off ch=1 n=67 v=0
31920 On ch=1 n=74 v=80
32159 Off ch=1 n=74 v=0
32160 On ch=1 n=71 v=95
32399 Off ch=1 n=71 v=0
32400 On ch=1 n=74 v=80
32639 Off ch=1 n=74 v=0
32640 On ch=1 n=67 v=80
32879 Off ch=1 n=67 v=0
32880 On ch=1 n=74 v=80
33119 Off ch=1 n=74 v=0
33120 On ch=1 n=72 v=105
33359 Off ch=1 n=72 v=0
33360 On ch=1 n=74 v=80
33599 Off ch=1 n=74 v=0
33600 On ch=1 n=69 v=80
33839 Off ch=1 n=69 v=0
33840 On ch=1 n=74 v=80
34079 Off ch=1 n=74 v=0
34080 On ch=1 n=72 v=95
34319 Off ch=1 n=72 v=0
34320 On ch=1 n=74 v=80
34559 Off ch=1 n=74 v=0
34560 On ch=1 n=69 v=80
34799 Off ch=1 n=69 v=0
34800 On ch=1 n=74 v=80
35039 Off ch=1 n=74 v=0
35040 On ch=1 n=71 v=105
35279 Off ch=1 n=71 v=0
35280 On ch=1 n=74 v=80
35519 Off ch=1 n=74 v=0
35520 On ch=1 n=67 v=80
35759 Off ch=1 n=67 v=0
35760 On ch=1 n=74 v=80
35999 Off ch=1 n=74 v=0
36000 On ch=1 n=71 v=95
36239 Off ch=1 n=71 v=0
36240 On ch=1 n=74 v=80
36479 Off ch=1 n=74 v=0
36480 On ch=1 n=67 v=80
36719 Off ch=1 n=67 v=0
36720 On ch=1 n=74 v=80
36959 Off ch=1 n=74 v=0
36960 On ch=1 n=76 v=105
37199 Off ch=1 n=76 v=0
37200 On ch=1 n=74 v=80
37439 Off ch=1 n=74 v=0
37440 On ch=1 n=72 v=80
37679 Off ch=1 n=72 v=0
37680 On ch=1 n=71 v=80
37919 Off ch=1 n=71 v=0
37920 On ch=1 n=69 v=95
38159 Off ch=1 n=69 v=0
38160 On ch=1 n=66 v=80
38399 Off ch=1 n=66 v=0
38400 On ch=1 n=62 v=80
38639 Off ch=1 n=62 v=0
38640 On ch=1 n=66 v=80
38879 Off ch=1 n=66 v=0
38880 On ch=1 n=71 v=105
39119 Off ch=1 n=71 v=0
39120 On ch=1 n=74 v=80
39359 Off ch=1 n=74 v=0
39360 On ch=1 n=67 v=80
39599 Off ch=1 n=67 v=0
39600 On ch=1 n=74 v=80
39839 Off ch=1 n=74 v=0
39840 On ch=1 n=71 v=95
40079 Off ch=1 n=71 v=0
40080 On ch=1 n=74 v=80
40319 Off ch=1 n=74 v=0
40320 On ch=1 n=67 v=80
40559 Off ch=1 n=67 v=0
40560 On ch=1 n=74 v=80
40799 Off ch=1 n=74 v=0
40800 On ch=1 n=67 v=105
41039 Off ch=1 n=67 v=0
41040 On ch=1 n=76 v=80
41279 Off ch=1 n=76 v=0
41280 On ch=1 n=72 v=80
41519 Off ch=1 n=72 v=0
41520 On ch=1 n=76 v=80
41759 Off ch=1 n=76 v=0
41760 On ch=1 n=67 v=95
41999 Off ch=1 n=67 v=0
42000 On ch=1 n=76 v=80
42239 Off ch=1 n=76 v=0
42240 On ch=1 n=72 v=80
42479 Off ch=1 n=72 v=0
42480 On ch=1 n=76 v=80
42719 Off ch=1 n=76 v=0
42720 On ch=1 n=74 v=105
42959 Off ch=1 n=74 v=0
42960 On ch=1 n=76 v=80
43199 Off ch=1 n=76 v=0
43200 On ch=1 n=66 v=80
43439 Off ch=1 n=66 v=0
43440 On ch=1 n=79 v=80
43679 Off ch=1 n=79 v=0
43680 On ch=1 n=81 v=95
43919 Off ch=1 n=81 v=0
43920 On ch=1 n=84 v=80
44159 Off ch=1 n=84 v=0
44160 On ch=1 n=83 v=80
44399 Off ch=1 n=83 v=0
44400 On ch=1 n=81 v=80
44639 Off ch=1 n=81 v=0
44640 On ch=1 n=79 v=105
45119 Off ch=1 n=79 v=0
45120 On ch=1 n=79 v=80
45599 Off ch=1 n=79 v=0
45600 On ch=1 n=79 v=95
46079 Off ch=1 n=79 v=0
480 On ch=3 n=55 v=75
480 On ch=3 n=59 v=75
480 On ch=3 n=62 v=75
2399 Off ch=3 n=55 v=0
2399 Off ch=3 n=59 v=0
2399 Off ch=3 n=62 v=0
2400 On ch=3 n=57 v=75
2400 On ch=3 n=60 v=75
2400 On ch=3 n=64 v=75
4319 Off ch=3 n=57 v=0
4319 Off ch=3 n=60 v=0
4319 Off ch=3 n=64 v=0
4320 On ch=3 n=55 v=75
4320 On ch=3 n=59 v=75
4320 On ch=3 n=62 v=75
6239 Off ch=3 n=55 v=0
6239 Off ch=3 n=59 v=0
6239 Off ch=3 n=62 v=0
6240 On ch=3 n=50 v=75
6240 On ch=3 n=54 v=75
6240 On ch=3 n=57 v=75
8159 Off ch=3 n=50 v=0
8159 Off ch=3 n=54 v=0
8159 Off ch=3 n=57 v=0
8160 On ch=3 n=55 v=75
8160 On ch=3 n=59 v=75
8160 On ch=3 n=62 v=75
10079 Off ch=3 n=55 v=0
10079 Off ch=3 n=59 v=0
10079 Off ch=3 n=62 v=0
10080 On ch=3 n=57 v=75
10080 On ch=3 n=60 v=75
10080 On ch=3 n=64 v=75
11999 Off ch=3 n=57 v=0
11999 Off ch=3 n=60 v=0
11999 Off ch=3 n=64 v=0
12000 On ch=3 n=55 v=75
12000 On ch=3 n=59 v=75
12000 On ch=3 n=62 v=75
13919 Off ch=3 n=55 v=0
13919 Off ch=3 n=59 v=0
13919 Off ch=3 n=62 v=0
13920 On ch=3 n=50 v=75
13920 On ch=3 n=54 v=75
13920 On ch=3 n=57 v=75
15839 Off ch=3 n=50 v=0
15839 Off ch=3 n=54 v=0
15839 Off ch=3 n=57 v=0
15840 On ch=3 n=55 v=75
15840 On ch=3 n=59 v=75
15840 On ch=3 n=62 v=75
17759 Off ch=3 n=55 v=0
17759 Off ch=3 n=59 v=0
17759 Off ch=3 n=62 v=0
17760 On ch=3 n=50 v=75
17760 On ch=3 n=54 v=75
17760 On ch=3 n=57 v=75
19679 Off ch=3 n=50 v=0
19679 Off ch=3 n=54 v=0
19679 Off ch=3 n=57 v=0
19680 On ch=3 n=55 v=75
19680 On ch=3 n=59 v=75
19680 On ch=3 n=62 v=75
21599 Off ch=3 n=55 v=0
21599 Off ch=3 n=59 v=0
21599 Off ch=3 n=62 v=0
21600 On ch=3 n=57 v=75
21600 On ch=3 n=60 v=75
21600 On ch=3 n=64 v=75
23519 Off ch=3 n=57 v=0
23519 Off ch=3 n=60 v=0
23519 Off ch=3 n=64 v=0
23520 On ch=3 n=55 v=75
23520 On ch=3 n=59 v=75
23520 On ch=3 n=62 v=75
25439 Off ch=3 n=55 v=0
25439 Off ch=3 n=59 v=0
25439 Off ch=3 n=62 v=0
25440 On ch=3 n=48 v=75
25440 On ch=3 n=52 v=75
25440 On ch=3 n=55 v=75
27359 Off ch=3 n=48 v=0
27359 Off ch=3 n=52 v=0
27359 Off ch=3 n=55 v=0
27360 On ch=3 n=50 v=75
27360 On ch=3 n=54 v=75
27360 On ch=3 n=57 v=75
29279 Off ch=3 n=50 v=0
29279 Off ch=3 n=54 v=0
29279 Off ch=3 n=57 v=0
29280 On ch=3 n=55 v=75
29280 On ch=3 n=59 v=75
29280 On ch=3 n=62 v=75
31199 Off ch=3 n=55 v=0
31199 Off ch=3 n=59 v=0
31199 Off ch=3 n=62 v=0
31200 On ch=3 n=55 v=75
31200 On ch=3 n=59 v=75
31200 On ch=3 n=62 v=75
33119 Off ch=3 n=55 v=0
33119 Off ch=3 n=59 v=0
33119 Off ch=3 n=62 v=0
33120 On ch=3 n=50 v=75
33120 On ch=3 n=54 v=75
33120 On ch=3 n=57 v=75
35039 Off ch=3 n=50 v=0
35039 Off ch=3 n=54 v=0
35039 Off ch=3 n=57 v=0
35040 On ch=3 n=55 v=75
35040 On ch=3 n=59 v=75
35040 On ch=3 n=62 v=75
36959 Off ch=3 n=55 v=0
36959 Off ch=3 n=59 v=0
36959 Off ch=3 n=62 v=0
36960 On ch=3 n=57 v=75
36960 On ch=3 n=60 v=75
36960 On ch=3 n=64 v=75
38879 Off ch=3 n=57 v=0
38879 Off ch=3 n=60 v=0
38879 Off ch=3 n=64 v=0
38880 On ch=3 n=55 v=75
38880 On ch=3 n=59 v=75
38880 On ch=3 n=62 v=75
40799 Off ch=3 n=55 v=0
40799 Off ch=3 n=59 v=0
40799 Off ch=3 n=62 v=0
40800 On ch=3 n=48 v=75
40800 On ch=3 n=52 v=75
40800 On ch=3 n=55 v=75
42719 Off ch=3 n=48 v=0
42719 Off ch=3 n=52 v=0
42719 Off ch=3 n=55 v=0
42720 On ch=3 n=50 v=75
42720 On ch=3 n=54 v=75
42720 On ch=3 n=57 v=75
44639 Off ch=3 n=50 v=0
44639 Off ch=3 n=54 v=0
44639 Off ch=3 n=57 v=0
44640 On ch=3 n=55 v=75
44640 On ch=3 n=59 v=75
44640 On ch=3 n=62 v=75
46559 Off ch=3 n=55 v=0
46559 Off ch=3 n=59 v=0
46559 Off ch=3 n=62 v=0
46586 Meta TrkEnd
TrkEnd
