midi.Pattern(format=1, resolution=480, tracks=\
[midi.Track(\
  [midi.SetTempoEvent(tick=0, data=[7, 161, 32]),
   midi.KeySignatureEvent(tick=0, data=[1, 0]),
   midi.TimeSignatureEvent(tick=0, data=[3, 2, 18, 8]),
   midi.TrackNameEvent(tick=0, text="A and A's Waltz", data=[65, 32, 97, 110, 100, 32, 65, 39, 115, 32, 87, 97, 108, 116, 122]),
   midi.EndOfTrackEvent(tick=33625, data=[])]),
 midi.Track(\
  [midi.TrackNameEvent(tick=0, text="A and A's Waltz", data=[65, 32, 97, 110, 100, 32, 65, 39, 115, 32, 87, 97, 108, 116, 122]),
   midi.TextMetaEvent(tick=0, text=' Nottingham Music Database', data=[32, 78, 111, 116, 116, 105, 110, 103, 104, 97, 109, 32, 77, 117, 115, 105, 99, 32, 68, 97, 116, 97, 98, 97, 115, 101]),
   midi.TextMetaEvent(tick=0, text='S:Mick Peat', data=[83, 58, 77, 105, 99, 107, 32, 80, 101, 97, 116]),
   midi.NoteOnEvent(tick=0, channel=0, data=[76, 105]),
   midi.NoteOffEvent(tick=479, channel=0, data=[76, 0]),
   midi.NoteOnEvent(tick=1, channel=0, data=[74, 105]),
   midi.NoteOffEvent(tick=959, channel=0, data=[74, 0]),
   midi.NoteOnEvent(tick=1, channel=0, data=[71, 80]),
   midi.NoteOffEvent(tick=479, channel=0, data=[71, 0]),
   midi.NoteOnEvent(tick=1, channel=0, data=[69, 105]),
   midi.NoteOffEvent(tick=719, channel=0, data=[69, 0]),
   midi.NoteOnEvent(tick=1, channel=0, data=[71, 80]),
   midi.NoteOffEvent(tick=239, channel=0, data=[71, 0]),
   midi.NoteOnEvent(tick=1, channel=0, data=[72, 80]),
   midi.NoteOffEvent(tick=479, channel=0, data=[72, 0]),
   midi.NoteOnEvent(tick=1, channel=0, data=[71, 105]),
   midi.NoteOffEvent(tick=959, channel=0, data=[71, 0]),
   midi.NoteOnEvent(tick=1, channel=0, data=[67, 80]),
   midi.NoteOffEvent(tick=479, channel=0, data=[67, 0]),
   midi.NoteOnEvent(tick=1, channel=0, data=[69, 105]),
   midi.NoteOffEvent(tick=959, channel=0, data=[69, 0]),
   midi.NoteOnEvent(tick=1, channel=0, data=[76, 80]),
   midi.NoteOffEvent(tick=479, channel=0, data=[76, 0]),
   midi.NoteOnEvent(tick=1, channel=0, data=[74, 105]),
   midi.NoteOffEvent(tick=959, channel=0, data=[74, 0]),
   midi.NoteOnEvent(tick=1, channel=0, data=[71, 80]),
   midi.NoteOffEvent(tick=479, channel=0, data=[71, 0]),
   midi.NoteOnEvent(tick=1, channel=0, data=[69, 105]),
   midi.NoteOffEvent(tick=719, channel=0, data=[69, 0]),
   midi.NoteOnEvent(tick=1, channel=0, data=[71, 80]),
   midi.NoteOffEvent(tick=239, channel=0, data=[71, 0]),
   midi.NoteOnEvent(tick=1, channel=0, data=[72, 80]),
   midi.NoteOffEvent(tick=479, channel=0, data=[72, 0]),
   midi.TimeSignatureEvent(tick=0, data=[2, 2, 24, 8]),
   midi.NoteOnEvent(tick=1, channel=0, data=[71, 105]),
   midi.NoteOffEvent(tick=479, channel=0, data=[71, 0]),
   midi.NoteOnEvent(tick=1, channel=0, data=[65, 80]),
   midi.NoteOffEvent(tick=479, channel=0, data=[65, 0]),
   midi.TimeSignatureEvent(tick=0, data=[3, 2, 18, 8]),
   midi.NoteOnEvent(tick=1, channel=0, data=[67, 105]),
   midi.NoteOffEvent(tick=959, channel=0, data=[67, 0]),
   midi.NoteOnEvent(tick=1, channel=0, data=[76, 80]),
   midi.NoteOffEvent(tick=479, channel=0, data=[76, 0]),
   midi.TextMetaEvent(tick=0, text=' Nottingham Music Database', data=[32, 78, 111, 116, 116, 105, 110, 103, 104, 97, 109, 32, 77, 117, 115, 105, 99, 32, 68, 97, 116, 97, 98, 97, 115, 101]),
   midi.TextMetaEvent(tick=0, text='S:Mick Peat', data=[83, 58, 77, 105, 99, 107, 32, 80, 101, 97, 116]),
   midi.NoteOnEvent(tick=1, channel=0, data=[76, 105]),
   midi.NoteOffEvent(tick=479, channel=0, data=[76, 0]),
   midi.NoteOnEvent(tick=1, channel=0, data=[74, 105]),
   midi.NoteOffEvent(tick=959, channel=0, data=[74, 0]),
   midi.NoteOnEvent(tick=1, channel=0, data=[71, 80]),
   midi.NoteOffEvent(tick=479, channel=0, data=[71, 0]),
   midi.NoteOnEvent(tick=1, channel=0, data=[69, 105]),
   midi.NoteOffEvent(tick=719, channel=0, data=[69, 0]),
   midi.NoteOnEvent(tick=1, channel=0, data=[71, 80]),
   midi.NoteOffEvent(tick=239, channel=0, data=[71, 0]),
   midi.NoteOnEvent(tick=1, channel=0, data=[72, 80]),
   midi.NoteOffEvent(tick=479, channel=0, data=[72, 0]),
   midi.NoteOnEvent(tick=1, channel=0, data=[71, 105]),
   midi.NoteOffEvent(tick=959, channel=0, data=[71, 0]),
   midi.NoteOnEvent(tick=1, channel=0, data=[67, 80]),
   midi.NoteOffEvent(tick=479, channel=0, data=[67, 0]),
   midi.NoteOnEvent(tick=1, channel=0, data=[69, 105]),
   midi.NoteOffEvent(tick=959, channel=0, data=[69, 0]),
   midi.NoteOnEvent(tick=1, channel=0, data=[76, 80]),
   midi.NoteOffEvent(tick=479, channel=0, data=[76, 0]),
   midi.NoteOnEvent(tick=1, channel=0, data=[74, 105]),
   midi.NoteOffEvent(tick=959, channel=0, data=[74, 0]),
   midi.NoteOnEvent(tick=1, channel=0, data=[71, 80]),
   midi.NoteOffEvent(tick=479, channel=0, data=[71, 0]),
   midi.NoteOnEvent(tick=1, channel=0, data=[69, 105]),
   midi.NoteOffEvent(tick=719, channel=0, data=[69, 0]),
   midi.NoteOnEvent(tick=1, channel=0, data=[71, 80]),
   midi.NoteOffEvent(tick=239, channel=0, data=[71, 0]),
   midi.NoteOnEvent(tick=1, channel=0, data=[72, 80]),
   midi.NoteOffEvent(tick=479, channel=0, data=[72, 0]),
   midi.TimeSignatureEvent(tick=0, data=[2, 2, 24, 8]),
   midi.NoteOnEvent(tick=1, channel=0, data=[71, 105]),
   midi.NoteOffEvent(tick=479, channel=0, data=[71, 0]),
   midi.NoteOnEvent(tick=1, channel=0, data=[65, 80]),
   midi.NoteOffEvent(tick=479, channel=0, data=[65, 0]),
   midi.TimeSignatureEvent(tick=0, data=[3, 2, 18, 8]),
   midi.NoteOnEvent(tick=1, channel=0, data=[67, 105]),
   midi.NoteOffEvent(tick=959, channel=0, data=[67, 0]),
   midi.NoteOnEvent(tick=1, channel=0, data=[76, 80]),
   midi.NoteOffEvent(tick=479, channel=0, data=[76, 0]),
   midi.NoteOnEvent(tick=1, channel=0, data=[79, 105]),
   midi.NoteOffEvent(tick=959, channel=0, data=[79, 0]),
   midi.NoteOnEvent(tick=1, channel=0, data=[76, 80]),
   midi.NoteOffEvent(tick=479, channel=0, data=[76, 0]),
   midi.NoteOnEvent(tick=1, channel=0, data=[77, 105]),
   midi.NoteOffEvent(tick=959, channel=0, data=[77, 0]),
   midi.NoteOnEvent(tick=1, channel=0, data=[74, 80]),
   midi.NoteOffEvent(tick=479, channel=0, data=[74, 0]),
   midi.NoteOnEvent(tick=1, channel=0, data=[72, 105]),
   midi.NoteOffEvent(tick=959, channel=0, data=[72, 0]),
   midi.NoteOnEvent(tick=1, channel=0, data=[69, 80]),
   midi.NoteOffEvent(tick=479, channel=0, data=[69, 0]),
   midi.NoteOnEvent(tick=1, channel=0, data=[65, 105]),
   midi.NoteOffEvent(tick=959, channel=0, data=[65, 0]),
   midi.NoteOnEvent(tick=1, channel=0, data=[76, 80]),
   midi.NoteOffEvent(tick=479, channel=0, data=[76, 0]),
   midi.NoteOnEvent(tick=1, channel=0, data=[79, 105]),
   midi.NoteOffEvent(tick=959, channel=0, data=[79, 0]),
   midi.NoteOnEvent(tick=1, channel=0, data=[76, 80]),
   midi.NoteOffEvent(tick=479, channel=0, data=[76, 0]),
   midi.NoteOnEvent(tick=1, channel=0, data=[77, 105]),
   midi.NoteOffEvent(tick=959, channel=0, data=[77, 0]),
   midi.NoteOnEvent(tick=1, channel=0, data=[74, 80]),
   midi.NoteOffEvent(tick=479, channel=0, data=[74, 0]),
   midi.TimeSignatureEvent(tick=0, data=[2, 2, 24, 8]),
   midi.NoteOnEvent(tick=1, channel=0, data=[72, 105]),
   midi.NoteOffEvent(tick=479, channel=0, data=[72, 0]),
   midi.NoteOnEvent(tick=1, channel=0, data=[69, 80]),
   midi.NoteOffEvent(tick=479, channel=0, data=[69, 0]),
   midi.TimeSignatureEvent(tick=0, data=[3, 2, 18, 8]),
   midi.NoteOnEvent(tick=1, channel=0, data=[67, 105]),
   midi.NoteOffEvent(tick=959, channel=0, data=[67, 0]),
   midi.NoteOnEvent(tick=1, channel=0, data=[76, 80]),
   midi.NoteOffEvent(tick=479, channel=0, data=[76, 0]),
   midi.NoteOnEvent(tick=1, channel=0, data=[79, 105]),
   midi.NoteOffEvent(tick=959, channel=0, data=[79, 0]),
   midi.NoteOnEvent(tick=1, channel=0, data=[76, 80]),
   midi.NoteOffEvent(tick=479, channel=0, data=[76, 0]),
   midi.NoteOnEvent(tick=1, channel=0, data=[77, 105]),
   midi.NoteOffEvent(tick=959, channel=0, data=[77, 0]),
   midi.NoteOnEvent(tick=1, channel=0, data=[74, 80]),
   midi.NoteOffEvent(tick=479, channel=0, data=[74, 0]),
   midi.NoteOnEvent(tick=1, channel=0, data=[72, 105]),
   midi.NoteOffEvent(tick=959, channel=0, data=[72, 0]),
   midi.NoteOnEvent(tick=1, channel=0, data=[69, 80]),
   midi.NoteOffEvent(tick=479, channel=0, data=[69, 0]),
   midi.NoteOnEvent(tick=1, channel=0, data=[65, 105]),
   midi.NoteOffEvent(tick=959, channel=0, data=[65, 0]),
   midi.NoteOnEvent(tick=1, channel=0, data=[76, 80]),
   midi.NoteOffEvent(tick=479, channel=0, data=[76, 0]),
   midi.NoteOnEvent(tick=1, channel=0, data=[79, 105]),
   midi.NoteOffEvent(tick=959, channel=0, data=[79, 0]),
   midi.NoteOnEvent(tick=1, channel=0, data=[76, 80]),
   midi.NoteOffEvent(tick=479, channel=0, data=[76, 0]),
   midi.NoteOnEvent(tick=1, channel=0, data=[77, 105]),
   midi.NoteOffEvent(tick=959, channel=0, data=[77, 0]),
   midi.NoteOnEvent(tick=1, channel=0, data=[74, 80]),
   midi.NoteOffEvent(tick=479, channel=0, data=[74, 0]),
   midi.TimeSignatureEvent(tick=0, data=[2, 2, 24, 8]),
   midi.NoteOnEvent(tick=1, channel=0, data=[72, 105]),
   midi.NoteOffEvent(tick=479, channel=0, data=[72, 0]),
   midi.NoteOnEvent(tick=1, channel=0, data=[69, 80]),
   midi.NoteOffEvent(tick=479, channel=0, data=[69, 0]),
   midi.TimeSignatureEvent(tick=0, data=[3, 2, 18, 8]),
   midi.NoteOnEvent(tick=1, channel=0, data=[67, 105]),
   midi.NoteOffEvent(tick=959, channel=0, data=[67, 0]),
   midi.EndOfTrackEvent(tick=506, data=[])]),
 midi.Track(\
  [midi.TextMetaEvent(tick=0, text=' Nottingham Music Database', data=[32, 78, 111, 116, 116, 105, 110, 103, 104, 97, 109, 32, 77, 117, 115, 105, 99, 32, 68, 97, 116, 97, 98, 97, 115, 101]),
   midi.TextMetaEvent(tick=0, text='S:Mick Peat', data=[83, 58, 77, 105, 99, 107, 32, 80, 101, 97, 116]),
   midi.NoteOnEvent(tick=480, channel=2, data=[55, 75]),
   midi.NoteOnEvent(tick=0, channel=2, data=[59, 75]),
   midi.NoteOnEvent(tick=0, channel=2, data=[62, 75]),
   midi.NoteOffEvent(tick=1439, channel=2, data=[55, 0]),
   midi.NoteOffEvent(tick=0, channel=2, data=[59, 0]),
   midi.NoteOffEvent(tick=0, channel=2, data=[62, 0]),
   midi.NoteOnEvent(tick=1, channel=2, data=[50, 75]),
   midi.NoteOnEvent(tick=0, channel=2, data=[54, 75]),
   midi.NoteOnEvent(tick=0, channel=2, data=[57, 75]),
   midi.NoteOffEvent(tick=1439, channel=2, data=[50, 0]),
   midi.NoteOffEvent(tick=0, channel=2, data=[54, 0]),
   midi.NoteOffEvent(tick=0, channel=2, data=[57, 0]),
   midi.NoteOnEvent(tick=1, channel=2, data=[55, 75]),
   midi.NoteOnEvent(tick=0, channel=2, data=[59, 75]),
   midi.NoteOnEvent(tick=0, channel=2, data=[62, 75]),
   midi.NoteOffEvent(tick=1439, channel=2, data=[55, 0]),
   midi.NoteOffEvent(tick=0, channel=2, data=[59, 0]),
   midi.NoteOffEvent(tick=0, channel=2, data=[62, 0]),
   midi.NoteOnEvent(tick=1, channel=2, data=[50, 75]),
   midi.NoteOnEvent(tick=0, channel=2, data=[54, 75]),
   midi.NoteOnEvent(tick=0, channel=2, data=[57, 75]),
   midi.NoteOffEvent(tick=1439, channel=2, data=[50, 0]),
   midi.NoteOffEvent(tick=0, channel=2, data=[54, 0]),
   midi.NoteOffEvent(tick=0, channel=2, data=[57, 0]),
   midi.NoteOnEvent(tick=1, channel=2, data=[55, 75]),
   midi.NoteOnEvent(tick=0, channel=2, data=[59, 75]),
   midi.NoteOnEvent(tick=0, channel=2, data=[62, 75]),
   midi.NoteOffEvent(tick=1439, channel=2, data=[55, 0]),
   midi.NoteOffEvent(tick=0, channel=2, data=[59, 0]),
   midi.NoteOffEvent(tick=0, channel=2, data=[62, 0]),
   midi.NoteOnEvent(tick=1, channel=2, data=[50, 75]),
   midi.NoteOnEvent(tick=0, channel=2, data=[54, 75]),
   midi.NoteOnEvent(tick=0, channel=2, data=[57, 75]),
   midi.NoteOffEvent(tick=1439, channel=2, data=[50, 0]),
   midi.NoteOffEvent(tick=0, channel=2, data=[54, 0]),
   midi.NoteOffEvent(tick=0, channel=2, data=[57, 0]),
   midi.TimeSignatureEvent(tick=0, data=[2, 2, 24, 8]),
   midi.NoteOnEvent(tick=1, channel=1, data=[41, 80]),
   midi.NoteOffEvent(tick=119, channel=1, data=[41, 0]),
   midi.NoteOnEvent(tick=121, channel=2, data=[53, 75]),
   midi.NoteOnEvent(tick=0, channel=2, data=[57, 75]),
   midi.NoteOnEvent(tick=0, channel=2, data=[60, 75]),
   midi.NoteOffEvent(tick=119, channel=2, data=[53, 0]),
   midi.NoteOffEvent(tick=0, channel=2, data=[57, 0]),
   midi.NoteOffEvent(tick=0, channel=2, data=[60, 0]),
   midi.NoteOnEvent(tick=121, channel=1, data=[41, 80]),
   midi.NoteOffEvent(tick=119, channel=1, data=[41, 0]),
   midi.NoteOnEvent(tick=121, channel=2, data=[53, 75]),
   midi.NoteOnEvent(tick=0, channel=2, data=[57, 75]),
   midi.NoteOnEvent(tick=0, channel=2, data=[60, 75]),
   midi.NoteOffEvent(tick=119, channel=2, data=[53, 0]),
   midi.NoteOffEvent(tick=0, channel=2, data=[57, 0]),
   midi.NoteOffEvent(tick=0, channel=2, data=[60, 0]),
   midi.TimeSignatureEvent(tick=0, data=[3, 2, 18, 8]),
   midi.NoteOnEvent(tick=121, channel=1, data=[43, 80]),
   midi.NoteOffEvent(tick=239, channel=1, data=[43, 0]),
   midi.NoteOnEvent(tick=241, channel=2, data=[55, 75]),
   midi.NoteOnEvent(tick=0, channel=2, data=[59, 75]),
   midi.NoteOnEvent(tick=0, channel=2, data=[62, 75]),
   midi.NoteOffEvent(tick=239, channel=2, data=[55, 0]),
   midi.NoteOffEvent(tick=0, channel=2, data=[59, 0]),
   midi.NoteOffEvent(tick=0, channel=2, data=[62, 0]),
   midi.NoteOnEvent(tick=241, channel=2, data=[55, 75]),
   midi.NoteOnEvent(tick=0, channel=2, data=[59, 75]),
   midi.NoteOnEvent(tick=0, channel=2, data=[62, 75]),
   midi.NoteOffEvent(tick=239, channel=2, data=[55, 0]),
   midi.NoteOffEvent(tick=0, channel=2, data=[59, 0]),
   midi.NoteOffEvent(tick=0, channel=2, data=[62, 0]),
   midi.TextMetaEvent(tick=0, text=' Nottingham Music Database', data=[32, 78, 111, 116, 116, 105, 110, 103, 104, 97, 109, 32, 77, 117, 115, 105, 99, 32, 68, 97, 116, 97, 98, 97, 115, 101]),
   midi.TextMetaEvent(tick=0, text='S:Mick Peat', data=[83, 58, 77, 105, 99, 107, 32, 80, 101, 97, 116]),
   midi.NoteOnEvent(tick=241, channel=2, data=[55, 75]),
   midi.NoteOnEvent(tick=0, channel=2, data=[59, 75]),
   midi.NoteOnEvent(tick=0, channel=2, data=[62, 75]),
   midi.NoteOnEvent(tick=480, channel=2, data=[55, 75]),
   midi.NoteOnEvent(tick=0, channel=2, data=[59, 75]),
   midi.NoteOnEvent(tick=0, channel=2, data=[62, 75]),
   midi.NoteOffEvent(tick=949, channel=2, data=[55, 0]),
   midi.NoteOffEvent(tick=0, channel=2, data=[59, 0]),
   midi.NoteOffEvent(tick=0, channel=2, data=[62, 0]),
   midi.NoteOffEvent(tick=490, channel=2, data=[55, 0]),
   midi.NoteOffEvent(tick=0, channel=2, data=[59, 0]),
   midi.NoteOffEvent(tick=0, channel=2, data=[62, 0]),
   midi.NoteOnEvent(tick=1, channel=2, data=[50, 75]),
   midi.NoteOnEvent(tick=0, channel=2, data=[54, 75]),
   midi.NoteOnEvent(tick=0, channel=2, data=[57, 75]),
   midi.NoteOffEvent(tick=1439, channel=2, data=[50, 0]),
   midi.NoteOffEvent(tick=0, channel=2, data=[54, 0]),
   midi.NoteOffEvent(tick=0, channel=2, data=[57, 0]),
   midi.NoteOnEvent(tick=1, channel=2, data=[55, 75]),
   midi.NoteOnEvent(tick=0, channel=2, data=[59, 75]),
   midi.NoteOnEvent(tick=0, channel=2, data=[62, 75]),
   midi.NoteOffEvent(tick=1439, channel=2, data=[55, 0]),
   midi.NoteOffEvent(tick=0, channel=2, data=[59, 0]),
   midi.NoteOffEvent(tick=0, channel=2, data=[62, 0]),
   midi.NoteOnEvent(tick=1, channel=2, data=[50, 75]),
   midi.NoteOnEvent(tick=0, channel=2, data=[54, 75]),
   midi.NoteOnEvent(tick=0, channel=2, data=[57, 75]),
   midi.NoteOffEvent(tick=1439, channel=2, data=[50, 0]),
   midi.NoteOffEvent(tick=0, channel=2, data=[54, 0]),
   midi.NoteOffEvent(tick=0, channel=2, data=[57, 0]),
   midi.NoteOnEvent(tick=1, channel=2, data=[55, 75]),
   midi.NoteOnEvent(tick=0, channel=2, data=[59, 75]),
   midi.NoteOnEvent(tick=0, channel=2, data=[62, 75]),
   midi.NoteOffEvent(tick=1439, channel=2, data=[55, 0]),
   midi.NoteOffEvent(tick=0, channel=2, data=[59, 0]),
   midi.NoteOffEvent(tick=0, channel=2, data=[62, 0]),
   midi.NoteOnEvent(tick=1, channel=2, data=[50, 75]),
   midi.NoteOnEvent(tick=0, channel=2, data=[54, 75]),
   midi.NoteOnEvent(tick=0, channel=2, data=[57, 75]),
   midi.NoteOffEvent(tick=1439, channel=2, data=[50, 0]),
   midi.NoteOffEvent(tick=0, channel=2, data=[54, 0]),
   midi.NoteOffEvent(tick=0, channel=2, data=[57, 0]),
   midi.TimeSignatureEvent(tick=0, data=[2, 2, 24, 8]),
   midi.NoteOnEvent(tick=1, channel=1, data=[41, 80]),
   midi.NoteOffEvent(tick=119, channel=1, data=[41, 0]),
   midi.NoteOnEvent(tick=121, channel=2, data=[53, 75]),
   midi.NoteOnEvent(tick=0, channel=2, data=[57, 75]),
   midi.NoteOnEvent(tick=0, channel=2, data=[60, 75]),
   midi.NoteOffEvent(tick=119, channel=2, data=[53, 0]),
   midi.NoteOffEvent(tick=0, channel=2, data=[57, 0]),
   midi.NoteOffEvent(tick=0, channel=2, data=[60, 0]),
   midi.NoteOnEvent(tick=121, channel=1, data=[41, 80]),
   midi.NoteOffEvent(tick=119, channel=1, data=[41, 0]),
   midi.NoteOnEvent(tick=121, channel=2, data=[53, 75]),
   midi.NoteOnEvent(tick=0, channel=2, data=[57, 75]),
   midi.NoteOnEvent(tick=0, channel=2, data=[60, 75]),
   midi.NoteOffEvent(tick=119, channel=2, data=[53, 0]),
   midi.NoteOffEvent(tick=0, channel=2, data=[57, 0]),
   midi.NoteOffEvent(tick=0, channel=2, data=[60, 0]),
   midi.TimeSignatureEvent(tick=0, data=[3, 2, 18, 8]),
   midi.NoteOnEvent(tick=121, channel=1, data=[43, 80]),
   midi.NoteOffEvent(tick=239, channel=1, data=[43, 0]),
   midi.NoteOnEvent(tick=241, channel=2, data=[55, 75]),
   midi.NoteOnEvent(tick=0, channel=2, data=[59, 75]),
   midi.NoteOnEvent(tick=0, channel=2, data=[62, 75]),
   midi.NoteOffEvent(tick=239, channel=2, data=[55, 0]),
   midi.NoteOffEvent(tick=0, channel=2, data=[59, 0]),
   midi.NoteOffEvent(tick=0, channel=2, data=[62, 0]),
   midi.NoteOnEvent(tick=241, channel=2, data=[55, 75]),
   midi.NoteOnEvent(tick=0, channel=2, data=[59, 75]),
   midi.NoteOnEvent(tick=0, channel=2, data=[62, 75]),
   midi.NoteOffEvent(tick=239, channel=2, data=[55, 0]),
   midi.NoteOffEvent(tick=0, channel=2, data=[59, 0]),
   midi.NoteOffEvent(tick=0, channel=2, data=[62, 0]),
   midi.NoteOnEvent(tick=241, channel=1, data=[36, 80]),
   midi.NoteOffEvent(tick=239, channel=1, data=[36, 0]),
   midi.NoteOnEvent(tick=241, channel=2, data=[48, 75]),
   midi.NoteOnEvent(tick=0, channel=2, data=[52, 75]),
   midi.NoteOnEvent(tick=0, channel=2, data=[55, 75]),
   midi.NoteOffEvent(tick=239, channel=2, data=[48, 0]),
   midi.NoteOffEvent(tick=0, channel=2, data=[52, 0]),
   midi.NoteOffEvent(tick=0, channel=2, data=[55, 0]),
   midi.NoteOnEvent(tick=241, channel=2, data=[48, 75]),
   midi.NoteOnEvent(tick=0, channel=2, data=[52, 75]),
   midi.NoteOnEvent(tick=0, channel=2, data=[55, 75]),
   midi.NoteOffEvent(tick=239, channel=2, data=[48, 0]),
   midi.NoteOffEvent(tick=0, channel=2, data=[52, 0]),
   midi.NoteOffEvent(tick=0, channel=2, data=[55, 0]),
   midi.NoteOnEvent(tick=241, channel=1, data=[46, 80]),
   midi.NoteOffEvent(tick=239, channel=1, data=[46, 0]),
   midi.NoteOnEvent(tick=241, channel=2, data=[58, 75]),
   midi.NoteOnEvent(tick=0, channel=2, data=[62, 75]),
   midi.NoteOnEvent(tick=0, channel=2, data=[65, 75]),
   midi.NoteOffEvent(tick=239, channel=2, data=[58, 0]),
   midi.NoteOffEvent(tick=0, channel=2, data=[62, 0]),
   midi.NoteOffEvent(tick=0, channel=2, data=[65, 0]),
   midi.NoteOnEvent(tick=241, channel=2, data=[58, 75]),
   midi.NoteOnEvent(tick=0, channel=2, data=[62, 75]),
   midi.NoteOnEvent(tick=0, channel=2, data=[65, 75]),
   midi.NoteOffEvent(tick=239, channel=2, data=[58, 0]),
   midi.NoteOffEvent(tick=0, channel=2, data=[62, 0]),
   midi.NoteOffEvent(tick=0, channel=2, data=[65, 0]),
   midi.NoteOnEvent(tick=241, channel=1, data=[41, 80]),
   midi.NoteOffEvent(tick=239, channel=1, data=[41, 0]),
   midi.NoteOnEvent(tick=241, channel=2, data=[53, 75]),
   midi.NoteOnEvent(tick=0, channel=2, data=[57, 75]),
   midi.NoteOnEvent(tick=0, channel=2, data=[60, 75]),
   midi.NoteOffEvent(tick=239, channel=2, data=[53, 0]),
   midi.NoteOffEvent(tick=0, channel=2, data=[57, 0]),
   midi.NoteOffEvent(tick=0, channel=2, data=[60, 0]),
   midi.NoteOnEvent(tick=241, channel=2, data=[53, 75]),
   midi.NoteOnEvent(tick=0, channel=2, data=[57, 75]),
   midi.NoteOnEvent(tick=0, channel=2, data=[60, 75]),
   midi.NoteOffEvent(tick=239, channel=2, data=[53, 0]),
   midi.NoteOffEvent(tick=0, channel=2, data=[57, 0]),
   midi.NoteOffEvent(tick=0, channel=2, data=[60, 0]),
   midi.NoteOnEvent(tick=241, channel=1, data=[41, 80]),
   midi.NoteOffEvent(tick=239, channel=1, data=[41, 0]),
   midi.NoteOnEvent(tick=241, channel=2, data=[53, 75]),
   midi.NoteOnEvent(tick=0, channel=2, data=[57, 75]),
   midi.NoteOnEvent(tick=0, channel=2, data=[60, 75]),
   midi.NoteOffEvent(tick=239, channel=2, data=[53, 0]),
   midi.NoteOffEvent(tick=0, channel=2, data=[57, 0]),
   midi.NoteOffEvent(tick=0, channel=2, data=[60, 0]),
   midi.NoteOnEvent(tick=241, channel=2, data=[53, 75]),
   midi.NoteOnEvent(tick=0, channel=2, data=[57, 75]),
   midi.NoteOnEvent(tick=0, channel=2, data=[60, 75]),
   midi.NoteOffEvent(tick=239, channel=2, data=[53, 0]),
   midi.NoteOffEvent(tick=0, channel=2, data=[57, 0]),
   midi.NoteOffEvent(tick=0, channel=2, data=[60, 0]),
   midi.NoteOnEvent(tick=241, channel=1, data=[36, 80]),
   midi.NoteOffEvent(tick=239, channel=1, data=[36, 0]),
   midi.NoteOnEvent(tick=241, channel=2, data=[48, 75]),
   midi.NoteOnEvent(tick=0, channel=2, data=[52, 75]),
   midi.NoteOnEvent(tick=0, channel=2, data=[55, 75]),
   midi.NoteOffEvent(tick=239, channel=2, data=[48, 0]),
   midi.NoteOffEvent(tick=0, channel=2, data=[52, 0]),
   midi.NoteOffEvent(tick=0, channel=2, data=[55, 0]),
   midi.NoteOnEvent(tick=241, channel=2, data=[48, 75]),
   midi.NoteOnEvent(tick=0, channel=2, data=[52, 75]),
   midi.NoteOnEvent(tick=0, channel=2, data=[55, 75]),
   midi.NoteOffEvent(tick=239, channel=2, data=[48, 0]),
   midi.NoteOffEvent(tick=0, channel=2, data=[52, 0]),
   midi.NoteOffEvent(tick=0, channel=2, data=[55, 0]),
   midi.NoteOnEvent(tick=241, channel=1, data=[46, 80]),
   midi.NoteOffEvent(tick=239, channel=1, data=[46, 0]),
   midi.NoteOnEvent(tick=241, channel=2, data=[58, 75]),
   midi.NoteOnEvent(tick=0, channel=2, data=[62, 75]),
   midi.NoteOnEvent(tick=0, channel=2, data=[65, 75]),
   midi.NoteOffEvent(tick=239, channel=2, data=[58, 0]),
   midi.NoteOffEvent(tick=0, channel=2, data=[62, 0]),
   midi.NoteOffEvent(tick=0, channel=2, data=[65, 0]),
   midi.NoteOnEvent(tick=241, channel=2, data=[58, 75]),
   midi.NoteOnEvent(tick=0, channel=2, data=[62, 75]),
   midi.NoteOnEvent(tick=0, channel=2, data=[65, 75]),
   midi.NoteOffEvent(tick=239, channel=2, data=[58, 0]),
   midi.NoteOffEvent(tick=0, channel=2, data=[62, 0]),
   midi.NoteOffEvent(tick=0, channel=2, data=[65, 0]),
   midi.TimeSignatureEvent(tick=0, data=[2, 2, 24, 8]),
   midi.NoteOnEvent(tick=241, channel=1, data=[41, 80]),
   midi.NoteOffEvent(tick=119, channel=1, data=[41, 0]),
   midi.NoteOnEvent(tick=121, channel=2, data=[53, 75]),
   midi.NoteOnEvent(tick=0, channel=2, data=[57, 75]),
   midi.NoteOnEvent(tick=0, channel=2, data=[60, 75]),
   midi.NoteOffEvent(tick=119, channel=2, data=[53, 0]),
   midi.NoteOffEvent(tick=0, channel=2, data=[57, 0]),
   midi.NoteOffEvent(tick=0, channel=2, data=[60, 0]),
   midi.NoteOnEvent(tick=121, channel=1, data=[41, 80]),
   midi.NoteOffEvent(tick=119, channel=1, data=[41, 0]),
   midi.NoteOnEvent(tick=121, channel=2, data=[53, 75]),
   midi.NoteOnEvent(tick=0, channel=2, data=[57, 75]),
   midi.NoteOnEvent(tick=0, channel=2, data=[60, 75]),
   midi.NoteOffEvent(tick=119, channel=2, data=[53, 0]),
   midi.NoteOffEvent(tick=0, channel=2, data=[57, 0]),
   midi.NoteOffEvent(tick=0, channel=2, data=[60, 0]),
   midi.TimeSignatureEvent(tick=0, data=[3, 2, 18, 8]),
   midi.NoteOnEvent(tick=121, channel=1, data=[43, 80]),
   midi.NoteOffEvent(tick=239, channel=1, data=[43, 0]),
   midi.NoteOnEvent(tick=241, channel=2, data=[55, 75]),
   midi.NoteOnEvent(tick=0, channel=2, data=[59, 75]),
   midi.NoteOnEvent(tick=0, channel=2, data=[62, 75]),
   midi.NoteOffEvent(tick=239, channel=2, data=[55, 0]),
   midi.NoteOffEvent(tick=0, channel=2, data=[59, 0]),
   midi.NoteOffEvent(tick=0, channel=2, data=[62, 0]),
   midi.NoteOnEvent(tick=241, channel=2, data=[55, 75]),
   midi.NoteOnEvent(tick=0, channel=2, data=[59, 75]),
   midi.NoteOnEvent(tick=0, channel=2, data=[62, 75]),
   midi.NoteOffEvent(tick=239, channel=2, data=[55, 0]),
   midi.NoteOffEvent(tick=0, channel=2, data=[59, 0]),
   midi.NoteOffEvent(tick=0, channel=2, data=[62, 0]),
   midi.NoteOnEvent(tick=241, channel=1, data=[36, 80]),
   midi.NoteOffEvent(tick=239, channel=1, data=[36, 0]),
   midi.NoteOnEvent(tick=241, channel=2, data=[48, 75]),
   midi.NoteOnEvent(tick=0, channel=2, data=[52, 75]),
   midi.NoteOnEvent(tick=0, channel=2, data=[55, 75]),
   midi.NoteOffEvent(tick=239, channel=2, data=[48, 0]),
   midi.NoteOffEvent(tick=0, channel=2, data=[52, 0]),
   midi.NoteOffEvent(tick=0, channel=2, data=[55, 0]),
   midi.NoteOnEvent(tick=241, channel=2, data=[48, 75]),
   midi.NoteOnEvent(tick=0, channel=2, data=[52, 75]),
   midi.NoteOnEvent(tick=0, channel=2, data=[55, 75]),
   midi.NoteOffEvent(tick=239, channel=2, data=[48, 0]),
   midi.NoteOffEvent(tick=0, channel=2, data=[52, 0]),
   midi.NoteOffEvent(tick=0, channel=2, data=[55, 0]),
   midi.NoteOnEvent(tick=241, channel=1, data=[46, 80]),
   midi.NoteOffEvent(tick=239, channel=1, data=[46, 0]),
   midi.NoteOnEvent(tick=241, channel=2, data=[58, 75]),
   midi.NoteOnEvent(tick=0, channel=2, data=[62, 75]),
   midi.NoteOnEvent(tick=0, channel=2, data=[65, 75]),
   midi.NoteOffEvent(tick=239, channel=2, data=[58, 0]),
   midi.NoteOffEvent(tick=0, channel=2, data=[62, 0]),
   midi.NoteOffEvent(tick=0, channel=2, data=[65, 0]),
   midi.NoteOnEvent(tick=241, channel=2, data=[58, 75]),
   midi.NoteOnEvent(tick=0, channel=2, data=[62, 75]),
   midi.NoteOnEvent(tick=0, channel=2, data=[65, 75]),
   midi.NoteOffEvent(tick=239, channel=2, data=[58, 0]),
   midi.NoteOffEvent(tick=0, channel=2, data=[62, 0]),
   midi.NoteOffEvent(tick=0, channel=2, data=[65, 0]),
   midi.NoteOnEvent(tick=241, channel=1, data=[41, 80]),
   midi.NoteOffEvent(tick=239, channel=1, data=[41, 0]),
   midi.NoteOnEvent(tick=241, channel=2, data=[53, 75]),
   midi.NoteOnEvent(tick=0, channel=2, data=[57, 75]),
   midi.NoteOnEvent(tick=0, channel=2, data=[60, 75]),
   midi.NoteOffEvent(tick=239, channel=2, data=[53, 0]),
   midi.NoteOffEvent(tick=0, channel=2, data=[57, 0]),
   midi.NoteOffEvent(tick=0, channel=2, data=[60, 0]),
   midi.NoteOnEvent(tick=241, channel=2, data=[53, 75]),
   midi.NoteOnEvent(tick=0, channel=2, data=[57, 75]),
   midi.NoteOnEvent(tick=0, channel=2, data=[60, 75]),
   midi.NoteOffEvent(tick=239, channel=2, data=[53, 0]),
   midi.NoteOffEvent(tick=0, channel=2, data=[57, 0]),
   midi.NoteOffEvent(tick=0, channel=2, data=[60, 0]),
   midi.NoteOnEvent(tick=241, channel=1, data=[41, 80]),
   midi.NoteOffEvent(tick=239, channel=1, data=[41, 0]),
   midi.NoteOnEvent(tick=241, channel=2, data=[53, 75]),
   midi.NoteOnEvent(tick=0, channel=2, data=[57, 75]),
   midi.NoteOnEvent(tick=0, channel=2, data=[60, 75]),
   midi.NoteOffEvent(tick=239, channel=2, data=[53, 0]),
   midi.NoteOffEvent(tick=0, channel=2, data=[57, 0]),
   midi.NoteOffEvent(tick=0, channel=2, data=[60, 0]),
   midi.NoteOnEvent(tick=241, channel=2, data=[53, 75]),
   midi.NoteOnEvent(tick=0, channel=2, data=[57, 75]),
   midi.NoteOnEvent(tick=0, channel=2, data=[60, 75]),
   midi.NoteOffEvent(tick=239, channel=2, data=[53, 0]),
   midi.NoteOffEvent(tick=0, channel=2, data=[57, 0]),
   midi.NoteOffEvent(tick=0, channel=2, data=[60, 0]),
   midi.NoteOnEvent(tick=241, channel=1, data=[36, 80]),
   midi.NoteOffEvent(tick=239, channel=1, data=[36, 0]),
   midi.NoteOnEvent(tick=241, channel=2, data=[48, 75]),
   midi.NoteOnEvent(tick=0, channel=2, data=[52, 75]),
   midi.NoteOnEvent(tick=0, channel=2, data=[55, 75]),
   midi.NoteOffEvent(tick=239, channel=2, data=[48, 0]),
   midi.NoteOffEvent(tick=0, channel=2, data=[52, 0]),
   midi.NoteOffEvent(tick=0, channel=2, data=[55, 0]),
   midi.NoteOnEvent(tick=241, channel=2, data=[48, 75]),
   midi.NoteOnEvent(tick=0, channel=2, data=[52, 75]),
   midi.NoteOnEvent(tick=0, channel=2, data=[55, 75]),
   midi.NoteOffEvent(tick=239, channel=2, data=[48, 0]),
   midi.NoteOffEvent(tick=0, channel=2, data=[52, 0]),
   midi.NoteOffEvent(tick=0, channel=2, data=[55, 0]),
   midi.NoteOnEvent(tick=241, channel=1, data=[46, 80]),
   midi.NoteOffEvent(tick=239, channel=1, data=[46, 0]),
   midi.NoteOnEvent(tick=241, channel=2, data=[58, 75]),
   midi.NoteOnEvent(tick=0, channel=2, data=[62, 75]),
   midi.NoteOnEvent(tick=0, channel=2, data=[65, 75]),
   midi.NoteOffEvent(tick=239, channel=2, data=[58, 0]),
   midi.NoteOffEvent(tick=0, channel=2, data=[62, 0]),
   midi.NoteOffEvent(tick=0, channel=2, data=[65, 0]),
   midi.NoteOnEvent(tick=241, channel=2, data=[58, 75]),
   midi.NoteOnEvent(tick=0, channel=2, data=[62, 75]),
   midi.NoteOnEvent(tick=0, channel=2, data=[65, 75]),
   midi.NoteOffEvent(tick=239, channel=2, data=[58, 0]),
   midi.NoteOffEvent(tick=0, channel=2, data=[62, 0]),
   midi.NoteOffEvent(tick=0, channel=2, data=[65, 0]),
   midi.TimeSignatureEvent(tick=0, data=[2, 2, 24, 8]),
   midi.NoteOnEvent(tick=241, channel=1, data=[41, 80]),
   midi.NoteOffEvent(tick=119, channel=1, data=[41, 0]),
   midi.NoteOnEvent(tick=121, channel=2, data=[53, 75]),
   midi.NoteOnEvent(tick=0, channel=2, data=[57, 75]),
   midi.NoteOnEvent(tick=0, channel=2, data=[60, 75]),
   midi.NoteOffEvent(tick=119, channel=2, data=[53, 0]),
   midi.NoteOffEvent(tick=0, channel=2, data=[57, 0]),
   midi.NoteOffEvent(tick=0, channel=2, data=[60, 0]),
   midi.NoteOnEvent(tick=121, channel=1, data=[41, 80]),
   midi.NoteOffEvent(tick=119, channel=1, data=[41, 0]),
   midi.NoteOnEvent(tick=121, channel=2, data=[53, 75]),
   midi.NoteOnEvent(tick=0, channel=2, data=[57, 75]),
   midi.NoteOnEvent(tick=0, channel=2, data=[60, 75]),
   midi.NoteOffEvent(tick=119, channel=2, data=[53, 0]),
   midi.NoteOffEvent(tick=0, channel=2, data=[57, 0]),
   midi.NoteOffEvent(tick=0, channel=2, data=[60, 0]),
   midi.TimeSignatureEvent(tick=0, data=[3, 2, 18, 8]),
   midi.NoteOnEvent(tick=121, channel=1, data=[43, 80]),
   midi.NoteOffEvent(tick=239, channel=1, data=[43, 0]),
   midi.NoteOnEvent(tick=241, channel=2, data=[55, 75]),
   midi.NoteOnEvent(tick=0, channel=2, data=[59, 75]),
   midi.NoteOnEvent(tick=0, channel=2, data=[62, 75]),
   midi.NoteOffEvent(tick=239, channel=2, data=[55, 0]),
   midi.NoteOffEvent(tick=0, channel=2, data=[59, 0]),
   midi.NoteOffEvent(tick=0, channel=2, data=[62, 0]),
   midi.NoteOnEvent(tick=241, channel=2, data=[55, 75]),
   midi.NoteOnEvent(tick=0, channel=2, data=[59, 75]),
   midi.NoteOnEvent(tick=0, channel=2, data=[62, 75]),
   midi.NoteOffEvent(tick=239, channel=2, data=[55, 0]),
   midi.NoteOffEvent(tick=0, channel=2, data=[59, 0]),
   midi.NoteOffEvent(tick=0, channel=2, data=[62, 0]),
   midi.EndOfTrackEvent(tick=266, data=[])])])
midi.Pattern(format=1, resolution=480, tracks=\
[midi.Track(\
  [midi.SetTempoEvent(tick=0, data=[7, 161, 32]),
   midi.KeySignatureEvent(tick=0, data=[1, 0]),
   midi.TimeSignatureEvent(tick=0, data=[3, 2, 18, 8]),
   midi.TrackNameEvent(tick=0, text="A and A's Waltz", data=[65, 32, 97, 110, 100, 32, 65, 39, 115, 32, 87, 97, 108, 116, 122]),
   midi.EndOfTrackEvent(tick=33625, data=[])]),
 midi.Track(\
  [midi.TrackNameEvent(tick=0, text="A and A's Waltz", data=[65, 32, 97, 110, 100, 32, 65, 39, 115, 32, 87, 97, 108, 116, 122]),
   midi.TextMetaEvent(tick=0, text=' Nottingham Music Database', data=[32, 78, 111, 116, 116, 105, 110, 103, 104, 97, 109, 32, 77, 117, 115, 105, 99, 32, 68, 97, 116, 97, 98, 97, 115, 101]),
   midi.TextMetaEvent(tick=0, text='S:Mick Peat', data=[83, 58, 77, 105, 99, 107, 32, 80, 101, 97, 116]),
   midi.NoteOnEvent(tick=0, channel=0, data=[76, 105]),
   midi.NoteOffEvent(tick=479, channel=0, data=[76, 0]),
   midi.NoteOnEvent(tick=1, channel=0, data=[74, 105]),
   midi.NoteOffEvent(tick=959, channel=0, data=[74, 0]),
   midi.NoteOnEvent(tick=1, channel=0, data=[71, 80]),
   midi.NoteOffEvent(tick=479, channel=0, data=[71, 0]),
   midi.NoteOnEvent(tick=1, channel=0, data=[69, 105]),
   midi.NoteOffEvent(tick=719, channel=0, data=[69, 0]),
   midi.NoteOnEvent(tick=1, channel=0, data=[71, 80]),
   midi.NoteOffEvent(tick=239, channel=0, data=[71, 0]),
   midi.NoteOnEvent(tick=1, channel=0, data=[72, 80]),
   midi.NoteOffEvent(tick=479, channel=0, data=[72, 0]),
   midi.NoteOnEvent(tick=1, channel=0, data=[71, 105]),
   midi.NoteOffEvent(tick=959, channel=0, data=[71, 0]),
   midi.NoteOnEvent(tick=1, channel=0, data=[67, 80]),
   midi.NoteOffEvent(tick=479, channel=0, data=[67, 0]),
   midi.NoteOnEvent(tick=1, channel=0, data=[69, 105]),
   midi.NoteOffEvent(tick=959, channel=0, data=[69, 0]),
   midi.NoteOnEvent(tick=1, channel=0, data=[76, 80]),
   midi.NoteOffEvent(tick=479, channel=0, data=[76, 0]),
   midi.NoteOnEvent(tick=1, channel=0, data=[74, 105]),
   midi.NoteOffEvent(tick=959, channel=0, data=[74, 0]),
   midi.NoteOnEvent(tick=1, channel=0, data=[71, 80]),
   midi.NoteOffEvent(tick=479, channel=0, data=[71, 0]),
   midi.NoteOnEvent(tick=1, channel=0, data=[69, 105]),
   midi.NoteOffEvent(tick=719, channel=0, data=[69, 0]),
   midi.NoteOnEvent(tick=1, channel=0, data=[71, 80]),
   midi.NoteOffEvent(tick=239, channel=0, data=[71, 0]),
   midi.NoteOnEvent(tick=1, channel=0, data=[72, 80]),
   midi.NoteOffEvent(tick=479, channel=0, data=[72, 0]),
   midi.TimeSignatureEvent(tick=0, data=[2, 2, 24, 8]),
   midi.NoteOnEvent(tick=1, channel=0, data=[71, 105]),
   midi.NoteOffEvent(tick=479, channel=0, data=[71, 0]),
   midi.NoteOnEvent(tick=1, channel=0, data=[65, 80]),
   midi.NoteOffEvent(tick=479, channel=0, data=[65, 0]),
   midi.TimeSignatureEvent(tick=0, data=[3, 2, 18, 8]),
   midi.NoteOnEvent(tick=1, channel=0, data=[67, 105]),
   midi.NoteOffEvent(tick=959, channel=0, data=[67, 0]),
   midi.NoteOnEvent(tick=1, channel=0, data=[76, 80]),
   midi.NoteOffEvent(tick=479, channel=0, data=[76, 0]),
   midi.TextMetaEvent(tick=0, text=' Nottingham Music Database', data=[32, 78, 111, 116, 116, 105, 110, 103, 104, 97, 109, 32, 77, 117, 115, 105, 99, 32, 68, 97, 116, 97, 98, 97, 115, 101]),
   midi.TextMetaEvent(tick=0, text='S:Mick Peat', data=[83, 58, 77, 105, 99, 107, 32, 80, 101, 97, 116]),
   midi.NoteOnEvent(tick=1, channel=0, data=[76, 105]),
   midi.NoteOffEvent(tick=479, channel=0, data=[76, 0]),
   midi.NoteOnEvent(tick=1, channel=0, data=[74, 105]),
   midi.NoteOffEvent(tick=959, channel=0, data=[74, 0]),
   midi.NoteOnEvent(tick=1, channel=0, data=[71, 80]),
   midi.NoteOffEvent(tick=479, channel=0, data=[71, 0]),
   midi.NoteOnEvent(tick=1, channel=0, data=[69, 105]),
   midi.NoteOffEvent(tick=719, channel=0, data=[69, 0]),
   midi.NoteOnEvent(tick=1, channel=0, data=[71, 80]),
   midi.NoteOffEvent(tick=239, channel=0, data=[71, 0]),
   midi.NoteOnEvent(tick=1, channel=0, data=[72, 80]),
   midi.NoteOffEvent(tick=479, channel=0, data=[72, 0]),
   midi.NoteOnEvent(tick=1, channel=0, data=[71, 105]),
   midi.NoteOffEvent(tick=959, channel=0, data=[71, 0]),
   midi.NoteOnEvent(tick=1, channel=0, data=[67, 80]),
   midi.NoteOffEvent(tick=479, channel=0, data=[67, 0]),
   midi.NoteOnEvent(tick=1, channel=0, data=[69, 105]),
   midi.NoteOffEvent(tick=959, channel=0, data=[69, 0]),
   midi.NoteOnEvent(tick=1, channel=0, data=[76, 80]),
   midi.NoteOffEvent(tick=479, channel=0, data=[76, 0]),
   midi.NoteOnEvent(tick=1, channel=0, data=[74, 105]),
   midi.NoteOffEvent(tick=959, channel=0, data=[74, 0]),
   midi.NoteOnEvent(tick=1, channel=0, data=[71, 80]),
   midi.NoteOffEvent(tick=479, channel=0, data=[71, 0]),
   midi.NoteOnEvent(tick=1, channel=0, data=[69, 105]),
   midi.NoteOffEvent(tick=719, channel=0, data=[69, 0]),
   midi.NoteOnEvent(tick=1, channel=0, data=[71, 80]),
   midi.NoteOffEvent(tick=239, channel=0, data=[71, 0]),
   midi.NoteOnEvent(tick=1, channel=0, data=[72, 80]),
   midi.NoteOffEvent(tick=479, channel=0, data=[72, 0]),
   midi.TimeSignatureEvent(tick=0, data=[2, 2, 24, 8]),
   midi.NoteOnEvent(tick=1, channel=0, data=[71, 105]),
   midi.NoteOffEvent(tick=479, channel=0, data=[71, 0]),
   midi.NoteOnEvent(tick=1, channel=0, data=[65, 80]),
   midi.NoteOffEvent(tick=479, channel=0, data=[65, 0]),
   midi.TimeSignatureEvent(tick=0, data=[3, 2, 18, 8]),
   midi.NoteOnEvent(tick=1, channel=0, data=[67, 105]),
   midi.NoteOffEvent(tick=959, channel=0, data=[67, 0]),
   midi.NoteOnEvent(tick=1, channel=0, data=[76, 80]),
   midi.NoteOffEvent(tick=479, channel=0, data=[76, 0]),
   midi.NoteOnEvent(tick=1, channel=0, data=[79, 105]),
   midi.NoteOffEvent(tick=959, channel=0, data=[79, 0]),
   midi.NoteOnEvent(tick=1, channel=0, data=[76, 80]),
   midi.NoteOffEvent(tick=479, channel=0, data=[76, 0]),
   midi.NoteOnEvent(tick=1, channel=0, data=[77, 105]),
   midi.NoteOffEvent(tick=959, channel=0, data=[77, 0]),
   midi.NoteOnEvent(tick=1, channel=0, data=[74, 80]),
   midi.NoteOffEvent(tick=479, channel=0, data=[74, 0]),
   midi.NoteOnEvent(tick=1, channel=0, data=[72, 105]),
   midi.NoteOffEvent(tick=959, channel=0, data=[72, 0]),
   midi.NoteOnEvent(tick=1, channel=0, data=[69, 80]),
   midi.NoteOffEvent(tick=479, channel=0, data=[69, 0]),
   midi.NoteOnEvent(tick=1, channel=0, data=[65, 105]),
   midi.NoteOffEvent(tick=959, channel=0, data=[65, 0]),
   midi.NoteOnEvent(tick=1, channel=0, data=[76, 80]),
   midi.NoteOffEvent(tick=479, channel=0, data=[76, 0]),
   midi.NoteOnEvent(tick=1, channel=0, data=[79, 105]),
   midi.NoteOffEvent(tick=959, channel=0, data=[79, 0]),
   midi.NoteOnEvent(tick=1, channel=0, data=[76, 80]),
   midi.NoteOffEvent(tick=479, channel=0, data=[76, 0]),
   midi.NoteOnEvent(tick=1, channel=0, data=[77, 105]),
   midi.NoteOffEvent(tick=959, channel=0, data=[77, 0]),
   midi.NoteOnEvent(tick=1, channel=0, data=[74, 80]),
   midi.NoteOffEvent(tick=479, channel=0, data=[74, 0]),
   midi.TimeSignatureEvent(tick=0, data=[2, 2, 24, 8]),
   midi.NoteOnEvent(tick=1, channel=0, data=[72, 105]),
   midi.NoteOffEvent(tick=479, channel=0, data=[72, 0]),
   midi.NoteOnEvent(tick=1, channel=0, data=[69, 80]),
   midi.NoteOffEvent(tick=479, channel=0, data=[69, 0]),
   midi.TimeSignatureEvent(tick=0, data=[3, 2, 18, 8]),
   midi.NoteOnEvent(tick=1, channel=0, data=[67, 105]),
   midi.NoteOffEvent(tick=959, channel=0, data=[67, 0]),
   midi.NoteOnEvent(tick=1, channel=0, data=[76, 80]),
   midi.NoteOffEvent(tick=479, channel=0, data=[76, 0]),
   midi.NoteOnEvent(tick=1, channel=0, data=[79, 105]),
   midi.NoteOffEvent(tick=959, channel=0, data=[79, 0]),
   midi.NoteOnEvent(tick=1, channel=0, data=[76, 80]),
   midi.NoteOffEvent(tick=479, channel=0, data=[76, 0]),
   midi.NoteOnEvent(tick=1, channel=0, data=[77, 105]),
   midi.NoteOffEvent(tick=959, channel=0, data=[77, 0]),
   midi.NoteOnEvent(tick=1, channel=0, data=[74, 80]),
   midi.NoteOffEvent(tick=479, channel=0, data=[74, 0]),
   midi.NoteOnEvent(tick=1, channel=0, data=[72, 105]),
   midi.NoteOffEvent(tick=959, channel=0, data=[72, 0]),
   midi.NoteOnEvent(tick=1, channel=0, data=[69, 80]),
   midi.NoteOffEvent(tick=479, channel=0, data=[69, 0]),
   midi.NoteOnEvent(tick=1, channel=0, data=[65, 105]),
   midi.NoteOffEvent(tick=959, channel=0, data=[65, 0]),
   midi.NoteOnEvent(tick=1, channel=0, data=[76, 80]),
   midi.NoteOffEvent(tick=479, channel=0, data=[76, 0]),
   midi.NoteOnEvent(tick=1, channel=0, data=[79, 105]),
   midi.NoteOffEvent(tick=959, channel=0, data=[79, 0]),
   midi.NoteOnEvent(tick=1, channel=0, data=[76, 80]),
   midi.NoteOffEvent(tick=479, channel=0, data=[76, 0]),
   midi.NoteOnEvent(tick=1, channel=0, data=[77, 105]),
   midi.NoteOffEvent(tick=959, channel=0, data=[77, 0]),
   midi.NoteOnEvent(tick=1, channel=0, data=[74, 80]),
   midi.NoteOffEvent(tick=479, channel=0, data=[74, 0]),
   midi.TimeSignatureEvent(tick=0, data=[2, 2, 24, 8]),
   midi.NoteOnEvent(tick=1, channel=0, data=[72, 105]),
   midi.NoteOffEvent(tick=479, channel=0, data=[72, 0]),
   midi.NoteOnEvent(tick=1, channel=0, data=[69, 80]),
   midi.NoteOffEvent(tick=479, channel=0, data=[69, 0]),
   midi.TimeSignatureEvent(tick=0, data=[3, 2, 18, 8]),
   midi.NoteOnEvent(tick=1, channel=0, data=[67, 105]),
   midi.NoteOffEvent(tick=959, channel=0, data=[67, 0]),
   midi.EndOfTrackEvent(tick=506, data=[])]),
 midi.Track(\
  [midi.TextMetaEvent(tick=0, text=' Nottingham Music Database', data=[32, 78, 111, 116, 116, 105, 110, 103, 104, 97, 109, 32, 77, 117, 115, 105, 99, 32, 68, 97, 116, 97, 98, 97, 115, 101]),
   midi.TextMetaEvent(tick=0, text='S:Mick Peat', data=[83, 58, 77, 105, 99, 107, 32, 80, 101, 97, 116]),
   midi.NoteOnEvent(tick=480, channel=2, data=[55, 75]),
   midi.NoteOnEvent(tick=0, channel=2, data=[59, 75]),
   midi.NoteOnEvent(tick=0, channel=2, data=[62, 75]),
   midi.NoteOffEvent(tick=1439, channel=2, data=[55, 0]),
   midi.NoteOffEvent(tick=0, channel=2, data=[59, 0]),
   midi.NoteOffEvent(tick=0, channel=2, data=[62, 0]),
   midi.NoteOnEvent(tick=1, channel=2, data=[50, 75]),
   midi.NoteOnEvent(tick=0, channel=2, data=[54, 75]),
   midi.NoteOnEvent(tick=0, channel=2, data=[57, 75]),
   midi.NoteOffEvent(tick=1439, channel=2, data=[50, 0]),
   midi.NoteOffEvent(tick=0, channel=2, data=[54, 0]),
   midi.NoteOffEvent(tick=0, channel=2, data=[57, 0]),
   midi.NoteOnEvent(tick=1, channel=2, data=[55, 75]),
   midi.NoteOnEvent(tick=0, channel=2, data=[59, 75]),
   midi.NoteOnEvent(tick=0, channel=2, data=[62, 75]),
   midi.NoteOffEvent(tick=1439, channel=2, data=[55, 0]),
   midi.NoteOffEvent(tick=0, channel=2, data=[59, 0]),
   midi.NoteOffEvent(tick=0, channel=2, data=[62, 0]),
   midi.NoteOnEvent(tick=1, channel=2, data=[50, 75]),
   midi.NoteOnEvent(tick=0, channel=2, data=[54, 75]),
   midi.NoteOnEvent(tick=0, channel=2, data=[57, 75]),
   midi.NoteOffEvent(tick=1439, channel=2, data=[50, 0]),
   midi.NoteOffEvent(tick=0, channel=2, data=[54, 0]),
   midi.NoteOffEvent(tick=0, channel=2, data=[57, 0]),
   midi.NoteOnEvent(tick=1, channel=2, data=[55, 75]),
   midi.NoteOnEvent(tick=0, channel=2, data=[59, 75]),
   midi.NoteOnEvent(tick=0, channel=2, data=[62, 75]),
   midi.NoteOffEvent(tick=1439, channel=2, data=[55, 0]),
   midi.NoteOffEvent(tick=0, channel=2, data=[59, 0]),
   midi.NoteOffEvent(tick=0, channel=2, data=[62, 0]),
   midi.NoteOnEvent(tick=1, channel=2, data=[50, 75]),
   midi.NoteOnEvent(tick=0, channel=2, data=[54, 75]),
   midi.NoteOnEvent(tick=0, channel=2, data=[57, 75]),
   midi.NoteOffEvent(tick=1439, channel=2, data=[50, 0]),
   midi.NoteOffEvent(tick=0, channel=2, data=[54, 0]),
   midi.NoteOffEvent(tick=0, channel=2, data=[57, 0]),
   midi.TimeSignatureEvent(tick=0, data=[2, 2, 24, 8]),
   midi.NoteOnEvent(tick=1, channel=1, data=[41, 80]),
   midi.NoteOffEvent(tick=119, channel=1, data=[41, 0]),
   midi.NoteOnEvent(tick=121, channel=2, data=[53, 75]),
   midi.NoteOnEvent(tick=0, channel=2, data=[57, 75]),
   midi.NoteOnEvent(tick=0, channel=2, data=[60, 75]),
   midi.NoteOffEvent(tick=119, channel=2, data=[53, 0]),
   midi.NoteOffEvent(tick=0, channel=2, data=[57, 0]),
   midi.NoteOffEvent(tick=0, channel=2, data=[60, 0]),
   midi.NoteOnEvent(tick=121, channel=1, data=[41, 80]),
   midi.NoteOffEvent(tick=119, channel=1, data=[41, 0]),
   midi.NoteOnEvent(tick=121, channel=2, data=[53, 75]),
   midi.NoteOnEvent(tick=0, channel=2, data=[57, 75]),
   midi.NoteOnEvent(tick=0, channel=2, data=[60, 75]),
   midi.NoteOffEvent(tick=119, channel=2, data=[53, 0]),
   midi.NoteOffEvent(tick=0, channel=2, data=[57, 0]),
   midi.NoteOffEvent(tick=0, channel=2, data=[60, 0]),
   midi.TimeSignatureEvent(tick=0, data=[3, 2, 18, 8]),
   midi.NoteOnEvent(tick=121, channel=1, data=[43, 80]),
   midi.NoteOffEvent(tick=239, channel=1, data=[43, 0]),
   midi.NoteOnEvent(tick=241, channel=2, data=[55, 75]),
   midi.NoteOnEvent(tick=0, channel=2, data=[59, 75]),
   midi.NoteOnEvent(tick=0, channel=2, data=[62, 75]),
   midi.NoteOffEvent(tick=239, channel=2, data=[55, 0]),
   midi.NoteOffEvent(tick=0, channel=2, data=[59, 0]),
   midi.NoteOffEvent(tick=0, channel=2, data=[62, 0]),
   midi.NoteOnEvent(tick=241, channel=2, data=[55, 75]),
   midi.NoteOnEvent(tick=0, channel=2, data=[59, 75]),
   midi.NoteOnEvent(tick=0, channel=2, data=[62, 75]),
   midi.NoteOffEvent(tick=239, channel=2, data=[55, 0]),
   midi.NoteOffEvent(tick=0, channel=2, data=[59, 0]),
   midi.NoteOffEvent(tick=0, channel=2, data=[62, 0]),
   midi.TextMetaEvent(tick=0, text=' Nottingham Music Database', data=[32, 78, 111, 116, 116, 105, 110, 103, 104, 97, 109, 32, 77, 117, 115, 105, 99, 32, 68, 97, 116, 97, 98, 97, 115, 101]),
   midi.TextMetaEvent(tick=0, text='S:Mick Peat', data=[83, 58, 77, 105, 99, 107, 32, 80, 101, 97, 116]),
   midi.NoteOnEvent(tick=241, channel=2, data=[55, 75]),
   midi.NoteOnEvent(tick=0, channel=2, data=[59, 75]),
   midi.NoteOnEvent(tick=0, channel=2, data=[62, 75]),
   midi.NoteOnEvent(tick=480, channel=2, data=[55, 75]),
   midi.NoteOnEvent(tick=0, channel=2, data=[59, 75]),
   midi.NoteOnEvent(tick=0, channel=2, data=[62, 75]),
   midi.NoteOffEvent(tick=949, channel=2, data=[55, 0]),
   midi.NoteOffEvent(tick=0, channel=2, data=[59, 0]),
   midi.NoteOffEvent(tick=0, channel=2, data=[62, 0]),
   midi.NoteOffEvent(tick=490, channel=2, data=[55, 0]),
   midi.NoteOffEvent(tick=0, channel=2, data=[59, 0]),
   midi.NoteOffEvent(tick=0, channel=2, data=[62, 0]),
   midi.NoteOnEvent(tick=1, channel=2, data=[50, 75]),
   midi.NoteOnEvent(tick=0, channel=2, data=[54, 75]),
   midi.NoteOnEvent(tick=0, channel=2, data=[57, 75]),
   midi.NoteOffEvent(tick=1439, channel=2, data=[50, 0]),
   midi.NoteOffEvent(tick=0, channel=2, data=[54, 0]),
   midi.NoteOffEvent(tick=0, channel=2, data=[57, 0]),
   midi.NoteOnEvent(tick=1, channel=2, data=[55, 75]),
   midi.NoteOnEvent(tick=0, channel=2, data=[59, 75]),
   midi.NoteOnEvent(tick=0, channel=2, data=[62, 75]),
   midi.NoteOffEvent(tick=1439, channel=2, data=[55, 0]),
   midi.NoteOffEvent(tick=0, channel=2, data=[59, 0]),
   midi.NoteOffEvent(tick=0, channel=2, data=[62, 0]),
   midi.NoteOnEvent(tick=1, channel=2, data=[50, 75]),
   midi.NoteOnEvent(tick=0, channel=2, data=[54, 75]),
   midi.NoteOnEvent(tick=0, channel=2, data=[57, 75]),
   midi.NoteOffEvent(tick=1439, channel=2, data=[50, 0]),
   midi.NoteOffEvent(tick=0, channel=2, data=[54, 0]),
   midi.NoteOffEvent(tick=0, channel=2, data=[57, 0]),
   midi.NoteOnEvent(tick=1, channel=2, data=[55, 75]),
   midi.NoteOnEvent(tick=0, channel=2, data=[59, 75]),
   midi.NoteOnEvent(tick=0, channel=2, data=[62, 75]),
   midi.NoteOffEvent(tick=1439, channel=2, data=[55, 0]),
   midi.NoteOffEvent(tick=0, channel=2, data=[59, 0]),
   midi.NoteOffEvent(tick=0, channel=2, data=[62, 0]),
   midi.NoteOnEvent(tick=1, channel=2, data=[50, 75]),
   midi.NoteOnEvent(tick=0, channel=2, data=[54, 75]),
   midi.NoteOnEvent(tick=0, channel=2, data=[57, 75]),
   midi.NoteOffEvent(tick=1439, channel=2, data=[50, 0]),
   midi.NoteOffEvent(tick=0, channel=2, data=[54, 0]),
   midi.NoteOffEvent(tick=0, channel=2, data=[57, 0]),
   midi.TimeSignatureEvent(tick=0, data=[2, 2, 24, 8]),
   midi.NoteOnEvent(tick=1, channel=1, data=[41, 80]),
   midi.NoteOffEvent(tick=119, channel=1, data=[41, 0]),
   midi.NoteOnEvent(tick=121, channel=2, data=[53, 75]),
   midi.NoteOnEvent(tick=0, channel=2, data=[57, 75]),
   midi.NoteOnEvent(tick=0, channel=2, data=[60, 75]),
   midi.NoteOffEvent(tick=119, channel=2, data=[53, 0]),
   midi.NoteOffEvent(tick=0, channel=2, data=[57, 0]),
   midi.NoteOffEvent(tick=0, channel=2, data=[60, 0]),
   midi.NoteOnEvent(tick=121, channel=1, data=[41, 80]),
   midi.NoteOffEvent(tick=119, channel=1, data=[41, 0]),
   midi.NoteOnEvent(tick=121, channel=2, data=[53, 75]),
   midi.NoteOnEvent(tick=0, channel=2, data=[57, 75]),
   midi.NoteOnEvent(tick=0, channel=2, data=[60, 75]),
   midi.NoteOffEvent(tick=119, channel=2, data=[53, 0]),
   midi.NoteOffEvent(tick=0, channel=2, data=[57, 0]),
   midi.NoteOffEvent(tick=0, channel=2, data=[60, 0]),
   midi.TimeSignatureEvent(tick=0, data=[3, 2, 18, 8]),
   midi.NoteOnEvent(tick=121, channel=1, data=[43, 80]),
   midi.NoteOffEvent(tick=239, channel=1, data=[43, 0]),
   midi.NoteOnEvent(tick=241, channel=2, data=[55, 75]),
   midi.NoteOnEvent(tick=0, channel=2, data=[59, 75]),
   midi.NoteOnEvent(tick=0, channel=2, data=[62, 75]),
   midi.NoteOffEvent(tick=239, channel=2, data=[55, 0]),
   midi.NoteOffEvent(tick=0, channel=2, data=[59, 0]),
   midi.NoteOffEvent(tick=0, channel=2, data=[62, 0]),
   midi.NoteOnEvent(tick=241, channel=2, data=[55, 75]),
   midi.NoteOnEvent(tick=0, channel=2, data=[59, 75]),
   midi.NoteOnEvent(tick=0, channel=2, data=[62, 75]),
   midi.NoteOffEvent(tick=239, channel=2, data=[55, 0]),
   midi.NoteOffEvent(tick=0, channel=2, data=[59, 0]),
   midi.NoteOffEvent(tick=0, channel=2, data=[62, 0]),
   midi.NoteOnEvent(tick=241, channel=1, data=[36, 80]),
   midi.NoteOffEvent(tick=239, channel=1, data=[36, 0]),
   midi.NoteOnEvent(tick=241, channel=2, data=[48, 75]),
   midi.NoteOnEvent(tick=0, channel=2, data=[52, 75]),
   midi.NoteOnEvent(tick=0, channel=2, data=[55, 75]),
   midi.NoteOffEvent(tick=239, channel=2, data=[48, 0]),
   midi.NoteOffEvent(tick=0, channel=2, data=[52, 0]),
   midi.NoteOffEvent(tick=0, channel=2, data=[55, 0]),
   midi.NoteOnEvent(tick=241, channel=2, data=[48, 75]),
   midi.NoteOnEvent(tick=0, channel=2, data=[52, 75]),
   midi.NoteOnEvent(tick=0, channel=2, data=[55, 75]),
   midi.NoteOffEvent(tick=239, channel=2, data=[48, 0]),
   midi.NoteOffEvent(tick=0, channel=2, data=[52, 0]),
   midi.NoteOffEvent(tick=0, channel=2, data=[55, 0]),
   midi.NoteOnEvent(tick=241, channel=1, data=[46, 80]),
   midi.NoteOffEvent(tick=239, channel=1, data=[46, 0]),
   midi.NoteOnEvent(tick=241, channel=2, data=[58, 75]),
   midi.NoteOnEvent(tick=0, channel=2, data=[62, 75]),
   midi.NoteOnEvent(tick=0, channel=2, data=[65, 75]),
   midi.NoteOffEvent(tick=239, channel=2, data=[58, 0]),
   midi.NoteOffEvent(tick=0, channel=2, data=[62, 0]),
   midi.NoteOffEvent(tick=0, channel=2, data=[65, 0]),
   midi.NoteOnEvent(tick=241, channel=2, data=[58, 75]),
   midi.NoteOnEvent(tick=0, channel=2, data=[62, 75]),
   midi.NoteOnEvent(tick=0, channel=2, data=[65, 75]),
   midi.NoteOffEvent(tick=239, channel=2, data=[58, 0]),
   midi.NoteOffEvent(tick=0, channel=2, data=[62, 0]),
   midi.NoteOffEvent(tick=0, channel=2, data=[65, 0]),
   midi.NoteOnEvent(tick=241, channel=1, data=[41, 80]),
   midi.NoteOffEvent(tick=239, channel=1, data=[41, 0]),
   midi.NoteOnEvent(tick=241, channel=2, data=[53, 75]),
   midi.NoteOnEvent(tick=0, channel=2, data=[57, 75]),
   midi.NoteOnEvent(tick=0, channel=2, data=[60, 75]),
   midi.NoteOffEvent(tick=239, channel=2, data=[53, 0]),
   midi.NoteOffEvent(tick=0, channel=2, data=[57, 0]),
   midi.NoteOffEvent(tick=0, channel=2, data=[60, 0]),
   midi.NoteOnEvent(tick=241, channel=2, data=[53, 75]),
   midi.NoteOnEvent(tick=0, channel=2, data=[57, 75]),
   midi.NoteOnEvent(tick=0, channel=2, data=[60, 75]),
   midi.NoteOffEvent(tick=239, channel=2, data=[53, 0]),
   midi.NoteOffEvent(tick=0, channel=2, data=[57, 0]),
   midi.NoteOffEvent(tick=0, channel=2, data=[60, 0]),
   midi.NoteOnEvent(tick=241, channel=1, data=[41, 80]),
   midi.NoteOffEvent(tick=239, channel=1, data=[41, 0]),
   midi.NoteOnEvent(tick=241, channel=2, data=[53, 75]),
   midi.NoteOnEvent(tick=0, channel=2, data=[57, 75]),
   midi.NoteOnEvent(tick=0, channel=2, data=[60, 75]),
   midi.NoteOffEvent(tick=239, channel=2, data=[53, 0]),
   midi.NoteOffEvent(tick=0, channel=2, data=[57, 0]),
   midi.NoteOffEvent(tick=0, channel=2, data=[60, 0]),
   midi.NoteOnEvent(tick=241, channel=2, data=[53, 75]),
   midi.NoteOnEvent(tick=0, channel=2, data=[57, 75]),
   midi.NoteOnEvent(tick=0, channel=2, data=[60, 75]),
   midi.NoteOffEvent(tick=239, channel=2, data=[53, 0]),
   midi.NoteOffEvent(tick=0, channel=2, data=[57, 0]),
   midi.NoteOffEvent(tick=0, channel=2, data=[60, 0]),
   midi.NoteOnEvent(tick=241, channel=1, data=[36, 80]),
   midi.NoteOffEvent(tick=239, channel=1, data=[36, 0]),
   midi.NoteOnEvent(tick=241, channel=2, data=[48, 75]),
   midi.NoteOnEvent(tick=0, channel=2, data=[52, 75]),
   midi.NoteOnEvent(tick=0, channel=2, data=[55, 75]),
   midi.NoteOffEvent(tick=239, channel=2, data=[48, 0]),
   midi.NoteOffEvent(tick=0, channel=2, data=[52, 0]),
   midi.NoteOffEvent(tick=0, channel=2, data=[55, 0]),
   midi.NoteOnEvent(tick=241, channel=2, data=[48, 75]),
   midi.NoteOnEvent(tick=0, channel=2, data=[52, 75]),
   midi.NoteOnEvent(tick=0, channel=2, data=[55, 75]),
   midi.NoteOffEvent(tick=239, channel=2, data=[48, 0]),
   midi.NoteOffEvent(tick=0, channel=2, data=[52, 0]),
   midi.NoteOffEvent(tick=0, channel=2, data=[55, 0]),
   midi.NoteOnEvent(tick=241, channel=1, data=[46, 80]),
   midi.NoteOffEvent(tick=239, channel=1, data=[46, 0]),
   midi.NoteOnEvent(tick=241, channel=2, data=[58, 75]),
   midi.NoteOnEvent(tick=0, channel=2, data=[62, 75]),
   midi.NoteOnEvent(tick=0, channel=2, data=[65, 75]),
   midi.NoteOffEvent(tick=239, channel=2, data=[58, 0]),
   midi.NoteOffEvent(tick=0, channel=2, data=[62, 0]),
   midi.NoteOffEvent(tick=0, channel=2, data=[65, 0]),
   midi.NoteOnEvent(tick=241, channel=2, data=[58, 75]),
   midi.NoteOnEvent(tick=0, channel=2, data=[62, 75]),
   midi.NoteOnEvent(tick=0, channel=2, data=[65, 75]),
   midi.NoteOffEvent(tick=239, channel=2, data=[58, 0]),
   midi.NoteOffEvent(tick=0, channel=2, data=[62, 0]),
   midi.NoteOffEvent(tick=0, channel=2, data=[65, 0]),
   midi.TimeSignatureEvent(tick=0, data=[2, 2, 24, 8]),
   midi.NoteOnEvent(tick=241, channel=1, data=[41, 80]),
   midi.NoteOffEvent(tick=119, channel=1, data=[41, 0]),
   midi.NoteOnEvent(tick=121, channel=2, data=[53, 75]),
   midi.NoteOnEvent(tick=0, channel=2, data=[57, 75]),
   midi.NoteOnEvent(tick=0, channel=2, data=[60, 75]),
   midi.NoteOffEvent(tick=119, channel=2, data=[53, 0]),
   midi.NoteOffEvent(tick=0, channel=2, data=[57, 0]),
   midi.NoteOffEvent(tick=0, channel=2, data=[60, 0]),
   midi.NoteOnEvent(tick=121, channel=1, data=[41, 80]),
   midi.NoteOffEvent(tick=119, channel=1, data=[41, 0]),
   midi.NoteOnEvent(tick=121, channel=2, data=[53, 75]),
   midi.NoteOnEvent(tick=0, channel=2, data=[57, 75]),
   midi.NoteOnEvent(tick=0, channel=2, data=[60, 75]),
   midi.NoteOffEvent(tick=119, channel=2, data=[53, 0]),
   midi.NoteOffEvent(tick=0, channel=2, data=[57, 0]),
   midi.NoteOffEvent(tick=0, channel=2, data=[60, 0]),
   midi.TimeSignatureEvent(tick=0, data=[3, 2, 18, 8]),
   midi.NoteOnEvent(tick=121, channel=1, data=[43, 80]),
   midi.NoteOffEvent(tick=239, channel=1, data=[43, 0]),
   midi.NoteOnEvent(tick=241, channel=2, data=[55, 75]),
   midi.NoteOnEvent(tick=0, channel=2, data=[59, 75]),
   midi.NoteOnEvent(tick=0, channel=2, data=[62, 75]),
   midi.NoteOffEvent(tick=239, channel=2, data=[55, 0]),
   midi.NoteOffEvent(tick=0, channel=2, data=[59, 0]),
   midi.NoteOffEvent(tick=0, channel=2, data=[62, 0]),
   midi.NoteOnEvent(tick=241, channel=2, data=[55, 75]),
   midi.NoteOnEvent(tick=0, channel=2, data=[59, 75]),
   midi.NoteOnEvent(tick=0, channel=2, data=[62, 75]),
   midi.NoteOffEvent(tick=239, channel=2, data=[55, 0]),
   midi.NoteOffEvent(tick=0, channel=2, data=[59, 0]),
   midi.NoteOffEvent(tick=0, channel=2, data=[62, 0]),
   midi.NoteOnEvent(tick=241, channel=1, data=[36, 80]),
   midi.NoteOffEvent(tick=239, channel=1, data=[36, 0]),
   midi.NoteOnEvent(tick=241, channel=2, data=[48, 75]),
   midi.NoteOnEvent(tick=0, channel=2, data=[52, 75]),
   midi.NoteOnEvent(tick=0, channel=2, data=[55, 75]),
   midi.NoteOffEvent(tick=239, channel=2, data=[48, 0]),
   midi.NoteOffEvent(tick=0, channel=2, data=[52, 0]),
   midi.NoteOffEvent(tick=0, channel=2, data=[55, 0]),
   midi.NoteOnEvent(tick=241, channel=2, data=[48, 75]),
   midi.NoteOnEvent(tick=0, channel=2, data=[52, 75]),
   midi.NoteOnEvent(tick=0, channel=2, data=[55, 75]),
   midi.NoteOffEvent(tick=239, channel=2, data=[48, 0]),
   midi.NoteOffEvent(tick=0, channel=2, data=[52, 0]),
   midi.NoteOffEvent(tick=0, channel=2, data=[55, 0]),
   midi.NoteOnEvent(tick=241, channel=1, data=[46, 80]),
   midi.NoteOffEvent(tick=239, channel=1, data=[46, 0]),
   midi.NoteOnEvent(tick=241, channel=2, data=[58, 75]),
   midi.NoteOnEvent(tick=0, channel=2, data=[62, 75]),
   midi.NoteOnEvent(tick=0, channel=2, data=[65, 75]),
   midi.NoteOffEvent(tick=239, channel=2, data=[58, 0]),
   midi.NoteOffEvent(tick=0, channel=2, data=[62, 0]),
   midi.NoteOffEvent(tick=0, channel=2, data=[65, 0]),
   midi.NoteOnEvent(tick=241, channel=2, data=[58, 75]),
   midi.NoteOnEvent(tick=0, channel=2, data=[62, 75]),
   midi.NoteOnEvent(tick=0, channel=2, data=[65, 75]),
   midi.NoteOffEvent(tick=239, channel=2, data=[58, 0]),
   midi.NoteOffEvent(tick=0, channel=2, data=[62, 0]),
   midi.NoteOffEvent(tick=0, channel=2, data=[65, 0]),
   midi.NoteOnEvent(tick=241, channel=1, data=[41, 80]),
   midi.NoteOffEvent(tick=239, channel=1, data=[41, 0]),
   midi.NoteOnEvent(tick=241, channel=2, data=[53, 75]),
   midi.NoteOnEvent(tick=0, channel=2, data=[57, 75]),
   midi.NoteOnEvent(tick=0, channel=2, data=[60, 75]),
   midi.NoteOffEvent(tick=239, channel=2, data=[53, 0]),
   midi.NoteOffEvent(tick=0, channel=2, data=[57, 0]),
   midi.NoteOffEvent(tick=0, channel=2, data=[60, 0]),
   midi.NoteOnEvent(tick=241, channel=2, data=[53, 75]),
   midi.NoteOnEvent(tick=0, channel=2, data=[57, 75]),
   midi.NoteOnEvent(tick=0, channel=2, data=[60, 75]),
   midi.NoteOffEvent(tick=239, channel=2, data=[53, 0]),
   midi.NoteOffEvent(tick=0, channel=2, data=[57, 0]),
   midi.NoteOffEvent(tick=0, channel=2, data=[60, 0]),
   midi.NoteOnEvent(tick=241, channel=1, data=[41, 80]),
   midi.NoteOffEvent(tick=239, channel=1, data=[41, 0]),
   midi.NoteOnEvent(tick=241, channel=2, data=[53, 75]),
   midi.NoteOnEvent(tick=0, channel=2, data=[57, 75]),
   midi.NoteOnEvent(tick=0, channel=2, data=[60, 75]),
   midi.NoteOffEvent(tick=239, channel=2, data=[53, 0]),
   midi.NoteOffEvent(tick=0, channel=2, data=[57, 0]),
   midi.NoteOffEvent(tick=0, channel=2, data=[60, 0]),
   midi.NoteOnEvent(tick=241, channel=2, data=[53, 75]),
   midi.NoteOnEvent(tick=0, channel=2, data=[57, 75]),
   midi.NoteOnEvent(tick=0, channel=2, data=[60, 75]),
   midi.NoteOffEvent(tick=239, channel=2, data=[53, 0]),
   midi.NoteOffEvent(tick=0, channel=2, data=[57, 0]),
   midi.NoteOffEvent(tick=0, channel=2, data=[60, 0]),
   midi.NoteOnEvent(tick=241, channel=1, data=[36, 80]),
   midi.NoteOffEvent(tick=239, channel=1, data=[36, 0]),
   midi.NoteOnEvent(tick=241, channel=2, data=[48, 75]),
   midi.NoteOnEvent(tick=0, channel=2, data=[52, 75]),
   midi.NoteOnEvent(tick=0, channel=2, data=[55, 75]),
   midi.NoteOffEvent(tick=239, channel=2, data=[48, 0]),
   midi.NoteOffEvent(tick=0, channel=2, data=[52, 0]),
   midi.NoteOffEvent(tick=0, channel=2, data=[55, 0]),
   midi.NoteOnEvent(tick=241, channel=2, data=[48, 75]),
   midi.NoteOnEvent(tick=0, channel=2, data=[52, 75]),
   midi.NoteOnEvent(tick=0, channel=2, data=[55, 75]),
   midi.NoteOffEvent(tick=239, channel=2, data=[48, 0]),
   midi.NoteOffEvent(tick=0, channel=2, data=[52, 0]),
   midi.NoteOffEvent(tick=0, channel=2, data=[55, 0]),
   midi.NoteOnEvent(tick=241, channel=1, data=[46, 80]),
   midi.NoteOffEvent(tick=239, channel=1, data=[46, 0]),
   midi.NoteOnEvent(tick=241, channel=2, data=[58, 75]),
   midi.NoteOnEvent(tick=0, channel=2, data=[62, 75]),
   midi.NoteOnEvent(tick=0, channel=2, data=[65, 75]),
   midi.NoteOffEvent(tick=239, channel=2, data=[58, 0]),
   midi.NoteOffEvent(tick=0, channel=2, data=[62, 0]),
   midi.NoteOffEvent(tick=0, channel=2, data=[65, 0]),
   midi.NoteOnEvent(tick=241, channel=2, data=[58, 75]),
   midi.NoteOnEvent(tick=0, channel=2, data=[62, 75]),
   midi.NoteOnEvent(tick=0, channel=2, data=[65, 75]),
   midi.NoteOffEvent(tick=239, channel=2, data=[58, 0]),
   midi.NoteOffEvent(tick=0, channel=2, data=[62, 0]),
   midi.NoteOffEvent(tick=0, channel=2, data=[65, 0]),
   midi.TimeSignatureEvent(tick=0, data=[2, 2, 24, 8]),
   midi.NoteOnEvent(tick=241, channel=1, data=[41, 80]),
   midi.NoteOffEvent(tick=119, channel=1, data=[41, 0]),
   midi.NoteOnEvent(tick=121, channel=2, data=[53, 75]),
   midi.NoteOnEvent(tick=0, channel=2, data=[57, 75]),
   midi.NoteOnEvent(tick=0, channel=2, data=[60, 75]),
   midi.NoteOffEvent(tick=119, channel=2, data=[53, 0]),
   midi.NoteOffEvent(tick=0, channel=2, data=[57, 0]),
   midi.NoteOffEvent(tick=0, channel=2, data=[60, 0]),
   midi.NoteOnEvent(tick=121, channel=1, data=[41, 80]),
   midi.NoteOffEvent(tick=119, channel=1, data=[41, 0]),
   midi.NoteOnEvent(tick=121, channel=2, data=[53, 75]),
   midi.NoteOnEvent(tick=0, channel=2, data=[57, 75]),
   midi.NoteOnEvent(tick=0, channel=2, data=[60, 75]),
   midi.NoteOffEvent(tick=119, channel=2, data=[53, 0]),
   midi.NoteOffEvent(tick=0, channel=2, data=[57, 0]),
   midi.NoteOffEvent(tick=0, channel=2, data=[60, 0]),
   midi.TimeSignatureEvent(tick=0, data=[3, 2, 18, 8]),
   midi.NoteOnEvent(tick=121, channel=1, data=[43, 80]),
   midi.NoteOffEvent(tick=239, channel=1, data=[43, 0]),
   midi.NoteOnEvent(tick=241, channel=2, data=[55, 75]),
   midi.NoteOnEvent(tick=0, channel=2, data=[59, 75]),
   midi.NoteOnEvent(tick=0, channel=2, data=[62, 75]),
   midi.NoteOffEvent(tick=239, channel=2, data=[55, 0]),
   midi.NoteOffEvent(tick=0, channel=2, data=[59, 0]),
   midi.NoteOffEvent(tick=0, channel=2, data=[62, 0]),
   midi.NoteOnEvent(tick=241, channel=2, data=[55, 75]),
   midi.NoteOnEvent(tick=0, channel=2, data=[59, 75]),
   midi.NoteOnEvent(tick=0, channel=2, data=[62, 75]),
   midi.NoteOffEvent(tick=239, channel=2, data=[55, 0]),
   midi.NoteOffEvent(tick=0, channel=2, data=[59, 0]),
   midi.NoteOffEvent(tick=0, channel=2, data=[62, 0]),
   midi.EndOfTrackEvent(tick=266, data=[])])])
midi.Pattern(format=1, resolution=480, tracks=\
[midi.Track(\
  [midi.SetTempoEvent(tick=0, data=[7, 161, 32]),
   midi.KeySignatureEvent(tick=0, data=[1, 0]),
   midi.TimeSignatureEvent(tick=0, data=[3, 2, 18, 8]),
   midi.TrackNameEvent(tick=0, text="A and A's Waltz", data=[65, 32, 97, 110, 100, 32, 65, 39, 115, 32, 87, 97, 108, 116, 122]),
   midi.EndOfTrackEvent(tick=33625, data=[])]),
 midi.Track(\
  [midi.TrackNameEvent(tick=0, text="A and A's Waltz", data=[65, 32, 97, 110, 100, 32, 65, 39, 115, 32, 87, 97, 108, 116, 122]),
   midi.TextMetaEvent(tick=0, text=' Nottingham Music Database', data=[32, 78, 111, 116, 116, 105, 110, 103, 104, 97, 109, 32, 77, 117, 115, 105, 99, 32, 68, 97, 116, 97, 98, 97, 115, 101]),
   midi.TextMetaEvent(tick=0, text='S:Mick Peat', data=[83, 58, 77, 105, 99, 107, 32, 80, 101, 97, 116]),
   midi.NoteOnEvent(tick=0, channel=0, data=[76, 105]),
   midi.NoteOffEvent(tick=479, channel=0, data=[76, 0]),
   midi.NoteOnEvent(tick=1, channel=0, data=[74, 105]),
   midi.NoteOffEvent(tick=959, channel=0, data=[74, 0]),
   midi.NoteOnEvent(tick=1, channel=0, data=[71, 80]),
   midi.NoteOffEvent(tick=479, channel=0, data=[71, 0]),
   midi.NoteOnEvent(tick=1, channel=0, data=[69, 105]),
   midi.NoteOffEvent(tick=719, channel=0, data=[69, 0]),
   midi.NoteOnEvent(tick=1, channel=0, data=[71, 80]),
   midi.NoteOffEvent(tick=239, channel=0, data=[71, 0]),
   midi.NoteOnEvent(tick=1, channel=0, data=[72, 80]),
   midi.NoteOffEvent(tick=479, channel=0, data=[72, 0]),
   midi.NoteOnEvent(tick=1, channel=0, data=[71, 105]),
   midi.NoteOffEvent(tick=959, channel=0, data=[71, 0]),
   midi.NoteOnEvent(tick=1, channel=0, data=[67, 80]),
   midi.NoteOffEvent(tick=479, channel=0, data=[67, 0]),
   midi.NoteOnEvent(tick=1, channel=0, data=[69, 105]),
   midi.NoteOffEvent(tick=959, channel=0, data=[69, 0]),
   midi.NoteOnEvent(tick=1, channel=0, data=[76, 80]),
   midi.NoteOffEvent(tick=479, channel=0, data=[76, 0]),
   midi.NoteOnEvent(tick=1, channel=0, data=[74, 105]),
   midi.NoteOffEvent(tick=959, channel=0, data=[74, 0]),
   midi.NoteOnEvent(tick=1, channel=0, data=[71, 80]),
   midi.NoteOffEvent(tick=479, channel=0, data=[71, 0]),
   midi.NoteOnEvent(tick=1, channel=0, data=[69, 105]),
   midi.NoteOffEvent(tick=719, channel=0, data=[69, 0]),
   midi.NoteOnEvent(tick=1, channel=0, data=[71, 80]),
   midi.NoteOffEvent(tick=239, channel=0, data=[71, 0]),
   midi.NoteOnEvent(tick=1, channel=0, data=[72, 80]),
   midi.NoteOffEvent(tick=479, channel=0, data=[72, 0]),
   midi.TimeSignatureEvent(tick=0, data=[2, 2, 24, 8]),
   midi.NoteOnEvent(tick=1, channel=0, data=[71, 105]),
   midi.NoteOffEvent(tick=479, channel=0, data=[71, 0]),
   midi.NoteOnEvent(tick=1, channel=0, data=[65, 80]),
   midi.NoteOffEvent(tick=479, channel=0, data=[65, 0]),
   midi.TimeSignatureEvent(tick=0, data=[3, 2, 18, 8]),
   midi.NoteOnEvent(tick=1, channel=0, data=[67, 105]),
   midi.NoteOffEvent(tick=959, channel=0, data=[67, 0]),
   midi.NoteOnEvent(tick=1, channel=0, data=[76, 80]),
   midi.NoteOffEvent(tick=479, channel=0, data=[76, 0]),
   midi.TextMetaEvent(tick=0, text=' Nottingham Music Database', data=[32, 78, 111, 116, 116, 105, 110, 103, 104, 97, 109, 32, 77, 117, 115, 105, 99, 32, 68, 97, 116, 97, 98, 97, 115, 101]),
   midi.TextMetaEvent(tick=0, text='S:Mick Peat', data=[83, 58, 77, 105, 99, 107, 32, 80, 101, 97, 116]),
   midi.NoteOnEvent(tick=1, channel=0, data=[76, 105]),
   midi.NoteOffEvent(tick=479, channel=0, data=[76, 0]),
   midi.NoteOnEvent(tick=1, channel=0, data=[74, 105]),
   midi.NoteOffEvent(tick=959, channel=0, data=[74, 0]),
   midi.NoteOnEvent(tick=1, channel=0, data=[71, 80]),
   midi.NoteOffEvent(tick=479, channel=0, data=[71, 0]),
   midi.NoteOnEvent(tick=1, channel=0, data=[69, 105]),
   midi.NoteOffEvent(tick=719, channel=0, data=[69, 0]),
   midi.NoteOnEvent(tick=1, channel=0, data=[71, 80]),
   midi.NoteOffEvent(tick=239, channel=0, data=[71, 0]),
   midi.NoteOnEvent(tick=1, channel=0, data=[72, 80]),
   midi.NoteOffEvent(tick=479, channel=0, data=[72, 0]),
   midi.NoteOnEvent(tick=1, channel=0, data=[71, 105]),
   midi.NoteOffEvent(tick=959, channel=0, data=[71, 0]),
   midi.NoteOnEvent(tick=1, channel=0, data=[67, 80]),
   midi.NoteOffEvent(tick=479, channel=0, data=[67, 0]),
   midi.NoteOnEvent(tick=1, channel=0, data=[69, 105]),
   midi.NoteOffEvent(tick=959, channel=0, data=[69, 0]),
   midi.NoteOnEvent(tick=1, channel=0, data=[76, 80]),
   midi.NoteOffEvent(tick=479, channel=0, data=[76, 0]),
   midi.NoteOnEvent(tick=1, channel=0, data=[74, 105]),
   midi.NoteOffEvent(tick=959, channel=0, data=[74, 0]),
   midi.NoteOnEvent(tick=1, channel=0, data=[71, 80]),
   midi.NoteOffEvent(tick=479, channel=0, data=[71, 0]),
   midi.NoteOnEvent(tick=1, channel=0, data=[69, 105]),
   midi.NoteOffEvent(tick=719, channel=0, data=[69, 0]),
   midi.NoteOnEvent(tick=1, channel=0, data=[71, 80]),
   midi.NoteOffEvent(tick=239, channel=0, data=[71, 0]),
   midi.NoteOnEvent(tick=1, channel=0, data=[72, 80]),
   midi.NoteOffEvent(tick=479, channel=0, data=[72, 0]),
   midi.TimeSignatureEvent(tick=0, data=[2, 2, 24, 8]),
   midi.NoteOnEvent(tick=1, channel=0, data=[71, 105]),
   midi.NoteOffEvent(tick=479, channel=0, data=[71, 0]),
   midi.NoteOnEvent(tick=1, channel=0, data=[65, 80]),
   midi.NoteOffEvent(tick=479, channel=0, data=[65, 0]),
   midi.TimeSignatureEvent(tick=0, data=[3, 2, 18, 8]),
   midi.NoteOnEvent(tick=1, channel=0, data=[67, 105]),
   midi.NoteOffEvent(tick=959, channel=0, data=[67, 0]),
   midi.NoteOnEvent(tick=1, channel=0, data=[76, 80]),
   midi.NoteOffEvent(tick=479, channel=0, data=[76, 0]),
   midi.NoteOnEvent(tick=1, channel=0, data=[79, 105]),
   midi.NoteOffEvent(tick=959, channel=0, data=[79, 0]),
   midi.NoteOnEvent(tick=1, channel=0, data=[76, 80]),
   midi.NoteOffEvent(tick=479, channel=0, data=[76, 0]),
   midi.NoteOnEvent(tick=1, channel=0, data=[77, 105]),
   midi.NoteOffEvent(tick=959, channel=0, data=[77, 0]),
   midi.NoteOnEvent(tick=1, channel=0, data=[74, 80]),
   midi.NoteOffEvent(tick=479, channel=0, data=[74, 0]),
   midi.NoteOnEvent(tick=1, channel=0, data=[72, 105]),
   midi.NoteOffEvent(tick=959, channel=0, data=[72, 0]),
   midi.NoteOnEvent(tick=1, channel=0, data=[69, 80]),
   midi.NoteOffEvent(tick=479, channel=0, data=[69, 0]),
   midi.NoteOnEvent(tick=1, channel=0, data=[65, 105]),
   midi.NoteOffEvent(tick=959, channel=0, data=[65, 0]),
   midi.NoteOnEvent(tick=1, channel=0, data=[76, 80]),
   midi.NoteOffEvent(tick=479, channel=0, data=[76, 0]),
   midi.NoteOnEvent(tick=1, channel=0, data=[79, 105]),
   midi.NoteOffEvent(tick=959, channel=0, data=[79, 0]),
   midi.NoteOnEvent(tick=1, channel=0, data=[76, 80]),
   midi.NoteOffEvent(tick=479, channel=0, data=[76, 0]),
   midi.NoteOnEvent(tick=1, channel=0, data=[77, 105]),
   midi.NoteOffEvent(tick=959, channel=0, data=[77, 0]),
   midi.NoteOnEvent(tick=1, channel=0, data=[74, 80]),
   midi.NoteOffEvent(tick=479, channel=0, data=[74, 0]),
   midi.TimeSignatureEvent(tick=0, data=[2, 2, 24, 8]),
   midi.NoteOnEvent(tick=1, channel=0, data=[72, 105]),
   midi.NoteOffEvent(tick=479, channel=0, data=[72, 0]),
   midi.NoteOnEvent(tick=1, channel=0, data=[69, 80]),
   midi.NoteOffEvent(tick=479, channel=0, data=[69, 0]),
   midi.TimeSignatureEvent(tick=0, data=[3, 2, 18, 8]),
   midi.NoteOnEvent(tick=1, channel=0, data=[67, 105]),
   midi.NoteOffEvent(tick=959, channel=0, data=[67, 0]),
   midi.NoteOnEvent(tick=1, channel=0, data=[76, 80]),
   midi.NoteOffEvent(tick=479, channel=0, data=[76, 0]),
   midi.NoteOnEvent(tick=1, channel=0, data=[79, 105]),
   midi.NoteOffEvent(tick=959, channel=0, data=[79, 0]),
   midi.NoteOnEvent(tick=1, channel=0, data=[76, 80]),
   midi.NoteOffEvent(tick=479, channel=0, data=[76, 0]),
   midi.NoteOnEvent(tick=1, channel=0, data=[77, 105]),
   midi.NoteOffEvent(tick=959, channel=0, data=[77, 0]),
   midi.NoteOnEvent(tick=1, channel=0, data=[74, 80]),
   midi.NoteOffEvent(tick=479, channel=0, data=[74, 0]),
   midi.NoteOnEvent(tick=1, channel=0, data=[72, 105]),
   midi.NoteOffEvent(tick=959, channel=0, data=[72, 0]),
   midi.NoteOnEvent(tick=1, channel=0, data=[69, 80]),
   midi.NoteOffEvent(tick=479, channel=0, data=[69, 0]),
   midi.NoteOnEvent(tick=1, channel=0, data=[65, 105]),
   midi.NoteOffEvent(tick=959, channel=0, data=[65, 0]),
   midi.NoteOnEvent(tick=1, channel=0, data=[76, 80]),
   midi.NoteOffEvent(tick=479, channel=0, data=[76, 0]),
   midi.NoteOnEvent(tick=1, channel=0, data=[79, 105]),
   midi.NoteOffEvent(tick=959, channel=0, data=[79, 0]),
   midi.NoteOnEvent(tick=1, channel=0, data=[76, 80]),
   midi.NoteOffEvent(tick=479, channel=0, data=[76, 0]),
   midi.NoteOnEvent(tick=1, channel=0, data=[77, 105]),
   midi.NoteOffEvent(tick=959, channel=0, data=[77, 0]),
   midi.NoteOnEvent(tick=1, channel=0, data=[74, 80]),
   midi.NoteOffEvent(tick=479, channel=0, data=[74, 0]),
   midi.TimeSignatureEvent(tick=0, data=[2, 2, 24, 8]),
   midi.NoteOnEvent(tick=1, channel=0, data=[72, 105]),
   midi.NoteOffEvent(tick=479, channel=0, data=[72, 0]),
   midi.NoteOnEvent(tick=1, channel=0, data=[69, 80]),
   midi.NoteOffEvent(tick=479, channel=0, data=[69, 0]),
   midi.TimeSignatureEvent(tick=0, data=[3, 2, 18, 8]),
   midi.NoteOnEvent(tick=1, channel=0, data=[67, 105]),
   midi.NoteOffEvent(tick=959, channel=0, data=[67, 0]),
   midi.EndOfTrackEvent(tick=506, data=[])]),
 midi.Track(\
  [midi.TextMetaEvent(tick=0, text=' Nottingham Music Database', data=[32, 78, 111, 116, 116, 105, 110, 103, 104, 97, 109, 32, 77, 117, 115, 105, 99, 32, 68, 97, 116, 97, 98, 97, 115, 101]),
   midi.TextMetaEvent(tick=0, text='S:Mick Peat', data=[83, 58, 77, 105, 99, 107, 32, 80, 101, 97, 116]),
   midi.NoteOnEvent(tick=480, channel=2, data=[55, 75]),
   midi.NoteOnEvent(tick=0, channel=2, data=[59, 75]),
   midi.NoteOnEvent(tick=0, channel=2, data=[62, 75]),
   midi.NoteOffEvent(tick=1439, channel=2, data=[55, 0]),
   midi.NoteOffEvent(tick=0, channel=2, data=[59, 0]),
   midi.NoteOffEvent(tick=0, channel=2, data=[62, 0]),
   midi.NoteOnEvent(tick=1, channel=2, data=[50, 75]),
   midi.NoteOnEvent(tick=0, channel=2, data=[54, 75]),
   midi.NoteOnEvent(tick=0, channel=2, data=[57, 75]),
   midi.NoteOffEvent(tick=1439, channel=2, data=[50, 0]),
   midi.NoteOffEvent(tick=0, channel=2, data=[54, 0]),
   midi.NoteOffEvent(tick=0, channel=2, data=[57, 0]),
   midi.NoteOnEvent(tick=1, channel=2, data=[55, 75]),
   midi.NoteOnEvent(tick=0, channel=2, data=[59, 75]),
   midi.NoteOnEvent(tick=0, channel=2, data=[62, 75]),
   midi.NoteOffEvent(tick=1439, channel=2, data=[55, 0]),
   midi.NoteOffEvent(tick=0, channel=2, data=[59, 0]),
   midi.NoteOffEvent(tick=0, channel=2, data=[62, 0]),
   midi.NoteOnEvent(tick=1, channel=2, data=[50, 75]),
   midi.NoteOnEvent(tick=0, channel=2, data=[54, 75]),
   midi.NoteOnEvent(tick=0, channel=2, data=[57, 75]),
   midi.NoteOffEvent(tick=1439, channel=2, data=[50, 0]),
   midi.NoteOffEvent(tick=0, channel=2, data=[54, 0]),
   midi.NoteOffEvent(tick=0, channel=2, data=[57, 0]),
   midi.NoteOnEvent(tick=1, channel=2, data=[55, 75]),
   midi.NoteOnEvent(tick=0, channel=2, data=[59, 75]),
   midi.NoteOnEvent(tick=0, channel=2, data=[62, 75]),
   midi.NoteOffEvent(tick=1439, channel=2, data=[55, 0]),
   midi.NoteOffEvent(tick=0, channel=2, data=[59, 0]),
   midi.NoteOffEvent(tick=0, channel=2, data=[62, 0]),
   midi.NoteOnEvent(tick=1, channel=2, data=[50, 75]),
   midi.NoteOnEvent(tick=0, channel=2, data=[54, 75]),
   midi.NoteOnEvent(tick=0, channel=2, data=[57, 75]),
   midi.NoteOffEvent(tick=1439, channel=2, data=[50, 0]),
   midi.NoteOffEvent(tick=0, channel=2, data=[54, 0]),
   midi.NoteOffEvent(tick=0, channel=2, data=[57, 0]),
   midi.TimeSignatureEvent(tick=0, data=[2, 2, 24, 8]),
   midi.NoteOnEvent(tick=1, channel=1, data=[41, 80]),
   midi.NoteOffEvent(tick=119, channel=1, data=[41, 0]),
   midi.NoteOnEvent(tick=121, channel=2, data=[53, 75]),
   midi.NoteOnEvent(tick=0, channel=2, data=[57, 75]),
   midi.NoteOnEvent(tick=0, channel=2, data=[60, 75]),
   midi.NoteOffEvent(tick=119, channel=2, data=[53, 0]),
   midi.NoteOffEvent(tick=0, channel=2, data=[57, 0]),
   midi.NoteOffEvent(tick=0, channel=2, data=[60, 0]),
   midi.NoteOnEvent(tick=121, channel=1, data=[41, 80]),
   midi.NoteOffEvent(tick=119, channel=1, data=[41, 0]),
   midi.NoteOnEvent(tick=121, channel=2, data=[53, 75]),
   midi.NoteOnEvent(tick=0, channel=2, data=[57, 75]),
   midi.NoteOnEvent(tick=0, channel=2, data=[60, 75]),
   midi.NoteOffEvent(tick=119, channel=2, data=[53, 0]),
   midi.NoteOffEvent(tick=0, channel=2, data=[57, 0]),
   midi.NoteOffEvent(tick=0, channel=2, data=[60, 0]),
   midi.TimeSignatureEvent(tick=0, data=[3, 2, 18, 8]),
   midi.NoteOnEvent(tick=121, channel=1, data=[43, 80]),
   midi.NoteOffEvent(tick=239, channel=1, data=[43, 0]),
   midi.NoteOnEvent(tick=241, channel=2, data=[55, 75]),
   midi.NoteOnEvent(tick=0, channel=2, data=[59, 75]),
   midi.NoteOnEvent(tick=0, channel=2, data=[62, 75]),
   midi.NoteOffEvent(tick=239, channel=2, data=[55, 0]),
   midi.NoteOffEvent(tick=0, channel=2, data=[59, 0]),
   midi.NoteOffEvent(tick=0, channel=2, data=[62, 0]),
   midi.NoteOnEvent(tick=241, channel=2, data=[55, 75]),
   midi.NoteOnEvent(tick=0, channel=2, data=[59, 75]),
   midi.NoteOnEvent(tick=0, channel=2, data=[62, 75]),
   midi.NoteOffEvent(tick=239, channel=2, data=[55, 0]),
   midi.NoteOffEvent(tick=0, channel=2, data=[59, 0]),
   midi.NoteOffEvent(tick=0, channel=2, data=[62, 0]),
   midi.TextMetaEvent(tick=0, text=' Nottingham Music Database', data=[32, 78, 111, 116, 116, 105, 110, 103, 104, 97, 109, 32, 77, 117, 115, 105, 99, 32, 68, 97, 116, 97, 98, 97, 115, 101]),
   midi.TextMetaEvent(tick=0, text='S:Mick Peat', data=[83, 58, 77, 105, 99, 107, 32, 80, 101, 97, 116]),
   midi.NoteOnEvent(tick=241, channel=2, data=[55, 75]),
   midi.NoteOnEvent(tick=0, channel=2, data=[59, 75]),
   midi.NoteOnEvent(tick=0, channel=2, data=[62, 75]),
   midi.NoteOnEvent(tick=480, channel=2, data=[55, 75]),
   midi.NoteOnEvent(tick=0, channel=2, data=[59, 75]),
   midi.NoteOnEvent(tick=0, channel=2, data=[62, 75]),
   midi.NoteOffEvent(tick=949, channel=2, data=[55, 0]),
   midi.NoteOffEvent(tick=0, channel=2, data=[59, 0]),
   midi.NoteOffEvent(tick=0, channel=2, data=[62, 0]),
   midi.NoteOffEvent(tick=490, channel=2, data=[55, 0]),
   midi.NoteOffEvent(tick=0, channel=2, data=[59, 0]),
   midi.NoteOffEvent(tick=0, channel=2, data=[62, 0]),
   midi.NoteOnEvent(tick=1, channel=2, data=[50, 75]),
   midi.NoteOnEvent(tick=0, channel=2, data=[54, 75]),
   midi.NoteOnEvent(tick=0, channel=2, data=[57, 75]),
   midi.NoteOffEvent(tick=1439, channel=2, data=[50, 0]),
   midi.NoteOffEvent(tick=0, channel=2, data=[54, 0]),
   midi.NoteOffEvent(tick=0, channel=2, data=[57, 0]),
   midi.NoteOnEvent(tick=1, channel=2, data=[55, 75]),
   midi.NoteOnEvent(tick=0, channel=2, data=[59, 75]),
   midi.NoteOnEvent(tick=0, channel=2, data=[62, 75]),
   midi.NoteOffEvent(tick=1439, channel=2, data=[55, 0]),
   midi.NoteOffEvent(tick=0, channel=2, data=[59, 0]),
   midi.NoteOffEvent(tick=0, channel=2, data=[62, 0]),
   midi.NoteOnEvent(tick=1, channel=2, data=[50, 75]),
   midi.NoteOnEvent(tick=0, channel=2, data=[54, 75]),
   midi.NoteOnEvent(tick=0, channel=2, data=[57, 75]),
   midi.NoteOffEvent(tick=1439, channel=2, data=[50, 0]),
   midi.NoteOffEvent(tick=0, channel=2, data=[54, 0]),
   midi.NoteOffEvent(tick=0, channel=2, data=[57, 0]),
   midi.NoteOnEvent(tick=1, channel=2, data=[55, 75]),
   midi.NoteOnEvent(tick=0, channel=2, data=[59, 75]),
   midi.NoteOnEvent(tick=0, channel=2, data=[62, 75]),
   midi.NoteOffEvent(tick=1439, channel=2, data=[55, 0]),
   midi.NoteOffEvent(tick=0, channel=2, data=[59, 0]),
   midi.NoteOffEvent(tick=0, channel=2, data=[62, 0]),
   midi.NoteOnEvent(tick=1, channel=2, data=[50, 75]),
   midi.NoteOnEvent(tick=0, channel=2, data=[54, 75]),
   midi.NoteOnEvent(tick=0, channel=2, data=[57, 75]),
   midi.NoteOffEvent(tick=1439, channel=2, data=[50, 0]),
   midi.NoteOffEvent(tick=0, channel=2, data=[54, 0]),
   midi.NoteOffEvent(tick=0, channel=2, data=[57, 0]),
   midi.TimeSignatureEvent(tick=0, data=[2, 2, 24, 8]),
   midi.NoteOnEvent(tick=1, channel=1, data=[41, 80]),
   midi.NoteOffEvent(tick=119, channel=1, data=[41, 0]),
   midi.NoteOnEvent(tick=121, channel=2, data=[53, 75]),
   midi.NoteOnEvent(tick=0, channel=2, data=[57, 75]),
   midi.NoteOnEvent(tick=0, channel=2, data=[60, 75]),
   midi.NoteOffEvent(tick=119, channel=2, data=[53, 0]),
   midi.NoteOffEvent(tick=0, channel=2, data=[57, 0]),
   midi.NoteOffEvent(tick=0, channel=2, data=[60, 0]),
   midi.NoteOnEvent(tick=121, channel=1, data=[41, 80]),
   midi.NoteOffEvent(tick=119, channel=1, data=[41, 0]),
   midi.NoteOnEvent(tick=121, channel=2, data=[53, 75]),
   midi.NoteOnEvent(tick=0, channel=2, data=[57, 75]),
   midi.NoteOnEvent(tick=0, channel=2, data=[60, 75]),
   midi.NoteOffEvent(tick=119, channel=2, data=[53, 0]),
   midi.NoteOffEvent(tick=0, channel=2, data=[57, 0]),
   midi.NoteOffEvent(tick=0, channel=2, data=[60, 0]),
   midi.TimeSignatureEvent(tick=0, data=[3, 2, 18, 8]),
   midi.NoteOnEvent(tick=121, channel=1, data=[43, 80]),
   midi.NoteOffEvent(tick=239, channel=1, data=[43, 0]),
   midi.NoteOnEvent(tick=241, channel=2, data=[55, 75]),
   midi.NoteOnEvent(tick=0, channel=2, data=[59, 75]),
   midi.NoteOnEvent(tick=0, channel=2, data=[62, 75]),
   midi.NoteOffEvent(tick=239, channel=2, data=[55, 0]),
   midi.NoteOffEvent(tick=0, channel=2, data=[59, 0]),
   midi.NoteOffEvent(tick=0, channel=2, data=[62, 0]),
   midi.NoteOnEvent(tick=241, channel=2, data=[55, 75]),
   midi.NoteOnEvent(tick=0, channel=2, data=[59, 75]),
   midi.NoteOnEvent(tick=0, channel=2, data=[62, 75]),
   midi.NoteOffEvent(tick=239, channel=2, data=[55, 0]),
   midi.NoteOffEvent(tick=0, channel=2, data=[59, 0]),
   midi.NoteOffEvent(tick=0, channel=2, data=[62, 0]),
   midi.NoteOnEvent(tick=241, channel=1, data=[36, 80]),
   midi.NoteOffEvent(tick=239, channel=1, data=[36, 0]),
   midi.NoteOnEvent(tick=241, channel=2, data=[48, 75]),
   midi.NoteOnEvent(tick=0, channel=2, data=[52, 75]),
   midi.NoteOnEvent(tick=0, channel=2, data=[55, 75]),
   midi.NoteOffEvent(tick=239, channel=2, data=[48, 0]),
   midi.NoteOffEvent(tick=0, channel=2, data=[52, 0]),
   midi.NoteOffEvent(tick=0, channel=2, data=[55, 0]),
   midi.NoteOnEvent(tick=241, channel=2, data=[48, 75]),
   midi.NoteOnEvent(tick=0, channel=2, data=[52, 75]),
   midi.NoteOnEvent(tick=0, channel=2, data=[55, 75]),
   midi.NoteOffEvent(tick=239, channel=2, data=[48, 0]),
   midi.NoteOffEvent(tick=0, channel=2, data=[52, 0]),
   midi.NoteOffEvent(tick=0, channel=2, data=[55, 0]),
   midi.NoteOnEvent(tick=241, channel=1, data=[46, 80]),
   midi.NoteOffEvent(tick=239, channel=1, data=[46, 0]),
   midi.NoteOnEvent(tick=241, channel=2, data=[58, 75]),
   midi.NoteOnEvent(tick=0, channel=2, data=[62, 75]),
   midi.NoteOnEvent(tick=0, channel=2, data=[65, 75]),
   midi.NoteOffEvent(tick=239, channel=2, data=[58, 0]),
   midi.NoteOffEvent(tick=0, channel=2, data=[62, 0]),
   midi.NoteOffEvent(tick=0, channel=2, data=[65, 0]),
   midi.NoteOnEvent(tick=241, channel=2, data=[58, 75]),
   midi.NoteOnEvent(tick=0, channel=2, data=[62, 75]),
   midi.NoteOnEvent(tick=0, channel=2, data=[65, 75]),
   midi.NoteOffEvent(tick=239, channel=2, data=[58, 0]),
   midi.NoteOffEvent(tick=0, channel=2, data=[62, 0]),
   midi.NoteOffEvent(tick=0, channel=2, data=[65, 0]),
   midi.NoteOnEvent(tick=241, channel=1, data=[41, 80]),
   midi.NoteOffEvent(tick=239, channel=1, data=[41, 0]),
   midi.NoteOnEvent(tick=241, channel=2, data=[53, 75]),
   midi.NoteOnEvent(tick=0, channel=2, data=[57, 75]),
   midi.NoteOnEvent(tick=0, channel=2, data=[60, 75]),
   midi.NoteOffEvent(tick=239, channel=2, data=[53, 0]),
   midi.NoteOffEvent(tick=0, channel=2, data=[57, 0]),
   midi.NoteOffEvent(tick=0, channel=2, data=[60, 0]),
   midi.NoteOnEvent(tick=241, channel=2, data=[53, 75]),
   midi.NoteOnEvent(tick=0, channel=2, data=[57, 75]),
   midi.NoteOnEvent(tick=0, channel=2, data=[60, 75]),
   midi.NoteOffEvent(tick=239, channel=2, data=[53, 0]),
   midi.NoteOffEvent(tick=0, channel=2, data=[57, 0]),
   midi.NoteOffEvent(tick=0, channel=2, data=[60, 0]),
   midi.NoteOnEvent(tick=241, channel=1, data=[41, 80]),
   midi.NoteOffEvent(tick=239, channel=1, data=[41, 0]),
   midi.NoteOnEvent(tick=241, channel=2, data=[53, 75]),
   midi.NoteOnEvent(tick=0, channel=2, data=[57, 75]),
   midi.NoteOnEvent(tick=0, channel=2, data=[60, 75]),
   midi.NoteOffEvent(tick=239, channel=2, data=[53, 0]),
   midi.NoteOffEvent(tick=0, channel=2, data=[57, 0]),
   midi.NoteOffEvent(tick=0, channel=2, data=[60, 0]),
   midi.NoteOnEvent(tick=241, channel=2, data=[53, 75]),
   midi.NoteOnEvent(tick=0, channel=2, data=[57, 75]),
   midi.NoteOnEvent(tick=0, channel=2, data=[60, 75]),
   midi.NoteOffEvent(tick=239, channel=2, data=[53, 0]),
   midi.NoteOffEvent(tick=0, channel=2, data=[57, 0]),
   midi.NoteOffEvent(tick=0, channel=2, data=[60, 0]),
   midi.NoteOnEvent(tick=241, channel=1, data=[36, 80]),
   midi.NoteOffEvent(tick=239, channel=1, data=[36, 0]),
   midi.NoteOnEvent(tick=241, channel=2, data=[48, 75]),
   midi.NoteOnEvent(tick=0, channel=2, data=[52, 75]),
   midi.NoteOnEvent(tick=0, channel=2, data=[55, 75]),
   midi.NoteOffEvent(tick=239, channel=2, data=[48, 0]),
   midi.NoteOffEvent(tick=0, channel=2, data=[52, 0]),
   midi.NoteOffEvent(tick=0, channel=2, data=[55, 0]),
   midi.NoteOnEvent(tick=241, channel=2, data=[48, 75]),
   midi.NoteOnEvent(tick=0, channel=2, data=[52, 75]),
   midi.NoteOnEvent(tick=0, channel=2, data=[55, 75]),
   midi.NoteOffEvent(tick=239, channel=2, data=[48, 0]),
   midi.NoteOffEvent(tick=0, channel=2, data=[52, 0]),
   midi.NoteOffEvent(tick=0, channel=2, data=[55, 0]),
   midi.NoteOnEvent(tick=241, channel=1, data=[46, 80]),
   midi.NoteOffEvent(tick=239, channel=1, data=[46, 0]),
   midi.NoteOnEvent(tick=241, channel=2, data=[58, 75]),
   midi.NoteOnEvent(tick=0, channel=2, data=[62, 75]),
   midi.NoteOnEvent(tick=0, channel=2, data=[65, 75]),
   midi.NoteOffEvent(tick=239, channel=2, data=[58, 0]),
   midi.NoteOffEvent(tick=0, channel=2, data=[62, 0]),
   midi.NoteOffEvent(tick=0, channel=2, data=[65, 0]),
   midi.NoteOnEvent(tick=241, channel=2, data=[58, 75]),
   midi.NoteOnEvent(tick=0, channel=2, data=[62, 75]),
   midi.NoteOnEvent(tick=0, channel=2, data=[65, 75]),
   midi.NoteOffEvent(tick=239, channel=2, data=[58, 0]),
   midi.NoteOffEvent(tick=0, channel=2, data=[62, 0]),
   midi.NoteOffEvent(tick=0, channel=2, data=[65, 0]),
   midi.TimeSignatureEvent(tick=0, data=[2, 2, 24, 8]),
   midi.NoteOnEvent(tick=241, channel=1, data=[41, 80]),
   midi.NoteOffEvent(tick=119, channel=1, data=[41, 0]),
   midi.NoteOnEvent(tick=121, channel=2, data=[53, 75]),
   midi.NoteOnEvent(tick=0, channel=2, data=[57, 75]),
   midi.NoteOnEvent(tick=0, channel=2, data=[60, 75]),
   midi.NoteOffEvent(tick=119, channel=2, data=[53, 0]),
   midi.NoteOffEvent(tick=0, channel=2, data=[57, 0]),
   midi.NoteOffEvent(tick=0, channel=2, data=[60, 0]),
   midi.NoteOnEvent(tick=121, channel=1, data=[41, 80]),
   midi.NoteOffEvent(tick=119, channel=1, data=[41, 0]),
   midi.NoteOnEvent(tick=121, channel=2, data=[53, 75]),
   midi.NoteOnEvent(tick=0, channel=2, data=[57, 75]),
   midi.NoteOnEvent(tick=0, channel=2, data=[60, 75]),
   midi.NoteOffEvent(tick=119, channel=2, data=[53, 0]),
   midi.NoteOffEvent(tick=0, channel=2, data=[57, 0]),
   midi.NoteOffEvent(tick=0, channel=2, data=[60, 0]),
   midi.TimeSignatureEvent(tick=0, data=[3, 2, 18, 8]),
   midi.NoteOnEvent(tick=121, channel=1, data=[43, 80]),
   midi.NoteOffEvent(tick=239, channel=1, data=[43, 0]),
   midi.NoteOnEvent(tick=241, channel=2, data=[55, 75]),
   midi.NoteOnEvent(tick=0, channel=2, data=[59, 75]),
   midi.NoteOnEvent(tick=0, channel=2, data=[62, 75]),
   midi.NoteOffEvent(tick=239, channel=2, data=[55, 0]),
   midi.NoteOffEvent(tick=0, channel=2, data=[59, 0]),
   midi.NoteOffEvent(tick=0, channel=2, data=[62, 0]),
   midi.NoteOnEvent(tick=241, channel=2, data=[55, 75]),
   midi.NoteOnEvent(tick=0, channel=2, data=[59, 75]),
   midi.NoteOnEvent(tick=0, channel=2, data=[62, 75]),
   midi.NoteOffEvent(tick=239, channel=2, data=[55, 0]),
   midi.NoteOffEvent(tick=0, channel=2, data=[59, 0]),
   midi.NoteOffEvent(tick=0, channel=2, data=[62, 0]),
   midi.NoteOnEvent(tick=241, channel=1, data=[36, 80]),
   midi.NoteOffEvent(tick=239, channel=1, data=[36, 0]),
   midi.NoteOnEvent(tick=241, channel=2, data=[48, 75]),
   midi.NoteOnEvent(tick=0, channel=2, data=[52, 75]),
   midi.NoteOnEvent(tick=0, channel=2, data=[55, 75]),
   midi.NoteOffEvent(tick=239, channel=2, data=[48, 0]),
   midi.NoteOffEvent(tick=0, channel=2, data=[52, 0]),
   midi.NoteOffEvent(tick=0, channel=2, data=[55, 0]),
   midi.NoteOnEvent(tick=241, channel=2, data=[48, 75]),
   midi.NoteOnEvent(tick=0, channel=2, data=[52, 75]),
   midi.NoteOnEvent(tick=0, channel=2, data=[55, 75]),
   midi.NoteOffEvent(tick=239, channel=2, data=[48, 0]),
   midi.NoteOffEvent(tick=0, channel=2, data=[52, 0]),
   midi.NoteOffEvent(tick=0, channel=2, data=[55, 0]),
   midi.NoteOnEvent(tick=241, channel=1, data=[46, 80]),
   midi.NoteOffEvent(tick=239, channel=1, data=[46, 0]),
   midi.NoteOnEvent(tick=241, channel=2, data=[58, 75]),
   midi.NoteOnEvent(tick=0, channel=2, data=[62, 75]),
   midi.NoteOnEvent(tick=0, channel=2, data=[65, 75]),
   midi.NoteOffEvent(tick=239, channel=2, data=[58, 0]),
   midi.NoteOffEvent(tick=0, channel=2, data=[62, 0]),
   midi.NoteOffEvent(tick=0, channel=2, data=[65, 0]),
   midi.NoteOnEvent(tick=241, channel=2, data=[58, 75]),
   midi.NoteOnEvent(tick=0, channel=2, data=[62, 75]),
   midi.NoteOnEvent(tick=0, channel=2, data=[65, 75]),
   midi.NoteOffEvent(tick=239, channel=2, data=[58, 0]),
   midi.NoteOffEvent(tick=0, channel=2, data=[62, 0]),
   midi.NoteOffEvent(tick=0, channel=2, data=[65, 0]),
   midi.NoteOnEvent(tick=241, channel=1, data=[41, 80]),
   midi.NoteOffEvent(tick=239, channel=1, data=[41, 0]),
   midi.NoteOnEvent(tick=241, channel=2, data=[53, 75]),
   midi.NoteOnEvent(tick=0, channel=2, data=[57, 75]),
   midi.NoteOnEvent(tick=0, channel=2, data=[60, 75]),
   midi.NoteOffEvent(tick=239, channel=2, data=[53, 0]),
   midi.NoteOffEvent(tick=0, channel=2, data=[57, 0]),
   midi.NoteOffEvent(tick=0, channel=2, data=[60, 0]),
   midi.NoteOnEvent(tick=241, channel=2, data=[53, 75]),
   midi.NoteOnEvent(tick=0, channel=2, data=[57, 75]),
   midi.NoteOnEvent(tick=0, channel=2, data=[60, 75]),
   midi.NoteOffEvent(tick=239, channel=2, data=[53, 0]),
   midi.NoteOffEvent(tick=0, channel=2, data=[57, 0]),
   midi.NoteOffEvent(tick=0, channel=2, data=[60, 0]),
   midi.NoteOnEvent(tick=241, channel=1, data=[41, 80]),
   midi.NoteOffEvent(tick=239, channel=1, data=[41, 0]),
   midi.NoteOnEvent(tick=241, channel=2, data=[53, 75]),
   midi.NoteOnEvent(tick=0, channel=2, data=[57, 75]),
   midi.NoteOnEvent(tick=0, channel=2, data=[60, 75]),
   midi.NoteOffEvent(tick=239, channel=2, data=[53, 0]),
   midi.NoteOffEvent(tick=0, channel=2, data=[57, 0]),
   midi.NoteOffEvent(tick=0, channel=2, data=[60, 0]),
   midi.NoteOnEvent(tick=241, channel=2, data=[53, 75]),
   midi.NoteOnEvent(tick=0, channel=2, data=[57, 75]),
   midi.NoteOnEvent(tick=0, channel=2, data=[60, 75]),
   midi.NoteOffEvent(tick=239, channel=2, data=[53, 0]),
   midi.NoteOffEvent(tick=0, channel=2, data=[57, 0]),
   midi.NoteOffEvent(tick=0, channel=2, data=[60, 0]),
   midi.NoteOnEvent(tick=241, channel=1, data=[36, 80]),
   midi.NoteOffEvent(tick=239, channel=1, data=[36, 0]),
   midi.NoteOnEvent(tick=241, channel=2, data=[48, 75]),
   midi.NoteOnEvent(tick=0, channel=2, data=[52, 75]),
   midi.NoteOnEvent(tick=0, channel=2, data=[55, 75]),
   midi.NoteOffEvent(tick=239, channel=2, data=[48, 0]),
   midi.NoteOffEvent(tick=0, channel=2, data=[52, 0]),
   midi.NoteOffEvent(tick=0, channel=2, data=[55, 0]),
   midi.NoteOnEvent(tick=241, channel=2, data=[48, 75]),
   midi.NoteOnEvent(tick=0, channel=2, data=[52, 75]),
   midi.NoteOnEvent(tick=0, channel=2, data=[55, 75]),
   midi.NoteOffEvent(tick=239, channel=2, data=[48, 0]),
   midi.NoteOffEvent(tick=0, channel=2, data=[52, 0]),
   midi.NoteOffEvent(tick=0, channel=2, data=[55, 0]),
   midi.NoteOnEvent(tick=241, channel=1, data=[46, 80]),
   midi.NoteOffEvent(tick=239, channel=1, data=[46, 0]),
   midi.NoteOnEvent(tick=241, channel=2, data=[58, 75]),
   midi.NoteOnEvent(tick=0, channel=2, data=[62, 75]),
   midi.NoteOnEvent(tick=0, channel=2, data=[65, 75]),
   midi.NoteOffEvent(tick=239, channel=2, data=[58, 0]),
   midi.NoteOffEvent(tick=0, channel=2, data=[62, 0]),
   midi.NoteOffEvent(tick=0, channel=2, data=[65, 0]),
   midi.NoteOnEvent(tick=241, channel=2, data=[58, 75]),
   midi.NoteOnEvent(tick=0, channel=2, data=[62, 75]),
   midi.NoteOnEvent(tick=0, channel=2, data=[65, 75]),
   midi.NoteOffEvent(tick=239, channel=2, data=[58, 0]),
   midi.NoteOffEvent(tick=0, channel=2, data=[62, 0]),
   midi.NoteOffEvent(tick=0, channel=2, data=[65, 0]),
   midi.TimeSignatureEvent(tick=0, data=[2, 2, 24, 8]),
   midi.NoteOnEvent(tick=241, channel=1, data=[41, 80]),
   midi.NoteOffEvent(tick=119, channel=1, data=[41, 0]),
   midi.NoteOnEvent(tick=121, channel=2, data=[53, 75]),
   midi.NoteOnEvent(tick=0, channel=2, data=[57, 75]),
   midi.NoteOnEvent(tick=0, channel=2, data=[60, 75]),
   midi.NoteOffEvent(tick=119, channel=2, data=[53, 0]),
   midi.NoteOffEvent(tick=0, channel=2, data=[57, 0]),
   midi.NoteOffEvent(tick=0, channel=2, data=[60, 0]),
   midi.NoteOnEvent(tick=121, channel=1, data=[41, 80]),
   midi.NoteOffEvent(tick=119, channel=1, data=[41, 0]),
   midi.NoteOnEvent(tick=121, channel=2, data=[53, 75]),
   midi.NoteOnEvent(tick=0, channel=2, data=[57, 75]),
   midi.NoteOnEvent(tick=0, channel=2, data=[60, 75]),
   midi.NoteOffEvent(tick=119, channel=2, data=[53, 0]),
   midi.NoteOffEvent(tick=0, channel=2, data=[57, 0]),
   midi.NoteOffEvent(tick=0, channel=2, data=[60, 0]),
   midi.TimeSignatureEvent(tick=0, data=[3, 2, 18, 8]),
   midi.NoteOnEvent(tick=121, channel=1, data=[43, 80]),
   midi.NoteOffEvent(tick=239, channel=1, data=[43, 0]),
   midi.NoteOnEvent(tick=241, channel=2, data=[55, 75]),
   midi.NoteOnEvent(tick=0, channel=2, data=[59, 75]),
   midi.NoteOnEvent(tick=0, channel=2, data=[62, 75]),
   midi.NoteOffEvent(tick=239, channel=2, data=[55, 0]),
   midi.NoteOffEvent(tick=0, channel=2, data=[59, 0]),
   midi.NoteOffEvent(tick=0, channel=2, data=[62, 0]),
   midi.NoteOnEvent(tick=241, channel=2, data=[55, 75]),
   midi.NoteOnEvent(tick=0, channel=2, data=[59, 75]),
   midi.NoteOnEvent(tick=0, channel=2, data=[62, 75]),
   midi.NoteOffEvent(tick=239, channel=2, data=[55, 0]),
   midi.NoteOffEvent(tick=0, channel=2, data=[59, 0]),
   midi.NoteOffEvent(tick=0, channel=2, data=[62, 0]),
   midi.EndOfTrackEvent(tick=266, data=[])])])
midi.Pattern(format=1, resolution=480, tracks=\
[midi.Track(\
  [midi.SetTempoEvent(tick=0, data=[7, 161, 32]),
   midi.KeySignatureEvent(tick=0, data=[1, 0]),
   midi.TimeSignatureEvent(tick=0, data=[3, 2, 18, 8]),
   midi.TrackNameEvent(tick=0, text="A and A's Waltz", data=[65, 32, 97, 110, 100, 32, 65, 39, 115, 32, 87, 97, 108, 116, 122]),
   midi.EndOfTrackEvent(tick=33625, data=[])]),
 midi.Track(\
  [midi.TrackNameEvent(tick=0, text="A and A's Waltz", data=[65, 32, 97, 110, 100, 32, 65, 39, 115, 32, 87, 97, 108, 116, 122]),
   midi.TextMetaEvent(tick=0, text=' Nottingham Music Database', data=[32, 78, 111, 116, 116, 105, 110, 103, 104, 97, 109, 32, 77, 117, 115, 105, 99, 32, 68, 97, 116, 97, 98, 97, 115, 101]),
   midi.TextMetaEvent(tick=0, text='S:Mick Peat', data=[83, 58, 77, 105, 99, 107, 32, 80, 101, 97, 116]),
   midi.NoteOnEvent(tick=0, channel=0, data=[76, 105]),
   midi.NoteOffEvent(tick=479, channel=0, data=[76, 0]),
   midi.NoteOnEvent(tick=1, channel=0, data=[74, 105]),
   midi.NoteOffEvent(tick=959, channel=0, data=[74, 0]),
   midi.NoteOnEvent(tick=1, channel=0, data=[71, 80]),
   midi.NoteOffEvent(tick=479, channel=0, data=[71, 0]),
   midi.NoteOnEvent(tick=1, channel=0, data=[69, 105]),
   midi.NoteOffEvent(tick=719, channel=0, data=[69, 0]),
   midi.NoteOnEvent(tick=1, channel=0, data=[71, 80]),
   midi.NoteOffEvent(tick=239, channel=0, data=[71, 0]),
   midi.NoteOnEvent(tick=1, channel=0, data=[72, 80]),
   midi.NoteOffEvent(tick=479, channel=0, data=[72, 0]),
   midi.NoteOnEvent(tick=1, channel=0, data=[71, 105]),
   midi.NoteOffEvent(tick=959, channel=0, data=[71, 0]),
   midi.NoteOnEvent(tick=1, channel=0, data=[67, 80]),
   midi.NoteOffEvent(tick=479, channel=0, data=[67, 0]),
   midi.NoteOnEvent(tick=1, channel=0, data=[69, 105]),
   midi.NoteOffEvent(tick=959, channel=0, data=[69, 0]),
   midi.NoteOnEvent(tick=1, channel=0, data=[76, 80]),
   midi.NoteOffEvent(tick=479, channel=0, data=[76, 0]),
   midi.NoteOnEvent(tick=1, channel=0, data=[74, 105]),
   midi.NoteOffEvent(tick=959, channel=0, data=[74, 0]),
   midi.NoteOnEvent(tick=1, channel=0, data=[71, 80]),
   midi.NoteOffEvent(tick=479, channel=0, data=[71, 0]),
   midi.NoteOnEvent(tick=1, channel=0, data=[69, 105]),
   midi.NoteOffEvent(tick=719, channel=0, data=[69, 0]),
   midi.NoteOnEvent(tick=1, channel=0, data=[71, 80]),
   midi.NoteOffEvent(tick=239, channel=0, data=[71, 0]),
   midi.NoteOnEvent(tick=1, channel=0, data=[72, 80]),
   midi.NoteOffEvent(tick=479, channel=0, data=[72, 0]),
   midi.TimeSignatureEvent(tick=0, data=[2, 2, 24, 8]),
   midi.NoteOnEvent(tick=1, channel=0, data=[71, 105]),
   midi.NoteOffEvent(tick=479, channel=0, data=[71, 0]),
   midi.NoteOnEvent(tick=1, channel=0, data=[65, 80]),
   midi.NoteOffEvent(tick=479, channel=0, data=[65, 0]),
   midi.TimeSignatureEvent(tick=0, data=[3, 2, 18, 8]),
   midi.NoteOnEvent(tick=1, channel=0, data=[67, 105]),
   midi.NoteOffEvent(tick=959, channel=0, data=[67, 0]),
   midi.NoteOnEvent(tick=1, channel=0, data=[76, 80]),
   midi.NoteOffEvent(tick=479, channel=0, data=[76, 0]),
   midi.TextMetaEvent(tick=0, text=' Nottingham Music Database', data=[32, 78, 111, 116, 116, 105, 110, 103, 104, 97, 109, 32, 77, 117, 115, 105, 99, 32, 68, 97, 116, 97, 98, 97, 115, 101]),
   midi.TextMetaEvent(tick=0, text='S:Mick Peat', data=[83, 58, 77, 105, 99, 107, 32, 80, 101, 97, 116]),
   midi.NoteOnEvent(tick=1, channel=0, data=[76, 105]),
   midi.NoteOffEvent(tick=479, channel=0, data=[76, 0]),
   midi.NoteOnEvent(tick=1, channel=0, data=[74, 105]),
   midi.NoteOffEvent(tick=959, channel=0, data=[74, 0]),
   midi.NoteOnEvent(tick=1, channel=0, data=[71, 80]),
   midi.NoteOffEvent(tick=479, channel=0, data=[71, 0]),
   midi.NoteOnEvent(tick=1, channel=0, data=[69, 105]),
   midi.NoteOffEvent(tick=719, channel=0, data=[69, 0]),
   midi.NoteOnEvent(tick=1, channel=0, data=[71, 80]),
   midi.NoteOffEvent(tick=239, channel=0, data=[71, 0]),
   midi.NoteOnEvent(tick=1, channel=0, data=[72, 80]),
   midi.NoteOffEvent(tick=479, channel=0, data=[72, 0]),
   midi.NoteOnEvent(tick=1, channel=0, data=[71, 105]),
   midi.NoteOffEvent(tick=959, channel=0, data=[71, 0]),
   midi.NoteOnEvent(tick=1, channel=0, data=[67, 80]),
   midi.NoteOffEvent(tick=479, channel=0, data=[67, 0]),
   midi.NoteOnEvent(tick=1, channel=0, data=[69, 105]),
   midi.NoteOffEvent(tick=959, channel=0, data=[69, 0]),
   midi.NoteOnEvent(tick=1, channel=0, data=[76, 80]),
   midi.NoteOffEvent(tick=479, channel=0, data=[76, 0]),
   midi.NoteOnEvent(tick=1, channel=0, data=[74, 105]),
   midi.NoteOffEvent(tick=959, channel=0, data=[74, 0]),
   midi.NoteOnEvent(tick=1, channel=0, data=[71, 80]),
   midi.NoteOffEvent(tick=479, channel=0, data=[71, 0]),
   midi.NoteOnEvent(tick=1, channel=0, data=[69, 105]),
   midi.NoteOffEvent(tick=719, channel=0, data=[69, 0]),
   midi.NoteOnEvent(tick=1, channel=0, data=[71, 80]),
   midi.NoteOffEvent(tick=239, channel=0, data=[71, 0]),
   midi.NoteOnEvent(tick=1, channel=0, data=[72, 80]),
   midi.NoteOffEvent(tick=479, channel=0, data=[72, 0]),
   midi.TimeSignatureEvent(tick=0, data=[2, 2, 24, 8]),
   midi.NoteOnEvent(tick=1, channel=0, data=[71, 105]),
   midi.NoteOffEvent(tick=479, channel=0, data=[71, 0]),
   midi.NoteOnEvent(tick=1, channel=0, data=[65, 80]),
   midi.NoteOffEvent(tick=479, channel=0, data=[65, 0]),
   midi.TimeSignatureEvent(tick=0, data=[3, 2, 18, 8]),
   midi.NoteOnEvent(tick=1, channel=0, data=[67, 105]),
   midi.NoteOffEvent(tick=959, channel=0, data=[67, 0]),
   midi.NoteOnEvent(tick=1, channel=0, data=[76, 80]),
   midi.NoteOffEvent(tick=479, channel=0, data=[76, 0]),
   midi.NoteOnEvent(tick=1, channel=0, data=[79, 105]),
   midi.NoteOffEvent(tick=959, channel=0, data=[79, 0]),
   midi.NoteOnEvent(tick=1, channel=0, data=[76, 80]),
   midi.NoteOffEvent(tick=479, channel=0, data=[76, 0]),
   midi.NoteOnEvent(tick=1, channel=0, data=[77, 105]),
   midi.NoteOffEvent(tick=959, channel=0, data=[77, 0]),
   midi.NoteOnEvent(tick=1, channel=0, data=[74, 80]),
   midi.NoteOffEvent(tick=479, channel=0, data=[74, 0]),
   midi.NoteOnEvent(tick=1, channel=0, data=[72, 105]),
   midi.NoteOffEvent(tick=959, channel=0, data=[72, 0]),
   midi.NoteOnEvent(tick=1, channel=0, data=[69, 80]),
   midi.NoteOffEvent(tick=479, channel=0, data=[69, 0]),
   midi.NoteOnEvent(tick=1, channel=0, data=[65, 105]),
   midi.NoteOffEvent(tick=959, channel=0, data=[65, 0]),
   midi.NoteOnEvent(tick=1, channel=0, data=[76, 80]),
   midi.NoteOffEvent(tick=479, channel=0, data=[76, 0]),
   midi.NoteOnEvent(tick=1, channel=0, data=[79, 105]),
   midi.NoteOffEvent(tick=959, channel=0, data=[79, 0]),
   midi.NoteOnEvent(tick=1, channel=0, data=[76, 80]),
   midi.NoteOffEvent(tick=479, channel=0, data=[76, 0]),
   midi.NoteOnEvent(tick=1, channel=0, data=[77, 105]),
   midi.NoteOffEvent(tick=959, channel=0, data=[77, 0]),
   midi.NoteOnEvent(tick=1, channel=0, data=[74, 80]),
   midi.NoteOffEvent(tick=479, channel=0, data=[74, 0]),
   midi.TimeSignatureEvent(tick=0, data=[2, 2, 24, 8]),
   midi.NoteOnEvent(tick=1, channel=0, data=[72, 105]),
   midi.NoteOffEvent(tick=479, channel=0, data=[72, 0]),
   midi.NoteOnEvent(tick=1, channel=0, data=[69, 80]),
   midi.NoteOffEvent(tick=479, channel=0, data=[69, 0]),
   midi.TimeSignatureEvent(tick=0, data=[3, 2, 18, 8]),
   midi.NoteOnEvent(tick=1, channel=0, data=[67, 105]),
   midi.NoteOffEvent(tick=959, channel=0, data=[67, 0]),
   midi.NoteOnEvent(tick=1, channel=0, data=[76, 80]),
   midi.NoteOffEvent(tick=479, channel=0, data=[76, 0]),
   midi.NoteOnEvent(tick=1, channel=0, data=[79, 105]),
   midi.NoteOffEvent(tick=959, channel=0, data=[79, 0]),
   midi.NoteOnEvent(tick=1, channel=0, data=[76, 80]),
   midi.NoteOffEvent(tick=479, channel=0, data=[76, 0]),
   midi.NoteOnEvent(tick=1, channel=0, data=[77, 105]),
   midi.NoteOffEvent(tick=959, channel=0, data=[77, 0]),
   midi.NoteOnEvent(tick=1, channel=0, data=[74, 80]),
   midi.NoteOffEvent(tick=479, channel=0, data=[74, 0]),
   midi.NoteOnEvent(tick=1, channel=0, data=[72, 105]),
   midi.NoteOffEvent(tick=959, channel=0, data=[72, 0]),
   midi.NoteOnEvent(tick=1, channel=0, data=[69, 80]),
   midi.NoteOffEvent(tick=479, channel=0, data=[69, 0]),
   midi.NoteOnEvent(tick=1, channel=0, data=[65, 105]),
   midi.NoteOffEvent(tick=959, channel=0, data=[65, 0]),
   midi.NoteOnEvent(tick=1, channel=0, data=[76, 80]),
   midi.NoteOffEvent(tick=479, channel=0, data=[76, 0]),
   midi.NoteOnEvent(tick=1, channel=0, data=[79, 105]),
   midi.NoteOffEvent(tick=959, channel=0, data=[79, 0]),
   midi.NoteOnEvent(tick=1, channel=0, data=[76, 80]),
   midi.NoteOffEvent(tick=479, channel=0, data=[76, 0]),
   midi.NoteOnEvent(tick=1, channel=0, data=[77, 105]),
   midi.NoteOffEvent(tick=959, channel=0, data=[77, 0]),
   midi.NoteOnEvent(tick=1, channel=0, data=[74, 80]),
   midi.NoteOffEvent(tick=479, channel=0, data=[74, 0]),
   midi.TimeSignatureEvent(tick=0, data=[2, 2, 24, 8]),
   midi.NoteOnEvent(tick=1, channel=0, data=[72, 105]),
   midi.NoteOffEvent(tick=479, channel=0, data=[72, 0]),
   midi.NoteOnEvent(tick=1, channel=0, data=[69, 80]),
   midi.NoteOffEvent(tick=479, channel=0, data=[69, 0]),
   midi.TimeSignatureEvent(tick=0, data=[3, 2, 18, 8]),
   midi.NoteOnEvent(tick=1, channel=0, data=[67, 105]),
   midi.NoteOffEvent(tick=959, channel=0, data=[67, 0]),
   midi.EndOfTrackEvent(tick=506, data=[])]),
 midi.Track(\
  [midi.TextMetaEvent(tick=0, text=' Nottingham Music Database', data=[32, 78, 111, 116, 116, 105, 110, 103, 104, 97, 109, 32, 77, 117, 115, 105, 99, 32, 68, 97, 116, 97, 98, 97, 115, 101]),
   midi.TextMetaEvent(tick=0, text='S:Mick Peat', data=[83, 58, 77, 105, 99, 107, 32, 80, 101, 97, 116]),
   midi.NoteOnEvent(tick=480, channel=2, data=[55, 75]),
   midi.NoteOnEvent(tick=0, channel=2, data=[59, 75]),
   midi.NoteOnEvent(tick=0, channel=2, data=[62, 75]),
   midi.NoteOffEvent(tick=1439, channel=2, data=[55, 0]),
   midi.NoteOffEvent(tick=0, channel=2, data=[59, 0]),
   midi.NoteOffEvent(tick=0, channel=2, data=[62, 0]),
   midi.NoteOnEvent(tick=1, channel=2, data=[50, 75]),
   midi.NoteOnEvent(tick=0, channel=2, data=[54, 75]),
   midi.NoteOnEvent(tick=0, channel=2, data=[57, 75]),
   midi.NoteOffEvent(tick=1439, channel=2, data=[50, 0]),
   midi.NoteOffEvent(tick=0, channel=2, data=[54, 0]),
   midi.NoteOffEvent(tick=0, channel=2, data=[57, 0]),
   midi.NoteOnEvent(tick=1, channel=2, data=[55, 75]),
   midi.NoteOnEvent(tick=0, channel=2, data=[59, 75]),
   midi.NoteOnEvent(tick=0, channel=2, data=[62, 75]),
   midi.NoteOffEvent(tick=1439, channel=2, data=[55, 0]),
   midi.NoteOffEvent(tick=0, channel=2, data=[59, 0]),
   midi.NoteOffEvent(tick=0, channel=2, data=[62, 0]),
   midi.NoteOnEvent(tick=1, channel=2, data=[50, 75]),
   midi.NoteOnEvent(tick=0, channel=2, data=[54, 75]),
   midi.NoteOnEvent(tick=0, channel=2, data=[57, 75]),
   midi.NoteOffEvent(tick=1439, channel=2, data=[50, 0]),
   midi.NoteOffEvent(tick=0, channel=2, data=[54, 0]),
   midi.NoteOffEvent(tick=0, channel=2, data=[57, 0]),
   midi.NoteOnEvent(tick=1, channel=2, data=[55, 75]),
   midi.NoteOnEvent(tick=0, channel=2, data=[59, 75]),
   midi.NoteOnEvent(tick=0, channel=2, data=[62, 75]),
   midi.NoteOffEvent(tick=1439, channel=2, data=[55, 0]),
   midi.NoteOffEvent(tick=0, channel=2, data=[59, 0]),
   midi.NoteOffEvent(tick=0, channel=2, data=[62, 0]),
   midi.NoteOnEvent(tick=1, channel=2, data=[50, 75]),
   midi.NoteOnEvent(tick=0, channel=2, data=[54, 75]),
   midi.NoteOnEvent(tick=0, channel=2, data=[57, 75]),
   midi.NoteOffEvent(tick=1439, channel=2, data=[50, 0]),
   midi.NoteOffEvent(tick=0, channel=2, data=[54, 0]),
   midi.NoteOffEvent(tick=0, channel=2, data=[57, 0]),
   midi.TimeSignatureEvent(tick=0, data=[2, 2, 24, 8]),
   midi.NoteOnEvent(tick=1, channel=1, data=[41, 80]),
   midi.NoteOffEvent(tick=119, channel=1, data=[41, 0]),
   midi.NoteOnEvent(tick=121, channel=2, data=[53, 75]),
   midi.NoteOnEvent(tick=0, channel=2, data=[57, 75]),
   midi.NoteOnEvent(tick=0, channel=2, data=[60, 75]),
   midi.NoteOffEvent(tick=119, channel=2, data=[53, 0]),
   midi.NoteOffEvent(tick=0, channel=2, data=[57, 0]),
   midi.NoteOffEvent(tick=0, channel=2, data=[60, 0]),
   midi.NoteOnEvent(tick=121, channel=1, data=[41, 80]),
   midi.NoteOffEvent(tick=119, channel=1, data=[41, 0]),
   midi.NoteOnEvent(tick=121, channel=2, data=[53, 75]),
   midi.NoteOnEvent(tick=0, channel=2, data=[57, 75]),
   midi.NoteOnEvent(tick=0, channel=2, data=[60, 75]),
   midi.NoteOffEvent(tick=119, channel=2, data=[53, 0]),
   midi.NoteOffEvent(tick=0, channel=2, data=[57, 0]),
   midi.NoteOffEvent(tick=0, channel=2, data=[60, 0]),
   midi.TimeSignatureEvent(tick=0, data=[3, 2, 18, 8]),
   midi.NoteOnEvent(tick=121, channel=1, data=[43, 80]),
   midi.NoteOffEvent(tick=239, channel=1, data=[43, 0]),
   midi.NoteOnEvent(tick=241, channel=2, data=[55, 75]),
   midi.NoteOnEvent(tick=0, channel=2, data=[59, 75]),
   midi.NoteOnEvent(tick=0, channel=2, data=[62, 75]),
   midi.NoteOffEvent(tick=239, channel=2, data=[55, 0]),
   midi.NoteOffEvent(tick=0, channel=2, data=[59, 0]),
   midi.NoteOffEvent(tick=0, channel=2, data=[62, 0]),
   midi.NoteOnEvent(tick=241, channel=2, data=[55, 75]),
   midi.NoteOnEvent(tick=0, channel=2, data=[59, 75]),
   midi.NoteOnEvent(tick=0, channel=2, data=[62, 75]),
   midi.NoteOffEvent(tick=239, channel=2, data=[55, 0]),
   midi.NoteOffEvent(tick=0, channel=2, data=[59, 0]),
   midi.NoteOffEvent(tick=0, channel=2, data=[62, 0]),
   midi.TextMetaEvent(tick=0, text=' Nottingham Music Database', data=[32, 78, 111, 116, 116, 105, 110, 103, 104, 97, 109, 32, 77, 117, 115, 105, 99, 32, 68, 97, 116, 97, 98, 97, 115, 101]),
   midi.TextMetaEvent(tick=0, text='S:Mick Peat', data=[83, 58, 77, 105, 99, 107, 32, 80, 101, 97, 116]),
   midi.NoteOnEvent(tick=241, channel=2, data=[55, 75]),
   midi.NoteOnEvent(tick=0, channel=2, data=[59, 75]),
   midi.NoteOnEvent(tick=0, channel=2, data=[62, 75]),
   midi.NoteOnEvent(tick=480, channel=2, data=[55, 75]),
   midi.NoteOnEvent(tick=0, channel=2, data=[59, 75]),
   midi.NoteOnEvent(tick=0, channel=2, data=[62, 75]),
   midi.NoteOffEvent(tick=949, channel=2, data=[55, 0]),
   midi.NoteOffEvent(tick=0, channel=2, data=[59, 0]),
   midi.NoteOffEvent(tick=0, channel=2, data=[62, 0]),
   midi.NoteOffEvent(tick=490, channel=2, data=[55, 0]),
   midi.NoteOffEvent(tick=0, channel=2, data=[59, 0]),
   midi.NoteOffEvent(tick=0, channel=2, data=[62, 0]),
   midi.NoteOnEvent(tick=1, channel=2, data=[50, 75]),
   midi.NoteOnEvent(tick=0, channel=2, data=[54, 75]),
   midi.NoteOnEvent(tick=0, channel=2, data=[57, 75]),
   midi.NoteOffEvent(tick=1439, channel=2, data=[50, 0]),
   midi.NoteOffEvent(tick=0, channel=2, data=[54, 0]),
   midi.NoteOffEvent(tick=0, channel=2, data=[57, 0]),
   midi.NoteOnEvent(tick=1, channel=2, data=[55, 75]),
   midi.NoteOnEvent(tick=0, channel=2, data=[59, 75]),
   midi.NoteOnEvent(tick=0, channel=2, data=[62, 75]),
   midi.NoteOffEvent(tick=1439, channel=2, data=[55, 0]),
   midi.NoteOffEvent(tick=0, channel=2, data=[59, 0]),
   midi.NoteOffEvent(tick=0, channel=2, data=[62, 0]),
   midi.NoteOnEvent(tick=1, channel=2, data=[50, 75]),
   midi.NoteOnEvent(tick=0, channel=2, data=[54, 75]),
   midi.NoteOnEvent(tick=0, channel=2, data=[57, 75]),
   midi.NoteOffEvent(tick=1439, channel=2, data=[50, 0]),
   midi.NoteOffEvent(tick=0, channel=2, data=[54, 0]),
   midi.NoteOffEvent(tick=0, channel=2, data=[57, 0]),
   midi.NoteOnEvent(tick=1, channel=2, data=[55, 75]),
   midi.NoteOnEvent(tick=0, channel=2, data=[59, 75]),
   midi.NoteOnEvent(tick=0, channel=2, data=[62, 75]),
   midi.NoteOffEvent(tick=1439, channel=2, data=[55, 0]),
   midi.NoteOffEvent(tick=0, channel=2, data=[59, 0]),
   midi.NoteOffEvent(tick=0, channel=2, data=[62, 0]),
   midi.NoteOnEvent(tick=1, channel=2, data=[50, 75]),
   midi.NoteOnEvent(tick=0, channel=2, data=[54, 75]),
   midi.NoteOnEvent(tick=0, channel=2, data=[57, 75]),
   midi.NoteOffEvent(tick=1439, channel=2, data=[50, 0]),
   midi.NoteOffEvent(tick=0, channel=2, data=[54, 0]),
   midi.NoteOffEvent(tick=0, channel=2, data=[57, 0]),
   midi.TimeSignatureEvent(tick=0, data=[2, 2, 24, 8]),
   midi.NoteOnEvent(tick=1, channel=1, data=[41, 80]),
   midi.NoteOffEvent(tick=119, channel=1, data=[41, 0]),
   midi.NoteOnEvent(tick=121, channel=2, data=[53, 75]),
   midi.NoteOnEvent(tick=0, channel=2, data=[57, 75]),
   midi.NoteOnEvent(tick=0, channel=2, data=[60, 75]),
   midi.NoteOffEvent(tick=119, channel=2, data=[53, 0]),
   midi.NoteOffEvent(tick=0, channel=2, data=[57, 0]),
   midi.NoteOffEvent(tick=0, channel=2, data=[60, 0]),
   midi.NoteOnEvent(tick=121, channel=1, data=[41, 80]),
   midi.NoteOffEvent(tick=119, channel=1, data=[41, 0]),
   midi.NoteOnEvent(tick=121, channel=2, data=[53, 75]),
   midi.NoteOnEvent(tick=0, channel=2, data=[57, 75]),
   midi.NoteOnEvent(tick=0, channel=2, data=[60, 75]),
   midi.NoteOffEvent(tick=119, channel=2, data=[53, 0]),
   midi.NoteOffEvent(tick=0, channel=2, data=[57, 0]),
   midi.NoteOffEvent(tick=0, channel=2, data=[60, 0]),
   midi.TimeSignatureEvent(tick=0, data=[3, 2, 18, 8]),
   midi.NoteOnEvent(tick=121, channel=1, data=[43, 80]),
   midi.NoteOffEvent(tick=239, channel=1, data=[43, 0]),
   midi.NoteOnEvent(tick=241, channel=2, data=[55, 75]),
   midi.NoteOnEvent(tick=0, channel=2, data=[59, 75]),
   midi.NoteOnEvent(tick=0, channel=2, data=[62, 75]),
   midi.NoteOffEvent(tick=239, channel=2, data=[55, 0]),
   midi.NoteOffEvent(tick=0, channel=2, data=[59, 0]),
   midi.NoteOffEvent(tick=0, channel=2, data=[62, 0]),
   midi.NoteOnEvent(tick=241, channel=2, data=[55, 75]),
   midi.NoteOnEvent(tick=0, channel=2, data=[59, 75]),
   midi.NoteOnEvent(tick=0, channel=2, data=[62, 75]),
   midi.NoteOffEvent(tick=239, channel=2, data=[55, 0]),
   midi.NoteOffEvent(tick=0, channel=2, data=[59, 0]),
   midi.NoteOffEvent(tick=0, channel=2, data=[62, 0]),
   midi.NoteOnEvent(tick=241, channel=1, data=[36, 80]),
   midi.NoteOffEvent(tick=239, channel=1, data=[36, 0]),
   midi.NoteOnEvent(tick=241, channel=2, data=[48, 75]),
   midi.NoteOnEvent(tick=0, channel=2, data=[52, 75]),
   midi.NoteOnEvent(tick=0, channel=2, data=[55, 75]),
   midi.NoteOffEvent(tick=239, channel=2, data=[48, 0]),
   midi.NoteOffEvent(tick=0, channel=2, data=[52, 0]),
   midi.NoteOffEvent(tick=0, channel=2, data=[55, 0]),
   midi.NoteOnEvent(tick=241, channel=2, data=[48, 75]),
   midi.NoteOnEvent(tick=0, channel=2, data=[52, 75]),
   midi.NoteOnEvent(tick=0, channel=2, data=[55, 75]),
   midi.NoteOffEvent(tick=239, channel=2, data=[48, 0]),
   midi.NoteOffEvent(tick=0, channel=2, data=[52, 0]),
   midi.NoteOffEvent(tick=0, channel=2, data=[55, 0]),
   midi.NoteOnEvent(tick=241, channel=1, data=[46, 80]),
   midi.NoteOffEvent(tick=239, channel=1, data=[46, 0]),
   midi.NoteOnEvent(tick=241, channel=2, data=[58, 75]),
   midi.NoteOnEvent(tick=0, channel=2, data=[62, 75]),
   midi.NoteOnEvent(tick=0, channel=2, data=[65, 75]),
   midi.NoteOffEvent(tick=239, channel=2, data=[58, 0]),
   midi.NoteOffEvent(tick=0, channel=2, data=[62, 0]),
   midi.NoteOffEvent(tick=0, channel=2, data=[65, 0]),
   midi.NoteOnEvent(tick=241, channel=2, data=[58, 75]),
   midi.NoteOnEvent(tick=0, channel=2, data=[62, 75]),
   midi.NoteOnEvent(tick=0, channel=2, data=[65, 75]),
   midi.NoteOffEvent(tick=239, channel=2, data=[58, 0]),
   midi.NoteOffEvent(tick=0, channel=2, data=[62, 0]),
   midi.NoteOffEvent(tick=0, channel=2, data=[65, 0]),
   midi.NoteOnEvent(tick=241, channel=1, data=[41, 80]),
   midi.NoteOffEvent(tick=239, channel=1, data=[41, 0]),
   midi.NoteOnEvent(tick=241, channel=2, data=[53, 75]),
   midi.NoteOnEvent(tick=0, channel=2, data=[57, 75]),
   midi.NoteOnEvent(tick=0, channel=2, data=[60, 75]),
   midi.NoteOffEvent(tick=239, channel=2, data=[53, 0]),
   midi.NoteOffEvent(tick=0, channel=2, data=[57, 0]),
   midi.NoteOffEvent(tick=0, channel=2, data=[60, 0]),
   midi.NoteOnEvent(tick=241, channel=2, data=[53, 75]),
   midi.NoteOnEvent(tick=0, channel=2, data=[57, 75]),
   midi.NoteOnEvent(tick=0, channel=2, data=[60, 75]),
   midi.NoteOffEvent(tick=239, channel=2, data=[53, 0]),
   midi.NoteOffEvent(tick=0, channel=2, data=[57, 0]),
   midi.NoteOffEvent(tick=0, channel=2, data=[60, 0]),
   midi.NoteOnEvent(tick=241, channel=1, data=[41, 80]),
   midi.NoteOffEvent(tick=239, channel=1, data=[41, 0]),
   midi.NoteOnEvent(tick=241, channel=2, data=[53, 75]),
   midi.NoteOnEvent(tick=0, channel=2, data=[57, 75]),
   midi.NoteOnEvent(tick=0, channel=2, data=[60, 75]),
   midi.NoteOffEvent(tick=239, channel=2, data=[53, 0]),
   midi.NoteOffEvent(tick=0, channel=2, data=[57, 0]),
   midi.NoteOffEvent(tick=0, channel=2, data=[60, 0]),
   midi.NoteOnEvent(tick=241, channel=2, data=[53, 75]),
   midi.NoteOnEvent(tick=0, channel=2, data=[57, 75]),
   midi.NoteOnEvent(tick=0, channel=2, data=[60, 75]),
   midi.NoteOffEvent(tick=239, channel=2, data=[53, 0]),
   midi.NoteOffEvent(tick=0, channel=2, data=[57, 0]),
   midi.NoteOffEvent(tick=0, channel=2, data=[60, 0]),
   midi.NoteOnEvent(tick=241, channel=1, data=[36, 80]),
   midi.NoteOffEvent(tick=239, channel=1, data=[36, 0]),
   midi.NoteOnEvent(tick=241, channel=2, data=[48, 75]),
   midi.NoteOnEvent(tick=0, channel=2, data=[52, 75]),
   midi.NoteOnEvent(tick=0, channel=2, data=[55, 75]),
   midi.NoteOffEvent(tick=239, channel=2, data=[48, 0]),
   midi.NoteOffEvent(tick=0, channel=2, data=[52, 0]),
   midi.NoteOffEvent(tick=0, channel=2, data=[55, 0]),
   midi.NoteOnEvent(tick=241, channel=2, data=[48, 75]),
   midi.NoteOnEvent(tick=0, channel=2, data=[52, 75]),
   midi.NoteOnEvent(tick=0, channel=2, data=[55, 75]),
   midi.NoteOffEvent(tick=239, channel=2, data=[48, 0]),
   midi.NoteOffEvent(tick=0, channel=2, data=[52, 0]),
   midi.NoteOffEvent(tick=0, channel=2, data=[55, 0]),
   midi.NoteOnEvent(tick=241, channel=1, data=[46, 80]),
   midi.NoteOffEvent(tick=239, channel=1, data=[46, 0]),
   midi.NoteOnEvent(tick=241, channel=2, data=[58, 75]),
   midi.NoteOnEvent(tick=0, channel=2, data=[62, 75]),
   midi.NoteOnEvent(tick=0, channel=2, data=[65, 75]),
   midi.NoteOffEvent(tick=239, channel=2, data=[58, 0]),
   midi.NoteOffEvent(tick=0, channel=2, data=[62, 0]),
   midi.NoteOffEvent(tick=0, channel=2, data=[65, 0]),
   midi.NoteOnEvent(tick=241, channel=2, data=[58, 75]),
   midi.NoteOnEvent(tick=0, channel=2, data=[62, 75]),
   midi.NoteOnEvent(tick=0, channel=2, data=[65, 75]),
   midi.NoteOffEvent(tick=239, channel=2, data=[58, 0]),
   midi.NoteOffEvent(tick=0, channel=2, data=[62, 0]),
   midi.NoteOffEvent(tick=0, channel=2, data=[65, 0]),
   midi.TimeSignatureEvent(tick=0, data=[2, 2, 24, 8]),
   midi.NoteOnEvent(tick=241, channel=1, data=[41, 80]),
   midi.NoteOffEvent(tick=119, channel=1, data=[41, 0]),
   midi.NoteOnEvent(tick=121, channel=2, data=[53, 75]),
   midi.NoteOnEvent(tick=0, channel=2, data=[57, 75]),
   midi.NoteOnEvent(tick=0, channel=2, data=[60, 75]),
   midi.NoteOffEvent(tick=119, channel=2, data=[53, 0]),
   midi.NoteOffEvent(tick=0, channel=2, data=[57, 0]),
   midi.NoteOffEvent(tick=0, channel=2, data=[60, 0]),
   midi.NoteOnEvent(tick=121, channel=1, data=[41, 80]),
   midi.NoteOffEvent(tick=119, channel=1, data=[41, 0]),
   midi.NoteOnEvent(tick=121, channel=2, data=[53, 75]),
   midi.NoteOnEvent(tick=0, channel=2, data=[57, 75]),
   midi.NoteOnEvent(tick=0, channel=2, data=[60, 75]),
   midi.NoteOffEvent(tick=119, channel=2, data=[53, 0]),
   midi.NoteOffEvent(tick=0, channel=2, data=[57, 0]),
   midi.NoteOffEvent(tick=0, channel=2, data=[60, 0]),
   midi.TimeSignatureEvent(tick=0, data=[3, 2, 18, 8]),
   midi.NoteOnEvent(tick=121, channel=1, data=[43, 80]),
   midi.NoteOffEvent(tick=239, channel=1, data=[43, 0]),
   midi.NoteOnEvent(tick=241, channel=2, data=[55, 75]),
   midi.NoteOnEvent(tick=0, channel=2, data=[59, 75]),
   midi.NoteOnEvent(tick=0, channel=2, data=[62, 75]),
   midi.NoteOffEvent(tick=239, channel=2, data=[55, 0]),
   midi.NoteOffEvent(tick=0, channel=2, data=[59, 0]),
   midi.NoteOffEvent(tick=0, channel=2, data=[62, 0]),
   midi.NoteOnEvent(tick=241, channel=2, data=[55, 75]),
   midi.NoteOnEvent(tick=0, channel=2, data=[59, 75]),
   midi.NoteOnEvent(tick=0, channel=2, data=[62, 75]),
   midi.NoteOffEvent(tick=239, channel=2, data=[55, 0]),
   midi.NoteOffEvent(tick=0, channel=2, data=[59, 0]),
   midi.NoteOffEvent(tick=0, channel=2, data=[62, 0]),
   midi.NoteOnEvent(tick=241, channel=1, data=[36, 80]),
   midi.NoteOffEvent(tick=239, channel=1, data=[36, 0]),
   midi.NoteOnEvent(tick=241, channel=2, data=[48, 75]),
   midi.NoteOnEvent(tick=0, channel=2, data=[52, 75]),
   midi.NoteOnEvent(tick=0, channel=2, data=[55, 75]),
   midi.NoteOffEvent(tick=239, channel=2, data=[48, 0]),
   midi.NoteOffEvent(tick=0, channel=2, data=[52, 0]),
   midi.NoteOffEvent(tick=0, channel=2, data=[55, 0]),
   midi.NoteOnEvent(tick=241, channel=2, data=[48, 75]),
   midi.NoteOnEvent(tick=0, channel=2, data=[52, 75]),
   midi.NoteOnEvent(tick=0, channel=2, data=[55, 75]),
   midi.NoteOffEvent(tick=239, channel=2, data=[48, 0]),
   midi.NoteOffEvent(tick=0, channel=2, data=[52, 0]),
   midi.NoteOffEvent(tick=0, channel=2, data=[55, 0]),
   midi.NoteOnEvent(tick=241, channel=1, data=[46, 80]),
   midi.NoteOffEvent(tick=239, channel=1, data=[46, 0]),
   midi.NoteOnEvent(tick=241, channel=2, data=[58, 75]),
   midi.NoteOnEvent(tick=0, channel=2, data=[62, 75]),
   midi.NoteOnEvent(tick=0, channel=2, data=[65, 75]),
   midi.NoteOffEvent(tick=239, channel=2, data=[58, 0]),
   midi.NoteOffEvent(tick=0, channel=2, data=[62, 0]),
   midi.NoteOffEvent(tick=0, channel=2, data=[65, 0]),
   midi.NoteOnEvent(tick=241, channel=2, data=[58, 75]),
   midi.NoteOnEvent(tick=0, channel=2, data=[62, 75]),
   midi.NoteOnEvent(tick=0, channel=2, data=[65, 75]),
   midi.NoteOffEvent(tick=239, channel=2, data=[58, 0]),
   midi.NoteOffEvent(tick=0, channel=2, data=[62, 0]),
   midi.NoteOffEvent(tick=0, channel=2, data=[65, 0]),
   midi.NoteOnEvent(tick=241, channel=1, data=[41, 80]),
   midi.NoteOffEvent(tick=239, channel=1, data=[41, 0]),
   midi.NoteOnEvent(tick=241, channel=2, data=[53, 75]),
   midi.NoteOnEvent(tick=0, channel=2, data=[57, 75]),
   midi.NoteOnEvent(tick=0, channel=2, data=[60, 75]),
   midi.NoteOffEvent(tick=239, channel=2, data=[53, 0]),
   midi.NoteOffEvent(tick=0, channel=2, data=[57, 0]),
   midi.NoteOffEvent(tick=0, channel=2, data=[60, 0]),
   midi.NoteOnEvent(tick=241, channel=2, data=[53, 75]),
   midi.NoteOnEvent(tick=0, channel=2, data=[57, 75]),
   midi.NoteOnEvent(tick=0, channel=2, data=[60, 75]),
   midi.NoteOffEvent(tick=239, channel=2, data=[53, 0]),
   midi.NoteOffEvent(tick=0, channel=2, data=[57, 0]),
   midi.NoteOffEvent(tick=0, channel=2, data=[60, 0]),
   midi.NoteOnEvent(tick=241, channel=1, data=[41, 80]),
   midi.NoteOffEvent(tick=239, channel=1, data=[41, 0]),
   midi.NoteOnEvent(tick=241, channel=2, data=[53, 75]),
   midi.NoteOnEvent(tick=0, channel=2, data=[57, 75]),
   midi.NoteOnEvent(tick=0, channel=2, data=[60, 75]),
   midi.NoteOffEvent(tick=239, channel=2, data=[53, 0]),
   midi.NoteOffEvent(tick=0, channel=2, data=[57, 0]),
   midi.NoteOffEvent(tick=0, channel=2, data=[60, 0]),
   midi.NoteOnEvent(tick=241, channel=2, data=[53, 75]),
   midi.NoteOnEvent(tick=0, channel=2, data=[57, 75]),
   midi.NoteOnEvent(tick=0, channel=2, data=[60, 75]),
   midi.NoteOffEvent(tick=239, channel=2, data=[53, 0]),
   midi.NoteOffEvent(tick=0, channel=2, data=[57, 0]),
   midi.NoteOffEvent(tick=0, channel=2, data=[60, 0]),
   midi.NoteOnEvent(tick=241, channel=1, data=[36, 80]),
   midi.NoteOffEvent(tick=239, channel=1, data=[36, 0]),
   midi.NoteOnEvent(tick=241, channel=2, data=[48, 75]),
   midi.NoteOnEvent(tick=0, channel=2, data=[52, 75]),
   midi.NoteOnEvent(tick=0, channel=2, data=[55, 75]),
   midi.NoteOffEvent(tick=239, channel=2, data=[48, 0]),
   midi.NoteOffEvent(tick=0, channel=2, data=[52, 0]),
   midi.NoteOffEvent(tick=0, channel=2, data=[55, 0]),
   midi.NoteOnEvent(tick=241, channel=2, data=[48, 75]),
   midi.NoteOnEvent(tick=0, channel=2, data=[52, 75]),
   midi.NoteOnEvent(tick=0, channel=2, data=[55, 75]),
   midi.NoteOffEvent(tick=239, channel=2, data=[48, 0]),
   midi.NoteOffEvent(tick=0, channel=2, data=[52, 0]),
   midi.NoteOffEvent(tick=0, channel=2, data=[55, 0]),
   midi.NoteOnEvent(tick=241, channel=1, data=[46, 80]),
   midi.NoteOffEvent(tick=239, channel=1, data=[46, 0]),
   midi.NoteOnEvent(tick=241, channel=2, data=[58, 75]),
   midi.NoteOnEvent(tick=0, channel=2, data=[62, 75]),
   midi.NoteOnEvent(tick=0, channel=2, data=[65, 75]),
   midi.NoteOffEvent(tick=239, channel=2, data=[58, 0]),
   midi.NoteOffEvent(tick=0, channel=2, data=[62, 0]),
   midi.NoteOffEvent(tick=0, channel=2, data=[65, 0]),
   midi.NoteOnEvent(tick=241, channel=2, data=[58, 75]),
   midi.NoteOnEvent(tick=0, channel=2, data=[62, 75]),
   midi.NoteOnEvent(tick=0, channel=2, data=[65, 75]),
   midi.NoteOffEvent(tick=239, channel=2, data=[58, 0]),
   midi.NoteOffEvent(tick=0, channel=2, data=[62, 0]),
   midi.NoteOffEvent(tick=0, channel=2, data=[65, 0]),
   midi.TimeSignatureEvent(tick=0, data=[2, 2, 24, 8]),
   midi.NoteOnEvent(tick=241, channel=1, data=[41, 80]),
   midi.NoteOffEvent(tick=119, channel=1, data=[41, 0]),
   midi.NoteOnEvent(tick=121, channel=2, data=[53, 75]),
   midi.NoteOnEvent(tick=0, channel=2, data=[57, 75]),
   midi.NoteOnEvent(tick=0, channel=2, data=[60, 75]),
   midi.NoteOffEvent(tick=119, channel=2, data=[53, 0]),
   midi.NoteOffEvent(tick=0, channel=2, data=[57, 0]),
   midi.NoteOffEvent(tick=0, channel=2, data=[60, 0]),
   midi.NoteOnEvent(tick=121, channel=1, data=[41, 80]),
   midi.NoteOffEvent(tick=119, channel=1, data=[41, 0]),
   midi.NoteOnEvent(tick=121, channel=2, data=[53, 75]),
   midi.NoteOnEvent(tick=0, channel=2, data=[57, 75]),
   midi.NoteOnEvent(tick=0, channel=2, data=[60, 75]),
   midi.NoteOffEvent(tick=119, channel=2, data=[53, 0]),
   midi.NoteOffEvent(tick=0, channel=2, data=[57, 0]),
   midi.NoteOffEvent(tick=0, channel=2, data=[60, 0]),
   midi.TimeSignatureEvent(tick=0, data=[3, 2, 18, 8]),
   midi.NoteOnEvent(tick=121, channel=1, data=[43, 80]),
   midi.NoteOffEvent(tick=239, channel=1, data=[43, 0]),
   midi.NoteOnEvent(tick=241, channel=2, data=[55, 75]),
   midi.NoteOnEvent(tick=0, channel=2, data=[59, 75]),
   midi.NoteOnEvent(tick=0, channel=2, data=[62, 75]),
   midi.NoteOffEvent(tick=239, channel=2, data=[55, 0]),
   midi.NoteOffEvent(tick=0, channel=2, data=[59, 0]),
   midi.NoteOffEvent(tick=0, channel=2, data=[62, 0]),
   midi.NoteOnEvent(tick=241, channel=2, data=[55, 75]),
   midi.NoteOnEvent(tick=0, channel=2, data=[59, 75]),
   midi.NoteOnEvent(tick=0, channel=2, data=[62, 75]),
   midi.NoteOffEvent(tick=239, channel=2, data=[55, 0]),
   midi.NoteOffEvent(tick=0, channel=2, data=[59, 0]),
   midi.NoteOffEvent(tick=0, channel=2, data=[62, 0]),
   midi.EndOfTrackEvent(tick=266, data=[])])])
